  0
SECTION
  2
HEADER
  9
$ACADVER
  1
AC1009
  9
$INSBASE
 10
0
 20
0
 30
0
  9
$EXTMIN
 10
0
 20
0
  9
$EXTMAX
 10
297
 20
210
  9
$LIMMIN
 10
0
 20
0
  9
$LIMMAX
 10
297
 20
210
  9
$LTSCALE
 40
1
  0
ENDSEC
  0
SECTION
  2
TABLES
  0
TABLE
  2
LTYPE
 70
     9
  0
LTYPE
  2
CONTINUOUS
 70
    64
  3
é¿ê¸
 72
    65
 73
     0
 40
0.0
  0
LTYPE
  2
DASHED1
 70
    64
  3
--  --  --  --  --  --  --  --  
 72
    65
 73
     2
 40
2.5
 49
1.25
 49
-1.25
  0
LTYPE
  2
DASHED2
 70
    64
  3
----    ----    ----    ----    
 72
    65
 73
     2
 40
5.0
 49
2.5
 49
-2.5
  0
LTYPE
  2
DASHED3
 70
    64
  3
------  ------  ------  ------  
 72
    65
 73
     2
 40
5.0
 49
3.75
 49
-1.25
  0
LTYPE
  2
CENTER1
 70
    64
  3
----- - ----- - ----- - ----- - 
 72
    65
 73
     4
 40
10.0
 49
6.25
 49
-1.25
 49
1.25
 49
-1.25
  0
LTYPE
  2
CENTER2
 70
    64
  3
----------  --  ----------  --  
 72
    65
 73
     4
 40
20.0
 49
12.5
 49
-2.5
 49
2.5
 49
-2.5
  0
LTYPE
  2
PHANTOM1
 70
    64
  3
--- - - --- - - --- - - --- - - 
 72
    65
 73
     6
 40
10.0
 49
3.25
 49
-1.25
 49
1.25
 49
-1.25
 49
1.25
 49
-1.25
  0
LTYPE
  2
PHANTOM2
 70
    64
  3
--------  -  -  --------  -  -  
 72
    65
 73
     6
 40
20.0
 49
10.0
 49
-2.5
 49
1.25
 49
-2.5
 49
1.25
 49
-2.5
  0
LTYPE
  2
DOT
 70
    64
  3
-   -   -   -   -   -   -   -   
 72
    65
 73
     2
 40
2.5
 49
0.625
 49
-1.875
  0
LTYPE
  2
DUMMY
 70
    64
  3
É_É~Å[
 72
    65
 73
     0
 40
0.0
  0
LTYPE
  2
RAND1
 70
    64
  3
----- - ----- - ----- - ----- - 
 72
    65
 73
     4
 40
10.0
 49
6.25
 49
-1.25
 49
1.25
 49
-1.25
  0
LTYPE
  2
RAND2
 70
    64
  3
----------  --  ----------  --  
 72
    65
 73
     4
 40
20.0
 49
12.5
 49
-2.5
 49
2.5
 49
-2.5
  0
LTYPE
  2
RAND3
 70
    64
  3
--- - - --- - - --- - - --- - - 
 72
    65
 73
     6
 40
10.0
 49
3.25
 49
-1.25
 49
1.25
 49
-1.25
 49
1.25
 49
-1.25
  0
LTYPE
  2
RAND4
 70
    64
  3
--------  -  -  --------  -  -  
 72
    65
 73
     6
 40
20.0
 49
10.0
 49
-2.5
 49
1.25
 49
-2.5
 49
1.25
 49
-2.5
  0
LTYPE
  2
RAND5
 70
    64
  3
----- - ----- - ----- - ----- - 
 72
    65
 73
     4
 40
10.0
 49
6.25
 49
-1.25
 49
1.25
 49
-1.25
  0
LTYPE
  2
LONG1
 70
    64
  3
----------  --  ----------  --  
 72
    65
 73
     4
 40
20.0
 49
12.5
 49
-2.5
 49
2.5
 49
-2.5
  0
LTYPE
  2
LONG2
 70
    64
  3
--- - - --- - - --- - - --- - - 
 72
    65
 73
     6
 40
10.0
 49
3.25
 49
-1.25
 49
1.25
 49
-1.25
 49
1.25
 49
-1.25
  0
LTYPE
  2
LONG3
 70
    64
  3
--------  -  -  --------  -  -  
 72
    65
 73
     6
 40
20.0
 49
10.0
 49
-2.5
 49
1.25
 49
-2.5
 49
1.25
 49
-2.5
  0
LTYPE
  2
LONG4
 70
    64
  3
----- - ----- - ----- - ----- - 
 72
    65
 73
     4
 40
10.0
 49
6.25
 49
-1.25
 49
1.25
 49
-1.25
  0
LTYPE
  2
LONG5
 70
    64
  3
----------  --  ----------  --  
 72
    65
 73
     4
 40
20.0
 49
12.5
 49
-2.5
 49
2.5
 49
-2.5
  0
ENDTAB
  0
TABLE
  2
STYLE
  5
3
100
AcDbSymbolTable
 70
     1
  0
STYLE
  5
10
100
AcDbSymbolTableRecord
100
AcDbTextStyleTableRecord
  2
STANDARD
 70
     0
 40
0.0
 41
1.0
 50
0.0
 71
     0
 42
0.2
  3
txt
  4
bigfont.shx
  0
ENDTAB
  0
TABLE
  2
LAYER
 70
    2
  0
LAYER
  2
_0-0_
 70
   64
 62
    7
  6
CONTINUOUS
  0
LAYER
  2
ADD_LINE
 70
   64
 62
    7
  6
CONTINUOUS
  0
ENDTAB
  0
ENDSEC
  0
SECTION
  2
BLOCKS
  0
ENDSEC
  0
SECTION
  2
ENTITIES
  0
ARC
  8
_0-0_
  6
CONTINUOUS
 62
    4
 10
150.930049998009
 20
118.903541010009
 40
1.58372905954892
 50
163.749559819637
 51
173.987403568897
  0
ARC
  8
_0-0_
  6
CONTINUOUS
 62
    2
 10
153.630908772959
 20
118.15773270791
 40
4.38556711228186
 50
151.917130326265
 51
164.269369356532
  0
ARC
  8
_0-0_
  6
CONTINUOUS
 62
    4
 10
156.560050896045
 20
116.610756713957
 40
7.69810329827194
 50
137.317320188347
 51
152.021637412809
  0
ARC
  8
_0-0_
  6
CONTINUOUS
 62
    4
 10
145.064881540248
 20
118.689907113537
 40
1.58372905954892
 50
187.749559819637
 51
197.987403568897
  0
ARC
  8
_0-0_
  6
CONTINUOUS
 62
    2
 10
147.835586371011
 20
119.107115558428
 40
4.38556711228186
 50
175.917130326265
 51
188.269369356532
  0
ARC
  8
_0-0_
  6
CONTINUOUS
 62
    4
 10
151.140702675045
 20
118.885272100306
 40
7.69810329827194
 50
161.317320188347
 51
176.021637412809
  0
ARC
  8
_0-0_
  6
CONTINUOUS
 62
    4
 10
139.79367627125
 20
116.109163908234
 40
1.58372905954892
 50
211.749559819637
 51
221.987403568897
  0
ARC
  8
_0-0_
  6
CONTINUOUS
 62
    2
 10
142.155147121524
 20
117.617249969773
 40
4.38556711228186
 50
199.917130326265
 51
212.269369356532
  0
ARC
  8
_0-0_
  6
CONTINUOUS
 62
    4
 10
145.2647529715
 20
118.758897796775
 40
7.69810329827194
 50
185.317320188347
 51
200.021637412809
  0
ARC
  8
_0-0_
  6
CONTINUOUS
 62
    4
 10
136.02787346942
 20
111.607545339611
 40
1.58372905954892
 50
235.749559819637
 51
245.987403568897
  0
ARC
  8
_0-0_
  6
CONTINUOUS
 62
    2
 10
137.571790575904
 20
113.945747237226
 40
4.38556711228186
 50
223.917130326265
 51
236.269369356532
  0
ARC
  8
_0-0_
  6
CONTINUOUS
 62
    4
 10
139.948206870478
 20
116.25348506852
 40
7.69810329827194
 50
209.317320188347
 51
224.021637412809
  0
ARC
  8
_0-0_
  6
CONTINUOUS
 62
    4
 10
134.41861465044
 20
105.963422154105
 40
1.58372905954892
 50
259.749559819637
 51
269.987403568897
  0
ARC
  8
_0-0_
  6
CONTINUOUS
 62
    2
 10
134.878020719376
 20
108.7274435378
 40
4.38556711228186
 50
247.917130326265
 51
260.269369356532
  0
ARC
  8
_0-0_
  6
CONTINUOUS
 62
    4
 10
136.110343492153
 20
111.802242537215
 40
7.69810329827194
 50
233.317320188347
 51
248.021637412809
  0
ARC
  8
_0-0_
  6
CONTINUOUS
 62
    4
 10
135.244155283769
 20
100.152714525738
 40
1.58372905954892
 50
283.749559819637
 51
293.987403568897
  0
ARC
  8
_0-0_
  6
CONTINUOUS
 62
    2
 10
134.539614832265
 20
102.864630987927
 40
4.38556711228186
 50
271.917130326265
 51
284.269369356532
  0
ARC
  8
_0-0_
  6
CONTINUOUS
 62
    4
 10
134.41476428053
 20
106.174830474792
 40
7.69810329827194
 50
257.317320188347
 51
272.021637412809
  0
ARC
  8
_0-0_
  6
CONTINUOUS
 62
    4
 10
138.361751894103
 20
95.1801465920772
 40
1.58372905954892
 50
307.749559819637
 51
317.987403568897
  0
ARC
  8
_0-0_
  6
CONTINUOUS
 62
    2
 10
136.615086366773
 20
97.3710431394606
 40
4.38556711228186
 50
295.917130326265
 51
308.269369356532
  0
ARC
  8
_0-0_
  6
CONTINUOUS
 62
    4
 10
135.154650285153
 20
100.344279550278
 40
7.69810329827194
 50
281.317320188347
 51
296.021637412809
  0
ARC
  8
_0-0_
  6
CONTINUOUS
 62
    4
 10
143.232343705039
 20
91.9055205232139
 40
1.58372905954892
 50
331.749559819637
 51
341.987403568897
  0
ARC
  8
_0-0_
  6
CONTINUOUS
 62
    2
 10
140.745567439517
 20
93.1965712390782
 40
4.38556711228186
 50
319.917130326265
 51
332.269369356532
  0
ARC
  8
_0-0_
  6
CONTINUOUS
 62
    4
 10
138.202068494169
 20
95.3187449874129
 40
7.69810329827194
 50
305.317320188347
 51
320.021637412809
  0
ARC
  8
_0-0_
  6
CONTINUOUS
 62
    4
 10
149.013761144529
 20
90.8950489154983
 40
1.58372905954892
 50
355.749559819637
 51
365.987403568897
  0
ARC
  8
_0-0_
  6
CONTINUOUS
 62
    2
 10
146.216860348776
 20
91.0630194022432
 40
4.38556711228186
 50
343.917130326265
 51
356.269369356532
  0
ARC
  8
_0-0_
  6
CONTINUOUS
 62
    4
 10
143.030092614314
 20
91.9671873676651
 40
7.69810329827194
 50
329.317320188347
 51
344.021637412809
  0
ARC
  8
_0-0_
  6
CONTINUOUS
 62
    4
 10
154.706344614756
 20
92.323451489751
 40
1.58372905954892
 50
379.749559819637
 51
389.987403568897
  0
ARC
  8
_0-0_
  6
CONTINUOUS
 62
    2
 10
152.082928845405
 20
91.3392981242542
 40
4.38556711228186
 50
367.917130326265
 51
380.269369356532
  0
ARC
  8
_0-0_
  6
CONTINUOUS
 62
    4
 10
148.803913413993
 20
90.8691214514339
 40
7.69810329827194
 50
353.317320188347
 51
368.021637412809
  0
ARC
  8
_0-0_
  6
CONTINUOUS
 62
    4
 10
159.325794718222
 20
95.9437444642535
 40
1.58372905954892
 50
403.749559819637
 51
413.987403568897
  0
ARC
  8
_0-0_
  6
CONTINUOUS
 62
    2
 10
157.329476394776
 20
93.9776363041621
 40
4.38556711228186
 50
391.917130326265
 51
404.269369356532
  0
ARC
  8
_0-0_
  6
CONTINUOUS
 62
    4
 10
154.525184823425
 20
92.2144128112512
 40
7.69810329827194
 50
377.317320188347
 51
392.021637412809
  0
ARC
  8
_0-0_
  6
CONTINUOUS
 62
    4
 10
162.073366565649
 20
101.129946294385
 40
1.58372905954892
 50
427.749559819637
 51
437.987403568897
  0
ARC
  8
_0-0_
  6
CONTINUOUS
 62
    2
 10
161.049327262216
 20
98.521841302111
 40
4.38556711228186
 50
415.917130326265
 51
428.269369356532
  0
ARC
  8
_0-0_
  6
CONTINUOUS
 62
    4
 10
159.204647039802
 20
95.7704483494163
 40
7.69810329827194
 50
401.317320188347
 51
416.021637412809
  0
ARC
  8
_0-0_
  6
CONTINUOUS
 62
    4
 10
162.473980023711
 20
106.985315568552
 40
1.58372905954892
 50
451.749559819637
 51
461.987403568897
  0
ARC
  8
_0-0_
  6
CONTINUOUS
 62
    2
 10
162.59928543896
 20
104.186178791149
 40
4.38556711228186
 50
439.917130326265
 51
452.269369356532
  0
ARC
  8
_0-0_
  6
CONTINUOUS
 62
    4
 10
162.033178534331
 20
100.922357215812
 40
7.69810329827194
 50
425.317320188347
 51
440.021637412809
  0
ARC
  8
_0-0_
  6
CONTINUOUS
 62
    4
 10
160.458365386051
 20
112.49740574489
 40
1.58372905954892
 50
475.749559819637
 51
485.987403568897
  0
ARC
  8
_0-0_
  6
CONTINUOUS
 62
    2
 10
161.71134907532
 20
109.991233360531
 40
4.38556711228186
 50
463.917130326265
 51
476.269369356532
  0
ARC
  8
_0-0_
  6
CONTINUOUS
 62
    4
 10
162.521700515208
 20
106.779327563815
 40
7.69810329827194
 50
449.317320188347
 51
464.021637412809
  0
ARC
  8
_0-0_
  6
CONTINUOUS
 62
    4
 10
156.375040734803
 20
116.713126356144
 40
1.58372905954892
 50
499.749559819637
 51
509.987403568897
  0
ARC
  8
_0-0_
  6
CONTINUOUS
 62
    2
 10
158.539050435219
 20
114.933258337946
 40
4.38556711228186
 50
487.917130326265
 51
500.269369356532
  0
ARC
  8
_0-0_
  6
CONTINUOUS
 62
    4
 10
160.585743093855
 20
112.328636011351
 40
7.69810329827194
 50
473.317320188347
 51
488.021637412809
  0
ARC
  8
_0-0_
  6
CONTINUOUS
 62
    4
 10
146.069950001991
 20
118.903541010009
 40
1.58372905954892
 50
366.012596431103
 51
376.250440180363
  0
ARC
  8
_0-0_
  6
CONTINUOUS
 62
    2
 10
143.369091227041
 20
118.15773270791
 40
4.38556711228186
 50
375.730630643468
 51
388.082869673735
  0
ARC
  8
_0-0_
  6
CONTINUOUS
 62
    4
 10
140.439949103955
 20
116.610756713957
 40
7.69810329827194
 50
387.978362587191
 51
402.682679811653
  0
ARC
  8
_0-0_
  6
CONTINUOUS
 62
    4
 10
140.624959265197
 20
116.713126356144
 40
1.58372905954892
 50
390.012596431103
 51
400.250440180363
  0
ARC
  8
_0-0_
  6
CONTINUOUS
 62
    2
 10
138.460949564781
 20
114.933258337946
 40
4.38556711228186
 50
399.730630643468
 51
412.082869673735
  0
ARC
  8
_0-0_
  6
CONTINUOUS
 62
    4
 10
136.414256906145
 20
112.328636011351
 40
7.69810329827194
 50
411.978362587191
 51
426.682679811653
  0
ARC
  8
_0-0_
  6
CONTINUOUS
 62
    4
 10
136.541634613949
 20
112.49740574489
 40
1.58372905954892
 50
414.012596431103
 51
424.250440180363
  0
ARC
  8
_0-0_
  6
CONTINUOUS
 62
    2
 10
135.28865092468
 20
109.991233360531
 40
4.38556711228186
 50
423.730630643468
 51
436.082869673735
  0
ARC
  8
_0-0_
  6
CONTINUOUS
 62
    4
 10
134.478299484792
 20
106.779327563815
 40
7.69810329827194
 50
435.978362587191
 51
450.682679811653
  0
ARC
  8
_0-0_
  6
CONTINUOUS
 62
    4
 10
134.526019976289
 20
106.985315568552
 40
1.58372905954892
 50
438.012596431103
 51
448.250440180363
  0
ARC
  8
_0-0_
  6
CONTINUOUS
 62
    2
 10
134.40071456104
 20
104.186178791149
 40
4.38556711228186
 50
447.730630643468
 51
460.082869673735
  0
ARC
  8
_0-0_
  6
CONTINUOUS
 62
    4
 10
134.966821465669
 20
100.922357215812
 40
7.69810329827194
 50
459.978362587191
 51
474.682679811653
  0
ARC
  8
_0-0_
  6
CONTINUOUS
 62
    4
 10
134.926633434351
 20
101.129946294385
 40
1.58372905954892
 50
462.012596431103
 51
472.250440180363
  0
ARC
  8
_0-0_
  6
CONTINUOUS
 62
    2
 10
135.950672737784
 20
98.521841302111
 40
4.38556711228186
 50
471.730630643468
 51
484.082869673735
  0
ARC
  8
_0-0_
  6
CONTINUOUS
 62
    4
 10
137.795352960198
 20
95.7704483494163
 40
7.69810329827194
 50
483.978362587191
 51
498.682679811653
  0
ARC
  8
_0-0_
  6
CONTINUOUS
 62
    4
 10
137.674205281778
 20
95.9437444642535
 40
1.58372905954892
 50
486.012596431103
 51
496.250440180363
  0
ARC
  8
_0-0_
  6
CONTINUOUS
 62
    2
 10
139.670523605224
 20
93.9776363041621
 40
4.38556711228186
 50
495.730630643468
 51
508.082869673735
  0
ARC
  8
_0-0_
  6
CONTINUOUS
 62
    4
 10
142.474815176575
 20
92.2144128112512
 40
7.69810329827194
 50
507.978362587191
 51
522.682679811653
  0
ARC
  8
_0-0_
  6
CONTINUOUS
 62
    4
 10
142.293655385244
 20
92.323451489751
 40
1.58372905954892
 50
510.012596431103
 51
520.250440180363
  0
ARC
  8
_0-0_
  6
CONTINUOUS
 62
    2
 10
144.917071154595
 20
91.3392981242542
 40
4.38556711228186
 50
519.730630643468
 51
532.082869673735
  0
ARC
  8
_0-0_
  6
CONTINUOUS
 62
    4
 10
148.196086586007
 20
90.8691214514339
 40
7.69810329827194
 50
531.978362587191
 51
546.682679811653
  0
ARC
  8
_0-0_
  6
CONTINUOUS
 62
    4
 10
147.986238855471
 20
90.8950489154983
 40
1.58372905954892
 50
534.012596431103
 51
544.250440180363
  0
ARC
  8
_0-0_
  6
CONTINUOUS
 62
    2
 10
150.783139651224
 20
91.0630194022432
 40
4.38556711228186
 50
543.730630643468
 51
556.082869673735
  0
ARC
  8
_0-0_
  6
CONTINUOUS
 62
    4
 10
153.969907385686
 20
91.9671873676651
 40
7.69810329827194
 50
555.978362587191
 51
570.682679811653
  0
ARC
  8
_0-0_
  6
CONTINUOUS
 62
    4
 10
153.767656294961
 20
91.9055205232139
 40
1.58372905954892
 50
558.012596431103
 51
568.250440180363
  0
ARC
  8
_0-0_
  6
CONTINUOUS
 62
    2
 10
156.254432560483
 20
93.1965712390782
 40
4.38556711228186
 50
567.730630643468
 51
580.082869673735
  0
ARC
  8
_0-0_
  6
CONTINUOUS
 62
    4
 10
158.797931505831
 20
95.3187449874129
 40
7.69810329827194
 50
579.978362587191
 51
594.682679811653
  0
ARC
  8
_0-0_
  6
CONTINUOUS
 62
    4
 10
158.638248105897
 20
95.1801465920772
 40
1.58372905954892
 50
582.012596431103
 51
592.250440180363
  0
ARC
  8
_0-0_
  6
CONTINUOUS
 62
    2
 10
160.384913633227
 20
97.3710431394606
 40
4.38556711228186
 50
591.730630643468
 51
604.082869673735
  0
ARC
  8
_0-0_
  6
CONTINUOUS
 62
    4
 10
161.845349714847
 20
100.344279550278
 40
7.69810329827194
 50
603.978362587191
 51
618.682679811653
  0
ARC
  8
_0-0_
  6
CONTINUOUS
 62
    4
 10
161.755844716231
 20
100.152714525738
 40
1.58372905954892
 50
606.012596431103
 51
616.250440180363
  0
ARC
  8
_0-0_
  6
CONTINUOUS
 62
    2
 10
162.460385167735
 20
102.864630987927
 40
4.38556711228186
 50
615.730630643468
 51
628.082869673735
  0
ARC
  8
_0-0_
  6
CONTINUOUS
 62
    4
 10
162.58523571947
 20
106.174830474792
 40
7.69810329827194
 50
627.978362587191
 51
642.682679811653
  0
ARC
  8
_0-0_
  6
CONTINUOUS
 62
    4
 10
162.58138534956
 20
105.963422154105
 40
1.58372905954892
 50
630.012596431103
 51
640.250440180363
  0
ARC
  8
_0-0_
  6
CONTINUOUS
 62
    2
 10
162.121979280624
 20
108.7274435378
 40
4.38556711228186
 50
639.730630643468
 51
652.082869673735
  0
ARC
  8
_0-0_
  6
CONTINUOUS
 62
    4
 10
160.889656507847
 20
111.802242537215
 40
7.69810329827194
 50
651.978362587191
 51
666.682679811653
  0
ARC
  8
_0-0_
  6
CONTINUOUS
 62
    4
 10
160.97212653058
 20
111.607545339611
 40
1.58372905954892
 50
654.012596431103
 51
664.250440180363
  0
ARC
  8
_0-0_
  6
CONTINUOUS
 62
    2
 10
159.428209424096
 20
113.945747237226
 40
4.38556711228186
 50
663.730630643468
 51
676.082869673735
  0
ARC
  8
_0-0_
  6
CONTINUOUS
 62
    4
 10
157.051793129522
 20
116.25348506852
 40
7.69810329827194
 50
675.978362587191
 51
690.682679811653
  0
ARC
  8
_0-0_
  6
CONTINUOUS
 62
    4
 10
157.20632372875
 20
116.109163908234
 40
1.58372905954892
 50
678.012596431103
 51
688.250440180363
  0
ARC
  8
_0-0_
  6
CONTINUOUS
 62
    2
 10
154.844852878476
 20
117.617249969773
 40
4.38556711228186
 50
687.730630643468
 51
700.082869673735
  0
ARC
  8
_0-0_
  6
CONTINUOUS
 62
    4
 10
151.7352470285
 20
118.758897796775
 40
7.69810329827194
 50
699.978362587191
 51
714.682679811653
  0
ARC
  8
_0-0_
  6
CONTINUOUS
 62
    4
 10
151.935118459752
 20
118.689907113537
 40
1.58372905954892
 50
702.012596431103
 51
712.250440180363
  0
ARC
  8
_0-0_
  6
CONTINUOUS
 62
    2
 10
149.164413628989
 20
119.107115558428
 40
4.38556711228186
 50
711.730630643468
 51
724.082869673735
  0
ARC
  8
_0-0_
  6
CONTINUOUS
 62
    4
 10
145.859297324955
 20
118.885272100306
 40
7.69810329827194
 50
723.978362587191
 51
738.682679811653
  0
ARC
  8
_0-0_
  6
CONTINUOUS
 62
    7
 10
148.5
 20
105
 40
13.7
 50
86.5222749551885
 51
93.4777250448115
  0
ARC
  8
_0-0_
  6
CONTINUOUS
 62
    7
 10
148.5
 20
105
 40
13.7
 50
110.522274955189
 51
117.477725044811
  0
ARC
  8
_0-0_
  6
CONTINUOUS
 62
    7
 10
148.5
 20
105
 40
13.7
 50
134.522274955189
 51
141.477725044811
  0
ARC
  8
_0-0_
  6
CONTINUOUS
 62
    7
 10
148.5
 20
105
 40
13.7
 50
158.522274955189
 51
165.477725044811
  0
ARC
  8
_0-0_
  6
CONTINUOUS
 62
    7
 10
148.5
 20
105
 40
13.7
 50
182.522274955189
 51
189.477725044811
  0
ARC
  8
_0-0_
  6
CONTINUOUS
 62
    7
 10
148.5
 20
105
 40
13.7
 50
206.522274955189
 51
213.477725044811
  0
ARC
  8
_0-0_
  6
CONTINUOUS
 62
    7
 10
148.5
 20
105
 40
13.7
 50
230.522274955189
 51
237.477725044811
  0
ARC
  8
_0-0_
  6
CONTINUOUS
 62
    7
 10
148.5
 20
105
 40
13.7
 50
254.522274955189
 51
261.477725044811
  0
ARC
  8
_0-0_
  6
CONTINUOUS
 62
    7
 10
148.5
 20
105
 40
13.7
 50
278.522274955189
 51
285.477725044811
  0
ARC
  8
_0-0_
  6
CONTINUOUS
 62
    7
 10
148.5
 20
105
 40
13.7
 50
302.522274955189
 51
309.477725044811
  0
ARC
  8
_0-0_
  6
CONTINUOUS
 62
    7
 10
148.5
 20
105
 40
13.7
 50
326.522274955189
 51
333.477725044811
  0
ARC
  8
_0-0_
  6
CONTINUOUS
 62
    7
 10
148.5
 20
105
 40
13.7
 50
350.522274955189
 51
357.477725044811
  0
ARC
  8
_0-0_
  6
CONTINUOUS
 62
    7
 10
148.5
 20
105
 40
13.7
 50
374.522274955189
 51
381.477725044811
  0
ARC
  8
_0-0_
  6
CONTINUOUS
 62
    7
 10
148.5
 20
105
 40
13.7
 50
398.522274955189
 51
405.477725044811
  0
ARC
  8
_0-0_
  6
CONTINUOUS
 62
    7
 10
148.5
 20
105
 40
13.7
 50
422.522274955189
 51
429.477725044811
  0
ARC
  8
_0-0_
  6
CONTINUOUS
 62
    7
 10
148.5
 20
105
 40
17
 50
98.1194172557298
 51
105.88058274427
  0
ARC
  8
_0-0_
  6
CONTINUOUS
 62
    7
 10
148.5
 20
105
 40
17
 50
122.11941725573
 51
129.88058274427
  0
ARC
  8
_0-0_
  6
CONTINUOUS
 62
    7
 10
148.5
 20
105
 40
17
 50
146.11941725573
 51
153.88058274427
  0
ARC
  8
_0-0_
  6
CONTINUOUS
 62
    7
 10
148.5
 20
105
 40
17
 50
170.11941725573
 51
177.88058274427
  0
ARC
  8
_0-0_
  6
CONTINUOUS
 62
    7
 10
148.5
 20
105
 40
17
 50
194.11941725573
 51
201.88058274427
  0
ARC
  8
_0-0_
  6
CONTINUOUS
 62
    7
 10
148.5
 20
105
 40
17
 50
218.11941725573
 51
225.88058274427
  0
ARC
  8
_0-0_
  6
CONTINUOUS
 62
    7
 10
148.5
 20
105
 40
17
 50
242.11941725573
 51
249.88058274427
  0
ARC
  8
_0-0_
  6
CONTINUOUS
 62
    7
 10
148.5
 20
105
 40
17
 50
266.11941725573
 51
273.88058274427
  0
ARC
  8
_0-0_
  6
CONTINUOUS
 62
    7
 10
148.5
 20
105
 40
17
 50
290.11941725573
 51
297.88058274427
  0
ARC
  8
_0-0_
  6
CONTINUOUS
 62
    7
 10
148.5
 20
105
 40
17
 50
314.11941725573
 51
321.88058274427
  0
ARC
  8
_0-0_
  6
CONTINUOUS
 62
    7
 10
148.5
 20
105
 40
17
 50
338.11941725573
 51
345.88058274427
  0
ARC
  8
_0-0_
  6
CONTINUOUS
 62
    7
 10
148.5
 20
105
 40
17
 50
362.11941725573
 51
369.88058274427
  0
ARC
  8
_0-0_
  6
CONTINUOUS
 62
    7
 10
148.5
 20
105
 40
17
 50
386.11941725573
 51
393.88058274427
  0
ARC
  8
_0-0_
  6
CONTINUOUS
 62
    7
 10
148.5
 20
105
 40
17
 50
410.11941725573
 51
417.88058274427
  0
ARC
  8
_0-0_
  6
CONTINUOUS
 62
    7
 10
148.5
 20
105
 40
17
 50
434.11941725573
 51
441.88058274427
  0
LINE
  8
_0-0_
  6
CONTINUOUS
 62
    7
 10
149.331048696001
 20
118.674770859684
 11
149.355033204904
 21
119.069432045019
  0
LINE
  8
_0-0_
  6
CONTINUOUS
 62
    7
 10
143.697170367013
 20
117.830542760012
 11
143.5585581405
 21
118.200839071819
  0
LINE
  8
_0-0_
  6
CONTINUOUS
 62
    7
 10
138.893744913905
 20
114.767797255312
 11
138.616503265193
 21
115.049701097244
  0
LINE
  8
_0-0_
  6
CONTINUOUS
 62
    7
 10
135.751328235271
 20
110.016110867516
 11
135.383394764083
 21
110.160878504287
  0
LINE
  8
_0-0_
  6
CONTINUOUS
 62
    7
 10
134.813272722806
 20
104.39709334079
 11
134.418266468882
 21
104.37969313283
  0
LINE
  8
_0-0_
  6
CONTINUOUS
 62
    7
 10
136.241776696582
 20
98.8823238526764
 11
135.887997829743
 21
98.7057644540168
  0
LINE
  8
_0-0_
  6
CONTINUOUS
 62
    7
 10
139.789838841981
 20
94.4253561477781
 11
139.538458942285
 21
94.1201662824394
  0
LINE
  8
_0-0_
  6
CONTINUOUS
 62
    7
 10
144.843966980931
 20
91.7968404325525
 11
144.73845191675
 21
91.4157902008147
  0
LINE
  8
_0-0_
  6
CONTINUOUS
 62
    7
 10
150.530256442896
 20
91.4512709534777
 11
150.588850727401
 21
91.0602474021408
  0
LINE
  8
_0-0_
  6
CONTINUOUS
 62
    7
 10
155.865496121584
 20
93.4483998128858
 11
156.078068270671
 21
93.1150144663135
  0
LINE
  8
_0-0_
  6
CONTINUOUS
 62
    7
 10
159.927174607417
 20
97.4429052876391
 11
160.256968965353
 21
97.2248035009646
  0
LINE
  8
_0-0_
  6
CONTINUOUS
 62
    7
 10
162.012990791007
 20
102.74410109221
 11
162.402982917216
 21
102.678994645742
  0
LINE
  8
_0-0_
  6
CONTINUOUS
 62
    7
 10
161.762288105163
 20
108.435362312136
 11
162.145044818057
 21
108.534508701941
  0
LINE
  8
_0-0_
  6
CONTINUOUS
 62
    7
 10
159.218415321832
 20
113.532618179006
 11
159.527754508516
 21
113.778874093572
  0
LINE
  8
_0-0_
  6
CONTINUOUS
 62
    7
 10
154.82123115561
 20
117.154506846324
 11
155.003665260448
 21
117.505292400857
  0
LINE
  8
_0-0_
  6
CONTINUOUS
 62
    7
 10
147.668951303999
 20
118.674770859684
 11
147.644966795096
 21
119.069432045019
  0
LINE
  8
_0-0_
  6
CONTINUOUS
 62
    7
 10
142.17876884439
 20
117.154506846324
 11
141.996334739552
 21
117.505292400857
  0
LINE
  8
_0-0_
  6
CONTINUOUS
 62
    7
 10
137.781584678168
 20
113.532618179006
 11
137.472245491484
 21
113.778874093572
  0
LINE
  8
_0-0_
  6
CONTINUOUS
 62
    7
 10
135.237711894837
 20
108.435362312136
 11
134.854955181943
 21
108.534508701941
  0
LINE
  8
_0-0_
  6
CONTINUOUS
 62
    7
 10
134.987009208993
 20
102.74410109221
 11
134.597017082784
 21
102.678994645742
  0
LINE
  8
_0-0_
  6
CONTINUOUS
 62
    7
 10
137.072825392583
 20
97.4429052876391
 11
136.743031034647
 21
97.2248035009646
  0
LINE
  8
_0-0_
  6
CONTINUOUS
 62
    7
 10
141.134503878416
 20
93.4483998128858
 11
140.921931729329
 21
93.1150144663135
  0
LINE
  8
_0-0_
  6
CONTINUOUS
 62
    7
 10
146.469743557104
 20
91.4512709534777
 11
146.411149272599
 21
91.0602474021408
  0
LINE
  8
_0-0_
  6
CONTINUOUS
 62
    7
 10
152.156033019069
 20
91.7968404325525
 11
152.26154808325
 21
91.4157902008147
  0
LINE
  8
_0-0_
  6
CONTINUOUS
 62
    7
 10
157.210161158019
 20
94.4253561477781
 11
157.461541057715
 21
94.1201662824394
  0
LINE
  8
_0-0_
  6
CONTINUOUS
 62
    7
 10
160.758223303418
 20
98.8823238526764
 11
161.112002170257
 21
98.7057644540168
  0
LINE
  8
_0-0_
  6
CONTINUOUS
 62
    7
 10
162.186727277194
 20
104.39709334079
 11
162.581733531118
 21
104.37969313283
  0
LINE
  8
_0-0_
  6
CONTINUOUS
 62
    7
 10
161.248671764729
 20
110.016110867516
 11
161.616605235917
 21
110.160878504287
  0
LINE
  8
_0-0_
  6
CONTINUOUS
 62
    7
 10
158.106255086095
 20
114.767797255312
 11
158.383496734807
 21
115.049701097244
  0
LINE
  8
_0-0_
  6
CONTINUOUS
 62
    7
 10
153.302829632987
 20
117.830542760012
 11
153.4414418595
 21
118.200839071819
  0
LINE
  8
_0-0_
  6
CENTER2
 62
    7
 10
129.5
 20
105
 11
167.5
 21
105
  0
LINE
  8
_0-0_
  6
CENTER2
 62
    7
 10
148.5
 20
86
 11
148.5
 21
124
  0
LINE
  8
_0-0_
  6
CONTINUOUS
 62
    7
 10
185.5
 20
122
 11
255.5
 21
122
  0
LINE
  8
_0-0_
  6
CONTINUOUS
 62
    7
 10
185.5
 20
114
 11
255.5
 21
114
  0
LINE
  8
_0-0_
  6
CONTINUOUS
 62
    7
 10
185.5
 20
106
 11
255.5
 21
106
  0
LINE
  8
_0-0_
  6
CONTINUOUS
 62
    7
 10
185.5
 20
98
 11
255.5
 21
98
  0
LINE
  8
_0-0_
  6
CONTINUOUS
 62
    7
 10
185.5
 20
90
 11
255.5
 21
90
  0
LINE
  8
_0-0_
  6
CONTINUOUS
 62
    7
 10
185.5
 20
82
 11
255.5
 21
82
  0
LINE
  8
_0-0_
  6
CONTINUOUS
 62
    7
 10
185.5
 20
74
 11
255.5
 21
74
  0
LINE
  8
_0-0_
  6
CONTINUOUS
 62
    7
 10
185.5
 20
66
 11
255.5
 21
66
  0
LINE
  8
_0-0_
  6
CONTINUOUS
 62
    7
 10
185.5
 20
58
 11
255.5
 21
58
  0
LINE
  8
_0-0_
  6
CONTINUOUS
 62
    7
 10
185.5
 20
50
 11
255.5
 21
50
  0
LINE
  8
_0-0_
  6
CONTINUOUS
 62
    7
 10
185.5
 20
42
 11
255.5
 21
42
  0
LINE
  8
_0-0_
  6
CONTINUOUS
 62
    7
 10
185.5
 20
34
 11
255.5
 21
34
  0
LINE
  8
_0-0_
  6
CONTINUOUS
 62
    7
 10
185.5
 20
26
 11
255.5
 21
26
  0
LINE
  8
_0-0_
  6
CONTINUOUS
 62
    7
 10
185.5
 20
122
 11
185.5
 21
26
  0
LINE
  8
_0-0_
  6
CONTINUOUS
 62
    7
 10
255.5
 20
122
 11
255.5
 21
26
  0
LINE
  8
_0-0_
  6
CONTINUOUS
 62
    7
 10
220.5
 20
114
 11
220.5
 21
26
  0
TEXT
  8
_0-0_
 62
    7
 10
191.5
 20
116
 40
4
 41
1
 50
0
  1
ÉCÉìÉ{ÉäÉÖÅ[ÉgÉXÉvÉâÉCÉì
  0
TEXT
  8
_0-0_
 62
    7
 10
194
 20
108
 40
4
 41
1
 50
0
  1
èî    å≥
  0
TEXT
  8
_0-0_
 62
    7
 10
194
 20
100
 40
4
 41
1
 50
0
  1
éïÅ@Å@êî
  0
TEXT
  8
_0-0_
 62
    7
 10
191.5
 20
92
 40
4
 41
1
 50
0
  1
ÉÇÉWÉÖÅ[Éã
  0
TEXT
  8
_0-0_
 62
    7
 10
194
 20
84
 40
4
 41
1
 50
0
  1
à≥ óÕ äp
  0
TEXT
  8
_0-0_
 62
    7
 10
189
 20
76
 40
4
 41
1
 50
0
  1
ÉsÉbÉ`â~íºåa
  0
TEXT
  8
_0-0_
 62
    7
 10
191.5
 20
68
 40
4
 41
1
 50
0
  1
äÓëbâ~íºåa
  0
TEXT
  8
_0-0_
 62
    7
 10
191.5
 20
60
 40
4
 41
1
 50
0
  1
éïêÊâ~íºåa
  0
TEXT
  8
_0-0_
 62
    7
 10
191.5
 20
52
 40
4
 41
1
 50
0
  1
éïíÍâ~íºåa
  0
TEXT
  8
_0-0_
 62
    7
 10
194
 20
44
 40
4
 41
1
 50
0
  1
â~å éïå˙
  0
TEXT
  8
_0-0_
 62
    7
 10
194
 20
36
 40
4
 41
1
 50
0
  1
Çn.Ça.Çc
  0
TEXT
  8
_0-0_
 62
    7
 10
191.5
 20
28
 40
4
 41
1
 50
0
  1
égópÉsÉìåa
  0
TEXT
  8
_0-0_
 62
    7
 10
221.5
 20
108
 40
4
 41
1
 50
0
  1
ÉGÉLÉXÉ^Å[ÉiÉã
  0
TEXT
  8
_0-0_
 62
    7
 10
236.5
 20
100
 40
4
 41
1
 50
0
  1
15
  0
TEXT
  8
_0-0_
 62
    7
 10
237.75
 20
92
 40
4
 41
1
 50
0
  1
2
  0
TEXT
  8
_0-0_
 62
    7
 10
234
 20
84
 40
4
 41
1
 50
0
  1
20Åã
  0
TEXT
  8
_0-0_
 62
    7
 10
236.5
 20
76
 40
4
 41
1
 50
0
  1
30
  0
TEXT
  8
_0-0_
 62
    7
 10
230.25
 20
68
 40
4
 41
1
 50
0
  1
28.1908
  0
TEXT
  8
_0-0_
 62
    7
 10
236.5
 20
60
 40
4
 41
1
 50
0
  1
34
  0
TEXT
  8
_0-0_
 62
    7
 10
234
 20
52
 40
4
 41
1
 50
0
  1
27.4
  0
TEXT
  8
_0-0_
 62
    7
 10
231.5
 20
44
 40
4
 41
1
 50
0
  1
4.0151
  0
TEXT
  8
_0-0_
 62
    7
 10
239
 20
36
 40
4
 41
1
 50
0
  1

  0
TEXT
  8
_0-0_
 62
    7
 10
239
 20
28
 40
4
 41
1
 50
0
  1

  0
TEXT
  8
_0-0_
 62
    7
 10
149.5
 20
137.5
 40
4
 41
1
 50
0
  1
ñ êœ : 
  0
TEXT
  8
_0-0_
 62
    7
 10
149.5
 20
131.5
 40
4
 41
1
 50
0
  1
é¸í∑ : 
  0
TEXT
  8
_0-0_
 62
    7
 10
166.75
 20
137.5
 40
4
 41
1
 50
0
  1
769.0163 mm2
  0
TEXT
  8
_0-0_
 62
    7
 10
168.875
 20
131.5
 40
4
 41
1
 50
0
  1
167.473 mm
  0
ENDSEC
  0
EOF
