  0
SECTION
  2
HEADER
  9
$ACADVER
  1
AC1009
  9
$INSBASE
 10
0
 20
0
 30
0
  9
$EXTMIN
 10
0
 20
0
  9
$EXTMAX
 10
297
 20
210
  9
$LIMMIN
 10
0
 20
0
  9
$LIMMAX
 10
297
 20
210
  9
$LTSCALE
 40
1
  0
ENDSEC
  0
SECTION
  2
TABLES
  0
TABLE
  2
LTYPE
 70
     9
  0
LTYPE
  2
CONTINUOUS
 70
    64
  3
é¿ê¸
 72
    65
 73
     0
 40
0.0
  0
LTYPE
  2
DASHED1
 70
    64
  3
--  --  --  --  --  --  --  --  
 72
    65
 73
     2
 40
2.5
 49
1.25
 49
-1.25
  0
LTYPE
  2
DASHED2
 70
    64
  3
----    ----    ----    ----    
 72
    65
 73
     2
 40
5.0
 49
2.5
 49
-2.5
  0
LTYPE
  2
DASHED3
 70
    64
  3
------  ------  ------  ------  
 72
    65
 73
     2
 40
5.0
 49
3.75
 49
-1.25
  0
LTYPE
  2
CENTER1
 70
    64
  3
----- - ----- - ----- - ----- - 
 72
    65
 73
     4
 40
10.0
 49
6.25
 49
-1.25
 49
1.25
 49
-1.25
  0
LTYPE
  2
CENTER2
 70
    64
  3
----------  --  ----------  --  
 72
    65
 73
     4
 40
20.0
 49
12.5
 49
-2.5
 49
2.5
 49
-2.5
  0
LTYPE
  2
PHANTOM1
 70
    64
  3
--- - - --- - - --- - - --- - - 
 72
    65
 73
     6
 40
10.0
 49
3.25
 49
-1.25
 49
1.25
 49
-1.25
 49
1.25
 49
-1.25
  0
LTYPE
  2
PHANTOM2
 70
    64
  3
--------  -  -  --------  -  -  
 72
    65
 73
     6
 40
20.0
 49
10.0
 49
-2.5
 49
1.25
 49
-2.5
 49
1.25
 49
-2.5
  0
LTYPE
  2
DOT
 70
    64
  3
-   -   -   -   -   -   -   -   
 72
    65
 73
     2
 40
2.5
 49
0.625
 49
-1.875
  0
LTYPE
  2
DUMMY
 70
    64
  3
É_É~Å[
 72
    65
 73
     0
 40
0.0
  0
LTYPE
  2
RAND1
 70
    64
  3
----- - ----- - ----- - ----- - 
 72
    65
 73
     4
 40
10.0
 49
6.25
 49
-1.25
 49
1.25
 49
-1.25
  0
LTYPE
  2
RAND2
 70
    64
  3
----------  --  ----------  --  
 72
    65
 73
     4
 40
20.0
 49
12.5
 49
-2.5
 49
2.5
 49
-2.5
  0
LTYPE
  2
RAND3
 70
    64
  3
--- - - --- - - --- - - --- - - 
 72
    65
 73
     6
 40
10.0
 49
3.25
 49
-1.25
 49
1.25
 49
-1.25
 49
1.25
 49
-1.25
  0
LTYPE
  2
RAND4
 70
    64
  3
--------  -  -  --------  -  -  
 72
    65
 73
     6
 40
20.0
 49
10.0
 49
-2.5
 49
1.25
 49
-2.5
 49
1.25
 49
-2.5
  0
LTYPE
  2
RAND5
 70
    64
  3
----- - ----- - ----- - ----- - 
 72
    65
 73
     4
 40
10.0
 49
6.25
 49
-1.25
 49
1.25
 49
-1.25
  0
LTYPE
  2
LONG1
 70
    64
  3
----------  --  ----------  --  
 72
    65
 73
     4
 40
20.0
 49
12.5
 49
-2.5
 49
2.5
 49
-2.5
  0
LTYPE
  2
LONG2
 70
    64
  3
--- - - --- - - --- - - --- - - 
 72
    65
 73
     6
 40
10.0
 49
3.25
 49
-1.25
 49
1.25
 49
-1.25
 49
1.25
 49
-1.25
  0
LTYPE
  2
LONG3
 70
    64
  3
--------  -  -  --------  -  -  
 72
    65
 73
     6
 40
20.0
 49
10.0
 49
-2.5
 49
1.25
 49
-2.5
 49
1.25
 49
-2.5
  0
LTYPE
  2
LONG4
 70
    64
  3
----- - ----- - ----- - ----- - 
 72
    65
 73
     4
 40
10.0
 49
6.25
 49
-1.25
 49
1.25
 49
-1.25
  0
LTYPE
  2
LONG5
 70
    64
  3
----------  --  ----------  --  
 72
    65
 73
     4
 40
20.0
 49
12.5
 49
-2.5
 49
2.5
 49
-2.5
  0
ENDTAB
  0
TABLE
  2
STYLE
  5
3
100
AcDbSymbolTable
 70
     1
  0
STYLE
  5
10
100
AcDbSymbolTableRecord
100
AcDbTextStyleTableRecord
  2
STANDARD
 70
     0
 40
0.0
 41
1.0
 50
0.0
 71
     0
 42
0.2
  3
txt
  4
bigfont.shx
  0
ENDTAB
  0
TABLE
  2
LAYER
 70
    2
  0
LAYER
  2
_0-0_
 70
   64
 62
    7
  6
CONTINUOUS
  0
LAYER
  2
ADD_LINE
 70
   64
 62
    7
  6
CONTINUOUS
  0
ENDTAB
  0
ENDSEC
  0
SECTION
  2
BLOCKS
  0
ENDSEC
  0
SECTION
  2
ENTITIES
  0
ARC
  8
_0-0_
  6
CONTINUOUS
 62
    4
 10
151.453933048648
 20
120.719527936795
 40
1.72966783842904
 50
163.25511169271
 51
173.116508297539
  0
ARC
  8
_0-0_
  6
CONTINUOUS
 62
    2
 10
154.386755364346
 20
119.881167110805
 40
4.7798567193546
 50
151.930471151435
 51
163.760559140317
  0
ARC
  8
_0-0_
  6
CONTINUOUS
 62
    4
 10
157.546672231008
 20
118.213917128079
 40
8.35262252076052
 50
138.132233472917
 51
152.038388887727
  0
ARC
  8
_0-0_
  6
CONTINUOUS
 62
    4
 10
145.575912071821
 20
120.725106956706
 40
1.72966783842904
 50
184.431582280945
 51
194.292978885774
  0
ARC
  8
_0-0_
  6
CONTINUOUS
 62
    2
 10
148.613538296633
 20
121.002816388204
 40
4.7798567193546
 50
173.10694173967
 51
184.937029728552
  0
ARC
  8
_0-0_
  6
CONTINUOUS
 62
    4
 10
152.162353183732
 20
120.589645713763
 40
8.35262252076052
 50
159.308704061152
 51
173.214859475963
  0
ARC
  8
_0-0_
  6
CONTINUOUS
 62
    4
 10
140.092805372625
 20
118.606923146288
 40
1.72966783842904
 50
205.608052869181
 51
215.46944947401
  0
ARC
  8
_0-0_
  6
CONTINUOUS
 62
    2
 10
142.824987252823
 20
119.963196637709
 40
4.7798567193546
 50
194.283412327906
 51
206.113500316787
  0
ARC
  8
_0-0_
  6
CONTINUOUS
 62
    4
 10
146.283413045194
 20
120.859906260594
 40
8.35262252076052
 50
180.485174649387
 51
194.391330064198
  0
ARC
  8
_0-0_
  6
CONTINUOUS
 62
    4
 10
135.745136893729
 20
114.651048966401
 40
1.72966783842904
 50
226.784523457416
 51
236.645920062245
  0
ARC
  8
_0-0_
  6
CONTINUOUS
 62
    2
 10
137.80287812685
 20
116.902714267356
 40
4.7798567193546
 50
215.459882916141
 51
227.289970905022
  0
ARC
  8
_0-0_
  6
CONTINUOUS
 62
    4
 10
140.703835257434
 20
118.988198584157
 40
8.35262252076052
 50
201.661645237623
 51
215.567800652433
  0
ARC
  8
_0-0_
  6
CONTINUOUS
 62
    4
 10
133.120083354472
 20
109.391747145292
 40
1.72966783842904
 50
247.960994045651
 51
257.82239065048
  0
ARC
  8
_0-0_
  6
CONTINUOUS
 62
    2
 10
134.225474584644
 20
112.234704379981
 40
4.7798567193546
 50
236.636353504376
 51
248.466441493258
  0
ARC
  8
_0-0_
  6
CONTINUOUS
 62
    4
 10
136.177172718198
 20
115.227307177646
 40
8.35262252076052
 50
222.838115825858
 51
236.744271240669
  0
ARC
  8
_0-0_
  6
CONTINUOUS
 62
    4
 10
132.572172781253
 20
103.5393155367
 40
1.72966783842904
 50
269.137464633886
 51
278.998861238715
  0
ARC
  8
_0-0_
  6
CONTINUOUS
 62
    2
 10
132.575924797658
 20
106.589607577208
 40
4.7798567193546
 50
257.812824092611
 51
269.642912081493
  0
ARC
  8
_0-0_
  6
CONTINUOUS
 62
    4
 10
133.314776286513
 20
110.085161265328
 40
8.35262252076052
 50
244.014586414093
 51
257.920741828904
  0
ARC
  8
_0-0_
  6
CONTINUOUS
 62
    4
 10
134.175403533064
 20
97.8841574588096
 40
1.72966783842904
 50
290.313935222122
 51
300.175331826951
  0
ARC
  8
_0-0_
  6
CONTINUOUS
 62
    2
 10
133.077009605095
 20
100.729825462814
 40
4.7798567193546
 50
278.989294680847
 51
290.819382669728
  0
ARC
  8
_0-0_
  6
CONTINUOUS
 62
    4
 10
132.503228461563
 20
104.256236146276
 40
8.35262252076052
 50
265.191057002328
 51
279.097212417139
  0
ARC
  8
_0-0_
  6
CONTINUOUS
 62
    4
 10
137.713250413063
 20
93.1900333463513
 40
1.72966783842904
 50
311.490405810357
 51
321.351802415186
  0
ARC
  8
_0-0_
  6
CONTINUOUS
 62
    2
 10
135.661054727104
 20
95.4467540815204
 40
4.7798567193546
 50
300.165765269082
 51
311.995853257964
  0
ARC
  8
_0-0_
  6
CONTINUOUS
 62
    4
 10
133.852133274051
 20
98.5277604570079
 40
8.35262252076052
 50
286.367527590564
 51
300.273683005374
  0
ARC
  8
_0-0_
  6
CONTINUOUS
 62
    4
 10
142.707907596222
 20
90.0909106717526
 40
1.72966783842904
 50
332.666876398592
 51
342.528273003421
  0
ARC
  8
_0-0_
  6
CONTINUOUS
 62
    2
 10
139.979070551269
 20
91.4539014978807
 40
4.7798567193546
 50
321.342235857317
 51
333.172323846199
  0
ARC
  8
_0-0_
  6
CONTINUOUS
 62
    4
 10
137.179313654509
 20
93.6733965819379
 40
8.35262252076052
 50
307.543998178799
 51
321.45015359361
  0
ARC
  8
_0-0_
  6
CONTINUOUS
 62
    4
 10
148.484818953602
 20
89.0053431250495
 40
1.72966783842904
 50
353.843346986828
 51
363.704743591657
  0
ARC
  8
_0-0_
  6
CONTINUOUS
 62
    2
 10
145.447885113586
 20
89.2905245784752
 40
4.7798567193546
 50
342.518706445553
 51
354.348794434434
  0
ARC
  8
_0-0_
  6
CONTINUOUS
 62
    4
 10
142.035415456014
 20
90.3487532613533
 40
8.35262252076052
 50
328.720468767034
 51
342.626624181845
  0
ARC
  8
_0-0_
  6
CONTINUOUS
 62
    4
 10
154.263780595419
 20
90.0799426187619
 40
1.72966783842904
 50
375.019817575063
 51
384.881214179892
  0
ARC
  8
_0-0_
  6
CONTINUOUS
 62
    2
 10
151.328904703665
 20
89.248799363955
 40
4.7798567193546
 50
363.695177033788
 51
375.52526502267
  0
ARC
  8
_0-0_
  6
CONTINUOUS
 62
    4
 10
147.764595221685
 20
89.0028419981837
 40
8.35262252076052
 50
349.89693935527
 51
363.80309477008
  0
ARC
  8
_0-0_
  6
CONTINUOUS
 62
    4
 10
159.264311729615
 20
93.1695785367025
 40
1.72966783842904
 50
396.196288163298
 51
406.057684768127
  0
ARC
  8
_0-0_
  6
CONTINUOUS
 62
    2
 10
156.827865038012
 20
91.3343610757483
 40
4.7798567193546
 50
384.871647622023
 51
396.701735610905
  0
ARC
  8
_0-0_
  6
CONTINUOUS
 62
    4
 10
153.593095477685
 20
89.817435566472
 40
8.35262252076052
 50
371.073409943505
 51
384.979565358316
  0
ARC
  8
_0-0_
  6
CONTINUOUS
 62
    4
 10
162.811062917615
 20
97.8569784278897
 40
1.72966783842904
 50
417.372758751533
 51
427.234155356362
  0
ARC
  8
_0-0_
  6
CONTINUOUS
 62
    2
 10
161.202101052682
 20
95.2655430481813
 40
4.7798567193546
 50
406.048118210259
 51
417.87820619914
  0
ARC
  8
_0-0_
  6
CONTINUOUS
 62
    4
 10
158.733744967608
 20
92.6825185910021
 40
8.35262252076052
 50
392.24988053174
 51
406.156035946551
  0
ARC
  8
_0-0_
  6
CONTINUOUS
 62
    4
 10
164.425025758254
 20
103.509082963239
 40
1.72966783842904
 50
438.549229339769
 51
448.410625944598
  0
ARC
  8
_0-0_
  6
CONTINUOUS
 62
    2
 10
163.860847935416
 20
100.511417372445
 40
4.7798567193546
 50
427.224588798494
 51
439.054676787375
  0
ARC
  8
_0-0_
  6
CONTINUOUS
 62
    4
 10
162.492270492516
 20
97.2111457333379
 40
8.35262252076052
 50
413.426351119975
 51
427.332506534786
  0
ARC
  8
_0-0_
  6
CONTINUOUS
 62
    4
 10
163.888225626628
 20
109.36254410586
 40
1.72966783842904
 50
459.725699928004
 51
469.587096532833
  0
ARC
  8
_0-0_
  6
CONTINUOUS
 62
    2
 10
164.445027187075
 20
106.363499652656
 40
4.7798567193546
 50
448.401059386729
 51
460.231147375611
  0
ARC
  8
_0-0_
  6
CONTINUOUS
 62
    4
 10
164.361062353563
 20
102.791700803918
 40
8.35262252076052
 50
434.602821708211
 51
448.508977123022
  0
ARC
  8
_0-0_
  6
CONTINUOUS
 62
    4
 10
161.273160355023
 20
114.626819493293
 40
1.72966783842904
 50
480.902170516239
 51
490.763567121068
  0
ARC
  8
_0-0_
  6
CONTINUOUS
 62
    2
 10
162.875742162674
 20
112.031433749362
 40
4.7798567193546
 50
469.577529974964
 51
481.407617963846
  0
ARC
  8
_0-0_
  6
CONTINUOUS
 62
    4
 10
164.087729854581
 20
108.670498917537
 40
8.35262252076052
 50
455.779292296446
 51
469.685447711257
  0
ARC
  8
_0-0_
  6
CONTINUOUS
 62
    4
 10
156.933008998947
 20
118.590939564108
 40
1.72966783842904
 50
502.078641104475
 51
511.940037709304
  0
ARC
  8
_0-0_
  6
CONTINUOUS
 62
    2
 10
159.364933500467
 20
116.749733755698
 40
4.7798567193546
 50
490.7540005632
 51
502.584088552081
  0
ARC
  8
_0-0_
  6
CONTINUOUS
 62
    4
 10
161.709188064145
 20
114.053575813406
 40
8.35262252076052
 50
476.955762884681
 51
490.861918299492
  0
ARC
  8
_0-0_
  6
CONTINUOUS
 62
    4
 10
145.546066951352
 20
120.719527936795
 40
1.72966783842904
 50
366.883491702461
 51
376.74488830729
  0
ARC
  8
_0-0_
  6
CONTINUOUS
 62
    2
 10
142.613244635654
 20
119.881167110805
 40
4.7798567193546
 50
376.239440859683
 51
388.069528848565
  0
ARC
  8
_0-0_
  6
CONTINUOUS
 62
    4
 10
139.453327768992
 20
118.213917128079
 40
8.35262252076052
 50
387.961611112273
 51
401.867766527083
  0
ARC
  8
_0-0_
  6
CONTINUOUS
 62
    4
 10
140.066991001053
 20
118.590939564108
 40
1.72966783842904
 50
388.059962290696
 51
397.921358895525
  0
ARC
  8
_0-0_
  6
CONTINUOUS
 62
    2
 10
137.635066499533
 20
116.749733755698
 40
4.7798567193546
 50
397.415911447919
 51
409.2459994368
  0
ARC
  8
_0-0_
  6
CONTINUOUS
 62
    4
 10
135.290811935855
 20
114.053575813406
 40
8.35262252076052
 50
409.138081700508
 51
423.044237115319
  0
ARC
  8
_0-0_
  6
CONTINUOUS
 62
    4
 10
135.726839644977
 20
114.626819493293
 40
1.72966783842904
 50
409.236432878932
 51
419.097829483761
  0
ARC
  8
_0-0_
  6
CONTINUOUS
 62
    2
 10
134.124257837326
 20
112.031433749362
 40
4.7798567193546
 50
418.592382036154
 51
430.422470025036
  0
ARC
  8
_0-0_
  6
CONTINUOUS
 62
    4
 10
132.912270145419
 20
108.670498917537
 40
8.35262252076052
 50
430.314552288743
 51
444.220707703554
  0
ARC
  8
_0-0_
  6
CONTINUOUS
 62
    4
 10
133.111774373372
 20
109.36254410586
 40
1.72966783842904
 50
430.412903467167
 51
440.274300071996
  0
ARC
  8
_0-0_
  6
CONTINUOUS
 62
    2
 10
132.554972812925
 20
106.363499652656
 40
4.7798567193546
 50
439.768852624389
 51
451.598940613271
  0
ARC
  8
_0-0_
  6
CONTINUOUS
 62
    4
 10
132.638937646437
 20
102.791700803918
 40
8.35262252076052
 50
451.491022876978
 51
465.397178291789
  0
ARC
  8
_0-0_
  6
CONTINUOUS
 62
    4
 10
132.574974241746
 20
103.509082963239
 40
1.72966783842904
 50
451.589374055402
 51
461.450770660231
  0
ARC
  8
_0-0_
  6
CONTINUOUS
 62
    2
 10
133.139152064584
 20
100.511417372445
 40
4.7798567193546
 50
460.945323212625
 51
472.775411201506
  0
ARC
  8
_0-0_
  6
CONTINUOUS
 62
    4
 10
134.507729507484
 20
97.2111457333379
 40
8.35262252076052
 50
472.667493465214
 51
486.573648880025
  0
ARC
  8
_0-0_
  6
CONTINUOUS
 62
    4
 10
134.188937082385
 20
97.8569784278897
 40
1.72966783842904
 50
472.765844643638
 51
482.627241248467
  0
ARC
  8
_0-0_
  6
CONTINUOUS
 62
    2
 10
135.797898947318
 20
95.2655430481813
 40
4.7798567193546
 50
482.12179380086
 51
493.951881789741
  0
ARC
  8
_0-0_
  6
CONTINUOUS
 62
    4
 10
138.266255032392
 20
92.6825185910021
 40
8.35262252076052
 50
493.843964053449
 51
507.75011946826
  0
ARC
  8
_0-0_
  6
CONTINUOUS
 62
    4
 10
137.735688270385
 20
93.1695785367025
 40
1.72966783842904
 50
493.942315231873
 51
503.803711836702
  0
ARC
  8
_0-0_
  6
CONTINUOUS
 62
    2
 10
140.172134961988
 20
91.3343610757483
 40
4.7798567193546
 50
503.298264389095
 51
515.128352377977
  0
ARC
  8
_0-0_
  6
CONTINUOUS
 62
    4
 10
143.406904522315
 20
89.817435566472
 40
8.35262252076052
 50
515.020434641684
 51
528.926590056495
  0
ARC
  8
_0-0_
  6
CONTINUOUS
 62
    4
 10
142.736219404581
 20
90.0799426187619
 40
1.72966783842904
 50
515.118785820108
 51
524.980182424937
  0
ARC
  8
_0-0_
  6
CONTINUOUS
 62
    2
 10
145.671095296335
 20
89.248799363955
 40
4.7798567193546
 50
524.47473497733
 51
536.304822966212
  0
ARC
  8
_0-0_
  6
CONTINUOUS
 62
    4
 10
149.235404778315
 20
89.0028419981837
 40
8.35262252076052
 50
536.19690522992
 51
550.10306064473
  0
ARC
  8
_0-0_
  6
CONTINUOUS
 62
    4
 10
148.515181046398
 20
89.0053431250495
 40
1.72966783842904
 50
536.295256408343
 51
546.156653013172
  0
ARC
  8
_0-0_
  6
CONTINUOUS
 62
    2
 10
151.552114886414
 20
89.2905245784752
 40
4.7798567193546
 50
545.651205565566
 51
557.481293554447
  0
ARC
  8
_0-0_
  6
CONTINUOUS
 62
    4
 10
154.964584543986
 20
90.3487532613533
 40
8.35262252076052
 50
557.373375818155
 51
571.279531232966
  0
ARC
  8
_0-0_
  6
CONTINUOUS
 62
    4
 10
154.292092403778
 20
90.0909106717526
 40
1.72966783842904
 50
557.471726996579
 51
567.333123601408
  0
ARC
  8
_0-0_
  6
CONTINUOUS
 62
    2
 10
157.020929448731
 20
91.4539014978807
 40
4.7798567193546
 50
566.827676153801
 51
578.657764142683
  0
ARC
  8
_0-0_
  6
CONTINUOUS
 62
    4
 10
159.820686345491
 20
93.6733965819379
 40
8.35262252076052
 50
578.54984640639
 51
592.456001821201
  0
ARC
  8
_0-0_
  6
CONTINUOUS
 62
    4
 10
159.286749586937
 20
93.1900333463513
 40
1.72966783842904
 50
578.648197584814
 51
588.509594189643
  0
ARC
  8
_0-0_
  6
CONTINUOUS
 62
    2
 10
161.338945272896
 20
95.4467540815204
 40
4.7798567193546
 50
588.004146742036
 51
599.834234730918
  0
ARC
  8
_0-0_
  6
CONTINUOUS
 62
    4
 10
163.147866725949
 20
98.5277604570079
 40
8.35262252076052
 50
599.726316994626
 51
613.632472409436
  0
ARC
  8
_0-0_
  6
CONTINUOUS
 62
    4
 10
162.824596466936
 20
97.8841574588096
 40
1.72966783842904
 50
599.824668173049
 51
609.686064777878
  0
ARC
  8
_0-0_
  6
CONTINUOUS
 62
    2
 10
163.922990394905
 20
100.729825462814
 40
4.7798567193546
 50
609.180617330272
 51
621.010705319153
  0
ARC
  8
_0-0_
  6
CONTINUOUS
 62
    4
 10
164.496771538437
 20
104.256236146276
 40
8.35262252076052
 50
620.902787582861
 51
634.808942997672
  0
ARC
  8
_0-0_
  6
CONTINUOUS
 62
    4
 10
164.427827218747
 20
103.5393155367
 40
1.72966783842904
 50
621.001138761285
 51
630.862535366114
  0
ARC
  8
_0-0_
  6
CONTINUOUS
 62
    2
 10
164.424075202342
 20
106.589607577208
 40
4.7798567193546
 50
630.357087918507
 51
642.187175907388
  0
ARC
  8
_0-0_
  6
CONTINUOUS
 62
    4
 10
163.685223713487
 20
110.085161265328
 40
8.35262252076052
 50
642.079258171096
 51
655.985413585907
  0
ARC
  8
_0-0_
  6
CONTINUOUS
 62
    4
 10
163.879916645528
 20
109.391747145292
 40
1.72966783842904
 50
642.17760934952
 51
652.039005954349
  0
ARC
  8
_0-0_
  6
CONTINUOUS
 62
    2
 10
162.774525415356
 20
112.234704379981
 40
4.7798567193546
 50
651.533558506742
 51
663.363646495624
  0
ARC
  8
_0-0_
  6
CONTINUOUS
 62
    4
 10
160.822827281802
 20
115.227307177646
 40
8.35262252076052
 50
663.255728759331
 51
677.161884174142
  0
ARC
  8
_0-0_
  6
CONTINUOUS
 62
    4
 10
161.254863106271
 20
114.651048966401
 40
1.72966783842904
 50
663.354079937755
 51
673.215476542584
  0
ARC
  8
_0-0_
  6
CONTINUOUS
 62
    2
 10
159.19712187315
 20
116.902714267356
 40
4.7798567193546
 50
672.710029094977
 51
684.540117083859
  0
ARC
  8
_0-0_
  6
CONTINUOUS
 62
    4
 10
156.296164742566
 20
118.988198584157
 40
8.35262252076052
 50
684.432199347567
 51
698.338354762377
  0
ARC
  8
_0-0_
  6
CONTINUOUS
 62
    4
 10
156.907194627375
 20
118.606923146288
 40
1.72966783842904
 50
684.530550525991
 51
694.391947130819
  0
ARC
  8
_0-0_
  6
CONTINUOUS
 62
    2
 10
154.175012747177
 20
119.963196637709
 40
4.7798567193546
 50
693.886499683213
 51
705.716587672094
  0
ARC
  8
_0-0_
  6
CONTINUOUS
 62
    4
 10
150.716586954806
 20
120.859906260594
 40
8.35262252076052
 50
705.608669935802
 51
719.514825350613
  0
ARC
  8
_0-0_
  6
CONTINUOUS
 62
    4
 10
151.424087928179
 20
120.725106956706
 40
1.72966783842904
 50
705.707021114226
 51
715.568417719055
  0
ARC
  8
_0-0_
  6
CONTINUOUS
 62
    2
 10
148.386461703367
 20
121.002816388204
 40
4.7798567193546
 50
715.062970271448
 51
726.89305826033
  0
ARC
  8
_0-0_
  6
CONTINUOUS
 62
    4
 10
144.837646816268
 20
120.589645713763
 40
8.35262252076052
 50
726.785140524037
 51
740.691295938848
  0
ARC
  8
_0-0_
  6
CONTINUOUS
 62
    7
 10
148.5
 20
105
 40
14.5
 50
85.5598406447824
 51
94.4401593552176
  0
ARC
  8
_0-0_
  6
CONTINUOUS
 62
    7
 10
148.5
 20
105
 40
14.5
 50
106.736311233018
 51
115.616629943453
  0
ARC
  8
_0-0_
  6
CONTINUOUS
 62
    7
 10
148.5
 20
105
 40
14.5
 50
127.912781821253
 51
136.793100531688
  0
ARC
  8
_0-0_
  6
CONTINUOUS
 62
    7
 10
148.5
 20
105
 40
14.5
 50
149.089252409488
 51
157.969571119923
  0
ARC
  8
_0-0_
  6
CONTINUOUS
 62
    7
 10
148.5
 20
105
 40
14.5
 50
170.265722997724
 51
179.146041708159
  0
ARC
  8
_0-0_
  6
CONTINUOUS
 62
    7
 10
148.5
 20
105
 40
14.5
 50
191.442193585959
 51
200.322512296394
  0
ARC
  8
_0-0_
  6
CONTINUOUS
 62
    7
 10
148.5
 20
105
 40
14.5
 50
212.618664174194
 51
221.498982884629
  0
ARC
  8
_0-0_
  6
CONTINUOUS
 62
    7
 10
148.5
 20
105
 40
14.5
 50
233.795134762429
 51
242.675453472865
  0
ARC
  8
_0-0_
  6
CONTINUOUS
 62
    7
 10
148.5
 20
105
 40
14.5
 50
254.971605350665
 51
263.8519240611
  0
ARC
  8
_0-0_
  6
CONTINUOUS
 62
    7
 10
148.5
 20
105
 40
14.5
 50
276.1480759389
 51
285.028394649335
  0
ARC
  8
_0-0_
  6
CONTINUOUS
 62
    7
 10
148.5
 20
105
 40
14.5
 50
297.324546527135
 51
306.204865237571
  0
ARC
  8
_0-0_
  6
CONTINUOUS
 62
    7
 10
148.5
 20
105
 40
14.5
 50
318.501017115371
 51
327.381335825806
  0
ARC
  8
_0-0_
  6
CONTINUOUS
 62
    7
 10
148.5
 20
105
 40
14.5
 50
339.677487703606
 51
348.557806414041
  0
ARC
  8
_0-0_
  6
CONTINUOUS
 62
    7
 10
148.5
 20
105
 40
14.5
 50
360.853958291841
 51
369.734277002276
  0
ARC
  8
_0-0_
  6
CONTINUOUS
 62
    7
 10
148.5
 20
105
 40
14.5
 50
382.030428880077
 51
390.910747590512
  0
ARC
  8
_0-0_
  6
CONTINUOUS
 62
    7
 10
148.5
 20
105
 40
14.5
 50
403.206899468312
 51
412.087218178747
  0
ARC
  8
_0-0_
  6
CONTINUOUS
 62
    7
 10
148.5
 20
105
 40
14.5
 50
424.383370056547
 51
433.263688766982
  0
ARC
  8
_0-0_
  6
CONTINUOUS
 62
    7
 10
148.5
 20
105
 40
19
 50
98.5555056178461
 51
102.620964970389
  0
ARC
  8
_0-0_
  6
CONTINUOUS
 62
    7
 10
148.5
 20
105
 40
19
 50
119.731976206081
 51
123.797435558625
  0
ARC
  8
_0-0_
  6
CONTINUOUS
 62
    7
 10
148.5
 20
105
 40
19
 50
140.908446794317
 51
144.97390614686
  0
ARC
  8
_0-0_
  6
CONTINUOUS
 62
    7
 10
148.5
 20
105
 40
19
 50
162.084917382552
 51
166.150376735095
  0
ARC
  8
_0-0_
  6
CONTINUOUS
 62
    7
 10
148.5
 20
105
 40
19
 50
183.261387970787
 51
187.32684732333
  0
ARC
  8
_0-0_
  6
CONTINUOUS
 62
    7
 10
148.5
 20
105
 40
19
 50
204.437858559023
 51
208.503317911566
  0
ARC
  8
_0-0_
  6
CONTINUOUS
 62
    7
 10
148.5
 20
105
 40
19
 50
225.614329147258
 51
229.679788499801
  0
ARC
  8
_0-0_
  6
CONTINUOUS
 62
    7
 10
148.5
 20
105
 40
19
 50
246.790799735493
 51
250.856259088036
  0
ARC
  8
_0-0_
  6
CONTINUOUS
 62
    7
 10
148.5
 20
105
 40
19
 50
267.967270323728
 51
272.032729676272
  0
ARC
  8
_0-0_
  6
CONTINUOUS
 62
    7
 10
148.5
 20
105
 40
19
 50
289.143740911964
 51
293.209200264507
  0
ARC
  8
_0-0_
  6
CONTINUOUS
 62
    7
 10
148.5
 20
105
 40
19
 50
310.320211500199
 51
314.385670852742
  0
ARC
  8
_0-0_
  6
CONTINUOUS
 62
    7
 10
148.5
 20
105
 40
19
 50
331.496682088434
 51
335.562141440977
  0
ARC
  8
_0-0_
  6
CONTINUOUS
 62
    7
 10
148.5
 20
105
 40
19
 50
352.67315267667
 51
356.738612029213
  0
ARC
  8
_0-0_
  6
CONTINUOUS
 62
    7
 10
148.5
 20
105
 40
19
 50
373.849623264905
 51
377.915082617448
  0
ARC
  8
_0-0_
  6
CONTINUOUS
 62
    7
 10
148.5
 20
105
 40
19
 50
395.02609385314
 51
399.091553205683
  0
ARC
  8
_0-0_
  6
CONTINUOUS
 62
    7
 10
148.5
 20
105
 40
19
 50
416.202564441376
 51
420.268023793919
  0
ARC
  8
_0-0_
  6
CONTINUOUS
 62
    7
 10
148.5
 20
105
 40
19
 50
437.379035029611
 51
441.444494382154
  0
LINE
  8
_0-0_
  6
CONTINUOUS
 62
    7
 10
149.622558918296
 20
119.456481642328
 11
149.736732802941
 21
120.926830004895
  0
LINE
  8
_0-0_
  6
CONTINUOUS
 62
    7
 10
144.324471501503
 20
118.885782720403
 11
143.899784385888
 21
120.298086100371
  0
LINE
  8
_0-0_
  6
CONTINUOUS
 62
    7
 10
139.590312345834
 20
116.439731898309
 11
138.684120578195
 21
117.603250898371
  0
LINE
  8
_0-0_
  6
CONTINUOUS
 62
    7
 10
136.059455878143
 20
112.448681893607
 11
134.794145678083
 21
113.206276825522
  0
LINE
  8
_0-0_
  6
CONTINUOUS
 62
    7
 10
134.208763829545
 20
107.451646124601
 11
132.755222350907
 21
107.700999594836
  0
LINE
  8
_0-0_
  6
CONTINUOUS
 62
    7
 10
134.288182416239
 20
102.123501961428
 11
132.842718490065
 21
101.830937402112
  0
LINE
  8
_0-0_
  6
CONTINUOUS
 62
    7
 10
136.286985718021
 20
97.1838447975897
 11
135.044817257132
 21
96.3888746736152
  0
LINE
  8
_0-0_
  6
CONTINUOUS
 62
    7
 10
139.935224273231
 20
93.2998027046482
 11
139.064113011364
 21
92.1097921363392
  0
LINE
  8
_0-0_
  6
CONTINUOUS
 62
    7
 10
144.740183249403
 20
90.9959370894754
 11
144.357777589467
 21
89.5716035981581
  0
LINE
  8
_0-0_
  6
CONTINUOUS
 62
    7
 10
150.052926311607
 20
90.5833977695603
 11
150.210872256959
 21
89.1171054857415
  0
LINE
  8
_0-0_
  6
CONTINUOUS
 62
    7
 10
155.155938070366
 20
92.1179004660167
 11
155.832904145878
 21
90.8076802876323
  0
LINE
  8
_0-0_
  6
CONTINUOUS
 62
    7
 10
159.360028510896
 20
95.3922020867154
 11
160.464586696872
 21
94.4150065090366
  0
LINE
  8
_0-0_
  6
CONTINUOUS
 62
    7
 10
162.097411923535
 20
99.9640900542492
 11
163.480385516389
 21
99.4518947548693
  0
LINE
  8
_0-0_
  6
CONTINUOUS
 62
    7
 10
162.998389510039
 20
105.216105564897
 11
164.473000262737
 21
105.238085357169
  0
LINE
  8
_0-0_
  6
CONTINUOUS
 62
    7
 10
161.941279254863
 20
110.438934821523
 11
163.308372814152
 21
110.992121212707
  0
LINE
  8
_0-0_
  6
CONTINUOUS
 62
    7
 10
159.068849755619
 20
114.927205792324
 11
160.14379256099
 21
115.936887894979
  0
LINE
  8
_0-0_
  6
CONTINUOUS
 62
    7
 10
154.769038532859
 20
118.074752612326
 11
155.406653601983
 21
119.404567263646
  0
LINE
  8
_0-0_
  6
CONTINUOUS
 62
    7
 10
147.377441081704
 20
119.456481642328
 11
147.263267197059
 21
120.926830004895
  0
LINE
  8
_0-0_
  6
CONTINUOUS
 62
    7
 10
142.230961467141
 20
118.074752612326
 11
141.593346398017
 21
119.404567263646
  0
LINE
  8
_0-0_
  6
CONTINUOUS
 62
    7
 10
137.931150244381
 20
114.927205792324
 11
136.85620743901
 21
115.936887894979
  0
LINE
  8
_0-0_
  6
CONTINUOUS
 62
    7
 10
135.058720745137
 20
110.438934821523
 11
133.691627185848
 21
110.992121212707
  0
LINE
  8
_0-0_
  6
CONTINUOUS
 62
    7
 10
134.001610489961
 20
105.216105564897
 11
132.526999737263
 21
105.238085357169
  0
LINE
  8
_0-0_
  6
CONTINUOUS
 62
    7
 10
134.902588076465
 20
99.9640900542492
 11
133.519614483611
 21
99.4518947548693
  0
LINE
  8
_0-0_
  6
CONTINUOUS
 62
    7
 10
137.639971489104
 20
95.3922020867154
 11
136.535413303128
 21
94.4150065090366
  0
LINE
  8
_0-0_
  6
CONTINUOUS
 62
    7
 10
141.844061929634
 20
92.1179004660167
 11
141.167095854122
 21
90.8076802876323
  0
LINE
  8
_0-0_
  6
CONTINUOUS
 62
    7
 10
146.947073688393
 20
90.5833977695603
 11
146.789127743041
 21
89.1171054857415
  0
LINE
  8
_0-0_
  6
CONTINUOUS
 62
    7
 10
152.259816750597
 20
90.9959370894754
 11
152.642222410533
 21
89.5716035981581
  0
LINE
  8
_0-0_
  6
CONTINUOUS
 62
    7
 10
157.064775726769
 20
93.2998027046482
 11
157.935886988636
 21
92.1097921363392
  0
LINE
  8
_0-0_
  6
CONTINUOUS
 62
    7
 10
160.713014281979
 20
97.1838447975897
 11
161.955182742868
 21
96.3888746736152
  0
LINE
  8
_0-0_
  6
CONTINUOUS
 62
    7
 10
162.711817583761
 20
102.123501961428
 11
164.157281509935
 21
101.830937402112
  0
LINE
  8
_0-0_
  6
CONTINUOUS
 62
    7
 10
162.791236170455
 20
107.451646124601
 11
164.244777649093
 21
107.700999594836
  0
LINE
  8
_0-0_
  6
CONTINUOUS
 62
    7
 10
160.940544121857
 20
112.448681893607
 11
162.205854321917
 21
113.206276825521
  0
LINE
  8
_0-0_
  6
CONTINUOUS
 62
    7
 10
157.409687654166
 20
116.439731898309
 11
158.315879421805
 21
117.603250898371
  0
LINE
  8
_0-0_
  6
CONTINUOUS
 62
    7
 10
152.675528498497
 20
118.885782720403
 11
153.100215614112
 21
120.298086100371
  0
LINE
  8
_0-0_
  6
CENTER2
 62
    7
 10
127.5
 20
105
 11
169.5
 21
105
  0
LINE
  8
_0-0_
  6
CENTER2
 62
    7
 10
148.5
 20
84
 11
148.5
 21
126
  0
LINE
  8
_0-0_
  6
CONTINUOUS
 62
    7
 10
187.5
 20
124
 11
257.5
 21
124
  0
LINE
  8
_0-0_
  6
CONTINUOUS
 62
    7
 10
187.5
 20
116
 11
257.5
 21
116
  0
LINE
  8
_0-0_
  6
CONTINUOUS
 62
    7
 10
187.5
 20
108
 11
257.5
 21
108
  0
LINE
  8
_0-0_
  6
CONTINUOUS
 62
    7
 10
187.5
 20
100
 11
257.5
 21
100
  0
LINE
  8
_0-0_
  6
CONTINUOUS
 62
    7
 10
187.5
 20
92
 11
257.5
 21
92
  0
LINE
  8
_0-0_
  6
CONTINUOUS
 62
    7
 10
187.5
 20
84
 11
257.5
 21
84
  0
LINE
  8
_0-0_
  6
CONTINUOUS
 62
    7
 10
187.5
 20
76
 11
257.5
 21
76
  0
LINE
  8
_0-0_
  6
CONTINUOUS
 62
    7
 10
187.5
 20
68
 11
257.5
 21
68
  0
LINE
  8
_0-0_
  6
CONTINUOUS
 62
    7
 10
187.5
 20
60
 11
257.5
 21
60
  0
LINE
  8
_0-0_
  6
CONTINUOUS
 62
    7
 10
187.5
 20
52
 11
257.5
 21
52
  0
LINE
  8
_0-0_
  6
CONTINUOUS
 62
    7
 10
187.5
 20
44
 11
257.5
 21
44
  0
LINE
  8
_0-0_
  6
CONTINUOUS
 62
    7
 10
187.5
 20
36
 11
257.5
 21
36
  0
LINE
  8
_0-0_
  6
CONTINUOUS
 62
    7
 10
187.5
 20
28
 11
257.5
 21
28
  0
LINE
  8
_0-0_
  6
CONTINUOUS
 62
    7
 10
187.5
 20
124
 11
187.5
 21
28
  0
LINE
  8
_0-0_
  6
CONTINUOUS
 62
    7
 10
257.5
 20
124
 11
257.5
 21
28
  0
LINE
  8
_0-0_
  6
CONTINUOUS
 62
    7
 10
222.5
 20
116
 11
222.5
 21
28
  0
TEXT
  8
_0-0_
 62
    7
 10
193.5
 20
118
 40
4
 41
1
 50
0
  1
ÉCÉìÉ{ÉäÉÖÅ[ÉgÉXÉvÉâÉCÉì
  0
TEXT
  8
_0-0_
 62
    7
 10
196
 20
110
 40
4
 41
1
 50
0
  1
èî    å≥
  0
TEXT
  8
_0-0_
 62
    7
 10
196
 20
102
 40
4
 41
1
 50
0
  1
éïÅ@Å@êî
  0
TEXT
  8
_0-0_
 62
    7
 10
193.5
 20
94
 40
4
 41
1
 50
0
  1
ÉÇÉWÉÖÅ[Éã
  0
TEXT
  8
_0-0_
 62
    7
 10
196
 20
86
 40
4
 41
1
 50
0
  1
à≥ óÕ äp
  0
TEXT
  8
_0-0_
 62
    7
 10
191
 20
78
 40
4
 41
1
 50
0
  1
ÉsÉbÉ`â~íºåa
  0
TEXT
  8
_0-0_
 62
    7
 10
193.5
 20
70
 40
4
 41
1
 50
0
  1
äÓëbâ~íºåa
  0
TEXT
  8
_0-0_
 62
    7
 10
193.5
 20
62
 40
4
 41
1
 50
0
  1
éïêÊâ~íºåa
  0
TEXT
  8
_0-0_
 62
    7
 10
193.5
 20
54
 40
4
 41
1
 50
0
  1
éïíÍâ~íºåa
  0
TEXT
  8
_0-0_
 62
    7
 10
196
 20
46
 40
4
 41
1
 50
0
  1
â~å éïå˙
  0
TEXT
  8
_0-0_
 62
    7
 10
196
 20
38
 40
4
 41
1
 50
0
  1
Çn.Ça.Çc
  0
TEXT
  8
_0-0_
 62
    7
 10
193.5
 20
30
 40
4
 41
1
 50
0
  1
égópÉsÉìåa
  0
TEXT
  8
_0-0_
 62
    7
 10
223.5
 20
110
 40
4
 41
1
 50
0
  1
ÉGÉLÉXÉ^Å[ÉiÉã
  0
TEXT
  8
_0-0_
 62
    7
 10
238.5
 20
102
 40
4
 41
1
 50
0
  1
17
  0
TEXT
  8
_0-0_
 62
    7
 10
239.75
 20
94
 40
4
 41
1
 50
0
  1
2
  0
TEXT
  8
_0-0_
 62
    7
 10
236
 20
86
 40
4
 41
1
 50
0
  1
20Åã
  0
TEXT
  8
_0-0_
 62
    7
 10
238.5
 20
78
 40
4
 41
1
 50
0
  1
34
  0
TEXT
  8
_0-0_
 62
    7
 10
232.25
 20
70
 40
4
 41
1
 50
0
  1
31.9495
  0
TEXT
  8
_0-0_
 62
    7
 10
238.5
 20
62
 40
4
 41
1
 50
0
  1
38
  0
TEXT
  8
_0-0_
 62
    7
 10
238.5
 20
54
 40
4
 41
1
 50
0
  1
29
  0
TEXT
  8
_0-0_
 62
    7
 10
233.5
 20
46
 40
4
 41
1
 50
0
  1
3.1416
  0
TEXT
  8
_0-0_
 62
    7
 10
241
 20
38
 40
4
 41
1
 50
0
  1

  0
TEXT
  8
_0-0_
 62
    7
 10
241
 20
30
 40
4
 41
1
 50
0
  1

  0
TEXT
  8
_0-0_
 62
    7
 10
149.5
 20
139.5
 40
4
 41
1
 50
0
  1
ñ êœ : 
  0
TEXT
  8
_0-0_
 62
    7
 10
149.5
 20
133.5
 40
4
 41
1
 50
0
  1
é¸í∑ : 
  0
TEXT
  8
_0-0_
 62
    7
 10
166.75
 20
139.5
 40
4
 41
1
 50
0
  1
880.8246 mm2
  0
TEXT
  8
_0-0_
 62
    7
 10
167.8125
 20
133.5
 40
4
 41
1
 50
0
  1
223.8697 mm
  0
ENDSEC
  0
EOF
