  0
SECTION
  2
HEADER
  9
$ACADVER
  1
AC1009
  9
$INSBASE
 10
0
 20
0
 30
0
  9
$EXTMIN
 10
0
 20
0
  9
$EXTMAX
 10
297
 20
210
  9
$LIMMIN
 10
0
 20
0
  9
$LIMMAX
 10
297
 20
210
  9
$LTSCALE
 40
1
  0
ENDSEC
  0
SECTION
  2
TABLES
  0
TABLE
  2
LTYPE
 70
     9
  0
LTYPE
  2
CONTINUOUS
 70
    64
  3
é¿ê¸
 72
    65
 73
     0
 40
0.0
  0
LTYPE
  2
DASHED1
 70
    64
  3
--  --  --  --  --  --  --  --  
 72
    65
 73
     2
 40
2.5
 49
1.25
 49
-1.25
  0
LTYPE
  2
DASHED2
 70
    64
  3
----    ----    ----    ----    
 72
    65
 73
     2
 40
5.0
 49
2.5
 49
-2.5
  0
LTYPE
  2
DASHED3
 70
    64
  3
------  ------  ------  ------  
 72
    65
 73
     2
 40
5.0
 49
3.75
 49
-1.25
  0
LTYPE
  2
CENTER1
 70
    64
  3
----- - ----- - ----- - ----- - 
 72
    65
 73
     4
 40
10.0
 49
6.25
 49
-1.25
 49
1.25
 49
-1.25
  0
LTYPE
  2
CENTER2
 70
    64
  3
----------  --  ----------  --  
 72
    65
 73
     4
 40
20.0
 49
12.5
 49
-2.5
 49
2.5
 49
-2.5
  0
LTYPE
  2
PHANTOM1
 70
    64
  3
--- - - --- - - --- - - --- - - 
 72
    65
 73
     6
 40
10.0
 49
3.25
 49
-1.25
 49
1.25
 49
-1.25
 49
1.25
 49
-1.25
  0
LTYPE
  2
PHANTOM2
 70
    64
  3
--------  -  -  --------  -  -  
 72
    65
 73
     6
 40
20.0
 49
10.0
 49
-2.5
 49
1.25
 49
-2.5
 49
1.25
 49
-2.5
  0
LTYPE
  2
DOT
 70
    64
  3
-   -   -   -   -   -   -   -   
 72
    65
 73
     2
 40
2.5
 49
0.625
 49
-1.875
  0
LTYPE
  2
DUMMY
 70
    64
  3
É_É~Å[
 72
    65
 73
     0
 40
0.0
  0
LTYPE
  2
RAND1
 70
    64
  3
----- - ----- - ----- - ----- - 
 72
    65
 73
     4
 40
10.0
 49
6.25
 49
-1.25
 49
1.25
 49
-1.25
  0
LTYPE
  2
RAND2
 70
    64
  3
----------  --  ----------  --  
 72
    65
 73
     4
 40
20.0
 49
12.5
 49
-2.5
 49
2.5
 49
-2.5
  0
LTYPE
  2
RAND3
 70
    64
  3
--- - - --- - - --- - - --- - - 
 72
    65
 73
     6
 40
10.0
 49
3.25
 49
-1.25
 49
1.25
 49
-1.25
 49
1.25
 49
-1.25
  0
LTYPE
  2
RAND4
 70
    64
  3
--------  -  -  --------  -  -  
 72
    65
 73
     6
 40
20.0
 49
10.0
 49
-2.5
 49
1.25
 49
-2.5
 49
1.25
 49
-2.5
  0
LTYPE
  2
RAND5
 70
    64
  3
----- - ----- - ----- - ----- - 
 72
    65
 73
     4
 40
10.0
 49
6.25
 49
-1.25
 49
1.25
 49
-1.25
  0
LTYPE
  2
LONG1
 70
    64
  3
----------  --  ----------  --  
 72
    65
 73
     4
 40
20.0
 49
12.5
 49
-2.5
 49
2.5
 49
-2.5
  0
LTYPE
  2
LONG2
 70
    64
  3
--- - - --- - - --- - - --- - - 
 72
    65
 73
     6
 40
10.0
 49
3.25
 49
-1.25
 49
1.25
 49
-1.25
 49
1.25
 49
-1.25
  0
LTYPE
  2
LONG3
 70
    64
  3
--------  -  -  --------  -  -  
 72
    65
 73
     6
 40
20.0
 49
10.0
 49
-2.5
 49
1.25
 49
-2.5
 49
1.25
 49
-2.5
  0
LTYPE
  2
LONG4
 70
    64
  3
----- - ----- - ----- - ----- - 
 72
    65
 73
     4
 40
10.0
 49
6.25
 49
-1.25
 49
1.25
 49
-1.25
  0
LTYPE
  2
LONG5
 70
    64
  3
----------  --  ----------  --  
 72
    65
 73
     4
 40
20.0
 49
12.5
 49
-2.5
 49
2.5
 49
-2.5
  0
ENDTAB
  0
TABLE
  2
STYLE
  5
3
100
AcDbSymbolTable
 70
     1
  0
STYLE
  5
10
100
AcDbSymbolTableRecord
100
AcDbTextStyleTableRecord
  2
STANDARD
 70
     0
 40
0.0
 41
1.0
 50
0.0
 71
     0
 42
0.2
  3
txt
  4
bigfont.shx
  0
ENDTAB
  0
TABLE
  2
LAYER
 70
    2
  0
LAYER
  2
_0-0_
 70
   64
 62
    7
  6
CONTINUOUS
  0
LAYER
  2
ADD_LINE
 70
   64
 62
    7
  6
CONTINUOUS
  0
ENDTAB
  0
ENDSEC
  0
SECTION
  2
BLOCKS
  0
ENDSEC
  0
SECTION
  2
ENTITIES
  0
ARC
  8
_0-0_
  6
CONTINUOUS
 62
    4
 10
155.546020407905
 20
132.304029782899
 40
6.801670756867
 50
163.100026471151
 51
167.749693175283
  0
ARC
  8
_0-0_
  6
CONTINUOUS
 62
    2
 10
157.78411483759
 20
131.627091712743
 40
9.1398977574966
 50
158.257950206575
 51
163.11829574741
  0
ARC
  8
_0-0_
  6
CONTINUOUS
 62
    4
 10
160.069547580957
 20
130.717694227358
 40
11.5996139624605
 50
153.122418508414
 51
158.267264665245
  0
ARC
  8
_0-0_
  6
CONTINUOUS
 62
    4
 10
152.653373296653
 20
132.890965136272
 40
6.801670756867
 50
169.100026471151
 51
173.749693175283
  0
ARC
  8
_0-0_
  6
CONTINUOUS
 62
    2
 10
154.949966507077
 20
132.451679975076
 40
9.1398977574966
 50
164.257950206575
 51
169.11829574741
  0
ARC
  8
_0-0_
  6
CONTINUOUS
 62
    4
 10
157.317937332394
 20
131.786157036833
 40
11.5996139624605
 50
159.122418508414
 51
164.267264665245
  0
ARC
  8
_0-0_
  6
CONTINUOUS
 62
    4
 10
149.715220958413
 20
133.172321239051
 40
6.801670756867
 50
175.100026471151
 51
179.749693175283
  0
ARC
  8
_0-0_
  6
CONTINUOUS
 62
    2
 10
152.04515099377
 20
132.975501886968
 40
9.1398977574966
 50
170.257950206575
 51
175.11829574741
  0
ARC
  8
_0-0_
  6
CONTINUOUS
 62
    4
 10
154.469715917145
 20
132.561145104449
 40
11.5996139624605
 50
165.122418508414
 51
170.267264665245
  0
ARC
  8
_0-0_
  6
CONTINUOUS
 62
    4
 10
146.763754405051
 20
133.145015494899
 40
6.801670756867
 50
181.100026471151
 51
185.749693175283
  0
ARC
  8
_0-0_
  6
CONTINUOUS
 62
    2
 10
149.101494064305
 20
133.192818345937
 40
9.1398977574966
 50
176.257950206575
 51
181.11829574741
  0
ARC
  8
_0-0_
  6
CONTINUOUS
 62
    4
 10
151.556089045064
 20
133.03416749876
 40
11.5996139624605
 50
171.122418508414
 51
176.267264665245
  0
ARC
  8
_0-0_
  6
CONTINUOUS
 62
    4
 10
143.831310521761
 20
132.809347071261
 40
6.801670756867
 50
187.100026471151
 51
191.749693175283
  0
ARC
  8
_0-0_
  6
CONTINUOUS
 62
    2
 10
146.151247040001
 20
133.101248387381
 40
9.1398977574966
 50
182.257950206575
 51
187.11829574741
  0
ARC
  8
_0-0_
  6
CONTINUOUS
 62
    4
 10
148.608979021878
 20
133.200041687428
 40
11.5996139624605
 50
177.122418508414
 51
182.267264665245
  0
ARC
  8
_0-0_
  6
CONTINUOUS
 62
    4
 10
140.95001777738
 20
132.16899362163
 40
6.801670756867
 50
193.100026471151
 51
197.749693175283
  0
ARC
  8
_0-0_
  6
CONTINUOUS
 62
    2
 10
143.226733444634
 20
132.701795270929
 40
9.1398977574966
 50
188.257950206575
 51
193.11829574741
  0
ARC
  8
_0-0_
  6
CONTINUOUS
 62
    4
 10
145.660675001723
 20
133.056950318131
 40
11.5996139624605
 50
183.122418508414
 51
188.267264665245
  0
ARC
  8
_0-0_
  6
CONTINUOUS
 62
    4
 10
138.151444218165
 20
131.230970992404
 40
6.801670756867
 50
199.100026471151
 51
203.749693175283
  0
ARC
  8
_0-0_
  6
CONTINUOUS
 62
    2
 10
140.35999486115
 20
131.998835488515
 40
9.1398977574966
 50
194.257950206575
 51
199.11829574741
  0
ARC
  8
_0-0_
  6
CONTINUOUS
 62
    4
 10
142.743479220416
 20
132.606461129853
 40
11.5996139624605
 50
189.122418508414
 51
194.267264665245
  0
ARC
  8
_0-0_
  6
CONTINUOUS
 62
    4
 10
135.466251601671
 20
130.005556355801
 40
6.801670756867
 50
205.100026471151
 51
209.749693175283
  0
ARC
  8
_0-0_
  6
CONTINUOUS
 62
    2
 10
137.582439877373
 20
131.000070814619
 40
9.1398977574966
 50
200.257950206575
 51
205.11829574741
  0
ARC
  8
_0-0_
  6
CONTINUOUS
 62
    4
 10
139.889353085399
 20
131.853509776414
 40
11.5996139624605
 50
195.122418508414
 51
200.267264665245
  0
ARC
  8
_0-0_
  6
CONTINUOUS
 62
    4
 10
132.923859460116
 20
128.506175611015
 40
6.801670756867
 50
211.100026471151
 51
215.749693175283
  0
ARC
  8
_0-0_
  6
CONTINUOUS
 62
    2
 10
134.924499966945
 20
129.716443924014
 40
9.1398977574966
 50
206.257950206575
 51
211.11829574741
  0
ARC
  8
_0-0_
  6
CONTINUOUS
 62
    4
 10
137.129566999873
 20
130.806345750406
 40
11.5996139624605
 50
201.122418508414
 51
206.267264665245
  0
ARC
  8
_0-0_
  6
CONTINUOUS
 62
    4
 10
130.552122773833
 20
126.749256287251
 40
6.801670756867
 50
217.100026471151
 51
221.749693175283
  0
ARC
  8
_0-0_
  6
CONTINUOUS
 62
    2
 10
132.415296075736
 20
128.162018501529
 40
9.1398977574966
 50
212.257950206575
 51
217.11829574741
  0
ARC
  8
_0-0_
  6
CONTINUOUS
 62
    4
 10
134.494357757712
 20
129.476442000032
 40
11.5996139624605
 50
207.122418508414
 51
212.267264665245
  0
ARC
  8
_0-0_
  6
CONTINUOUS
 62
    4
 10
128.377026786275
 20
124.754047560279
 40
6.801670756867
 50
223.100026471151
 51
227.749693175283
  0
ARC
  8
_0-0_
  6
CONTINUOUS
 62
    2
 10
130.082319566662
 20
126.353825157377
 40
9.1398977574966
 50
218.257950206575
 51
223.11829574741
  0
ARC
  8
_0-0_
  6
CONTINUOUS
 62
    4
 10
132.012597262826
 20
127.87836922908
 40
11.5996139624605
 50
213.122418508414
 51
218.267264665245
  0
ARC
  8
_0-0_
  6
CONTINUOUS
 62
    4
 10
126.422402304249
 20
122.542409354437
 40
6.801670756867
 50
229.100026471151
 51
233.749693175283
  0
ARC
  8
_0-0_
  6
CONTINUOUS
 62
    2
 10
127.951131018563
 20
124.311674836226
 40
9.1398977574966
 50
224.257950206575
 51
229.11829574741
  0
ARC
  8
_0-0_
  6
CONTINUOUS
 62
    4
 10
129.71147620254
 20
126.029636257249
 40
11.5996139624605
 50
219.122418508414
 51
224.267264665245
  0
ARC
  8
_0-0_
  6
CONTINUOUS
 62
    4
 10
124.709664602612
 20
120.138572840722
 40
6.801670756867
 50
235.100026471151
 51
239.749693175283
  0
ARC
  8
_0-0_
  6
CONTINUOUS
 62
    2
 10
126.045080179151
 20
122.057941764341
 40
9.1398977574966
 50
230.257950206575
 51
235.11829574741
  0
ARC
  8
_0-0_
  6
CONTINUOUS
 62
    4
 10
127.61620614073
 20
123.950498189848
 40
11.5996139624605
 50
225.122418508414
 51
230.267264665245
  0
ARC
  8
_0-0_
  6
CONTINUOUS
 62
    4
 10
123.257578794037
 20
117.568874955015
 40
6.801670756867
 50
241.100026471151
 51
245.749693175283
  0
ARC
  8
_0-0_
  6
CONTINUOUS
 62
    2
 10
124.385050140291
 20
119.617318312882
 40
9.1398977574966
 50
236.257950206575
 51
241.11829574741
  0
ARC
  8
_0-0_
  6
CONTINUOUS
 62
    4
 10
125.749743294658
 20
121.663734498633
 40
11.5996139624605
 50
231.122418508414
 51
236.267264665245
  0
ARC
  8
_0-0_
  6
CONTINUOUS
 62
    4
 10
122.08205423451
 20
114.861469845094
 40
6.801670756867
 50
247.100026471151
 51
251.749693175283
  0
ARC
  8
_0-0_
  6
CONTINUOUS
 62
    2
 10
122.989228538472
 20
117.016544463117
 40
9.1398977574966
 50
242.257950206575
 51
247.11829574741
  0
ARC
  8
_0-0_
  6
CONTINUOUS
 62
    4
 10
124.132537021846
 20
119.19439944514
 40
11.5996139624605
 50
237.122418508414
 51
242.267264665245
  0
ARC
  8
_0-0_
  6
CONTINUOUS
 62
    4
 10
121.195970217101
 20
112.046020407905
 40
6.801670756867
 50
253.100026471151
 51
257.749693175283
  0
ARC
  8
_0-0_
  6
CONTINUOUS
 62
    2
 10
121.872908287257
 20
114.28411483759
 40
9.1398977574966
 50
248.257950206575
 51
253.11829574741
  0
ARC
  8
_0-0_
  6
CONTINUOUS
 62
    4
 10
122.782305772642
 20
116.569547580957
 40
11.5996139624605
 50
243.122418508414
 51
248.267264665245
  0
ARC
  8
_0-0_
  6
CONTINUOUS
 62
    4
 10
120.609034863728
 20
109.153373296653
 40
6.801670756867
 50
259.100026471151
 51
263.749693175283
  0
ARC
  8
_0-0_
  6
CONTINUOUS
 62
    2
 10
121.048320024924
 20
111.449966507077
 40
9.1398977574966
 50
254.257950206575
 51
259.11829574741
  0
ARC
  8
_0-0_
  6
CONTINUOUS
 62
    4
 10
121.713842963167
 20
113.817937332394
 40
11.5996139624605
 50
249.122418508414
 51
254.267264665245
  0
ARC
  8
_0-0_
  6
CONTINUOUS
 62
    4
 10
120.327678760949
 20
106.215220958413
 40
6.801670756867
 50
265.100026471151
 51
269.749693175283
  0
ARC
  8
_0-0_
  6
CONTINUOUS
 62
    2
 10
120.524498113032
 20
108.54515099377
 40
9.1398977574966
 50
260.257950206575
 51
265.11829574741
  0
ARC
  8
_0-0_
  6
CONTINUOUS
 62
    4
 10
120.938854895551
 20
110.969715917145
 40
11.5996139624605
 50
255.122418508414
 51
260.267264665245
  0
ARC
  8
_0-0_
  6
CONTINUOUS
 62
    4
 10
120.354984505101
 20
103.263754405051
 40
6.801670756867
 50
271.100026471151
 51
275.749693175283
  0
ARC
  8
_0-0_
  6
CONTINUOUS
 62
    2
 10
120.307181654063
 20
105.601494064305
 40
9.1398977574966
 50
266.257950206575
 51
271.11829574741
  0
ARC
  8
_0-0_
  6
CONTINUOUS
 62
    4
 10
120.46583250124
 20
108.056089045064
 40
11.5996139624605
 50
261.122418508414
 51
266.267264665245
  0
ARC
  8
_0-0_
  6
CONTINUOUS
 62
    4
 10
120.690652928739
 20
100.331310521761
 40
6.801670756867
 50
277.100026471151
 51
281.749693175283
  0
ARC
  8
_0-0_
  6
CONTINUOUS
 62
    2
 10
120.398751612619
 20
102.651247040001
 40
9.1398977574966
 50
272.257950206575
 51
277.11829574741
  0
ARC
  8
_0-0_
  6
CONTINUOUS
 62
    4
 10
120.299958312572
 20
105.108979021878
 40
11.5996139624605
 50
267.122418508414
 51
272.267264665245
  0
ARC
  8
_0-0_
  6
CONTINUOUS
 62
    4
 10
121.33100637837
 20
97.4500177773797
 40
6.801670756867
 50
283.100026471151
 51
287.749693175283
  0
ARC
  8
_0-0_
  6
CONTINUOUS
 62
    2
 10
120.798204729071
 20
99.726733444634
 40
9.1398977574966
 50
278.257950206575
 51
283.11829574741
  0
ARC
  8
_0-0_
  6
CONTINUOUS
 62
    4
 10
120.443049681869
 20
102.160675001723
 40
11.5996139624605
 50
273.122418508414
 51
278.267264665245
  0
ARC
  8
_0-0_
  6
CONTINUOUS
 62
    4
 10
122.269029007596
 20
94.6514442181652
 40
6.801670756867
 50
289.100026471151
 51
293.749693175283
  0
ARC
  8
_0-0_
  6
CONTINUOUS
 62
    2
 10
121.501164511485
 20
96.8599948611499
 40
9.1398977574966
 50
284.257950206575
 51
289.11829574741
  0
ARC
  8
_0-0_
  6
CONTINUOUS
 62
    4
 10
120.893538870147
 20
99.2434792204156
 40
11.5996139624605
 50
279.122418508414
 51
284.267264665245
  0
ARC
  8
_0-0_
  6
CONTINUOUS
 62
    4
 10
123.494443644199
 20
91.966251601671
 40
6.801670756867
 50
295.100026471151
 51
299.749693175283
  0
ARC
  8
_0-0_
  6
CONTINUOUS
 62
    2
 10
122.499929185381
 20
94.0824398773727
 40
9.1398977574966
 50
290.257950206575
 51
295.11829574741
  0
ARC
  8
_0-0_
  6
CONTINUOUS
 62
    4
 10
121.646490223586
 20
96.389353085399
 40
11.5996139624605
 50
285.122418508414
 51
290.267264665245
  0
ARC
  8
_0-0_
  6
CONTINUOUS
 62
    4
 10
124.993824388985
 20
89.4238594601161
 40
6.801670756867
 50
301.100026471151
 51
305.749693175283
  0
ARC
  8
_0-0_
  6
CONTINUOUS
 62
    2
 10
123.783556075986
 20
91.4244999669453
 40
9.1398977574966
 50
296.257950206575
 51
301.11829574741
  0
ARC
  8
_0-0_
  6
CONTINUOUS
 62
    4
 10
122.693654249594
 20
93.6295669998726
 40
11.5996139624605
 50
291.122418508414
 51
296.267264665245
  0
ARC
  8
_0-0_
  6
CONTINUOUS
 62
    4
 10
126.750743712749
 20
87.0521227738331
 40
6.801670756867
 50
307.100026471151
 51
311.749693175283
  0
ARC
  8
_0-0_
  6
CONTINUOUS
 62
    2
 10
125.337981498471
 20
88.9152960757361
 40
9.1398977574966
 50
302.257950206575
 51
307.11829574741
  0
ARC
  8
_0-0_
  6
CONTINUOUS
 62
    4
 10
124.023557999968
 20
90.9943577577116
 40
11.5996139624605
 50
297.122418508414
 51
302.267264665245
  0
ARC
  8
_0-0_
  6
CONTINUOUS
 62
    4
 10
128.745952439721
 20
84.8770267862748
 40
6.801670756867
 50
313.100026471151
 51
317.749693175283
  0
ARC
  8
_0-0_
  6
CONTINUOUS
 62
    2
 10
127.146174842623
 20
86.5823195666618
 40
9.1398977574966
 50
308.257950206575
 51
313.11829574741
  0
ARC
  8
_0-0_
  6
CONTINUOUS
 62
    4
 10
125.62163077092
 20
88.5125972628262
 40
11.5996139624605
 50
303.122418508414
 51
308.267264665245
  0
ARC
  8
_0-0_
  6
CONTINUOUS
 62
    4
 10
130.957590645563
 20
82.9224023042489
 40
6.801670756867
 50
319.100026471151
 51
323.749693175283
  0
ARC
  8
_0-0_
  6
CONTINUOUS
 62
    2
 10
129.188325163774
 20
84.4511310185626
 40
9.1398977574966
 50
314.257950206575
 51
319.11829574741
  0
ARC
  8
_0-0_
  6
CONTINUOUS
 62
    4
 10
127.470363742751
 20
86.2114762025401
 40
11.5996139624605
 50
309.122418508414
 51
314.267264665245
  0
ARC
  8
_0-0_
  6
CONTINUOUS
 62
    4
 10
133.361427159278
 20
81.209664602612
 40
6.801670756867
 50
325.100026471151
 51
329.749693175283
  0
ARC
  8
_0-0_
  6
CONTINUOUS
 62
    2
 10
131.442058235659
 20
82.5450801791513
 40
9.1398977574966
 50
320.257950206575
 51
325.11829574741
  0
ARC
  8
_0-0_
  6
CONTINUOUS
 62
    4
 10
129.549501810152
 20
84.1162061407304
 40
11.5996139624605
 50
315.122418508414
 51
320.267264665245
  0
ARC
  8
_0-0_
  6
CONTINUOUS
 62
    4
 10
135.931125044985
 20
79.7575787940366
 40
6.801670756867
 50
331.100026471151
 51
335.749693175283
  0
ARC
  8
_0-0_
  6
CONTINUOUS
 62
    2
 10
133.882681687118
 20
80.8850501402913
 40
9.1398977574966
 50
326.257950206575
 51
331.11829574741
  0
ARC
  8
_0-0_
  6
CONTINUOUS
 62
    4
 10
131.836265501367
 20
82.2497432946576
 40
11.5996139624605
 50
321.122418508414
 51
326.267264665245
  0
ARC
  8
_0-0_
  6
CONTINUOUS
 62
    4
 10
138.638530154906
 20
78.5820542345099
 40
6.801670756867
 50
337.100026471151
 51
341.749693175283
  0
ARC
  8
_0-0_
  6
CONTINUOUS
 62
    2
 10
136.483455536883
 20
79.4892285384719
 40
9.1398977574966
 50
332.257950206575
 51
337.11829574741
  0
ARC
  8
_0-0_
  6
CONTINUOUS
 62
    4
 10
134.30560055486
 20
80.6325370218459
 40
11.5996139624605
 50
327.122418508414
 51
332.267264665245
  0
ARC
  8
_0-0_
  6
CONTINUOUS
 62
    4
 10
141.453979592095
 20
77.6959702171006
 40
6.801670756867
 50
343.100026471151
 51
347.749693175283
  0
ARC
  8
_0-0_
  6
CONTINUOUS
 62
    2
 10
139.21588516241
 20
78.3729082872571
 40
9.1398977574966
 50
338.257950206575
 51
343.11829574741
  0
ARC
  8
_0-0_
  6
CONTINUOUS
 62
    4
 10
136.930452419043
 20
79.2823057726422
 40
11.5996139624605
 50
333.122418508414
 51
338.267264665245
  0
ARC
  8
_0-0_
  6
CONTINUOUS
 62
    4
 10
144.346626703347
 20
77.1090348637283
 40
6.801670756867
 50
349.100026471151
 51
353.749693175283
  0
ARC
  8
_0-0_
  6
CONTINUOUS
 62
    2
 10
142.050033492923
 20
77.5483200249244
 40
9.1398977574966
 50
344.257950206575
 51
349.11829574741
  0
ARC
  8
_0-0_
  6
CONTINUOUS
 62
    4
 10
139.682062667606
 20
78.213842963167
 40
11.5996139624605
 50
339.122418508414
 51
344.267264665245
  0
ARC
  8
_0-0_
  6
CONTINUOUS
 62
    4
 10
147.284779041587
 20
76.8276787609486
 40
6.801670756867
 50
355.100026471151
 51
359.749693175283
  0
ARC
  8
_0-0_
  6
CONTINUOUS
 62
    2
 10
144.95484900623
 20
77.0244981130319
 40
9.1398977574966
 50
350.257950206575
 51
355.11829574741
  0
ARC
  8
_0-0_
  6
CONTINUOUS
 62
    4
 10
142.530284082855
 20
77.4388548955511
 40
11.5996139624605
 50
345.122418508414
 51
350.267264665245
  0
ARC
  8
_0-0_
  6
CONTINUOUS
 62
    4
 10
150.236245594949
 20
76.8549845051012
 40
6.801670756867
 50
361.100026471151
 51
365.749693175283
  0
ARC
  8
_0-0_
  6
CONTINUOUS
 62
    2
 10
147.898505935695
 20
76.8071816540631
 40
9.1398977574966
 50
356.257950206575
 51
361.11829574741
  0
ARC
  8
_0-0_
  6
CONTINUOUS
 62
    4
 10
145.443910954936
 20
76.9658325012399
 40
11.5996139624605
 50
351.122418508414
 51
356.267264665245
  0
ARC
  8
_0-0_
  6
CONTINUOUS
 62
    4
 10
153.168689478239
 20
77.190652928739
 40
6.801670756867
 50
367.100026471151
 51
371.749693175283
  0
ARC
  8
_0-0_
  6
CONTINUOUS
 62
    2
 10
150.848752959999
 20
76.898751612619
 40
9.1398977574966
 50
362.257950206575
 51
367.11829574741
  0
ARC
  8
_0-0_
  6
CONTINUOUS
 62
    4
 10
148.391020978122
 20
76.7999583125718
 40
11.5996139624605
 50
357.122418508414
 51
362.267264665245
  0
ARC
  8
_0-0_
  6
CONTINUOUS
 62
    4
 10
156.04998222262
 20
77.8310063783696
 40
6.801670756867
 50
373.100026471151
 51
377.749693175283
  0
ARC
  8
_0-0_
  6
CONTINUOUS
 62
    2
 10
153.773266555366
 20
77.2982047290713
 40
9.1398977574966
 50
368.257950206575
 51
373.11829574741
  0
ARC
  8
_0-0_
  6
CONTINUOUS
 62
    4
 10
151.339324998277
 20
76.9430496818693
 40
11.5996139624605
 50
363.122418508414
 51
368.267264665245
  0
ARC
  8
_0-0_
  6
CONTINUOUS
 62
    4
 10
158.848555781835
 20
78.7690290075962
 40
6.801670756867
 50
379.100026471151
 51
383.749693175283
  0
ARC
  8
_0-0_
  6
CONTINUOUS
 62
    2
 10
156.64000513885
 20
78.0011645114853
 40
9.1398977574966
 50
374.257950206575
 51
379.11829574741
  0
ARC
  8
_0-0_
  6
CONTINUOUS
 62
    4
 10
154.256520779584
 20
77.3935388701465
 40
11.5996139624605
 50
369.122418508414
 51
374.267264665245
  0
ARC
  8
_0-0_
  6
CONTINUOUS
 62
    4
 10
161.533748398329
 20
79.9944436441992
 40
6.801670756867
 50
385.100026471151
 51
389.749693175283
  0
ARC
  8
_0-0_
  6
CONTINUOUS
 62
    2
 10
159.417560122627
 20
78.9999291853809
 40
9.1398977574966
 50
380.257950206575
 51
385.11829574741
  0
ARC
  8
_0-0_
  6
CONTINUOUS
 62
    4
 10
157.110646914601
 20
78.1464902235858
 40
11.5996139624605
 50
375.122418508414
 51
380.267264665245
  0
ARC
  8
_0-0_
  6
CONTINUOUS
 62
    4
 10
164.076140539884
 20
81.4938243889854
 40
6.801670756867
 50
391.100026471151
 51
395.749693175283
  0
ARC
  8
_0-0_
  6
CONTINUOUS
 62
    2
 10
162.075500033055
 20
80.2835560759862
 40
9.1398977574966
 50
386.257950206575
 51
391.11829574741
  0
ARC
  8
_0-0_
  6
CONTINUOUS
 62
    4
 10
159.870433000127
 20
79.1936542495937
 40
11.5996139624605
 50
381.122418508414
 51
386.267264665245
  0
ARC
  8
_0-0_
  6
CONTINUOUS
 62
    4
 10
166.447877226167
 20
83.2507437127493
 40
6.801670756867
 50
397.100026471151
 51
401.749693175283
  0
ARC
  8
_0-0_
  6
CONTINUOUS
 62
    2
 10
164.584703924264
 20
81.8379814984713
 40
9.1398977574966
 50
392.257950206575
 51
397.11829574741
  0
ARC
  8
_0-0_
  6
CONTINUOUS
 62
    4
 10
162.505642242288
 20
80.5235579999681
 40
11.5996139624605
 50
387.122418508414
 51
392.267264665245
  0
ARC
  8
_0-0_
  6
CONTINUOUS
 62
    4
 10
168.622973213725
 20
85.2459524397208
 40
6.801670756867
 50
403.100026471151
 51
407.749693175283
  0
ARC
  8
_0-0_
  6
CONTINUOUS
 62
    2
 10
166.917680433338
 20
83.6461748426231
 40
9.1398977574966
 50
398.257950206575
 51
403.11829574741
  0
ARC
  8
_0-0_
  6
CONTINUOUS
 62
    4
 10
164.987402737174
 20
82.1216307709196
 40
11.5996139624605
 50
393.122418508414
 51
398.267264665245
  0
ARC
  8
_0-0_
  6
CONTINUOUS
 62
    4
 10
170.577597695751
 20
87.457590645563
 40
6.801670756867
 50
409.100026471151
 51
413.749693175283
  0
ARC
  8
_0-0_
  6
CONTINUOUS
 62
    2
 10
169.048868981437
 20
85.6883251637744
 40
9.1398977574966
 50
404.257950206575
 51
409.11829574741
  0
ARC
  8
_0-0_
  6
CONTINUOUS
 62
    4
 10
167.28852379746
 20
83.9703637427514
 40
11.5996139624605
 50
399.122418508414
 51
404.267264665245
  0
ARC
  8
_0-0_
  6
CONTINUOUS
 62
    4
 10
172.290335397388
 20
89.8614271592776
 40
6.801670756867
 50
415.100026471151
 51
419.749693175283
  0
ARC
  8
_0-0_
  6
CONTINUOUS
 62
    2
 10
170.954919820849
 20
87.9420582356591
 40
9.1398977574966
 50
410.257950206575
 51
415.11829574741
  0
ARC
  8
_0-0_
  6
CONTINUOUS
 62
    4
 10
169.38379385927
 20
86.049501810152
 40
11.5996139624605
 50
405.122418508414
 51
410.267264665245
  0
ARC
  8
_0-0_
  6
CONTINUOUS
 62
    4
 10
173.742421205963
 20
92.4311250449851
 40
6.801670756867
 50
421.100026471151
 51
425.749693175283
  0
ARC
  8
_0-0_
  6
CONTINUOUS
 62
    2
 10
172.614949859709
 20
90.3826816871178
 40
9.1398977574966
 50
416.257950206575
 51
421.11829574741
  0
ARC
  8
_0-0_
  6
CONTINUOUS
 62
    4
 10
171.250256705342
 20
88.3362655013673
 40
11.5996139624605
 50
411.122418508414
 51
416.267264665245
  0
ARC
  8
_0-0_
  6
CONTINUOUS
 62
    4
 10
174.91794576549
 20
95.1385301549059
 40
6.801670756867
 50
427.100026471151
 51
431.749693175283
  0
ARC
  8
_0-0_
  6
CONTINUOUS
 62
    2
 10
174.010771461528
 20
92.9834555368829
 40
9.1398977574966
 50
422.257950206575
 51
427.11829574741
  0
ARC
  8
_0-0_
  6
CONTINUOUS
 62
    4
 10
172.867462978154
 20
90.8056005548602
 40
11.5996139624605
 50
417.122418508414
 51
422.267264665245
  0
ARC
  8
_0-0_
  6
CONTINUOUS
 62
    4
 10
175.804029782899
 20
97.9539795920949
 40
6.801670756867
 50
433.100026471151
 51
437.749693175283
  0
ARC
  8
_0-0_
  6
CONTINUOUS
 62
    2
 10
175.127091712743
 20
95.7158851624095
 40
9.1398977574966
 50
428.257950206575
 51
433.11829574741
  0
ARC
  8
_0-0_
  6
CONTINUOUS
 62
    4
 10
174.217694227358
 20
93.430452419043
 40
11.5996139624605
 50
423.122418508414
 51
428.267264665245
  0
ARC
  8
_0-0_
  6
CONTINUOUS
 62
    4
 10
176.390965136272
 20
100.846626703347
 40
6.801670756867
 50
439.100026471151
 51
443.749693175283
  0
ARC
  8
_0-0_
  6
CONTINUOUS
 62
    2
 10
175.951679975076
 20
98.5500334929227
 40
9.1398977574966
 50
434.257950206575
 51
439.11829574741
  0
ARC
  8
_0-0_
  6
CONTINUOUS
 62
    4
 10
175.286157036833
 20
96.1820626676064
 40
11.5996139624605
 50
429.122418508414
 51
434.267264665245
  0
ARC
  8
_0-0_
  6
CONTINUOUS
 62
    4
 10
176.672321239051
 20
103.784779041587
 40
6.801670756867
 50
445.100026471151
 51
449.749693175283
  0
ARC
  8
_0-0_
  6
CONTINUOUS
 62
    2
 10
176.475501886968
 20
101.45484900623
 40
9.1398977574966
 50
440.257950206575
 51
445.11829574741
  0
ARC
  8
_0-0_
  6
CONTINUOUS
 62
    4
 10
176.061145104449
 20
99.0302840828554
 40
11.5996139624605
 50
435.122418508414
 51
440.267264665245
  0
ARC
  8
_0-0_
  6
CONTINUOUS
 62
    4
 10
176.645015494899
 20
106.736245594949
 40
6.801670756867
 50
451.100026471151
 51
455.749693175283
  0
ARC
  8
_0-0_
  6
CONTINUOUS
 62
    2
 10
176.692818345937
 20
104.398505935695
 40
9.1398977574966
 50
446.257950206575
 51
451.11829574741
  0
ARC
  8
_0-0_
  6
CONTINUOUS
 62
    4
 10
176.53416749876
 20
101.943910954936
 40
11.5996139624605
 50
441.122418508414
 51
446.267264665245
  0
ARC
  8
_0-0_
  6
CONTINUOUS
 62
    4
 10
176.309347071261
 20
109.668689478239
 40
6.801670756867
 50
457.100026471151
 51
461.749693175283
  0
ARC
  8
_0-0_
  6
CONTINUOUS
 62
    2
 10
176.601248387381
 20
107.348752959999
 40
9.1398977574966
 50
452.257950206575
 51
457.11829574741
  0
ARC
  8
_0-0_
  6
CONTINUOUS
 62
    4
 10
176.700041687428
 20
104.891020978122
 40
11.5996139624605
 50
447.122418508414
 51
452.267264665245
  0
ARC
  8
_0-0_
  6
CONTINUOUS
 62
    4
 10
175.66899362163
 20
112.54998222262
 40
6.801670756867
 50
463.100026471151
 51
467.749693175283
  0
ARC
  8
_0-0_
  6
CONTINUOUS
 62
    2
 10
176.201795270929
 20
110.273266555366
 40
9.1398977574966
 50
458.257950206575
 51
463.11829574741
  0
ARC
  8
_0-0_
  6
CONTINUOUS
 62
    4
 10
176.556950318131
 20
107.839324998277
 40
11.5996139624605
 50
453.122418508414
 51
458.267264665245
  0
ARC
  8
_0-0_
  6
CONTINUOUS
 62
    4
 10
174.730970992404
 20
115.348555781835
 40
6.801670756867
 50
469.100026471151
 51
473.749693175283
  0
ARC
  8
_0-0_
  6
CONTINUOUS
 62
    2
 10
175.498835488515
 20
113.14000513885
 40
9.1398977574966
 50
464.257950206575
 51
469.11829574741
  0
ARC
  8
_0-0_
  6
CONTINUOUS
 62
    4
 10
176.106461129853
 20
110.756520779584
 40
11.5996139624605
 50
459.122418508414
 51
464.267264665245
  0
ARC
  8
_0-0_
  6
CONTINUOUS
 62
    4
 10
173.505556355801
 20
118.033748398329
 40
6.801670756867
 50
475.100026471151
 51
479.749693175283
  0
ARC
  8
_0-0_
  6
CONTINUOUS
 62
    2
 10
174.500070814619
 20
115.917560122627
 40
9.1398977574966
 50
470.257950206575
 51
475.11829574741
  0
ARC
  8
_0-0_
  6
CONTINUOUS
 62
    4
 10
175.353509776414
 20
113.610646914601
 40
11.5996139624605
 50
465.122418508414
 51
470.267264665245
  0
ARC
  8
_0-0_
  6
CONTINUOUS
 62
    4
 10
172.006175611015
 20
120.576140539884
 40
6.801670756867
 50
481.100026471151
 51
485.749693175283
  0
ARC
  8
_0-0_
  6
CONTINUOUS
 62
    2
 10
173.216443924014
 20
118.575500033055
 40
9.1398977574966
 50
476.257950206575
 51
481.11829574741
  0
ARC
  8
_0-0_
  6
CONTINUOUS
 62
    4
 10
174.306345750406
 20
116.370433000127
 40
11.5996139624605
 50
471.122418508414
 51
476.267264665245
  0
ARC
  8
_0-0_
  6
CONTINUOUS
 62
    4
 10
170.249256287251
 20
122.947877226167
 40
6.801670756867
 50
487.100026471151
 51
491.749693175283
  0
ARC
  8
_0-0_
  6
CONTINUOUS
 62
    2
 10
171.662018501529
 20
121.084703924264
 40
9.1398977574966
 50
482.257950206575
 51
487.11829574741
  0
ARC
  8
_0-0_
  6
CONTINUOUS
 62
    4
 10
172.976442000032
 20
119.005642242288
 40
11.5996139624605
 50
477.122418508414
 51
482.267264665245
  0
ARC
  8
_0-0_
  6
CONTINUOUS
 62
    4
 10
168.254047560279
 20
125.122973213725
 40
6.801670756867
 50
493.100026471151
 51
497.749693175283
  0
ARC
  8
_0-0_
  6
CONTINUOUS
 62
    2
 10
169.853825157377
 20
123.417680433338
 40
9.1398977574966
 50
488.257950206575
 51
493.11829574741
  0
ARC
  8
_0-0_
  6
CONTINUOUS
 62
    4
 10
171.37836922908
 20
121.487402737174
 40
11.5996139624605
 50
483.122418508414
 51
488.267264665245
  0
ARC
  8
_0-0_
  6
CONTINUOUS
 62
    4
 10
166.042409354437
 20
127.077597695751
 40
6.801670756867
 50
499.100026471151
 51
503.749693175283
  0
ARC
  8
_0-0_
  6
CONTINUOUS
 62
    2
 10
167.811674836226
 20
125.548868981437
 40
9.1398977574966
 50
494.257950206575
 51
499.11829574741
  0
ARC
  8
_0-0_
  6
CONTINUOUS
 62
    4
 10
169.529636257249
 20
123.78852379746
 40
11.5996139624605
 50
489.122418508414
 51
494.267264665245
  0
ARC
  8
_0-0_
  6
CONTINUOUS
 62
    4
 10
163.638572840722
 20
128.790335397388
 40
6.801670756867
 50
505.100026471151
 51
509.749693175283
  0
ARC
  8
_0-0_
  6
CONTINUOUS
 62
    2
 10
165.557941764341
 20
127.454919820849
 40
9.1398977574966
 50
500.257950206575
 51
505.11829574741
  0
ARC
  8
_0-0_
  6
CONTINUOUS
 62
    4
 10
167.450498189848
 20
125.88379385927
 40
11.5996139624605
 50
495.122418508414
 51
500.267264665245
  0
ARC
  8
_0-0_
  6
CONTINUOUS
 62
    4
 10
161.068874955015
 20
130.242421205963
 40
6.801670756867
 50
511.100026471151
 51
515.749693175283
  0
ARC
  8
_0-0_
  6
CONTINUOUS
 62
    2
 10
163.117318312882
 20
129.114949859709
 40
9.1398977574966
 50
506.257950206575
 51
511.11829574741
  0
ARC
  8
_0-0_
  6
CONTINUOUS
 62
    4
 10
165.163734498633
 20
127.750256705342
 40
11.5996139624605
 50
501.122418508414
 51
506.267264665245
  0
ARC
  8
_0-0_
  6
CONTINUOUS
 62
    4
 10
158.361469845094
 20
131.41794576549
 40
6.801670756867
 50
517.100026471151
 51
521.749693175283
  0
ARC
  8
_0-0_
  6
CONTINUOUS
 62
    2
 10
160.516544463117
 20
130.510771461528
 40
9.1398977574966
 50
512.257950206575
 51
517.11829574741
  0
ARC
  8
_0-0_
  6
CONTINUOUS
 62
    4
 10
162.69439944514
 20
129.367462978154
 40
11.5996139624605
 50
507.122418508414
 51
512.267264665245
  0
ARC
  8
_0-0_
  6
CONTINUOUS
 62
    4
 10
141.453979592095
 20
132.304029782899
 40
6.801670756867
 50
372.250306824717
 51
376.899973528849
  0
ARC
  8
_0-0_
  6
CONTINUOUS
 62
    2
 10
139.21588516241
 20
131.627091712743
 40
9.1398977574966
 50
376.88170425259
 51
381.742049793425
  0
ARC
  8
_0-0_
  6
CONTINUOUS
 62
    4
 10
136.930452419043
 20
130.717694227358
 40
11.5996139624605
 50
381.732735334755
 51
386.877581491586
  0
ARC
  8
_0-0_
  6
CONTINUOUS
 62
    4
 10
138.638530154906
 20
131.41794576549
 40
6.801670756867
 50
378.250306824717
 51
382.899973528849
  0
ARC
  8
_0-0_
  6
CONTINUOUS
 62
    2
 10
136.483455536883
 20
130.510771461528
 40
9.1398977574966
 50
382.88170425259
 51
387.742049793425
  0
ARC
  8
_0-0_
  6
CONTINUOUS
 62
    4
 10
134.30560055486
 20
129.367462978154
 40
11.5996139624605
 50
387.732735334755
 51
392.877581491586
  0
ARC
  8
_0-0_
  6
CONTINUOUS
 62
    4
 10
135.931125044985
 20
130.242421205963
 40
6.801670756867
 50
384.250306824717
 51
388.899973528849
  0
ARC
  8
_0-0_
  6
CONTINUOUS
 62
    2
 10
133.882681687118
 20
129.114949859709
 40
9.1398977574966
 50
388.88170425259
 51
393.742049793425
  0
ARC
  8
_0-0_
  6
CONTINUOUS
 62
    4
 10
131.836265501367
 20
127.750256705342
 40
11.5996139624605
 50
393.732735334755
 51
398.877581491586
  0
ARC
  8
_0-0_
  6
CONTINUOUS
 62
    4
 10
133.361427159278
 20
128.790335397388
 40
6.801670756867
 50
390.250306824717
 51
394.899973528849
  0
ARC
  8
_0-0_
  6
CONTINUOUS
 62
    2
 10
131.442058235659
 20
127.454919820849
 40
9.1398977574966
 50
394.88170425259
 51
399.742049793425
  0
ARC
  8
_0-0_
  6
CONTINUOUS
 62
    4
 10
129.549501810152
 20
125.88379385927
 40
11.5996139624605
 50
399.732735334755
 51
404.877581491586
  0
ARC
  8
_0-0_
  6
CONTINUOUS
 62
    4
 10
130.957590645563
 20
127.077597695751
 40
6.801670756867
 50
396.250306824717
 51
400.899973528849
  0
ARC
  8
_0-0_
  6
CONTINUOUS
 62
    2
 10
129.188325163774
 20
125.548868981437
 40
9.1398977574966
 50
400.88170425259
 51
405.742049793425
  0
ARC
  8
_0-0_
  6
CONTINUOUS
 62
    4
 10
127.470363742751
 20
123.78852379746
 40
11.5996139624605
 50
405.732735334755
 51
410.877581491586
  0
ARC
  8
_0-0_
  6
CONTINUOUS
 62
    4
 10
128.745952439721
 20
125.122973213725
 40
6.801670756867
 50
402.250306824717
 51
406.899973528849
  0
ARC
  8
_0-0_
  6
CONTINUOUS
 62
    2
 10
127.146174842623
 20
123.417680433338
 40
9.1398977574966
 50
406.88170425259
 51
411.742049793425
  0
ARC
  8
_0-0_
  6
CONTINUOUS
 62
    4
 10
125.62163077092
 20
121.487402737174
 40
11.5996139624605
 50
411.732735334755
 51
416.877581491586
  0
ARC
  8
_0-0_
  6
CONTINUOUS
 62
    4
 10
126.750743712749
 20
122.947877226167
 40
6.801670756867
 50
408.250306824717
 51
412.899973528849
  0
ARC
  8
_0-0_
  6
CONTINUOUS
 62
    2
 10
125.337981498471
 20
121.084703924264
 40
9.1398977574966
 50
412.88170425259
 51
417.742049793425
  0
ARC
  8
_0-0_
  6
CONTINUOUS
 62
    4
 10
124.023557999968
 20
119.005642242288
 40
11.5996139624605
 50
417.732735334755
 51
422.877581491586
  0
ARC
  8
_0-0_
  6
CONTINUOUS
 62
    4
 10
124.993824388985
 20
120.576140539884
 40
6.801670756867
 50
414.250306824717
 51
418.899973528849
  0
ARC
  8
_0-0_
  6
CONTINUOUS
 62
    2
 10
123.783556075986
 20
118.575500033055
 40
9.1398977574966
 50
418.88170425259
 51
423.742049793425
  0
ARC
  8
_0-0_
  6
CONTINUOUS
 62
    4
 10
122.693654249594
 20
116.370433000127
 40
11.5996139624605
 50
423.732735334755
 51
428.877581491586
  0
ARC
  8
_0-0_
  6
CONTINUOUS
 62
    4
 10
123.494443644199
 20
118.033748398329
 40
6.801670756867
 50
420.250306824717
 51
424.899973528849
  0
ARC
  8
_0-0_
  6
CONTINUOUS
 62
    2
 10
122.499929185381
 20
115.917560122627
 40
9.1398977574966
 50
424.88170425259
 51
429.742049793425
  0
ARC
  8
_0-0_
  6
CONTINUOUS
 62
    4
 10
121.646490223586
 20
113.610646914601
 40
11.5996139624605
 50
429.732735334755
 51
434.877581491586
  0
ARC
  8
_0-0_
  6
CONTINUOUS
 62
    4
 10
122.269029007596
 20
115.348555781835
 40
6.801670756867
 50
426.250306824717
 51
430.899973528849
  0
ARC
  8
_0-0_
  6
CONTINUOUS
 62
    2
 10
121.501164511485
 20
113.14000513885
 40
9.1398977574966
 50
430.88170425259
 51
435.742049793425
  0
ARC
  8
_0-0_
  6
CONTINUOUS
 62
    4
 10
120.893538870147
 20
110.756520779584
 40
11.5996139624605
 50
435.732735334755
 51
440.877581491586
  0
ARC
  8
_0-0_
  6
CONTINUOUS
 62
    4
 10
121.33100637837
 20
112.54998222262
 40
6.801670756867
 50
432.250306824717
 51
436.899973528849
  0
ARC
  8
_0-0_
  6
CONTINUOUS
 62
    2
 10
120.798204729071
 20
110.273266555366
 40
9.1398977574966
 50
436.88170425259
 51
441.742049793425
  0
ARC
  8
_0-0_
  6
CONTINUOUS
 62
    4
 10
120.443049681869
 20
107.839324998277
 40
11.5996139624605
 50
441.732735334755
 51
446.877581491586
  0
ARC
  8
_0-0_
  6
CONTINUOUS
 62
    4
 10
120.690652928739
 20
109.668689478239
 40
6.801670756867
 50
438.250306824717
 51
442.899973528849
  0
ARC
  8
_0-0_
  6
CONTINUOUS
 62
    2
 10
120.398751612619
 20
107.348752959999
 40
9.1398977574966
 50
442.88170425259
 51
447.742049793425
  0
ARC
  8
_0-0_
  6
CONTINUOUS
 62
    4
 10
120.299958312572
 20
104.891020978122
 40
11.5996139624605
 50
447.732735334755
 51
452.877581491586
  0
ARC
  8
_0-0_
  6
CONTINUOUS
 62
    4
 10
120.354984505101
 20
106.736245594949
 40
6.801670756867
 50
444.250306824717
 51
448.899973528849
  0
ARC
  8
_0-0_
  6
CONTINUOUS
 62
    2
 10
120.307181654063
 20
104.398505935695
 40
9.1398977574966
 50
448.88170425259
 51
453.742049793425
  0
ARC
  8
_0-0_
  6
CONTINUOUS
 62
    4
 10
120.46583250124
 20
101.943910954936
 40
11.5996139624605
 50
453.732735334755
 51
458.877581491586
  0
ARC
  8
_0-0_
  6
CONTINUOUS
 62
    4
 10
120.327678760949
 20
103.784779041587
 40
6.801670756867
 50
450.250306824717
 51
454.899973528849
  0
ARC
  8
_0-0_
  6
CONTINUOUS
 62
    2
 10
120.524498113032
 20
101.45484900623
 40
9.1398977574966
 50
454.88170425259
 51
459.742049793425
  0
ARC
  8
_0-0_
  6
CONTINUOUS
 62
    4
 10
120.938854895551
 20
99.0302840828554
 40
11.5996139624605
 50
459.732735334755
 51
464.877581491586
  0
ARC
  8
_0-0_
  6
CONTINUOUS
 62
    4
 10
120.609034863728
 20
100.846626703347
 40
6.801670756867
 50
456.250306824717
 51
460.899973528849
  0
ARC
  8
_0-0_
  6
CONTINUOUS
 62
    2
 10
121.048320024924
 20
98.5500334929227
 40
9.1398977574966
 50
460.88170425259
 51
465.742049793425
  0
ARC
  8
_0-0_
  6
CONTINUOUS
 62
    4
 10
121.713842963167
 20
96.1820626676064
 40
11.5996139624605
 50
465.732735334755
 51
470.877581491586
  0
ARC
  8
_0-0_
  6
CONTINUOUS
 62
    4
 10
121.195970217101
 20
97.9539795920949
 40
6.801670756867
 50
462.250306824717
 51
466.899973528849
  0
ARC
  8
_0-0_
  6
CONTINUOUS
 62
    2
 10
121.872908287257
 20
95.7158851624095
 40
9.1398977574966
 50
466.88170425259
 51
471.742049793425
  0
ARC
  8
_0-0_
  6
CONTINUOUS
 62
    4
 10
122.782305772642
 20
93.430452419043
 40
11.5996139624605
 50
471.732735334755
 51
476.877581491586
  0
ARC
  8
_0-0_
  6
CONTINUOUS
 62
    4
 10
122.08205423451
 20
95.1385301549059
 40
6.801670756867
 50
468.250306824717
 51
472.899973528849
  0
ARC
  8
_0-0_
  6
CONTINUOUS
 62
    2
 10
122.989228538472
 20
92.9834555368829
 40
9.1398977574966
 50
472.88170425259
 51
477.742049793425
  0
ARC
  8
_0-0_
  6
CONTINUOUS
 62
    4
 10
124.132537021846
 20
90.8056005548602
 40
11.5996139624605
 50
477.732735334755
 51
482.877581491586
  0
ARC
  8
_0-0_
  6
CONTINUOUS
 62
    4
 10
123.257578794037
 20
92.4311250449851
 40
6.801670756867
 50
474.250306824717
 51
478.899973528849
  0
ARC
  8
_0-0_
  6
CONTINUOUS
 62
    2
 10
124.385050140291
 20
90.3826816871178
 40
9.1398977574966
 50
478.88170425259
 51
483.742049793425
  0
ARC
  8
_0-0_
  6
CONTINUOUS
 62
    4
 10
125.749743294658
 20
88.3362655013673
 40
11.5996139624605
 50
483.732735334755
 51
488.877581491586
  0
ARC
  8
_0-0_
  6
CONTINUOUS
 62
    4
 10
124.709664602612
 20
89.8614271592776
 40
6.801670756867
 50
480.250306824717
 51
484.899973528849
  0
ARC
  8
_0-0_
  6
CONTINUOUS
 62
    2
 10
126.045080179151
 20
87.9420582356592
 40
9.1398977574966
 50
484.88170425259
 51
489.742049793425
  0
ARC
  8
_0-0_
  6
CONTINUOUS
 62
    4
 10
127.61620614073
 20
86.049501810152
 40
11.5996139624605
 50
489.732735334755
 51
494.877581491586
  0
ARC
  8
_0-0_
  6
CONTINUOUS
 62
    4
 10
126.422402304249
 20
87.457590645563
 40
6.801670756867
 50
486.250306824717
 51
490.899973528849
  0
ARC
  8
_0-0_
  6
CONTINUOUS
 62
    2
 10
127.951131018563
 20
85.6883251637744
 40
9.1398977574966
 50
490.88170425259
 51
495.742049793425
  0
ARC
  8
_0-0_
  6
CONTINUOUS
 62
    4
 10
129.71147620254
 20
83.9703637427514
 40
11.5996139624605
 50
495.732735334755
 51
500.877581491586
  0
ARC
  8
_0-0_
  6
CONTINUOUS
 62
    4
 10
128.377026786275
 20
85.2459524397208
 40
6.801670756867
 50
492.250306824717
 51
496.899973528849
  0
ARC
  8
_0-0_
  6
CONTINUOUS
 62
    2
 10
130.082319566662
 20
83.6461748426232
 40
9.1398977574966
 50
496.88170425259
 51
501.742049793425
  0
ARC
  8
_0-0_
  6
CONTINUOUS
 62
    4
 10
132.012597262826
 20
82.1216307709196
 40
11.5996139624605
 50
501.732735334755
 51
506.877581491586
  0
ARC
  8
_0-0_
  6
CONTINUOUS
 62
    4
 10
130.552122773833
 20
83.2507437127493
 40
6.801670756867
 50
498.250306824717
 51
502.899973528849
  0
ARC
  8
_0-0_
  6
CONTINUOUS
 62
    2
 10
132.415296075736
 20
81.8379814984713
 40
9.1398977574966
 50
502.88170425259
 51
507.742049793425
  0
ARC
  8
_0-0_
  6
CONTINUOUS
 62
    4
 10
134.494357757712
 20
80.5235579999681
 40
11.5996139624605
 50
507.732735334755
 51
512.877581491586
  0
ARC
  8
_0-0_
  6
CONTINUOUS
 62
    4
 10
132.923859460116
 20
81.4938243889854
 40
6.801670756867
 50
504.250306824717
 51
508.899973528849
  0
ARC
  8
_0-0_
  6
CONTINUOUS
 62
    2
 10
134.924499966945
 20
80.2835560759862
 40
9.1398977574966
 50
508.88170425259
 51
513.742049793425
  0
ARC
  8
_0-0_
  6
CONTINUOUS
 62
    4
 10
137.129566999873
 20
79.1936542495937
 40
11.5996139624605
 50
513.732735334755
 51
518.877581491586
  0
ARC
  8
_0-0_
  6
CONTINUOUS
 62
    4
 10
135.466251601671
 20
79.9944436441992
 40
6.801670756867
 50
510.250306824717
 51
514.899973528849
  0
ARC
  8
_0-0_
  6
CONTINUOUS
 62
    2
 10
137.582439877373
 20
78.9999291853809
 40
9.1398977574966
 50
514.88170425259
 51
519.742049793425
  0
ARC
  8
_0-0_
  6
CONTINUOUS
 62
    4
 10
139.889353085399
 20
78.1464902235858
 40
11.5996139624605
 50
519.732735334755
 51
524.877581491586
  0
ARC
  8
_0-0_
  6
CONTINUOUS
 62
    4
 10
138.151444218165
 20
78.7690290075962
 40
6.801670756867
 50
516.250306824717
 51
520.899973528849
  0
ARC
  8
_0-0_
  6
CONTINUOUS
 62
    2
 10
140.35999486115
 20
78.0011645114853
 40
9.1398977574966
 50
520.88170425259
 51
525.742049793425
  0
ARC
  8
_0-0_
  6
CONTINUOUS
 62
    4
 10
142.743479220416
 20
77.3935388701465
 40
11.5996139624605
 50
525.732735334755
 51
530.877581491586
  0
ARC
  8
_0-0_
  6
CONTINUOUS
 62
    4
 10
140.95001777738
 20
77.8310063783696
 40
6.801670756867
 50
522.250306824717
 51
526.899973528849
  0
ARC
  8
_0-0_
  6
CONTINUOUS
 62
    2
 10
143.226733444634
 20
77.2982047290713
 40
9.1398977574966
 50
526.88170425259
 51
531.742049793425
  0
ARC
  8
_0-0_
  6
CONTINUOUS
 62
    4
 10
145.660675001723
 20
76.9430496818693
 40
11.5996139624605
 50
531.732735334755
 51
536.877581491586
  0
ARC
  8
_0-0_
  6
CONTINUOUS
 62
    4
 10
143.831310521761
 20
77.190652928739
 40
6.801670756867
 50
528.250306824717
 51
532.899973528849
  0
ARC
  8
_0-0_
  6
CONTINUOUS
 62
    2
 10
146.151247040001
 20
76.898751612619
 40
9.1398977574966
 50
532.88170425259
 51
537.742049793425
  0
ARC
  8
_0-0_
  6
CONTINUOUS
 62
    4
 10
148.608979021878
 20
76.7999583125718
 40
11.5996139624605
 50
537.732735334755
 51
542.877581491586
  0
ARC
  8
_0-0_
  6
CONTINUOUS
 62
    4
 10
146.763754405051
 20
76.8549845051012
 40
6.801670756867
 50
534.250306824717
 51
538.899973528849
  0
ARC
  8
_0-0_
  6
CONTINUOUS
 62
    2
 10
149.101494064305
 20
76.8071816540631
 40
9.1398977574966
 50
538.88170425259
 51
543.742049793425
  0
ARC
  8
_0-0_
  6
CONTINUOUS
 62
    4
 10
151.556089045064
 20
76.9658325012399
 40
11.5996139624605
 50
543.732735334755
 51
548.877581491586
  0
ARC
  8
_0-0_
  6
CONTINUOUS
 62
    4
 10
149.715220958413
 20
76.8276787609486
 40
6.801670756867
 50
540.250306824717
 51
544.899973528849
  0
ARC
  8
_0-0_
  6
CONTINUOUS
 62
    2
 10
152.04515099377
 20
77.0244981130319
 40
9.1398977574966
 50
544.88170425259
 51
549.742049793425
  0
ARC
  8
_0-0_
  6
CONTINUOUS
 62
    4
 10
154.469715917145
 20
77.4388548955511
 40
11.5996139624605
 50
549.732735334755
 51
554.877581491586
  0
ARC
  8
_0-0_
  6
CONTINUOUS
 62
    4
 10
152.653373296653
 20
77.1090348637283
 40
6.801670756867
 50
546.250306824717
 51
550.899973528849
  0
ARC
  8
_0-0_
  6
CONTINUOUS
 62
    2
 10
154.949966507077
 20
77.5483200249244
 40
9.1398977574966
 50
550.88170425259
 51
555.742049793425
  0
ARC
  8
_0-0_
  6
CONTINUOUS
 62
    4
 10
157.317937332394
 20
78.213842963167
 40
11.5996139624605
 50
555.732735334755
 51
560.877581491586
  0
ARC
  8
_0-0_
  6
CONTINUOUS
 62
    4
 10
155.546020407905
 20
77.6959702171006
 40
6.801670756867
 50
552.250306824717
 51
556.899973528849
  0
ARC
  8
_0-0_
  6
CONTINUOUS
 62
    2
 10
157.784114837591
 20
78.3729082872571
 40
9.1398977574966
 50
556.88170425259
 51
561.742049793425
  0
ARC
  8
_0-0_
  6
CONTINUOUS
 62
    4
 10
160.069547580957
 20
79.2823057726422
 40
11.5996139624605
 50
561.732735334755
 51
566.877581491586
  0
ARC
  8
_0-0_
  6
CONTINUOUS
 62
    4
 10
158.361469845094
 20
78.5820542345099
 40
6.801670756867
 50
558.250306824717
 51
562.899973528849
  0
ARC
  8
_0-0_
  6
CONTINUOUS
 62
    2
 10
160.516544463117
 20
79.4892285384719
 40
9.1398977574966
 50
562.88170425259
 51
567.742049793425
  0
ARC
  8
_0-0_
  6
CONTINUOUS
 62
    4
 10
162.69439944514
 20
80.6325370218459
 40
11.5996139624605
 50
567.732735334755
 51
572.877581491586
  0
ARC
  8
_0-0_
  6
CONTINUOUS
 62
    4
 10
161.068874955015
 20
79.7575787940366
 40
6.801670756867
 50
564.250306824717
 51
568.899973528849
  0
ARC
  8
_0-0_
  6
CONTINUOUS
 62
    2
 10
163.117318312882
 20
80.8850501402913
 40
9.1398977574966
 50
568.88170425259
 51
573.742049793425
  0
ARC
  8
_0-0_
  6
CONTINUOUS
 62
    4
 10
165.163734498633
 20
82.2497432946576
 40
11.5996139624605
 50
573.732735334755
 51
578.877581491586
  0
ARC
  8
_0-0_
  6
CONTINUOUS
 62
    4
 10
163.638572840722
 20
81.209664602612
 40
6.801670756867
 50
570.250306824717
 51
574.899973528849
  0
ARC
  8
_0-0_
  6
CONTINUOUS
 62
    2
 10
165.557941764341
 20
82.5450801791513
 40
9.1398977574966
 50
574.88170425259
 51
579.742049793425
  0
ARC
  8
_0-0_
  6
CONTINUOUS
 62
    4
 10
167.450498189848
 20
84.1162061407304
 40
11.5996139624605
 50
579.732735334755
 51
584.877581491586
  0
ARC
  8
_0-0_
  6
CONTINUOUS
 62
    4
 10
166.042409354437
 20
82.9224023042489
 40
6.801670756867
 50
576.250306824717
 51
580.899973528849
  0
ARC
  8
_0-0_
  6
CONTINUOUS
 62
    2
 10
167.811674836226
 20
84.4511310185626
 40
9.1398977574966
 50
580.88170425259
 51
585.742049793425
  0
ARC
  8
_0-0_
  6
CONTINUOUS
 62
    4
 10
169.529636257249
 20
86.2114762025401
 40
11.5996139624605
 50
585.732735334755
 51
590.877581491586
  0
ARC
  8
_0-0_
  6
CONTINUOUS
 62
    4
 10
168.254047560279
 20
84.8770267862748
 40
6.801670756867
 50
582.250306824717
 51
586.899973528849
  0
ARC
  8
_0-0_
  6
CONTINUOUS
 62
    2
 10
169.853825157377
 20
86.5823195666618
 40
9.1398977574966
 50
586.88170425259
 51
591.742049793425
  0
ARC
  8
_0-0_
  6
CONTINUOUS
 62
    4
 10
171.37836922908
 20
88.5125972628262
 40
11.5996139624605
 50
591.732735334755
 51
596.877581491586
  0
ARC
  8
_0-0_
  6
CONTINUOUS
 62
    4
 10
170.249256287251
 20
87.0521227738331
 40
6.801670756867
 50
588.250306824717
 51
592.899973528849
  0
ARC
  8
_0-0_
  6
CONTINUOUS
 62
    2
 10
171.662018501529
 20
88.9152960757361
 40
9.1398977574966
 50
592.88170425259
 51
597.742049793425
  0
ARC
  8
_0-0_
  6
CONTINUOUS
 62
    4
 10
172.976442000032
 20
90.9943577577116
 40
11.5996139624605
 50
597.732735334755
 51
602.877581491586
  0
ARC
  8
_0-0_
  6
CONTINUOUS
 62
    4
 10
172.006175611015
 20
89.4238594601161
 40
6.801670756867
 50
594.250306824717
 51
598.899973528849
  0
ARC
  8
_0-0_
  6
CONTINUOUS
 62
    2
 10
173.216443924014
 20
91.4244999669453
 40
9.1398977574966
 50
598.88170425259
 51
603.742049793425
  0
ARC
  8
_0-0_
  6
CONTINUOUS
 62
    4
 10
174.306345750406
 20
93.6295669998726
 40
11.5996139624605
 50
603.732735334755
 51
608.877581491586
  0
ARC
  8
_0-0_
  6
CONTINUOUS
 62
    4
 10
173.505556355801
 20
91.966251601671
 40
6.801670756867
 50
600.250306824717
 51
604.899973528849
  0
ARC
  8
_0-0_
  6
CONTINUOUS
 62
    2
 10
174.500070814619
 20
94.0824398773727
 40
9.1398977574966
 50
604.88170425259
 51
609.742049793425
  0
ARC
  8
_0-0_
  6
CONTINUOUS
 62
    4
 10
175.353509776414
 20
96.389353085399
 40
11.5996139624605
 50
609.732735334755
 51
614.877581491586
  0
ARC
  8
_0-0_
  6
CONTINUOUS
 62
    4
 10
174.730970992404
 20
94.6514442181652
 40
6.801670756867
 50
606.250306824717
 51
610.899973528849
  0
ARC
  8
_0-0_
  6
CONTINUOUS
 62
    2
 10
175.498835488515
 20
96.8599948611499
 40
9.1398977574966
 50
610.88170425259
 51
615.742049793425
  0
ARC
  8
_0-0_
  6
CONTINUOUS
 62
    4
 10
176.106461129853
 20
99.2434792204156
 40
11.5996139624605
 50
615.732735334755
 51
620.877581491586
  0
ARC
  8
_0-0_
  6
CONTINUOUS
 62
    4
 10
175.66899362163
 20
97.4500177773797
 40
6.801670756867
 50
612.250306824717
 51
616.899973528849
  0
ARC
  8
_0-0_
  6
CONTINUOUS
 62
    2
 10
176.201795270929
 20
99.726733444634
 40
9.1398977574966
 50
616.88170425259
 51
621.742049793425
  0
ARC
  8
_0-0_
  6
CONTINUOUS
 62
    4
 10
176.556950318131
 20
102.160675001723
 40
11.5996139624605
 50
621.732735334755
 51
626.877581491586
  0
ARC
  8
_0-0_
  6
CONTINUOUS
 62
    4
 10
176.309347071261
 20
100.331310521761
 40
6.801670756867
 50
618.250306824717
 51
622.899973528849
  0
ARC
  8
_0-0_
  6
CONTINUOUS
 62
    2
 10
176.601248387381
 20
102.651247040001
 40
9.1398977574966
 50
622.88170425259
 51
627.742049793425
  0
ARC
  8
_0-0_
  6
CONTINUOUS
 62
    4
 10
176.700041687428
 20
105.108979021878
 40
11.5996139624605
 50
627.732735334755
 51
632.877581491586
  0
ARC
  8
_0-0_
  6
CONTINUOUS
 62
    4
 10
176.645015494899
 20
103.263754405051
 40
6.801670756867
 50
624.250306824717
 51
628.899973528849
  0
ARC
  8
_0-0_
  6
CONTINUOUS
 62
    2
 10
176.692818345937
 20
105.601494064305
 40
9.1398977574966
 50
628.88170425259
 51
633.742049793425
  0
ARC
  8
_0-0_
  6
CONTINUOUS
 62
    4
 10
176.53416749876
 20
108.056089045064
 40
11.5996139624605
 50
633.732735334755
 51
638.877581491586
  0
ARC
  8
_0-0_
  6
CONTINUOUS
 62
    4
 10
176.672321239051
 20
106.215220958413
 40
6.801670756867
 50
630.250306824717
 51
634.899973528849
  0
ARC
  8
_0-0_
  6
CONTINUOUS
 62
    2
 10
176.475501886968
 20
108.54515099377
 40
9.1398977574966
 50
634.88170425259
 51
639.742049793425
  0
ARC
  8
_0-0_
  6
CONTINUOUS
 62
    4
 10
176.061145104449
 20
110.969715917145
 40
11.5996139624605
 50
639.732735334755
 51
644.877581491586
  0
ARC
  8
_0-0_
  6
CONTINUOUS
 62
    4
 10
176.390965136272
 20
109.153373296653
 40
6.801670756867
 50
636.250306824717
 51
640.899973528849
  0
ARC
  8
_0-0_
  6
CONTINUOUS
 62
    2
 10
175.951679975076
 20
111.449966507077
 40
9.1398977574966
 50
640.88170425259
 51
645.742049793425
  0
ARC
  8
_0-0_
  6
CONTINUOUS
 62
    4
 10
175.286157036833
 20
113.817937332394
 40
11.5996139624605
 50
645.732735334755
 51
650.877581491586
  0
ARC
  8
_0-0_
  6
CONTINUOUS
 62
    4
 10
175.804029782899
 20
112.046020407905
 40
6.801670756867
 50
642.250306824717
 51
646.899973528849
  0
ARC
  8
_0-0_
  6
CONTINUOUS
 62
    2
 10
175.127091712743
 20
114.284114837591
 40
9.1398977574966
 50
646.88170425259
 51
651.742049793425
  0
ARC
  8
_0-0_
  6
CONTINUOUS
 62
    4
 10
174.217694227358
 20
116.569547580957
 40
11.5996139624605
 50
651.732735334755
 51
656.877581491586
  0
ARC
  8
_0-0_
  6
CONTINUOUS
 62
    4
 10
174.91794576549
 20
114.861469845094
 40
6.801670756867
 50
648.250306824717
 51
652.899973528849
  0
ARC
  8
_0-0_
  6
CONTINUOUS
 62
    2
 10
174.010771461528
 20
117.016544463117
 40
9.1398977574966
 50
652.88170425259
 51
657.742049793425
  0
ARC
  8
_0-0_
  6
CONTINUOUS
 62
    4
 10
172.867462978154
 20
119.19439944514
 40
11.5996139624605
 50
657.732735334755
 51
662.877581491586
  0
ARC
  8
_0-0_
  6
CONTINUOUS
 62
    4
 10
173.742421205963
 20
117.568874955015
 40
6.801670756867
 50
654.250306824717
 51
658.899973528849
  0
ARC
  8
_0-0_
  6
CONTINUOUS
 62
    2
 10
172.614949859709
 20
119.617318312882
 40
9.1398977574966
 50
658.88170425259
 51
663.742049793425
  0
ARC
  8
_0-0_
  6
CONTINUOUS
 62
    4
 10
171.250256705342
 20
121.663734498633
 40
11.5996139624605
 50
663.732735334755
 51
668.877581491586
  0
ARC
  8
_0-0_
  6
CONTINUOUS
 62
    4
 10
172.290335397388
 20
120.138572840722
 40
6.801670756867
 50
660.250306824717
 51
664.899973528849
  0
ARC
  8
_0-0_
  6
CONTINUOUS
 62
    2
 10
170.954919820849
 20
122.057941764341
 40
9.1398977574966
 50
664.88170425259
 51
669.742049793425
  0
ARC
  8
_0-0_
  6
CONTINUOUS
 62
    4
 10
169.38379385927
 20
123.950498189848
 40
11.5996139624605
 50
669.732735334755
 51
674.877581491586
  0
ARC
  8
_0-0_
  6
CONTINUOUS
 62
    4
 10
170.577597695751
 20
122.542409354437
 40
6.801670756867
 50
666.250306824717
 51
670.899973528849
  0
ARC
  8
_0-0_
  6
CONTINUOUS
 62
    2
 10
169.048868981437
 20
124.311674836226
 40
9.1398977574966
 50
670.88170425259
 51
675.742049793425
  0
ARC
  8
_0-0_
  6
CONTINUOUS
 62
    4
 10
167.28852379746
 20
126.029636257249
 40
11.5996139624605
 50
675.732735334755
 51
680.877581491586
  0
ARC
  8
_0-0_
  6
CONTINUOUS
 62
    4
 10
168.622973213725
 20
124.754047560279
 40
6.801670756867
 50
672.250306824717
 51
676.899973528849
  0
ARC
  8
_0-0_
  6
CONTINUOUS
 62
    2
 10
166.917680433338
 20
126.353825157377
 40
9.1398977574966
 50
676.88170425259
 51
681.742049793425
  0
ARC
  8
_0-0_
  6
CONTINUOUS
 62
    4
 10
164.987402737174
 20
127.87836922908
 40
11.5996139624605
 50
681.732735334755
 51
686.877581491586
  0
ARC
  8
_0-0_
  6
CONTINUOUS
 62
    4
 10
166.447877226167
 20
126.749256287251
 40
6.801670756867
 50
678.250306824717
 51
682.899973528849
  0
ARC
  8
_0-0_
  6
CONTINUOUS
 62
    2
 10
164.584703924264
 20
128.162018501529
 40
9.1398977574966
 50
682.88170425259
 51
687.742049793425
  0
ARC
  8
_0-0_
  6
CONTINUOUS
 62
    4
 10
162.505642242288
 20
129.476442000032
 40
11.5996139624605
 50
687.732735334755
 51
692.877581491586
  0
ARC
  8
_0-0_
  6
CONTINUOUS
 62
    4
 10
164.076140539884
 20
128.506175611015
 40
6.801670756867
 50
684.250306824717
 51
688.899973528849
  0
ARC
  8
_0-0_
  6
CONTINUOUS
 62
    2
 10
162.075500033055
 20
129.716443924014
 40
9.1398977574966
 50
688.88170425259
 51
693.742049793425
  0
ARC
  8
_0-0_
  6
CONTINUOUS
 62
    4
 10
159.870433000127
 20
130.806345750406
 40
11.5996139624605
 50
693.732735334755
 51
698.877581491586
  0
ARC
  8
_0-0_
  6
CONTINUOUS
 62
    4
 10
161.533748398329
 20
130.005556355801
 40
6.801670756867
 50
690.250306824717
 51
694.899973528849
  0
ARC
  8
_0-0_
  6
CONTINUOUS
 62
    2
 10
159.417560122627
 20
131.000070814619
 40
9.1398977574966
 50
694.88170425259
 51
699.742049793425
  0
ARC
  8
_0-0_
  6
CONTINUOUS
 62
    4
 10
157.110646914601
 20
131.853509776414
 40
11.5996139624605
 50
699.732735334755
 51
704.877581491586
  0
ARC
  8
_0-0_
  6
CONTINUOUS
 62
    4
 10
158.848555781835
 20
131.230970992404
 40
6.801670756867
 50
696.250306824717
 51
700.899973528849
  0
ARC
  8
_0-0_
  6
CONTINUOUS
 62
    2
 10
156.64000513885
 20
131.998835488515
 40
9.1398977574966
 50
700.88170425259
 51
705.742049793425
  0
ARC
  8
_0-0_
  6
CONTINUOUS
 62
    4
 10
154.256520779584
 20
132.606461129853
 40
11.5996139624605
 50
705.732735334755
 51
710.877581491586
  0
ARC
  8
_0-0_
  6
CONTINUOUS
 62
    4
 10
156.04998222262
 20
132.16899362163
 40
6.801670756867
 50
702.250306824717
 51
706.899973528849
  0
ARC
  8
_0-0_
  6
CONTINUOUS
 62
    2
 10
153.773266555366
 20
132.701795270929
 40
9.1398977574966
 50
706.88170425259
 51
711.742049793425
  0
ARC
  8
_0-0_
  6
CONTINUOUS
 62
    4
 10
151.339324998277
 20
133.056950318131
 40
11.5996139624605
 50
711.732735334755
 51
716.877581491586
  0
ARC
  8
_0-0_
  6
CONTINUOUS
 62
    4
 10
153.168689478239
 20
132.809347071261
 40
6.801670756867
 50
708.250306824717
 51
712.899973528849
  0
ARC
  8
_0-0_
  6
CONTINUOUS
 62
    2
 10
150.848752959999
 20
133.101248387381
 40
9.1398977574966
 50
712.88170425259
 51
717.742049793425
  0
ARC
  8
_0-0_
  6
CONTINUOUS
 62
    4
 10
148.391020978122
 20
133.200041687428
 40
11.5996139624605
 50
717.732735334755
 51
722.877581491586
  0
ARC
  8
_0-0_
  6
CONTINUOUS
 62
    4
 10
150.236245594949
 20
133.145015494899
 40
6.801670756867
 50
714.250306824717
 51
718.899973528849
  0
ARC
  8
_0-0_
  6
CONTINUOUS
 62
    2
 10
147.898505935695
 20
133.192818345937
 40
9.1398977574966
 50
718.88170425259
 51
723.742049793425
  0
ARC
  8
_0-0_
  6
CONTINUOUS
 62
    4
 10
145.443910954936
 20
133.03416749876
 40
11.5996139624605
 50
723.732735334755
 51
728.877581491586
  0
ARC
  8
_0-0_
  6
CONTINUOUS
 62
    4
 10
147.284779041587
 20
133.172321239051
 40
6.801670756867
 50
720.250306824717
 51
724.899973528849
  0
ARC
  8
_0-0_
  6
CONTINUOUS
 62
    2
 10
144.95484900623
 20
132.975501886968
 40
9.1398977574966
 50
724.88170425259
 51
729.742049793425
  0
ARC
  8
_0-0_
  6
CONTINUOUS
 62
    4
 10
142.530284082855
 20
132.561145104449
 40
11.5996139624605
 50
729.732735334755
 51
734.877581491586
  0
ARC
  8
_0-0_
  6
CONTINUOUS
 62
    4
 10
144.346626703347
 20
132.890965136272
 40
6.801670756867
 50
726.250306824717
 51
730.899973528849
  0
ARC
  8
_0-0_
  6
CONTINUOUS
 62
    2
 10
142.050033492923
 20
132.451679975076
 40
9.1398977574966
 50
730.88170425259
 51
735.742049793425
  0
ARC
  8
_0-0_
  6
CONTINUOUS
 62
    4
 10
139.682062667606
 20
131.786157036833
 40
11.5996139624605
 50
735.732735334755
 51
740.877581491586
  0
ARC
  8
_0-0_
  6
CONTINUOUS
 62
    7
 10
148.5
 20
105
 40
28.75
 50
89.204362451246
 51
90.795637548754
  0
ARC
  8
_0-0_
  6
CONTINUOUS
 62
    7
 10
148.5
 20
105
 40
28.75
 50
95.204362451246
 51
96.795637548754
  0
ARC
  8
_0-0_
  6
CONTINUOUS
 62
    7
 10
148.5
 20
105
 40
28.75
 50
101.204362451246
 51
102.795637548754
  0
ARC
  8
_0-0_
  6
CONTINUOUS
 62
    7
 10
148.5
 20
105
 40
28.75
 50
107.204362451246
 51
108.795637548754
  0
ARC
  8
_0-0_
  6
CONTINUOUS
 62
    7
 10
148.5
 20
105
 40
28.75
 50
113.204362451246
 51
114.795637548754
  0
ARC
  8
_0-0_
  6
CONTINUOUS
 62
    7
 10
148.5
 20
105
 40
28.75
 50
119.204362451246
 51
120.795637548754
  0
ARC
  8
_0-0_
  6
CONTINUOUS
 62
    7
 10
148.5
 20
105
 40
28.75
 50
125.204362451246
 51
126.795637548754
  0
ARC
  8
_0-0_
  6
CONTINUOUS
 62
    7
 10
148.5
 20
105
 40
28.75
 50
131.204362451246
 51
132.795637548754
  0
ARC
  8
_0-0_
  6
CONTINUOUS
 62
    7
 10
148.5
 20
105
 40
28.75
 50
137.204362451246
 51
138.795637548754
  0
ARC
  8
_0-0_
  6
CONTINUOUS
 62
    7
 10
148.5
 20
105
 40
28.75
 50
143.204362451246
 51
144.795637548754
  0
ARC
  8
_0-0_
  6
CONTINUOUS
 62
    7
 10
148.5
 20
105
 40
28.75
 50
149.204362451246
 51
150.795637548754
  0
ARC
  8
_0-0_
  6
CONTINUOUS
 62
    7
 10
148.5
 20
105
 40
28.75
 50
155.204362451246
 51
156.795637548754
  0
ARC
  8
_0-0_
  6
CONTINUOUS
 62
    7
 10
148.5
 20
105
 40
28.75
 50
161.204362451246
 51
162.795637548754
  0
ARC
  8
_0-0_
  6
CONTINUOUS
 62
    7
 10
148.5
 20
105
 40
28.75
 50
167.204362451246
 51
168.795637548754
  0
ARC
  8
_0-0_
  6
CONTINUOUS
 62
    7
 10
148.5
 20
105
 40
28.75
 50
173.204362451246
 51
174.795637548754
  0
ARC
  8
_0-0_
  6
CONTINUOUS
 62
    7
 10
148.5
 20
105
 40
28.75
 50
179.204362451246
 51
180.795637548754
  0
ARC
  8
_0-0_
  6
CONTINUOUS
 62
    7
 10
148.5
 20
105
 40
28.75
 50
185.204362451246
 51
186.795637548754
  0
ARC
  8
_0-0_
  6
CONTINUOUS
 62
    7
 10
148.5
 20
105
 40
28.75
 50
191.204362451246
 51
192.795637548754
  0
ARC
  8
_0-0_
  6
CONTINUOUS
 62
    7
 10
148.5
 20
105
 40
28.75
 50
197.204362451246
 51
198.795637548754
  0
ARC
  8
_0-0_
  6
CONTINUOUS
 62
    7
 10
148.5
 20
105
 40
28.75
 50
203.204362451246
 51
204.795637548754
  0
ARC
  8
_0-0_
  6
CONTINUOUS
 62
    7
 10
148.5
 20
105
 40
28.75
 50
209.204362451246
 51
210.795637548754
  0
ARC
  8
_0-0_
  6
CONTINUOUS
 62
    7
 10
148.5
 20
105
 40
28.75
 50
215.204362451246
 51
216.795637548754
  0
ARC
  8
_0-0_
  6
CONTINUOUS
 62
    7
 10
148.5
 20
105
 40
28.75
 50
221.204362451246
 51
222.795637548754
  0
ARC
  8
_0-0_
  6
CONTINUOUS
 62
    7
 10
148.5
 20
105
 40
28.75
 50
227.204362451246
 51
228.795637548754
  0
ARC
  8
_0-0_
  6
CONTINUOUS
 62
    7
 10
148.5
 20
105
 40
28.75
 50
233.204362451246
 51
234.795637548754
  0
ARC
  8
_0-0_
  6
CONTINUOUS
 62
    7
 10
148.5
 20
105
 40
28.75
 50
239.204362451246
 51
240.795637548754
  0
ARC
  8
_0-0_
  6
CONTINUOUS
 62
    7
 10
148.5
 20
105
 40
28.75
 50
245.204362451246
 51
246.795637548754
  0
ARC
  8
_0-0_
  6
CONTINUOUS
 62
    7
 10
148.5
 20
105
 40
28.75
 50
251.204362451246
 51
252.795637548754
  0
ARC
  8
_0-0_
  6
CONTINUOUS
 62
    7
 10
148.5
 20
105
 40
28.75
 50
257.204362451246
 51
258.795637548754
  0
ARC
  8
_0-0_
  6
CONTINUOUS
 62
    7
 10
148.5
 20
105
 40
28.75
 50
263.204362451246
 51
264.795637548754
  0
ARC
  8
_0-0_
  6
CONTINUOUS
 62
    7
 10
148.5
 20
105
 40
28.75
 50
269.204362451246
 51
270.795637548754
  0
ARC
  8
_0-0_
  6
CONTINUOUS
 62
    7
 10
148.5
 20
105
 40
28.75
 50
275.204362451246
 51
276.795637548754
  0
ARC
  8
_0-0_
  6
CONTINUOUS
 62
    7
 10
148.5
 20
105
 40
28.75
 50
281.204362451246
 51
282.795637548754
  0
ARC
  8
_0-0_
  6
CONTINUOUS
 62
    7
 10
148.5
 20
105
 40
28.75
 50
287.204362451246
 51
288.795637548754
  0
ARC
  8
_0-0_
  6
CONTINUOUS
 62
    7
 10
148.5
 20
105
 40
28.75
 50
293.204362451246
 51
294.795637548754
  0
ARC
  8
_0-0_
  6
CONTINUOUS
 62
    7
 10
148.5
 20
105
 40
28.75
 50
299.204362451246
 51
300.795637548754
  0
ARC
  8
_0-0_
  6
CONTINUOUS
 62
    7
 10
148.5
 20
105
 40
28.75
 50
305.204362451246
 51
306.795637548754
  0
ARC
  8
_0-0_
  6
CONTINUOUS
 62
    7
 10
148.5
 20
105
 40
28.75
 50
311.204362451246
 51
312.795637548754
  0
ARC
  8
_0-0_
  6
CONTINUOUS
 62
    7
 10
148.5
 20
105
 40
28.75
 50
317.204362451246
 51
318.795637548754
  0
ARC
  8
_0-0_
  6
CONTINUOUS
 62
    7
 10
148.5
 20
105
 40
28.75
 50
323.204362451246
 51
324.795637548754
  0
ARC
  8
_0-0_
  6
CONTINUOUS
 62
    7
 10
148.5
 20
105
 40
28.75
 50
329.204362451246
 51
330.795637548754
  0
ARC
  8
_0-0_
  6
CONTINUOUS
 62
    7
 10
148.5
 20
105
 40
28.75
 50
335.204362451246
 51
336.795637548754
  0
ARC
  8
_0-0_
  6
CONTINUOUS
 62
    7
 10
148.5
 20
105
 40
28.75
 50
341.204362451246
 51
342.795637548754
  0
ARC
  8
_0-0_
  6
CONTINUOUS
 62
    7
 10
148.5
 20
105
 40
28.75
 50
347.204362451246
 51
348.795637548754
  0
ARC
  8
_0-0_
  6
CONTINUOUS
 62
    7
 10
148.5
 20
105
 40
28.75
 50
353.204362451246
 51
354.795637548754
  0
ARC
  8
_0-0_
  6
CONTINUOUS
 62
    7
 10
148.5
 20
105
 40
28.75
 50
359.204362451246
 51
360.795637548754
  0
ARC
  8
_0-0_
  6
CONTINUOUS
 62
    7
 10
148.5
 20
105
 40
28.75
 50
365.204362451246
 51
366.795637548754
  0
ARC
  8
_0-0_
  6
CONTINUOUS
 62
    7
 10
148.5
 20
105
 40
28.75
 50
371.204362451246
 51
372.795637548754
  0
ARC
  8
_0-0_
  6
CONTINUOUS
 62
    7
 10
148.5
 20
105
 40
28.75
 50
377.204362451246
 51
378.795637548754
  0
ARC
  8
_0-0_
  6
CONTINUOUS
 62
    7
 10
148.5
 20
105
 40
28.75
 50
383.204362451246
 51
384.795637548754
  0
ARC
  8
_0-0_
  6
CONTINUOUS
 62
    7
 10
148.5
 20
105
 40
28.75
 50
389.204362451246
 51
390.795637548754
  0
ARC
  8
_0-0_
  6
CONTINUOUS
 62
    7
 10
148.5
 20
105
 40
28.75
 50
395.204362451246
 51
396.795637548754
  0
ARC
  8
_0-0_
  6
CONTINUOUS
 62
    7
 10
148.5
 20
105
 40
28.75
 50
401.204362451246
 51
402.795637548754
  0
ARC
  8
_0-0_
  6
CONTINUOUS
 62
    7
 10
148.5
 20
105
 40
28.75
 50
407.204362451246
 51
408.795637548754
  0
ARC
  8
_0-0_
  6
CONTINUOUS
 62
    7
 10
148.5
 20
105
 40
28.75
 50
413.204362451246
 51
414.795637548754
  0
ARC
  8
_0-0_
  6
CONTINUOUS
 62
    7
 10
148.5
 20
105
 40
28.75
 50
419.204362451246
 51
420.795637548754
  0
ARC
  8
_0-0_
  6
CONTINUOUS
 62
    7
 10
148.5
 20
105
 40
28.75
 50
425.204362451246
 51
426.795637548754
  0
ARC
  8
_0-0_
  6
CONTINUOUS
 62
    7
 10
148.5
 20
105
 40
28.75
 50
431.204362451246
 51
432.795637548754
  0
ARC
  8
_0-0_
  6
CONTINUOUS
 62
    7
 10
148.5
 20
105
 40
28.75
 50
437.204362451246
 51
438.795637548754
  0
ARC
  8
_0-0_
  6
CONTINUOUS
 62
    7
 10
148.5
 20
105
 40
28.75
 50
443.204362451246
 51
444.795637548754
  0
ARC
  8
_0-0_
  6
CONTINUOUS
 62
    7
 10
148.5
 20
105
 40
30.98585883
 50
92.2620076015058
 51
93.7379923984942
  0
ARC
  8
_0-0_
  6
CONTINUOUS
 62
    7
 10
148.5
 20
105
 40
30.98585883
 50
98.2620076015058
 51
99.7379923984942
  0
ARC
  8
_0-0_
  6
CONTINUOUS
 62
    7
 10
148.5
 20
105
 40
30.98585883
 50
104.262007601506
 51
105.737992398494
  0
ARC
  8
_0-0_
  6
CONTINUOUS
 62
    7
 10
148.5
 20
105
 40
30.98585883
 50
110.262007601506
 51
111.737992398494
  0
ARC
  8
_0-0_
  6
CONTINUOUS
 62
    7
 10
148.5
 20
105
 40
30.98585883
 50
116.262007601506
 51
117.737992398494
  0
ARC
  8
_0-0_
  6
CONTINUOUS
 62
    7
 10
148.5
 20
105
 40
30.98585883
 50
122.262007601506
 51
123.737992398494
  0
ARC
  8
_0-0_
  6
CONTINUOUS
 62
    7
 10
148.5
 20
105
 40
30.98585883
 50
128.262007601506
 51
129.737992398494
  0
ARC
  8
_0-0_
  6
CONTINUOUS
 62
    7
 10
148.5
 20
105
 40
30.98585883
 50
134.262007601506
 51
135.737992398494
  0
ARC
  8
_0-0_
  6
CONTINUOUS
 62
    7
 10
148.5
 20
105
 40
30.98585883
 50
140.262007601506
 51
141.737992398494
  0
ARC
  8
_0-0_
  6
CONTINUOUS
 62
    7
 10
148.5
 20
105
 40
30.98585883
 50
146.262007601506
 51
147.737992398494
  0
ARC
  8
_0-0_
  6
CONTINUOUS
 62
    7
 10
148.5
 20
105
 40
30.98585883
 50
152.262007601506
 51
153.737992398494
  0
ARC
  8
_0-0_
  6
CONTINUOUS
 62
    7
 10
148.5
 20
105
 40
30.98585883
 50
158.262007601506
 51
159.737992398494
  0
ARC
  8
_0-0_
  6
CONTINUOUS
 62
    7
 10
148.5
 20
105
 40
30.98585883
 50
164.262007601506
 51
165.737992398494
  0
ARC
  8
_0-0_
  6
CONTINUOUS
 62
    7
 10
148.5
 20
105
 40
30.98585883
 50
170.262007601506
 51
171.737992398494
  0
ARC
  8
_0-0_
  6
CONTINUOUS
 62
    7
 10
148.5
 20
105
 40
30.98585883
 50
176.262007601506
 51
177.737992398494
  0
ARC
  8
_0-0_
  6
CONTINUOUS
 62
    7
 10
148.5
 20
105
 40
30.98585883
 50
182.262007601506
 51
183.737992398494
  0
ARC
  8
_0-0_
  6
CONTINUOUS
 62
    7
 10
148.5
 20
105
 40
30.98585883
 50
188.262007601506
 51
189.737992398494
  0
ARC
  8
_0-0_
  6
CONTINUOUS
 62
    7
 10
148.5
 20
105
 40
30.98585883
 50
194.262007601506
 51
195.737992398494
  0
ARC
  8
_0-0_
  6
CONTINUOUS
 62
    7
 10
148.5
 20
105
 40
30.98585883
 50
200.262007601506
 51
201.737992398494
  0
ARC
  8
_0-0_
  6
CONTINUOUS
 62
    7
 10
148.5
 20
105
 40
30.98585883
 50
206.262007601506
 51
207.737992398494
  0
ARC
  8
_0-0_
  6
CONTINUOUS
 62
    7
 10
148.5
 20
105
 40
30.98585883
 50
212.262007601506
 51
213.737992398494
  0
ARC
  8
_0-0_
  6
CONTINUOUS
 62
    7
 10
148.5
 20
105
 40
30.98585883
 50
218.262007601506
 51
219.737992398494
  0
ARC
  8
_0-0_
  6
CONTINUOUS
 62
    7
 10
148.5
 20
105
 40
30.98585883
 50
224.262007601506
 51
225.737992398494
  0
ARC
  8
_0-0_
  6
CONTINUOUS
 62
    7
 10
148.5
 20
105
 40
30.98585883
 50
230.262007601506
 51
231.737992398494
  0
ARC
  8
_0-0_
  6
CONTINUOUS
 62
    7
 10
148.5
 20
105
 40
30.98585883
 50
236.262007601506
 51
237.737992398494
  0
ARC
  8
_0-0_
  6
CONTINUOUS
 62
    7
 10
148.5
 20
105
 40
30.98585883
 50
242.262007601506
 51
243.737992398494
  0
ARC
  8
_0-0_
  6
CONTINUOUS
 62
    7
 10
148.5
 20
105
 40
30.98585883
 50
248.262007601506
 51
249.737992398494
  0
ARC
  8
_0-0_
  6
CONTINUOUS
 62
    7
 10
148.5
 20
105
 40
30.98585883
 50
254.262007601506
 51
255.737992398494
  0
ARC
  8
_0-0_
  6
CONTINUOUS
 62
    7
 10
148.5
 20
105
 40
30.98585883
 50
260.262007601506
 51
261.737992398494
  0
ARC
  8
_0-0_
  6
CONTINUOUS
 62
    7
 10
148.5
 20
105
 40
30.98585883
 50
266.262007601506
 51
267.737992398494
  0
ARC
  8
_0-0_
  6
CONTINUOUS
 62
    7
 10
148.5
 20
105
 40
30.98585883
 50
272.262007601506
 51
273.737992398494
  0
ARC
  8
_0-0_
  6
CONTINUOUS
 62
    7
 10
148.5
 20
105
 40
30.98585883
 50
278.262007601506
 51
279.737992398494
  0
ARC
  8
_0-0_
  6
CONTINUOUS
 62
    7
 10
148.5
 20
105
 40
30.98585883
 50
284.262007601506
 51
285.737992398494
  0
ARC
  8
_0-0_
  6
CONTINUOUS
 62
    7
 10
148.5
 20
105
 40
30.98585883
 50
290.262007601506
 51
291.737992398494
  0
ARC
  8
_0-0_
  6
CONTINUOUS
 62
    7
 10
148.5
 20
105
 40
30.98585883
 50
296.262007601506
 51
297.737992398494
  0
ARC
  8
_0-0_
  6
CONTINUOUS
 62
    7
 10
148.5
 20
105
 40
30.98585883
 50
302.262007601506
 51
303.737992398494
  0
ARC
  8
_0-0_
  6
CONTINUOUS
 62
    7
 10
148.5
 20
105
 40
30.98585883
 50
308.262007601506
 51
309.737992398494
  0
ARC
  8
_0-0_
  6
CONTINUOUS
 62
    7
 10
148.5
 20
105
 40
30.98585883
 50
314.262007601506
 51
315.737992398494
  0
ARC
  8
_0-0_
  6
CONTINUOUS
 62
    7
 10
148.5
 20
105
 40
30.98585883
 50
320.262007601506
 51
321.737992398494
  0
ARC
  8
_0-0_
  6
CONTINUOUS
 62
    7
 10
148.5
 20
105
 40
30.98585883
 50
326.262007601506
 51
327.737992398494
  0
ARC
  8
_0-0_
  6
CONTINUOUS
 62
    7
 10
148.5
 20
105
 40
30.98585883
 50
332.262007601506
 51
333.737992398494
  0
ARC
  8
_0-0_
  6
CONTINUOUS
 62
    7
 10
148.5
 20
105
 40
30.98585883
 50
338.262007601506
 51
339.737992398494
  0
ARC
  8
_0-0_
  6
CONTINUOUS
 62
    7
 10
148.5
 20
105
 40
30.98585883
 50
344.262007601506
 51
345.737992398494
  0
ARC
  8
_0-0_
  6
CONTINUOUS
 62
    7
 10
148.5
 20
105
 40
30.98585883
 50
350.262007601506
 51
351.737992398494
  0
ARC
  8
_0-0_
  6
CONTINUOUS
 62
    7
 10
148.5
 20
105
 40
30.98585883
 50
356.262007601506
 51
357.737992398494
  0
ARC
  8
_0-0_
  6
CONTINUOUS
 62
    7
 10
148.5
 20
105
 40
30.98585883
 50
362.262007601506
 51
363.737992398494
  0
ARC
  8
_0-0_
  6
CONTINUOUS
 62
    7
 10
148.5
 20
105
 40
30.98585883
 50
368.262007601506
 51
369.737992398494
  0
ARC
  8
_0-0_
  6
CONTINUOUS
 62
    7
 10
148.5
 20
105
 40
30.98585883
 50
374.262007601506
 51
375.737992398494
  0
ARC
  8
_0-0_
  6
CONTINUOUS
 62
    7
 10
148.5
 20
105
 40
30.98585883
 50
380.262007601506
 51
381.737992398494
  0
ARC
  8
_0-0_
  6
CONTINUOUS
 62
    7
 10
148.5
 20
105
 40
30.98585883
 50
386.262007601506
 51
387.737992398494
  0
ARC
  8
_0-0_
  6
CONTINUOUS
 62
    7
 10
148.5
 20
105
 40
30.98585883
 50
392.262007601506
 51
393.737992398494
  0
ARC
  8
_0-0_
  6
CONTINUOUS
 62
    7
 10
148.5
 20
105
 40
30.98585883
 50
398.262007601506
 51
399.737992398494
  0
ARC
  8
_0-0_
  6
CONTINUOUS
 62
    7
 10
148.5
 20
105
 40
30.98585883
 50
404.262007601506
 51
405.737992398494
  0
ARC
  8
_0-0_
  6
CONTINUOUS
 62
    7
 10
148.5
 20
105
 40
30.98585883
 50
410.262007601506
 51
411.737992398494
  0
ARC
  8
_0-0_
  6
CONTINUOUS
 62
    7
 10
148.5
 20
105
 40
30.98585883
 50
416.262007601506
 51
417.737992398494
  0
ARC
  8
_0-0_
  6
CONTINUOUS
 62
    7
 10
148.5
 20
105
 40
30.98585883
 50
422.262007601506
 51
423.737992398494
  0
ARC
  8
_0-0_
  6
CONTINUOUS
 62
    7
 10
148.5
 20
105
 40
30.98585883
 50
428.262007601506
 51
429.737992398494
  0
ARC
  8
_0-0_
  6
CONTINUOUS
 62
    7
 10
148.5
 20
105
 40
30.98585883
 50
434.262007601506
 51
435.737992398494
  0
ARC
  8
_0-0_
  6
CONTINUOUS
 62
    7
 10
148.5
 20
105
 40
30.98585883
 50
440.262007601506
 51
441.737992398494
  0
ARC
  8
_0-0_
  6
CONTINUOUS
 62
    7
 10
148.5
 20
105
 40
30.98585883
 50
446.262007601506
 51
447.737992398494
  0
LINE
  8
_0-0_
  6
CENTER2
 62
    7
 10
115.51414117
 20
105
 11
181.48585883
 21
105
  0
LINE
  8
_0-0_
  6
CENTER2
 62
    7
 10
148.5
 20
72.01414117
 11
148.5
 21
137.98585883
  0
LINE
  8
_0-0_
  6
CONTINUOUS
 62
    7
 10
199.48585
 20
135.98585
 11
269.48585
 21
135.98585
  0
LINE
  8
_0-0_
  6
CONTINUOUS
 62
    7
 10
199.48585
 20
127.98585
 11
269.48585
 21
127.98585
  0
LINE
  8
_0-0_
  6
CONTINUOUS
 62
    7
 10
199.48585
 20
119.98585
 11
269.48585
 21
119.98585
  0
LINE
  8
_0-0_
  6
CONTINUOUS
 62
    7
 10
199.48585
 20
111.98585
 11
269.48585
 21
111.98585
  0
LINE
  8
_0-0_
  6
CONTINUOUS
 62
    7
 10
199.48585
 20
103.98585
 11
269.48585
 21
103.98585
  0
LINE
  8
_0-0_
  6
CONTINUOUS
 62
    7
 10
199.48585
 20
95.98585
 11
269.48585
 21
95.98585
  0
LINE
  8
_0-0_
  6
CONTINUOUS
 62
    7
 10
199.48585
 20
87.98585
 11
269.48585
 21
87.98585
  0
LINE
  8
_0-0_
  6
CONTINUOUS
 62
    7
 10
199.48585
 20
79.98585
 11
269.48585
 21
79.98585
  0
LINE
  8
_0-0_
  6
CONTINUOUS
 62
    7
 10
199.48585
 20
71.98585
 11
269.48585
 21
71.98585
  0
LINE
  8
_0-0_
  6
CONTINUOUS
 62
    7
 10
199.48585
 20
63.98585
 11
269.48585
 21
63.98585
  0
LINE
  8
_0-0_
  6
CONTINUOUS
 62
    7
 10
199.48585
 20
55.98585
 11
269.48585
 21
55.98585
  0
LINE
  8
_0-0_
  6
CONTINUOUS
 62
    7
 10
199.48585
 20
47.98585
 11
269.48585
 21
47.98585
  0
LINE
  8
_0-0_
  6
CONTINUOUS
 62
    7
 10
199.48585
 20
39.98585
 11
269.48585
 21
39.98585
  0
LINE
  8
_0-0_
  6
CONTINUOUS
 62
    7
 10
199.48585
 20
135.98585
 11
199.48585
 21
39.98585
  0
LINE
  8
_0-0_
  6
CONTINUOUS
 62
    7
 10
269.48585
 20
135.98585
 11
269.48585
 21
39.98585
  0
LINE
  8
_0-0_
  6
CONTINUOUS
 62
    7
 10
234.48585
 20
127.98585
 11
234.48585
 21
39.98585
  0
TEXT
  8
_0-0_
 62
    7
 10
205.48585
 20
129.98585
 40
4
 41
1
 50
0
  1
ÉCÉìÉ{ÉäÉÖÅ[ÉgÉXÉvÉâÉCÉì
  0
TEXT
  8
_0-0_
 62
    7
 10
207.98585
 20
121.98585
 40
4
 41
1
 50
0
  1
èî    å≥
  0
TEXT
  8
_0-0_
 62
    7
 10
207.98585
 20
113.98585
 40
4
 41
1
 50
0
  1
éïÅ@Å@êî
  0
TEXT
  8
_0-0_
 62
    7
 10
205.48585
 20
105.98585
 40
4
 41
1
 50
0
  1
ÉÇÉWÉÖÅ[Éã
  0
TEXT
  8
_0-0_
 62
    7
 10
207.98585
 20
97.98585
 40
4
 41
1
 50
0
  1
à≥ óÕ äp
  0
TEXT
  8
_0-0_
 62
    7
 10
202.98585
 20
89.98585
 40
4
 41
1
 50
0
  1
ÉsÉbÉ`â~íºåa
  0
TEXT
  8
_0-0_
 62
    7
 10
205.48585
 20
81.98585
 40
4
 41
1
 50
0
  1
äÓëbâ~íºåa
  0
TEXT
  8
_0-0_
 62
    7
 10
205.48585
 20
73.98585
 40
4
 41
1
 50
0
  1
éïêÊâ~íºåa
  0
TEXT
  8
_0-0_
 62
    7
 10
205.48585
 20
65.98585
 40
4
 41
1
 50
0
  1
éïíÍâ~íºåa
  0
TEXT
  8
_0-0_
 62
    7
 10
207.98585
 20
57.98585
 40
4
 41
1
 50
0
  1
â~å éïå˙
  0
TEXT
  8
_0-0_
 62
    7
 10
207.98585
 20
49.98585
 40
4
 41
1
 50
0
  1
Çn.Ça.Çc
  0
TEXT
  8
_0-0_
 62
    7
 10
205.48585
 20
41.98585
 40
4
 41
1
 50
0
  1
égópÉsÉìåa
  0
TEXT
  8
_0-0_
 62
    7
 10
235.48585
 20
121.98585
 40
4
 41
1
 50
0
  1
ÉGÉLÉXÉ^Å[ÉiÉã
  0
TEXT
  8
_0-0_
 62
    7
 10
250.48585
 20
113.98585
 40
4
 41
1
 50
0
  1
60
  0
TEXT
  8
_0-0_
 62
    7
 10
251.73585
 20
105.98585
 40
4
 41
1
 50
0
  1
1
  0
TEXT
  8
_0-0_
 62
    7
 10
247.98585
 20
97.98585
 40
4
 41
1
 50
0
  1
20Åã
  0
TEXT
  8
_0-0_
 62
    7
 10
250.48585
 20
89.98585
 40
4
 41
1
 50
0
  1
60
  0
TEXT
  8
_0-0_
 62
    7
 10
244.23585
 20
81.98585
 40
4
 41
1
 50
0
  1
56.3816
  0
TEXT
  8
_0-0_
 62
    7
 10
244.23585
 20
73.98585
 40
4
 41
1
 50
0
  1
61.9717
  0
TEXT
  8
_0-0_
 62
    7
 10
247.98585
 20
65.98585
 40
4
 41
1
 50
0
  1
57.5
  0
TEXT
  8
_0-0_
 62
    7
 10
245.48585
 20
57.98585
 40
4
 41
1
 50
0
  1
1.5708
  0
TEXT
  8
_0-0_
 62
    7
 10
252.98585
 20
49.98585
 40
4
 41
1
 50
0
  1

  0
TEXT
  8
_0-0_
 62
    7
 10
252.98585
 20
41.98585
 40
4
 41
1
 50
0
  1

  0
TEXT
  8
_0-0_
 62
    7
 10
149.5
 20
151.48585883
 40
4
 41
1
 50
0
  1
ñ êœ : 
  0
TEXT
  8
_0-0_
 62
    7
 10
149.5
 20
145.48585883
 40
4
 41
1
 50
0
  1
é¸í∑ : 
  0
TEXT
  8
_0-0_
 62
    7
 10
167.8125
 20
151.48585883
 40
4
 41
1
 50
0
  1
28.1239 cm2
  0
TEXT
  8
_0-0_
 62
    7
 10
168.875
 20
145.48585883
 40
4
 41
1
 50
0
  1
38.0067 cm
  0
ENDSEC
  0
EOF
