  0
SECTION
  2
HEADER
  9
$ACADVER
  1
AC1009
  9
$INSBASE
 10
0
 20
0
 30
0
  9
$EXTMIN
 10
0
 20
0
  9
$EXTMAX
 10
297
 20
210
  9
$LIMMIN
 10
0
 20
0
  9
$LIMMAX
 10
297
 20
210
  9
$LTSCALE
 40
1
  0
ENDSEC
  0
SECTION
  2
TABLES
  0
TABLE
  2
LTYPE
 70
     9
  0
LTYPE
  2
CONTINUOUS
 70
    64
  3
é¿ê¸
 72
    65
 73
     0
 40
0.0
  0
LTYPE
  2
DASHED1
 70
    64
  3
--  --  --  --  --  --  --  --  
 72
    65
 73
     2
 40
2.5
 49
1.25
 49
-1.25
  0
LTYPE
  2
DASHED2
 70
    64
  3
----    ----    ----    ----    
 72
    65
 73
     2
 40
5.0
 49
2.5
 49
-2.5
  0
LTYPE
  2
DASHED3
 70
    64
  3
------  ------  ------  ------  
 72
    65
 73
     2
 40
5.0
 49
3.75
 49
-1.25
  0
LTYPE
  2
CENTER1
 70
    64
  3
----- - ----- - ----- - ----- - 
 72
    65
 73
     4
 40
10.0
 49
6.25
 49
-1.25
 49
1.25
 49
-1.25
  0
LTYPE
  2
CENTER2
 70
    64
  3
----------  --  ----------  --  
 72
    65
 73
     4
 40
20.0
 49
12.5
 49
-2.5
 49
2.5
 49
-2.5
  0
LTYPE
  2
PHANTOM1
 70
    64
  3
--- - - --- - - --- - - --- - - 
 72
    65
 73
     6
 40
10.0
 49
3.25
 49
-1.25
 49
1.25
 49
-1.25
 49
1.25
 49
-1.25
  0
LTYPE
  2
PHANTOM2
 70
    64
  3
--------  -  -  --------  -  -  
 72
    65
 73
     6
 40
20.0
 49
10.0
 49
-2.5
 49
1.25
 49
-2.5
 49
1.25
 49
-2.5
  0
LTYPE
  2
DOT
 70
    64
  3
-   -   -   -   -   -   -   -   
 72
    65
 73
     2
 40
2.5
 49
0.625
 49
-1.875
  0
LTYPE
  2
DUMMY
 70
    64
  3
É_É~Å[
 72
    65
 73
     0
 40
0.0
  0
LTYPE
  2
RAND1
 70
    64
  3
----- - ----- - ----- - ----- - 
 72
    65
 73
     4
 40
10.0
 49
6.25
 49
-1.25
 49
1.25
 49
-1.25
  0
LTYPE
  2
RAND2
 70
    64
  3
----------  --  ----------  --  
 72
    65
 73
     4
 40
20.0
 49
12.5
 49
-2.5
 49
2.5
 49
-2.5
  0
LTYPE
  2
RAND3
 70
    64
  3
--- - - --- - - --- - - --- - - 
 72
    65
 73
     6
 40
10.0
 49
3.25
 49
-1.25
 49
1.25
 49
-1.25
 49
1.25
 49
-1.25
  0
LTYPE
  2
RAND4
 70
    64
  3
--------  -  -  --------  -  -  
 72
    65
 73
     6
 40
20.0
 49
10.0
 49
-2.5
 49
1.25
 49
-2.5
 49
1.25
 49
-2.5
  0
LTYPE
  2
RAND5
 70
    64
  3
----- - ----- - ----- - ----- - 
 72
    65
 73
     4
 40
10.0
 49
6.25
 49
-1.25
 49
1.25
 49
-1.25
  0
LTYPE
  2
LONG1
 70
    64
  3
----------  --  ----------  --  
 72
    65
 73
     4
 40
20.0
 49
12.5
 49
-2.5
 49
2.5
 49
-2.5
  0
LTYPE
  2
LONG2
 70
    64
  3
--- - - --- - - --- - - --- - - 
 72
    65
 73
     6
 40
10.0
 49
3.25
 49
-1.25
 49
1.25
 49
-1.25
 49
1.25
 49
-1.25
  0
LTYPE
  2
LONG3
 70
    64
  3
--------  -  -  --------  -  -  
 72
    65
 73
     6
 40
20.0
 49
10.0
 49
-2.5
 49
1.25
 49
-2.5
 49
1.25
 49
-2.5
  0
LTYPE
  2
LONG4
 70
    64
  3
----- - ----- - ----- - ----- - 
 72
    65
 73
     4
 40
10.0
 49
6.25
 49
-1.25
 49
1.25
 49
-1.25
  0
LTYPE
  2
LONG5
 70
    64
  3
----------  --  ----------  --  
 72
    65
 73
     4
 40
20.0
 49
12.5
 49
-2.5
 49
2.5
 49
-2.5
  0
ENDTAB
  0
TABLE
  2
STYLE
  5
3
100
AcDbSymbolTable
 70
     1
  0
STYLE
  5
10
100
AcDbSymbolTableRecord
100
AcDbTextStyleTableRecord
  2
STANDARD
 70
     0
 40
0.0
 41
1.0
 50
0.0
 71
     0
 42
0.2
  3
txt
  4
bigfont.shx
  0
ENDTAB
  0
TABLE
  2
LAYER
 70
    2
  0
LAYER
  2
_0-0_
 70
   64
 62
    7
  6
CONTINUOUS
  0
LAYER
  2
ADD_LINE
 70
   64
 62
    7
  6
CONTINUOUS
  0
ENDTAB
  0
ENDSEC
  0
SECTION
  2
BLOCKS
  0
ENDSEC
  0
SECTION
  2
ENTITIES
  0
ARC
  8
_0-0_
  6
CONTINUOUS
 62
    4
 10
154.984955630001
 20
130.992850989731
 40
6.2091136855653
 50
163.387634582257
 51
168.34685599396
  0
ARC
  8
_0-0_
  6
CONTINUOUS
 62
    2
 10
157.258828687353
 20
130.318166440244
 40
8.58096712185277
 50
158.215481081739
 51
163.411441927463
  0
ARC
  8
_0-0_
  6
CONTINUOUS
 62
    4
 10
159.58392593828
 20
129.391328326912
 40
11.0839857496191
 50
152.704756371593
 51
158.227029041319
  0
ARC
  8
_0-0_
  6
CONTINUOUS
 62
    4
 10
152.086169045759
 20
131.54849042173
 40
6.2091136855653
 50
169.703424055941
 51
174.662645467644
  0
ARC
  8
_0-0_
  6
CONTINUOUS
 62
    2
 10
154.42046208081
 20
131.128045480288
 40
8.58096712185277
 50
164.531270555423
 51
169.727231401147
  0
ARC
  8
_0-0_
  6
CONTINUOUS
 62
    4
 10
156.83340737825
 20
130.462612458752
 40
11.0839857496191
 50
159.020545845277
 51
164.542818515003
  0
ARC
  8
_0-0_
  6
CONTINUOUS
 62
    4
 10
149.143851227255
 20
131.781867143547
 40
6.2091136855653
 50
176.019213529626
 51
180.978434941328
  0
ARC
  8
_0-0_
  6
CONTINUOUS
 62
    2
 10
151.510229084675
 20
131.62076544219
 40
8.58096712185277
 50
170.847060029107
 51
176.043020874831
  0
ARC
  8
_0-0_
  6
CONTINUOUS
 62
    4
 10
153.981732541382
 20
131.224814967912
 40
11.0839857496191
 50
165.336335318961
 51
170.858607988687
  0
ARC
  8
_0-0_
  6
CONTINUOUS
 62
    4
 10
146.193717927036
 20
131.69014827792
 40
6.2091136855653
 50
182.33500300331
 51
187.294224415013
  0
ARC
  8
_0-0_
  6
CONTINUOUS
 62
    2
 10
148.563455985218
 20
131.790345373068
 40
8.58096712185277
 50
177.162849502792
 51
182.358810348515
  0
ARC
  8
_0-0_
  6
CONTINUOUS
 62
    4
 10
151.063516897213
 20
131.668683748438
 40
11.0839857496191
 50
171.652124792645
 51
177.174397462372
  0
ARC
  8
_0-0_
  6
CONTINUOUS
 62
    4
 10
143.271579767011
 20
131.274447167633
 40
6.2091136855653
 50
188.650792476994
 51
193.610013888697
  0
ARC
  8
_0-0_
  6
CONTINUOUS
 62
    2
 10
145.615912616059
 20
131.63472680228
 40
8.58096712185277
 50
183.478638976476
 51
188.674599822199
  0
ARC
  8
_0-0_
  6
CONTINUOUS
 62
    4
 10
148.114183630543
 20
131.788830834614
 40
11.0839857496191
 50
177.967914266329
 51
183.490186936056
  0
ARC
  8
_0-0_
  6
CONTINUOUS
 62
    4
 10
140.412907546008
 20
130.539809861039
 40
6.2091136855653
 50
194.966581950678
 51
199.925803362381
  0
ARC
  8
_0-0_
  6
CONTINUOUS
 62
    2
 10
142.703378160853
 20
131.15579872847
 40
8.58096712185277
 50
189.79442845016
 51
194.990389295884
  0
ARC
  8
_0-0_
  6
CONTINUOUS
 62
    4
 10
145.169533651958
 20
131.583797803569
 40
11.0839857496191
 50
184.283703740014
 51
189.80597640974
  0
ARC
  8
_0-0_
  6
CONTINUOUS
 62
    4
 10
137.652401672331
 20
129.495153859876
 40
6.2091136855653
 50
201.282371424362
 51
206.241592836065
  0
ARC
  8
_0-0_
  6
CONTINUOUS
 62
    2
 10
139.861206842463
 20
130.35937468968
 40
8.58096712185277
 50
196.110217923844
 51
201.306178769568
  0
ARC
  8
_0-0_
  6
CONTINUOUS
 62
    4
 10
142.265311023269
 20
131.056073478556
 40
11.0839857496191
 50
190.599493213698
 51
196.121765883424
  0
ARC
  8
_0-0_
  6
CONTINUOUS
 62
    4
 10
135.023570947806
 20
128.153159872869
 40
6.2091136855653
 50
207.598160898047
 51
212.557382309749
  0
ARC
  8
_0-0_
  6
CONTINUOUS
 62
    2
 10
137.123898770585
 20
129.255122194877
 40
8.58096712185277
 50
202.426007397528
 51
207.621968243252
  0
ARC
  8
_0-0_
  6
CONTINUOUS
 62
    4
 10
139.436769073024
 20
130.212063718006
 40
11.0839857496191
 50
196.915282687382
 51
202.437555357108
  0
ARC
  8
_0-0_
  6
CONTINUOUS
 62
    4
 10
132.558325816319
 20
126.530117889106
 40
6.2091136855653
 50
213.913950371731
 51
218.873171783434
  0
ARC
  8
_0-0_
  6
CONTINUOUS
 62
    2
 10
134.524681157158
 20
127.856445373487
 40
8.58096712185277
 50
208.741796871213
 51
213.937757716936
  0
ARC
  8
_0-0_
  6
CONTINUOUS
 62
    4
 10
136.718242468855
 20
129.062013657086
 40
11.0839857496191
 50
203.231072161066
 51
208.753344830793
  0
ARC
  8
_0-0_
  6
CONTINUOUS
 62
    4
 10
130.286591014259
 20
124.645729439641
 40
6.2091136855653
 50
220.229739845415
 51
225.188961257118
  0
ARC
  8
_0-0_
  6
CONTINUOUS
 62
    2
 10
132.095104983014
 20
126.180322267425
 40
8.58096712185277
 50
215.057586344897
 51
220.25354719062
  0
ARC
  8
_0-0_
  6
CONTINUOUS
 62
    4
 10
134.142730441122
 20
127.619883345636
 40
11.0839857496191
 50
209.546861634751
 51
215.069134304477
  0
ARC
  8
_0-0_
  6
CONTINUOUS
 62
    4
 10
128.235942324748
 20
122.522868447588
 40
6.2091136855653
 50
226.545529319099
 51
231.504750730802
  0
ARC
  8
_0-0_
  6
CONTINUOUS
 62
    2
 10
129.864662011717
 20
124.247098740661
 40
8.58096712185277
 50
221.373375818581
 51
226.569336664305
  0
ARC
  8
_0-0_
  6
CONTINUOUS
 62
    4
 10
131.741496216961
 20
125.903178292077
 40
11.0839857496191
 50
215.862651108435
 51
221.384923778161
  0
ARC
  8
_0-0_
  6
CONTINUOUS
 62
    4
 10
126.431271844994
 20
120.187303569689
 40
6.2091136855653
 50
232.861318792783
 51
237.820540204486
  0
ARC
  8
_0-0_
  6
CONTINUOUS
 62
    2
 10
127.860426799499
 20
122.080241507996
 40
8.58096712185277
 50
227.689165292265
 51
232.885126137989
  0
ARC
  8
_0-0_
  6
CONTINUOUS
 62
    4
 10
129.543687527055
 20
123.932736970247
 40
11.0839857496191
 50
222.178440582119
 51
227.700713251845
  0
ARC
  8
_0-0_
  6
CONTINUOUS
 62
    4
 10
124.894485829951
 20
117.66738539972
 40
6.2091136855653
 50
239.177108266468
 51
244.13632967817
  0
ARC
  8
_0-0_
  6
CONTINUOUS
 62
    2
 10
126.106728046829
 20
119.706053280932
 40
8.58096712185277
 50
234.004954765949
 51
239.200915611673
  0
ARC
  8
_0-0_
  6
CONTINUOUS
 62
    4
 10
127.575982791669
 20
121.732477868563
 40
11.0839857496191
 50
228.494230055803
 51
234.01650272553
  0
ARC
  8
_0-0_
  6
CONTINUOUS
 62
    4
 10
123.644238780055
 20
114.993702330694
 40
6.2091136855653
 50
245.492897740152
 51
250.452119151855
  0
ARC
  8
_0-0_
  6
CONTINUOUS
 62
    2
 10
124.62485328094
 20
117.153353488386
 40
8.58096712185277
 50
240.320744239634
 51
245.516705085357
  0
ARC
  8
_0-0_
  6
CONTINUOUS
 62
    4
 10
125.862267280768
 20
119.329109151971
 40
11.0839857496191
 50
234.810019529487
 51
240.332292199214
  0
ARC
  8
_0-0_
  6
CONTINUOUS
 62
    4
 10
122.695707000863
 20
112.1987092532
 40
6.2091136855653
 50
251.808687213836
 51
256.767908625539
  0
ARC
  8
_0-0_
  6
CONTINUOUS
 62
    2
 10
123.43279045409
 20
114.45312844786
 40
8.58096712185277
 50
246.636533713318
 51
251.832494559041
  0
ARC
  8
_0-0_
  6
CONTINUOUS
 62
    4
 10
124.423343179193
 20
116.751804460999
 40
11.0839857496191
 50
241.125809003172
 51
246.648081672898
  0
ARC
  8
_0-0_
  6
CONTINUOUS
 62
    4
 10
122.060404383258
 20
109.316333597003
 40
6.2091136855653
 50
258.12447668752
 51
263.083698099223
  0
ARC
  8
_0-0_
  6
CONTINUOUS
 62
    2
 10
122.545009594185
 20
111.638155233523
 40
8.58096712185277
 50
252.952323187002
 51
258.148284032726
  0
ARC
  8
_0-0_
  6
CONTINUOUS
 62
    4
 10
123.276677076318
 20
114.031848783287
 40
11.0839857496191
 50
247.441598476856
 51
252.963871146582
  0
ARC
  8
_0-0_
  6
CONTINUOUS
 62
    4
 10
121.746042640416
 20
106.381563497999
 40
6.2091136855653
 50
264.440266161205
 51
269.399487572907
  0
ARC
  8
_0-0_
  6
CONTINUOUS
 62
    2
 10
121.972287158245
 20
108.742603806935
 40
8.58096712185277
 50
259.268112660686
 51
264.46407350641
  0
ARC
  8
_0-0_
  6
CONTINUOUS
 62
    4
 10
122.436187945319
 20
111.202258696212
 40
11.0839857496191
 50
253.75738795054
 51
259.279660620266
  0
ARC
  8
_0-0_
  6
CONTINUOUS
 62
    4
 10
121.756437698048
 20
103.430023089645
 40
6.2091136855653
 50
270.756055634889
 51
275.715277046591
  0
ARC
  8
_0-0_
  6
CONTINUOUS
 62
    2
 10
121.721575220812
 20
105.801622239997
 40
8.58096712185277
 50
265.58390213437
 51
270.779862980094
  0
ARC
  8
_0-0_
  6
CONTINUOUS
 62
    4
 10
121.912078185688
 20
108.297381590368
 40
11.0839857496191
 50
260.073177424224
 51
265.595450093951
  0
ARC
  8
_0-0_
  6
CONTINUOUS
 62
    4
 10
122.091463374236
 20
100.497540074235
 40
6.2091136855653
 50
277.071845108573
 51
282.031066520276
  0
ARC
  8
_0-0_
  6
CONTINUOUS
 62
    2
 10
121.795917085182
 20
102.850910064971
 40
8.58096712185277
 50
271.899691608055
 51
277.095652453778
  0
ARC
  8
_0-0_
  6
CONTINUOUS
 62
    4
 10
121.710709779929
 20
105.352478738768
 40
11.0839857496191
 50
266.388966897908
 51
271.911239567635
  0
ARC
  8
_0-0_
  6
CONTINUOUS
 62
    4
 10
122.747052911109
 20
97.6197108231302
 40
6.2091136855653
 50
283.387634582257
 51
288.34685599396
  0
ARC
  8
_0-0_
  6
CONTINUOUS
 62
    2
 10
122.194410341829
 20
99.9262849305217
 40
8.58096712185277
 50
278.215481081739
 51
283.411441927462
  0
ARC
  8
_0-0_
  6
CONTINUOUS
 62
    4
 10
121.834527067708
 20
102.40329727276
 40
11.0839857496191
 50
272.704756371593
 51
278.227029041319
  0
ARC
  8
_0-0_
  6
CONTINUOUS
 62
    4
 10
123.715248339774
 20
94.8314682850279
 40
6.2091136855653
 50
289.703424055941
 51
294.662645467644
  0
ARC
  8
_0-0_
  6
CONTINUOUS
 62
    2
 10
122.912217822431
 20
97.0632478239795
 40
8.58096712185277
 50
284.531270555423
 51
289.727231401147
  0
ARC
  8
_0-0_
  6
CONTINUOUS
 62
    4
 10
122.282027074877
 20
99.4856362602734
 40
11.0839857496191
 50
279.020545845277
 51
284.542818515003
  0
ARC
  8
_0-0_
  6
CONTINUOUS
 62
    4
 10
124.984297079281
 20
92.1666579472873
 40
6.2091136855653
 50
296.019213529626
 51
300.978434941328
  0
ARC
  8
_0-0_
  6
CONTINUOUS
 62
    2
 10
123.940626316539
 20
94.2965521374448
 40
8.58096712185277
 50
290.847060029107
 51
296.043020874831
  0
ARC
  8
_0-0_
  6
CONTINUOUS
 62
    4
 10
123.047777757551
 20
96.6349121536323
 40
11.0839857496191
 50
285.336335318961
 51
290.858607988687
  0
ARC
  8
_0-0_
  6
CONTINUOUS
 62
    4
 10
126.538794597029
 20
89.6576269975607
 40
6.2091136855653
 50
302.33500300331
 51
307.294224415013
  0
ARC
  8
_0-0_
  6
CONTINUOUS
 62
    2
 10
125.267152338156
 20
91.6597818086868
 40
8.58096712185277
 50
297.162849502792
 51
302.358810348515
  0
ARC
  8
_0-0_
  6
CONTINUOUS
 62
    4
 10
124.122483939753
 20
93.8857288817978
 40
11.0839857496191
 50
291.652124792645
 51
297.174397462372
  0
ARC
  8
_0-0_
  6
CONTINUOUS
 62
    4
 10
128.359871398933
 20
87.3348316727545
 40
6.2091136855653
 50
308.650792476994
 51
313.610013888697
  0
ARC
  8
_0-0_
  6
CONTINUOUS
 62
    2
 10
126.875693658338
 20
89.1849436576329
 40
8.58096712185277
 50
303.478638976476
 51
308.674599822199
  0
ARC
  8
_0-0_
  6
CONTINUOUS
 62
    4
 10
125.493100144269
 20
91.2714578055477
 40
11.0839857496191
 50
297.96791426633
 51
303.490186936056
  0
ARC
  8
_0-0_
  6
CONTINUOUS
 62
    4
 10
130.425422079512
 20
85.2264675615699
 40
6.2091136855653
 50
314.966581950678
 51
319.925803362381
  0
ARC
  8
_0-0_
  6
CONTINUOUS
 62
    2
 10
128.746724764446
 20
86.9020788669323
 40
8.58096712185277
 50
309.79442845016
 51
314.990389295884
  0
ARC
  8
_0-0_
  6
CONTINUOUS
 62
    4
 10
127.142988947061
 20
88.8238326343621
 40
11.0839857496191
 50
304.283703740014
 51
309.80597640974
  0
ARC
  8
_0-0_
  6
CONTINUOUS
 62
    4
 10
132.710373651574
 20
83.358127348251
 40
6.2091136855653
 50
321.282371424362
 51
326.241592836065
  0
ARC
  8
_0-0_
  6
CONTINUOUS
 62
    2
 10
130.857533873417
 20
84.8388983226934
 40
8.58096712185277
 50
316.110217923844
 51
321.306178769568
  0
ARC
  8
_0-0_
  6
CONTINUOUS
 62
    4
 10
129.052122933062
 20
86.5725642221783
 40
11.0839857496191
 50
310.599493213698
 51
316.121765883424
  0
ARC
  8
_0-0_
  6
CONTINUOUS
 62
    4
 10
135.18698989831
 20
81.7524901520667
 40
6.2091136855653
 50
327.598160898047
 51
332.557382309749
  0
ARC
  8
_0-0_
  6
CONTINUOUS
 62
    2
 10
133.182498622048
 20
83.020446241865
 40
8.58096712185277
 50
322.426007397528
 51
327.621968243252
  0
ARC
  8
_0-0_
  6
CONTINUOUS
 62
    4
 10
131.197327801863
 20
84.5449799178712
 40
11.0839857496191
 50
316.915282687382
 51
322.437555357109
  0
ARC
  8
_0-0_
  6
CONTINUOUS
 62
    4
 10
137.825208053401
 20
80.4290462335248
 40
6.2091136855653
 50
333.913950371731
 51
338.873171783434
  0
ARC
  8
_0-0_
  6
CONTINUOUS
 62
    2
 10
135.69339708777
 20
81.4687961693677
 40
8.58096712185277
 50
328.741796871213
 51
333.937757716936
  0
ARC
  8
_0-0_
  6
CONTINUOUS
 62
    4
 10
133.552563672328
 20
82.7656918482567
 40
11.0839857496191
 50
323.231072161066
 51
328.753344830793
  0
ARC
  8
_0-0_
  6
CONTINUOUS
 62
    4
 10
140.593003722266
 20
79.403860409012
 40
6.2091136855653
 50
340.229739845415
 51
345.188961257118
  0
ARC
  8
_0-0_
  6
CONTINUOUS
 62
    2
 10
138.359750364562
 20
80.2027830351609
 40
8.58096712185277
 50
335.057586344897
 51
340.25354719062
  0
ARC
  8
_0-0_
  6
CONTINUOUS
 62
    4
 10
136.089241171478
 20
81.2562981602124
 40
11.0839857496191
 50
329.546861634751
 51
335.069134304477
  0
ARC
  8
_0-0_
  6
CONTINUOUS
 62
    4
 10
143.456779614842
 20
78.6893770456842
 40
6.2091136855653
 50
346.545529319099
 51
351.504750730802
  0
ARC
  8
_0-0_
  6
CONTINUOUS
 62
    2
 10
141.149192535582
 20
79.2377745237069
 40
8.58096712185277
 50
341.373375818581
 51
346.569336664305
  0
ARC
  8
_0-0_
  6
CONTINUOUS
 62
    4
 10
138.776568470746
 20
80.0351208484321
 40
11.0839857496191
 50
335.862651108435
 51
341.384923778161
  0
ARC
  8
_0-0_
  6
CONTINUOUS
 62
    4
 10
146.381773371166
 20
78.2942690037073
 40
6.2091136855653
 50
352.861318792783
 51
357.820540204486
  0
ARC
  8
_0-0_
  6
CONTINUOUS
 62
    2
 10
144.027863551553
 20
78.5854845310997
 40
8.58096712185277
 50
347.689165292265
 51
352.885126137989
  0
ARC
  8
_0-0_
  6
CONTINUOUS
 62
    4
 10
141.58192505707
 20
79.1169833512304
 40
11.0839857496191
 50
342.178440582119
 51
347.700713251845
  0
ARC
  8
_0-0_
  6
CONTINUOUS
 62
    4
 10
149.332479529339
 20
78.2233323594836
 40
6.2091136855653
 50
359.177108266468
 51
364.13632967817
  0
ARC
  8
_0-0_
  6
CONTINUOUS
 62
    2
 10
146.960820245891
 20
78.2538309742339
 40
8.58096712185277
 50
354.004954765949
 51
359.200915611673
  0
ARC
  8
_0-0_
  6
CONTINUOUS
 62
    4
 10
144.471257701729
 20
78.5130306140812
 40
11.0839857496191
 50
348.494230055803
 51
354.01650272553
  0
ARC
  8
_0-0_
  6
CONTINUOUS
 62
    4
 10
152.273080513732
 20
78.4774281877805
 40
6.2091136855653
 50
365.492897740152
 51
370.452119151855
  0
ARC
  8
_0-0_
  6
CONTINUOUS
 62
    2
 10
149.912460497416
 20
78.2468396780203
 40
8.58096712185277
 50
360.320744239634
 51
365.516705085357
  0
ARC
  8
_0-0_
  6
CONTINUOUS
 62
    4
 10
147.409493820409
 20
78.2305938050775
 40
11.0839857496191
 50
354.810019529487
 51
360.332292199214
  0
ARC
  8
_0-0_
  6
CONTINUOUS
 62
    4
 10
155.167881411839
 20
79.0534721094498
 40
6.2091136855653
 50
371.808687213836
 51
376.767908625539
  0
ARC
  8
_0-0_
  6
CONTINUOUS
 62
    2
 10
152.846955391871
 20
78.5645955073241
 40
8.58096712185277
 50
366.636533713318
 51
371.832494559041
  0
ARC
  8
_0-0_
  6
CONTINUOUS
 62
    4
 10
150.360967206871
 20
78.2731013244815
 40
11.0839857496191
 50
361.125809003172
 51
366.648081672898
  0
ARC
  8
_0-0_
  6
CONTINUOUS
 62
    4
 10
157.981743262158
 20
79.9444717316123
 40
6.2091136855653
 50
378.12447668752
 51
383.083698099223
  0
ARC
  8
_0-0_
  6
CONTINUOUS
 62
    2
 10
155.728684136412
 20
79.2032413368211
 40
8.58096712185277
 50
372.952323187002
 51
378.148284032726
  0
ARC
  8
_0-0_
  6
CONTINUOUS
 62
    4
 10
153.289850972375
 20
78.6400371885899
 40
11.0839857496191
 50
367.441598476856
 51
372.963871146582
  0
ARC
  8
_0-0_
  6
CONTINUOUS
 62
    4
 10
160.680509593583
 20
81.139611525835
 40
6.2091136855653
 50
384.440266161205
 51
389.399487572907
  0
ARC
  8
_0-0_
  6
CONTINUOUS
 62
    2
 10
158.522666447771
 20
80.1550248712737
 40
8.58096712185277
 50
379.268112660686
 51
384.46407350641
  0
ARC
  8
_0-0_
  6
CONTINUOUS
 62
    4
 10
156.160592435578
 20
79.3269472930769
 40
11.0839857496191
 50
373.75738795054
 51
379.279660620266
  0
ARC
  8
_0-0_
  6
CONTINUOUS
 62
    4
 10
163.231421038699
 20
82.6243841139952
 40
6.2091136855653
 50
390.756055634889
 51
395.715277046591
  0
ARC
  8
_0-0_
  6
CONTINUOUS
 62
    2
 10
161.194987165518
 20
81.4083927478938
 40
8.58096712185277
 50
385.58390213437
 51
390.779862980094
  0
ARC
  8
_0-0_
  6
CONTINUOUS
 62
    4
 10
158.938344683926
 20
80.3254934797872
 40
11.0839857496191
 50
380.073177424224
 51
385.595450093951
  0
ARC
  8
_0-0_
  6
CONTINUOUS
 62
    4
 10
165.603512988116
 20
84.3807663681989
 40
6.2091136855653
 50
397.071845108573
 51
402.031066520276
  0
ARC
  8
_0-0_
  6
CONTINUOUS
 62
    2
 10
163.713207936162
 20
82.9481307785164
 40
8.58096712185277
 50
391.899691608055
 51
397.095652453778
  0
ARC
  8
_0-0_
  6
CONTINUOUS
 62
    4
 10
161.589389567969
 20
81.6235547506804
 40
11.0839857496191
 50
386.388966897908
 51
391.911239567635
  0
ARC
  8
_0-0_
  6
CONTINUOUS
 62
    4
 10
167.76799145889
 20
86.3874381871387
 40
6.2091136855653
 50
403.387634582257
 51
408.34685599396
  0
ARC
  8
_0-0_
  6
CONTINUOUS
 62
    2
 10
166.046760970818
 20
84.7555486292341
 40
8.58096712185277
 50
398.215481081739
 51
403.411441927462
  0
ARC
  8
_0-0_
  6
CONTINUOUS
 62
    4
 10
164.081546994013
 20
83.2053744003285
 40
11.0839857496191
 50
392.704756371593
 51
398.227029041319
  0
ARC
  8
_0-0_
  6
CONTINUOUS
 62
    4
 10
169.698582614466
 20
88.6200412932422
 40
6.2091136855653
 50
409.703424055941
 51
414.662645467644
  0
ARC
  8
_0-0_
  6
CONTINUOUS
 62
    2
 10
168.16732009676
 20
86.8087066957324
 40
8.58096712185277
 50
404.531270555423
 51
409.727231401147
  0
ARC
  8
_0-0_
  6
CONTINUOUS
 62
    4
 10
166.384565546872
 20
85.0517512809744
 40
11.0839857496191
 50
399.020545845277
 51
404.542818515003
  0
ARC
  8
_0-0_
  6
CONTINUOUS
 62
    4
 10
171.371851693464
 20
91.0514749091656
 40
6.2091136855653
 50
416.019213529626
 51
420.978434941328
  0
ARC
  8
_0-0_
  6
CONTINUOUS
 62
    2
 10
170.049144598785
 20
89.0826824203655
 40
8.58096712185277
 50
410.847060029107
 51
416.043020874831
  0
ARC
  8
_0-0_
  6
CONTINUOUS
 62
    4
 10
168.470489701068
 20
87.1402728784554
 40
11.0839857496191
 50
405.336335318961
 51
410.858607988687
  0
ARC
  8
_0-0_
  6
CONTINUOUS
 62
    4
 10
172.767487475934
 20
93.652224724519
 40
6.2091136855653
 50
422.33500300331
 51
427.294224415013
  0
ARC
  8
_0-0_
  6
CONTINUOUS
 62
    2
 10
171.669391676627
 20
91.5498728182455
 40
8.58096712185277
 50
417.162849502792
 51
422.358810348515
  0
ARC
  8
_0-0_
  6
CONTINUOUS
 62
    4
 10
170.313999163034
 20
89.4455873697644
 40
11.0839857496191
 50
411.652124792645
 51
417.174397462372
  0
ARC
  8
_0-0_
  6
CONTINUOUS
 62
    4
 10
173.868548834056
 20
96.3907211596129
 40
6.2091136855653
 50
428.650792476994
 51
433.610013888697
  0
ARC
  8
_0-0_
  6
CONTINUOUS
 62
    2
 10
173.008393725603
 20
94.1803295400869
 40
8.58096712185277
 50
423.478638976476
 51
428.674599822199
  0
ARC
  8
_0-0_
  6
CONTINUOUS
 62
    4
 10
171.892716225188
 20
91.9397113598388
 40
11.0839857496191
 50
417.96791426633
 51
423.490186936056
  0
ARC
  8
_0-0_
  6
CONTINUOUS
 62
    4
 10
174.66167037448
 20
99.2337225773909
 40
6.2091136855653
 50
434.966581950678
 51
439.925803362381
  0
ARC
  8
_0-0_
  6
CONTINUOUS
 62
    2
 10
174.049897074701
 20
96.9421224045976
 40
8.58096712185277
 50
429.79442845016
 51
434.990389295884
  0
ARC
  8
_0-0_
  6
CONTINUOUS
 62
    4
 10
173.187477400981
 20
94.5923695620689
 40
11.0839857496191
 50
424.283703740014
 51
429.80597640974
  0
ARC
  8
_0-0_
  6
CONTINUOUS
 62
    4
 10
175.137224676096
 20
102.146718791873
 40
6.2091136855653
 50
441.282371424362
 51
446.241592836065
  0
ARC
  8
_0-0_
  6
CONTINUOUS
 62
    2
 10
174.78125928412
 20
99.8017269876263
 40
8.58096712185277
 50
436.110217923844
 51
441.306178769568
  0
ARC
  8
_0-0_
  6
CONTINUOUS
 62
    4
 10
174.182566043669
 20
97.3713622992656
 40
11.0839857496191
 50
430.599493213698
 51
436.121765883424
  0
ARC
  8
_0-0_
  6
CONTINUOUS
 62
    4
 10
175.289439153884
 20
105.094349975065
 40
6.2091136855653
 50
447.598160898047
 51
452.557382309749
  0
ARC
  8
_0-0_
  6
CONTINUOUS
 62
    2
 10
175.193602607367
 20
102.724431563258
 40
8.58096712185277
 50
442.426007397528
 51
447.621968243252
  0
ARC
  8
_0-0_
  6
CONTINUOUS
 62
    4
 10
174.865903125113
 20
100.242956364123
 40
11.0839857496191
 50
436.915282687382
 51
442.437555357109
  0
ARC
  8
_0-0_
  6
CONTINUOUS
 62
    4
 10
175.11646613028
 20
108.040835877369
 40
6.2091136855653
 50
453.913950371731
 51
458.873171783434
  0
ARC
  8
_0-0_
  6
CONTINUOUS
 62
    2
 10
175.281921755072
 20
105.674758457145
 40
8.58096712185277
 50
448.741796871213
 51
453.937757716936
  0
ARC
  8
_0-0_
  6
CONTINUOUS
 62
    4
 10
175.229193858817
 20
103.172294494657
 40
11.0839857496191
 50
443.231072161066
 51
448.753344830793
  0
ARC
  8
_0-0_
  6
CONTINUOUS
 62
    4
 10
174.620405263475
 20
110.950410151347
 40
6.2091136855653
 50
460.229739845415
 51
465.188961257118
  0
ARC
  8
_0-0_
  6
CONTINUOUS
 62
    2
 10
175.045144652424
 20
108.616894697414
 40
8.58096712185277
 50
455.057586344897
 51
460.25354719062
  0
ARC
  8
_0-0_
  6
CONTINUOUS
 62
    4
 10
175.268028387401
 20
106.123818494151
 40
11.0839857496191
 50
449.546861634751
 51
455.069134304477
  0
ARC
  8
_0-0_
  6
CONTINUOUS
 62
    4
 10
173.807278060411
 20
113.787754506727
 40
6.2091136855653
 50
466.545529319099
 51
471.504750730802
  0
ARC
  8
_0-0_
  6
CONTINUOUS
 62
    2
 10
174.486145452701
 20
111.515126735632
 40
8.58096712185277
 50
461.373375818581
 51
466.569336664305
  0
ARC
  8
_0-0_
  6
CONTINUOUS
 62
    4
 10
174.981935312293
 20
109.061700859491
 40
11.0839857496191
 50
455.862651108435
 51
461.384923778161
  0
ARC
  8
_0-0_
  6
CONTINUOUS
 62
    4
 10
172.68695478384
 20
116.518427426604
 40
6.2091136855653
 50
472.861318792783
 51
477.820540204486
  0
ARC
  8
_0-0_
  6
CONTINUOUS
 62
    2
 10
173.611709648948
 20
114.334273960904
 40
8.58096712185277
 50
467.689165292265
 51
472.885126137989
  0
ARC
  8
_0-0_
  6
CONTINUOUS
 62
    4
 10
174.374387415875
 20
111.950279678523
 40
11.0839857496191
 50
462.178440582119
 51
467.700713251845
  0
ARC
  8
_0-0_
  6
CONTINUOUS
 62
    4
 10
171.27303464071
 20
119.109282240796
 40
6.2091136855653
 50
479.177108266468
 51
484.13632967817
  0
ARC
  8
_0-0_
  6
CONTINUOUS
 62
    2
 10
172.432451707281
 20
117.040115744834
 40
8.58096712185277
 50
474.004954765949
 51
479.200915611673
  0
ARC
  8
_0-0_
  6
CONTINUOUS
 62
    4
 10
173.452759506602
 20
114.754491517355
 40
11.0839857496191
 50
468.494230055803
 51
474.01650272553
  0
ARC
  8
_0-0_
  6
CONTINUOUS
 62
    4
 10
169.582680706213
 20
121.528869481526
 40
6.2091136855653
 50
485.492897740152
 51
490.452119151855
  0
ARC
  8
_0-0_
  6
CONTINUOUS
 62
    2
 10
170.962686221645
 20
119.599806833594
 40
8.58096712185277
 50
480.320744239634
 51
485.516705085357
  0
ARC
  8
_0-0_
  6
CONTINUOUS
 62
    4
 10
172.228238898823
 20
117.440297042952
 40
11.0839857496191
 50
474.810019529487
 51
480.332292199214
  0
ARC
  8
_0-0_
  6
CONTINUOUS
 62
    4
 10
167.636411587298
 20
123.74781863735
 40
6.2091136855653
 50
491.808687213836
 51
496.767908625539
  0
ARC
  8
_0-0_
  6
CONTINUOUS
 62
    2
 10
169.220254154039
 20
121.982276044816
 40
8.58096712185277
 50
486.636533713318
 51
491.832494559041
  0
ARC
  8
_0-0_
  6
CONTINUOUS
 62
    4
 10
170.715689613936
 20
119.975094214519
 40
11.0839857496191
 50
481.125809003172
 51
486.648081672898
  0
ARC
  8
_0-0_
  6
CONTINUOUS
 62
    4
 10
165.457852354584
 20
125.739194671384
 40
6.2091136855653
 50
498.12447668752
 51
503.083698099223
  0
ARC
  8
_0-0_
  6
CONTINUOUS
 62
    2
 10
167.226306269403
 20
124.158603429656
 40
8.58096712185277
 50
492.952323187002
 51
498.148284032726
  0
ARC
  8
_0-0_
  6
CONTINUOUS
 62
    4
 10
168.933471951307
 20
122.328114028123
 40
11.0839857496191
 50
487.441598476856
 51
492.963871146582
  0
ARC
  8
_0-0_
  6
CONTINUOUS
 62
    4
 10
163.073447766001
 20
127.478824976166
 40
6.2091136855653
 50
504.440266161205
 51
509.399487572907
  0
ARC
  8
_0-0_
  6
CONTINUOUS
 62
    2
 10
165.005046393984
 20
126.102371321791
 40
8.58096712185277
 50
499.268112660686
 51
504.46407350641
  0
ARC
  8
_0-0_
  6
CONTINUOUS
 62
    4
 10
166.903219619103
 20
124.470794010711
 40
11.0839857496191
 50
493.75738795054
 51
499.279660620266
  0
ARC
  8
_0-0_
  6
CONTINUOUS
 62
    4
 10
160.512141263253
 20
128.94559279636
 40
6.2091136855653
 50
510.756055634889
 51
515.715277046591
  0
ARC
  8
_0-0_
  6
CONTINUOUS
 62
    2
 10
162.58343761367
 20
127.789985012109
 40
8.58096712185277
 50
505.58390213437
 51
510.779862980094
  0
ARC
  8
_0-0_
  6
CONTINUOUS
 62
    4
 10
164.649577130386
 20
126.377124929845
 40
11.0839857496191
 50
500.073177424224
 51
505.595450093951
  0
ARC
  8
_0-0_
  6
CONTINUOUS
 62
    4
 10
157.805023637648
 20
130.121693557566
 40
6.2091136855653
 50
517.071845108573
 51
522.031066520276
  0
ARC
  8
_0-0_
  6
CONTINUOUS
 62
    2
 10
159.990874978656
 20
129.200959156513
 40
8.58096712185277
 50
511.899691608055
 51
517.095652453778
  0
ARC
  8
_0-0_
  6
CONTINUOUS
 62
    4
 10
162.199900652103
 20
128.023966510552
 40
11.0839857496191
 50
506.388966897908
 51
511.911239567635
  0
ARC
  8
_0-0_
  6
CONTINUOUS
 62
    4
 10
142.015044369999
 20
130.992850989731
 40
6.2091136855653
 50
371.65314400604
 51
376.612365417743
  0
ARC
  8
_0-0_
  6
CONTINUOUS
 62
    2
 10
139.741171312647
 20
130.318166440244
 40
8.58096712185277
 50
376.588558072538
 51
381.784518918261
  0
ARC
  8
_0-0_
  6
CONTINUOUS
 62
    4
 10
137.41607406172
 20
129.391328326912
 40
11.0839857496191
 50
381.772970958681
 51
387.295243628407
  0
ARC
  8
_0-0_
  6
CONTINUOUS
 62
    4
 10
139.194976362352
 20
130.121693557566
 40
6.2091136855653
 50
377.968933479724
 51
382.928154891427
  0
ARC
  8
_0-0_
  6
CONTINUOUS
 62
    2
 10
137.009125021344
 20
129.200959156513
 40
8.58096712185277
 50
382.904347546222
 51
388.100308391945
  0
ARC
  8
_0-0_
  6
CONTINUOUS
 62
    4
 10
134.800099347898
 20
128.023966510552
 40
11.0839857496191
 50
388.088760432365
 51
393.611033102092
  0
ARC
  8
_0-0_
  6
CONTINUOUS
 62
    4
 10
136.487858736747
 20
128.94559279636
 40
6.2091136855653
 50
384.284722953409
 51
389.243944365111
  0
ARC
  8
_0-0_
  6
CONTINUOUS
 62
    2
 10
134.41656238633
 20
127.789985012109
 40
8.58096712185277
 50
389.220137019906
 51
394.41609786563
  0
ARC
  8
_0-0_
  6
CONTINUOUS
 62
    4
 10
132.350422869614
 20
126.377124929845
 40
11.0839857496191
 50
394.404549906049
 51
399.926822575776
  0
ARC
  8
_0-0_
  6
CONTINUOUS
 62
    4
 10
133.926552233999
 20
127.478824976166
 40
6.2091136855653
 50
390.600512427093
 51
395.559733838795
  0
ARC
  8
_0-0_
  6
CONTINUOUS
 62
    2
 10
131.994953606016
 20
126.102371321791
 40
8.58096712185277
 50
395.53592649359
 51
400.731887339314
  0
ARC
  8
_0-0_
  6
CONTINUOUS
 62
    4
 10
130.096780380897
 20
124.470794010711
 40
11.0839857496191
 50
400.720339379734
 51
406.24261204946
  0
ARC
  8
_0-0_
  6
CONTINUOUS
 62
    4
 10
131.542147645416
 20
125.739194671384
 40
6.2091136855653
 50
396.916301900777
 51
401.87552331248
  0
ARC
  8
_0-0_
  6
CONTINUOUS
 62
    2
 10
129.773693730597
 20
124.158603429656
 40
8.58096712185277
 50
401.851715967274
 51
407.047676812998
  0
ARC
  8
_0-0_
  6
CONTINUOUS
 62
    4
 10
128.066528048693
 20
122.328114028123
 40
11.0839857496191
 50
407.036128853418
 51
412.558401523144
  0
ARC
  8
_0-0_
  6
CONTINUOUS
 62
    4
 10
129.363588412702
 20
123.74781863735
 40
6.2091136855653
 50
403.232091374461
 51
408.191312786164
  0
ARC
  8
_0-0_
  6
CONTINUOUS
 62
    2
 10
127.779745845961
 20
121.982276044816
 40
8.58096712185277
 50
408.167505440959
 51
413.363466286682
  0
ARC
  8
_0-0_
  6
CONTINUOUS
 62
    4
 10
126.284310386064
 20
119.975094214519
 40
11.0839857496191
 50
413.351918327102
 51
418.874190996828
  0
ARC
  8
_0-0_
  6
CONTINUOUS
 62
    4
 10
127.417319293787
 20
121.528869481526
 40
6.2091136855653
 50
409.547880848145
 51
414.507102259848
  0
ARC
  8
_0-0_
  6
CONTINUOUS
 62
    2
 10
126.037313778355
 20
119.599806833594
 40
8.58096712185277
 50
414.483294914643
 51
419.679255760366
  0
ARC
  8
_0-0_
  6
CONTINUOUS
 62
    4
 10
124.771761101177
 20
117.440297042952
 40
11.0839857496191
 50
419.667707800786
 51
425.189980470513
  0
ARC
  8
_0-0_
  6
CONTINUOUS
 62
    4
 10
125.72696535929
 20
119.109282240796
 40
6.2091136855653
 50
415.86367032183
 51
420.822891733532
  0
ARC
  8
_0-0_
  6
CONTINUOUS
 62
    2
 10
124.567548292719
 20
117.040115744834
 40
8.58096712185277
 50
420.799084388327
 51
425.995045234051
  0
ARC
  8
_0-0_
  6
CONTINUOUS
 62
    4
 10
123.547240493398
 20
114.754491517355
 40
11.0839857496191
 50
425.98349727447
 51
431.505769944197
  0
ARC
  8
_0-0_
  6
CONTINUOUS
 62
    4
 10
124.31304521616
 20
116.518427426604
 40
6.2091136855653
 50
422.179459795514
 51
427.138681207217
  0
ARC
  8
_0-0_
  6
CONTINUOUS
 62
    2
 10
123.388290351052
 20
114.334273960904
 40
8.58096712185277
 50
427.114873862011
 51
432.310834707735
  0
ARC
  8
_0-0_
  6
CONTINUOUS
 62
    4
 10
122.625612584125
 20
111.950279678523
 40
11.0839857496191
 50
432.299286748155
 51
437.821559417881
  0
ARC
  8
_0-0_
  6
CONTINUOUS
 62
    4
 10
123.192721939589
 20
113.787754506727
 40
6.2091136855653
 50
428.495249269198
 51
433.454470680901
  0
ARC
  8
_0-0_
  6
CONTINUOUS
 62
    2
 10
122.513854547299
 20
111.515126735632
 40
8.58096712185277
 50
433.430663335695
 51
438.626624181419
  0
ARC
  8
_0-0_
  6
CONTINUOUS
 62
    4
 10
122.018064687707
 20
109.061700859491
 40
11.0839857496191
 50
438.615076221839
 51
444.137348891565
  0
ARC
  8
_0-0_
  6
CONTINUOUS
 62
    4
 10
122.379594736525
 20
110.950410151347
 40
6.2091136855653
 50
434.811038742882
 51
439.770260154585
  0
ARC
  8
_0-0_
  6
CONTINUOUS
 62
    2
 10
121.954855347576
 20
108.616894697414
 40
8.58096712185277
 50
439.74645280938
 51
444.942413655103
  0
ARC
  8
_0-0_
  6
CONTINUOUS
 62
    4
 10
121.731971612599
 20
106.123818494151
 40
11.0839857496191
 50
444.930865695523
 51
450.453138365249
  0
ARC
  8
_0-0_
  6
CONTINUOUS
 62
    4
 10
121.88353386972
 20
108.040835877369
 40
6.2091136855653
 50
441.126828216566
 51
446.086049628269
  0
ARC
  8
_0-0_
  6
CONTINUOUS
 62
    2
 10
121.718078244928
 20
105.674758457145
 40
8.58096712185277
 50
446.062242283064
 51
451.258203128787
  0
ARC
  8
_0-0_
  6
CONTINUOUS
 62
    4
 10
121.770806141183
 20
103.172294494657
 40
11.0839857496191
 50
451.246655169207
 51
456.768927838934
  0
ARC
  8
_0-0_
  6
CONTINUOUS
 62
    4
 10
121.710560846116
 20
105.094349975065
 40
6.2091136855653
 50
447.442617690251
 51
452.401839101953
  0
ARC
  8
_0-0_
  6
CONTINUOUS
 62
    2
 10
121.806397392633
 20
102.724431563258
 40
8.58096712185277
 50
452.378031756748
 51
457.573992602472
  0
ARC
  8
_0-0_
  6
CONTINUOUS
 62
    4
 10
122.134096874887
 20
100.242956364123
 40
11.0839857496191
 50
457.562444642891
 51
463.084717312618
  0
ARC
  8
_0-0_
  6
CONTINUOUS
 62
    4
 10
121.862775323904
 20
102.146718791873
 40
6.2091136855653
 50
453.758407163935
 51
458.717628575638
  0
ARC
  8
_0-0_
  6
CONTINUOUS
 62
    2
 10
122.21874071588
 20
99.8017269876263
 40
8.58096712185277
 50
458.693821230432
 51
463.889782076156
  0
ARC
  8
_0-0_
  6
CONTINUOUS
 62
    4
 10
122.817433956331
 20
97.3713622992656
 40
11.0839857496191
 50
463.878234116576
 51
469.400506786302
  0
ARC
  8
_0-0_
  6
CONTINUOUS
 62
    4
 10
122.33832962552
 20
99.2337225773909
 40
6.2091136855653
 50
460.074196637619
 51
465.033418049322
  0
ARC
  8
_0-0_
  6
CONTINUOUS
 62
    2
 10
122.950102925299
 20
96.9421224045976
 40
8.58096712185277
 50
465.009610704116
 51
470.20557154984
  0
ARC
  8
_0-0_
  6
CONTINUOUS
 62
    4
 10
123.812522599019
 20
94.5923695620689
 40
11.0839857496191
 50
470.19402359026
 51
475.716296259986
  0
ARC
  8
_0-0_
  6
CONTINUOUS
 62
    4
 10
123.131451165944
 20
96.3907211596129
 40
6.2091136855653
 50
466.389986111303
 51
471.349207523006
  0
ARC
  8
_0-0_
  6
CONTINUOUS
 62
    2
 10
123.991606274397
 20
94.1803295400869
 40
8.58096712185277
 50
471.325400177801
 51
476.521361023524
  0
ARC
  8
_0-0_
  6
CONTINUOUS
 62
    4
 10
125.107283774812
 20
91.9397113598388
 40
11.0839857496191
 50
476.509813063944
 51
482.03208573367
  0
ARC
  8
_0-0_
  6
CONTINUOUS
 62
    4
 10
124.232512524066
 20
93.652224724519
 40
6.2091136855653
 50
472.705775584987
 51
477.66499699669
  0
ARC
  8
_0-0_
  6
CONTINUOUS
 62
    2
 10
125.330608323373
 20
91.5498728182455
 40
8.58096712185277
 50
477.641189651485
 51
482.837150497208
  0
ARC
  8
_0-0_
  6
CONTINUOUS
 62
    4
 10
126.686000836966
 20
89.4455873697644
 40
11.0839857496191
 50
482.825602537628
 51
488.347875207355
  0
ARC
  8
_0-0_
  6
CONTINUOUS
 62
    4
 10
125.628148306536
 20
91.0514749091656
 40
6.2091136855653
 50
479.021565058672
 51
483.980786470374
  0
ARC
  8
_0-0_
  6
CONTINUOUS
 62
    2
 10
126.950855401215
 20
89.0826824203655
 40
8.58096712185277
 50
483.956979125169
 51
489.152939970893
  0
ARC
  8
_0-0_
  6
CONTINUOUS
 62
    4
 10
128.529510298932
 20
87.1402728784554
 40
11.0839857496191
 50
489.141392011313
 51
494.663664681039
  0
ARC
  8
_0-0_
  6
CONTINUOUS
 62
    4
 10
127.301417385534
 20
88.6200412932422
 40
6.2091136855653
 50
485.337354532356
 51
490.296575944059
  0
ARC
  8
_0-0_
  6
CONTINUOUS
 62
    2
 10
128.83267990324
 20
86.8087066957324
 40
8.58096712185277
 50
490.272768598853
 51
495.468729444577
  0
ARC
  8
_0-0_
  6
CONTINUOUS
 62
    4
 10
130.615434453128
 20
85.0517512809744
 40
11.0839857496191
 50
495.457181484997
 51
500.979454154723
  0
ARC
  8
_0-0_
  6
CONTINUOUS
 62
    4
 10
129.23200854111
 20
86.3874381871387
 40
6.2091136855653
 50
491.65314400604
 51
496.612365417743
  0
ARC
  8
_0-0_
  6
CONTINUOUS
 62
    2
 10
130.953239029183
 20
84.7555486292341
 40
8.58096712185277
 50
496.588558072538
 51
501.784518918261
  0
ARC
  8
_0-0_
  6
CONTINUOUS
 62
    4
 10
132.918453005987
 20
83.2053744003285
 40
11.0839857496191
 50
501.772970958681
 51
507.295243628407
  0
ARC
  8
_0-0_
  6
CONTINUOUS
 62
    4
 10
131.396487011884
 20
84.3807663681989
 40
6.2091136855653
 50
497.968933479724
 51
502.928154891427
  0
ARC
  8
_0-0_
  6
CONTINUOUS
 62
    2
 10
133.286792063838
 20
82.9481307785164
 40
8.58096712185277
 50
502.904347546222
 51
508.100308391945
  0
ARC
  8
_0-0_
  6
CONTINUOUS
 62
    4
 10
135.410610432031
 20
81.6235547506804
 40
11.0839857496191
 50
508.088760432365
 51
513.611033102092
  0
ARC
  8
_0-0_
  6
CONTINUOUS
 62
    4
 10
133.768578961301
 20
82.6243841139952
 40
6.2091136855653
 50
504.284722953409
 51
509.243944365111
  0
ARC
  8
_0-0_
  6
CONTINUOUS
 62
    2
 10
135.805012834482
 20
81.4083927478938
 40
8.58096712185277
 50
509.220137019906
 51
514.416097865629
  0
ARC
  8
_0-0_
  6
CONTINUOUS
 62
    4
 10
138.061655316074
 20
80.3254934797872
 40
11.0839857496191
 50
514.404549906049
 51
519.926822575776
  0
ARC
  8
_0-0_
  6
CONTINUOUS
 62
    4
 10
136.319490406417
 20
81.139611525835
 40
6.2091136855653
 50
510.600512427093
 51
515.559733838796
  0
ARC
  8
_0-0_
  6
CONTINUOUS
 62
    2
 10
138.477333552229
 20
80.1550248712737
 40
8.58096712185277
 50
515.53592649359
 51
520.731887339314
  0
ARC
  8
_0-0_
  6
CONTINUOUS
 62
    4
 10
140.839407564422
 20
79.3269472930769
 40
11.0839857496191
 50
520.720339379734
 51
526.24261204946
  0
ARC
  8
_0-0_
  6
CONTINUOUS
 62
    4
 10
139.018256737842
 20
79.9444717316123
 40
6.2091136855653
 50
516.916301900777
 51
521.87552331248
  0
ARC
  8
_0-0_
  6
CONTINUOUS
 62
    2
 10
141.271315863588
 20
79.2032413368211
 40
8.58096712185277
 50
521.851715967274
 51
527.047676812998
  0
ARC
  8
_0-0_
  6
CONTINUOUS
 62
    4
 10
143.710149027625
 20
78.6400371885899
 40
11.0839857496191
 50
527.036128853418
 51
532.558401523144
  0
ARC
  8
_0-0_
  6
CONTINUOUS
 62
    4
 10
141.832118588161
 20
79.0534721094498
 40
6.2091136855653
 50
523.232091374461
 51
528.191312786164
  0
ARC
  8
_0-0_
  6
CONTINUOUS
 62
    2
 10
144.153044608129
 20
78.5645955073241
 40
8.58096712185277
 50
528.167505440959
 51
533.363466286682
  0
ARC
  8
_0-0_
  6
CONTINUOUS
 62
    4
 10
146.639032793129
 20
78.2731013244815
 40
11.0839857496191
 50
533.351918327102
 51
538.874190996828
  0
ARC
  8
_0-0_
  6
CONTINUOUS
 62
    4
 10
144.726919486268
 20
78.4774281877805
 40
6.2091136855653
 50
529.547880848145
 51
534.507102259848
  0
ARC
  8
_0-0_
  6
CONTINUOUS
 62
    2
 10
147.087539502584
 20
78.2468396780203
 40
8.58096712185277
 50
534.483294914643
 51
539.679255760366
  0
ARC
  8
_0-0_
  6
CONTINUOUS
 62
    4
 10
149.590506179591
 20
78.2305938050775
 40
11.0839857496191
 50
539.667707800786
 51
545.189980470513
  0
ARC
  8
_0-0_
  6
CONTINUOUS
 62
    4
 10
147.667520470661
 20
78.2233323594836
 40
6.2091136855653
 50
535.86367032183
 51
540.822891733532
  0
ARC
  8
_0-0_
  6
CONTINUOUS
 62
    2
 10
150.039179754109
 20
78.2538309742339
 40
8.58096712185277
 50
540.799084388327
 51
545.995045234051
  0
ARC
  8
_0-0_
  6
CONTINUOUS
 62
    4
 10
152.528742298271
 20
78.5130306140812
 40
11.0839857496191
 50
545.98349727447
 51
551.505769944197
  0
ARC
  8
_0-0_
  6
CONTINUOUS
 62
    4
 10
150.618226628834
 20
78.2942690037073
 40
6.2091136855653
 50
542.179459795514
 51
547.138681207217
  0
ARC
  8
_0-0_
  6
CONTINUOUS
 62
    2
 10
152.972136448447
 20
78.5854845310997
 40
8.58096712185277
 50
547.114873862011
 51
552.310834707735
  0
ARC
  8
_0-0_
  6
CONTINUOUS
 62
    4
 10
155.41807494293
 20
79.1169833512304
 40
11.0839857496191
 50
552.299286748155
 51
557.821559417881
  0
ARC
  8
_0-0_
  6
CONTINUOUS
 62
    4
 10
153.543220385158
 20
78.6893770456842
 40
6.2091136855653
 50
548.495249269198
 51
553.454470680901
  0
ARC
  8
_0-0_
  6
CONTINUOUS
 62
    2
 10
155.850807464418
 20
79.2377745237069
 40
8.58096712185277
 50
553.430663335695
 51
558.626624181419
  0
ARC
  8
_0-0_
  6
CONTINUOUS
 62
    4
 10
158.223431529254
 20
80.0351208484321
 40
11.0839857496191
 50
558.615076221839
 51
564.137348891565
  0
ARC
  8
_0-0_
  6
CONTINUOUS
 62
    4
 10
156.406996277734
 20
79.403860409012
 40
6.2091136855653
 50
554.811038742882
 51
559.770260154585
  0
ARC
  8
_0-0_
  6
CONTINUOUS
 62
    2
 10
158.640249635438
 20
80.2027830351609
 40
8.58096712185277
 50
559.74645280938
 51
564.942413655103
  0
ARC
  8
_0-0_
  6
CONTINUOUS
 62
    4
 10
160.910758828522
 20
81.2562981602123
 40
11.0839857496191
 50
564.930865695523
 51
570.45313836525
  0
ARC
  8
_0-0_
  6
CONTINUOUS
 62
    4
 10
159.174791946599
 20
80.4290462335248
 40
6.2091136855653
 50
561.126828216566
 51
566.086049628269
  0
ARC
  8
_0-0_
  6
CONTINUOUS
 62
    2
 10
161.30660291223
 20
81.4687961693677
 40
8.58096712185277
 50
566.062242283064
 51
571.258203128787
  0
ARC
  8
_0-0_
  6
CONTINUOUS
 62
    4
 10
163.447436327672
 20
82.7656918482567
 40
11.0839857496191
 50
571.246655169207
 51
576.768927838934
  0
ARC
  8
_0-0_
  6
CONTINUOUS
 62
    4
 10
161.81301010169
 20
81.7524901520667
 40
6.2091136855653
 50
567.442617690251
 51
572.401839101953
  0
ARC
  8
_0-0_
  6
CONTINUOUS
 62
    2
 10
163.817501377952
 20
83.020446241865
 40
8.58096712185277
 50
572.378031756748
 51
577.573992602472
  0
ARC
  8
_0-0_
  6
CONTINUOUS
 62
    4
 10
165.802672198137
 20
84.5449799178712
 40
11.0839857496191
 50
577.562444642891
 51
583.084717312618
  0
ARC
  8
_0-0_
  6
CONTINUOUS
 62
    4
 10
164.289626348426
 20
83.358127348251
 40
6.2091136855653
 50
573.758407163935
 51
578.717628575638
  0
ARC
  8
_0-0_
  6
CONTINUOUS
 62
    2
 10
166.142466126583
 20
84.8388983226934
 40
8.58096712185277
 50
578.693821230432
 51
583.889782076156
  0
ARC
  8
_0-0_
  6
CONTINUOUS
 62
    4
 10
167.947877066938
 20
86.5725642221783
 40
11.0839857496191
 50
583.878234116576
 51
589.400506786302
  0
ARC
  8
_0-0_
  6
CONTINUOUS
 62
    4
 10
166.574577920488
 20
85.2264675615699
 40
6.2091136855653
 50
580.074196637619
 51
585.033418049322
  0
ARC
  8
_0-0_
  6
CONTINUOUS
 62
    2
 10
168.253275235554
 20
86.9020788669323
 40
8.58096712185277
 50
585.009610704116
 51
590.20557154984
  0
ARC
  8
_0-0_
  6
CONTINUOUS
 62
    4
 10
169.857011052939
 20
88.8238326343621
 40
11.0839857496191
 50
590.19402359026
 51
595.716296259986
  0
ARC
  8
_0-0_
  6
CONTINUOUS
 62
    4
 10
168.640128601067
 20
87.3348316727545
 40
6.2091136855653
 50
586.389986111303
 51
591.349207523006
  0
ARC
  8
_0-0_
  6
CONTINUOUS
 62
    2
 10
170.124306341662
 20
89.1849436576329
 40
8.58096712185277
 50
591.325400177801
 51
596.521361023524
  0
ARC
  8
_0-0_
  6
CONTINUOUS
 62
    4
 10
171.506899855731
 20
91.2714578055477
 40
11.0839857496191
 50
596.509813063944
 51
602.032085733671
  0
ARC
  8
_0-0_
  6
CONTINUOUS
 62
    4
 10
170.461205402971
 20
89.6576269975607
 40
6.2091136855653
 50
592.705775584987
 51
597.66499699669
  0
ARC
  8
_0-0_
  6
CONTINUOUS
 62
    2
 10
171.732847661844
 20
91.6597818086869
 40
8.58096712185277
 50
597.641189651485
 51
602.837150497208
  0
ARC
  8
_0-0_
  6
CONTINUOUS
 62
    4
 10
172.877516060247
 20
93.8857288817978
 40
11.0839857496191
 50
602.825602537628
 51
608.347875207355
  0
ARC
  8
_0-0_
  6
CONTINUOUS
 62
    4
 10
172.015702920719
 20
92.1666579472872
 40
6.2091136855653
 50
599.021565058672
 51
603.980786470374
  0
ARC
  8
_0-0_
  6
CONTINUOUS
 62
    2
 10
173.059373683461
 20
94.2965521374448
 40
8.58096712185277
 50
603.956979125169
 51
609.152939970893
  0
ARC
  8
_0-0_
  6
CONTINUOUS
 62
    4
 10
173.952222242449
 20
96.6349121536323
 40
11.0839857496191
 50
609.141392011313
 51
614.663664681039
  0
ARC
  8
_0-0_
  6
CONTINUOUS
 62
    4
 10
173.284751660226
 20
94.8314682850279
 40
6.2091136855653
 50
605.337354532356
 51
610.296575944059
  0
ARC
  8
_0-0_
  6
CONTINUOUS
 62
    2
 10
174.087782177569
 20
97.0632478239795
 40
8.58096712185277
 50
610.272768598853
 51
615.468729444577
  0
ARC
  8
_0-0_
  6
CONTINUOUS
 62
    4
 10
174.717972925123
 20
99.4856362602734
 40
11.0839857496191
 50
615.457181484997
 51
620.979454154723
  0
ARC
  8
_0-0_
  6
CONTINUOUS
 62
    4
 10
174.252947088891
 20
97.6197108231302
 40
6.2091136855653
 50
611.65314400604
 51
616.612365417743
  0
ARC
  8
_0-0_
  6
CONTINUOUS
 62
    2
 10
174.805589658171
 20
99.9262849305217
 40
8.58096712185277
 50
616.588558072537
 51
621.784518918261
  0
ARC
  8
_0-0_
  6
CONTINUOUS
 62
    4
 10
175.165472932292
 20
102.40329727276
 40
11.0839857496191
 50
621.772970958681
 51
627.295243628407
  0
ARC
  8
_0-0_
  6
CONTINUOUS
 62
    4
 10
174.908536625764
 20
100.497540074235
 40
6.2091136855653
 50
617.968933479724
 51
622.928154891427
  0
ARC
  8
_0-0_
  6
CONTINUOUS
 62
    2
 10
175.204082914818
 20
102.850910064971
 40
8.58096712185277
 50
622.904347546222
 51
628.100308391945
  0
ARC
  8
_0-0_
  6
CONTINUOUS
 62
    4
 10
175.289290220071
 20
105.352478738768
 40
11.0839857496191
 50
628.088760432365
 51
633.611033102092
  0
ARC
  8
_0-0_
  6
CONTINUOUS
 62
    4
 10
175.243562301952
 20
103.430023089645
 40
6.2091136855653
 50
624.284722953409
 51
629.243944365111
  0
ARC
  8
_0-0_
  6
CONTINUOUS
 62
    2
 10
175.278424779188
 20
105.801622239997
 40
8.58096712185277
 50
629.220137019906
 51
634.416097865629
  0
ARC
  8
_0-0_
  6
CONTINUOUS
 62
    4
 10
175.087921814312
 20
108.297381590368
 40
11.0839857496191
 50
634.404549906049
 51
639.926822575776
  0
ARC
  8
_0-0_
  6
CONTINUOUS
 62
    4
 10
175.253957359584
 20
106.381563497999
 40
6.2091136855653
 50
630.600512427093
 51
635.559733838796
  0
ARC
  8
_0-0_
  6
CONTINUOUS
 62
    2
 10
175.027712841755
 20
108.742603806935
 40
8.58096712185277
 50
635.53592649359
 51
640.731887339314
  0
ARC
  8
_0-0_
  6
CONTINUOUS
 62
    4
 10
174.563812054681
 20
111.202258696212
 40
11.0839857496191
 50
640.720339379734
 51
646.24261204946
  0
ARC
  8
_0-0_
  6
CONTINUOUS
 62
    4
 10
174.939595616742
 20
109.316333597003
 40
6.2091136855653
 50
636.916301900777
 51
641.87552331248
  0
ARC
  8
_0-0_
  6
CONTINUOUS
 62
    2
 10
174.454990405815
 20
111.638155233523
 40
8.58096712185277
 50
641.851715967274
 51
647.047676812998
  0
ARC
  8
_0-0_
  6
CONTINUOUS
 62
    4
 10
173.723322923682
 20
114.031848783287
 40
11.0839857496191
 50
647.036128853418
 51
652.558401523144
  0
ARC
  8
_0-0_
  6
CONTINUOUS
 62
    4
 10
174.304292999137
 20
112.1987092532
 40
6.2091136855653
 50
643.232091374461
 51
648.191312786164
  0
ARC
  8
_0-0_
  6
CONTINUOUS
 62
    2
 10
173.56720954591
 20
114.45312844786
 40
8.58096712185277
 50
648.167505440959
 51
653.363466286682
  0
ARC
  8
_0-0_
  6
CONTINUOUS
 62
    4
 10
172.576656820807
 20
116.751804460999
 40
11.0839857496191
 50
653.351918327102
 51
658.874190996828
  0
ARC
  8
_0-0_
  6
CONTINUOUS
 62
    4
 10
173.355761219945
 20
114.993702330694
 40
6.2091136855653
 50
649.547880848145
 51
654.507102259848
  0
ARC
  8
_0-0_
  6
CONTINUOUS
 62
    2
 10
172.37514671906
 20
117.153353488386
 40
8.58096712185277
 50
654.483294914643
 51
659.679255760366
  0
ARC
  8
_0-0_
  6
CONTINUOUS
 62
    4
 10
171.137732719232
 20
119.329109151971
 40
11.0839857496191
 50
659.667707800786
 51
665.189980470513
  0
ARC
  8
_0-0_
  6
CONTINUOUS
 62
    4
 10
172.105514170049
 20
117.66738539972
 40
6.2091136855653
 50
655.86367032183
 51
660.822891733532
  0
ARC
  8
_0-0_
  6
CONTINUOUS
 62
    2
 10
170.893271953171
 20
119.706053280932
 40
8.58096712185277
 50
660.799084388327
 51
665.995045234051
  0
ARC
  8
_0-0_
  6
CONTINUOUS
 62
    4
 10
169.424017208331
 20
121.732477868563
 40
11.0839857496191
 50
665.98349727447
 51
671.505769944197
  0
ARC
  8
_0-0_
  6
CONTINUOUS
 62
    4
 10
170.568728155006
 20
120.187303569689
 40
6.2091136855653
 50
662.179459795514
 51
667.138681207217
  0
ARC
  8
_0-0_
  6
CONTINUOUS
 62
    2
 10
169.139573200501
 20
122.080241507996
 40
8.58096712185277
 50
667.114873862011
 51
672.310834707735
  0
ARC
  8
_0-0_
  6
CONTINUOUS
 62
    4
 10
167.456312472945
 20
123.932736970247
 40
11.0839857496191
 50
672.299286748155
 51
677.821559417881
  0
ARC
  8
_0-0_
  6
CONTINUOUS
 62
    4
 10
168.764057675252
 20
122.522868447588
 40
6.2091136855653
 50
668.495249269198
 51
673.454470680901
  0
ARC
  8
_0-0_
  6
CONTINUOUS
 62
    2
 10
167.135337988283
 20
124.247098740661
 40
8.58096712185277
 50
673.430663335695
 51
678.626624181419
  0
ARC
  8
_0-0_
  6
CONTINUOUS
 62
    4
 10
165.258503783039
 20
125.903178292077
 40
11.0839857496191
 50
678.615076221839
 51
684.137348891565
  0
ARC
  8
_0-0_
  6
CONTINUOUS
 62
    4
 10
166.713408985741
 20
124.645729439641
 40
6.2091136855653
 50
674.811038742882
 51
679.770260154585
  0
ARC
  8
_0-0_
  6
CONTINUOUS
 62
    2
 10
164.904895016986
 20
126.180322267425
 40
8.58096712185277
 50
679.74645280938
 51
684.942413655103
  0
ARC
  8
_0-0_
  6
CONTINUOUS
 62
    4
 10
162.857269558878
 20
127.619883345636
 40
11.0839857496191
 50
684.930865695523
 51
690.45313836525
  0
ARC
  8
_0-0_
  6
CONTINUOUS
 62
    4
 10
164.441674183681
 20
126.530117889106
 40
6.2091136855653
 50
681.126828216566
 51
686.086049628269
  0
ARC
  8
_0-0_
  6
CONTINUOUS
 62
    2
 10
162.475318842842
 20
127.856445373487
 40
8.58096712185277
 50
686.062242283064
 51
691.258203128787
  0
ARC
  8
_0-0_
  6
CONTINUOUS
 62
    4
 10
160.281757531145
 20
129.062013657086
 40
11.0839857496191
 50
691.246655169207
 51
696.768927838934
  0
ARC
  8
_0-0_
  6
CONTINUOUS
 62
    4
 10
161.976429052194
 20
128.153159872869
 40
6.2091136855653
 50
687.442617690251
 51
692.401839101953
  0
ARC
  8
_0-0_
  6
CONTINUOUS
 62
    2
 10
159.876101229415
 20
129.255122194877
 40
8.58096712185277
 50
692.378031756748
 51
697.573992602472
  0
ARC
  8
_0-0_
  6
CONTINUOUS
 62
    4
 10
157.563230926976
 20
130.212063718006
 40
11.0839857496191
 50
697.562444642891
 51
703.084717312618
  0
ARC
  8
_0-0_
  6
CONTINUOUS
 62
    4
 10
159.347598327669
 20
129.495153859876
 40
6.2091136855653
 50
693.758407163935
 51
698.717628575638
  0
ARC
  8
_0-0_
  6
CONTINUOUS
 62
    2
 10
157.138793157537
 20
130.35937468968
 40
8.58096712185277
 50
698.693821230432
 51
703.889782076156
  0
ARC
  8
_0-0_
  6
CONTINUOUS
 62
    4
 10
154.734688976731
 20
131.056073478556
 40
11.0839857496191
 50
703.878234116576
 51
709.400506786302
  0
ARC
  8
_0-0_
  6
CONTINUOUS
 62
    4
 10
156.587092453992
 20
130.539809861039
 40
6.2091136855653
 50
700.074196637619
 51
705.033418049322
  0
ARC
  8
_0-0_
  6
CONTINUOUS
 62
    2
 10
154.296621839147
 20
131.15579872847
 40
8.58096712185277
 50
705.009610704116
 51
710.20557154984
  0
ARC
  8
_0-0_
  6
CONTINUOUS
 62
    4
 10
151.830466348042
 20
131.583797803569
 40
11.0839857496191
 50
710.19402359026
 51
715.716296259986
  0
ARC
  8
_0-0_
  6
CONTINUOUS
 62
    4
 10
153.728420232989
 20
131.274447167633
 40
6.2091136855653
 50
706.389986111303
 51
711.349207523006
  0
ARC
  8
_0-0_
  6
CONTINUOUS
 62
    2
 10
151.384087383941
 20
131.63472680228
 40
8.58096712185277
 50
711.325400177801
 51
716.521361023524
  0
ARC
  8
_0-0_
  6
CONTINUOUS
 62
    4
 10
148.885816369457
 20
131.788830834614
 40
11.0839857496191
 50
716.509813063944
 51
722.032085733671
  0
ARC
  8
_0-0_
  6
CONTINUOUS
 62
    4
 10
150.806282072964
 20
131.69014827792
 40
6.2091136855653
 50
712.705775584987
 51
717.66499699669
  0
ARC
  8
_0-0_
  6
CONTINUOUS
 62
    2
 10
148.436544014782
 20
131.790345373068
 40
8.58096712185277
 50
717.641189651485
 51
722.837150497208
  0
ARC
  8
_0-0_
  6
CONTINUOUS
 62
    4
 10
145.936483102787
 20
131.668683748438
 40
11.0839857496191
 50
722.825602537628
 51
728.347875207355
  0
ARC
  8
_0-0_
  6
CONTINUOUS
 62
    4
 10
147.856148772745
 20
131.781867143547
 40
6.2091136855653
 50
719.021565058672
 51
723.980786470374
  0
ARC
  8
_0-0_
  6
CONTINUOUS
 62
    2
 10
145.489770915325
 20
131.62076544219
 40
8.58096712185277
 50
723.956979125169
 51
729.152939970893
  0
ARC
  8
_0-0_
  6
CONTINUOUS
 62
    4
 10
143.018267458618
 20
131.224814967912
 40
11.0839857496191
 50
729.141392011313
 51
734.663664681039
  0
ARC
  8
_0-0_
  6
CONTINUOUS
 62
    4
 10
144.913830954241
 20
131.54849042173
 40
6.2091136855653
 50
725.337354532356
 51
730.296575944059
  0
ARC
  8
_0-0_
  6
CONTINUOUS
 62
    2
 10
142.57953791919
 20
131.128045480288
 40
8.58096712185277
 50
730.272768598853
 51
735.468729444577
  0
ARC
  8
_0-0_
  6
CONTINUOUS
 62
    4
 10
140.16659262175
 20
130.462612458752
 40
11.0839857496191
 50
735.457181484997
 51
740.979454154723
  0
ARC
  8
_0-0_
  6
CONTINUOUS
 62
    7
 10
148.5
 20
105
 40
27.25
 50
89.1508933992308
 51
90.8491066007692
  0
ARC
  8
_0-0_
  6
CONTINUOUS
 62
    7
 10
148.5
 20
105
 40
27.25
 50
95.466682872915
 51
97.1648960744534
  0
ARC
  8
_0-0_
  6
CONTINUOUS
 62
    7
 10
148.5
 20
105
 40
27.25
 50
101.782472346599
 51
103.480685548138
  0
ARC
  8
_0-0_
  6
CONTINUOUS
 62
    7
 10
148.5
 20
105
 40
27.25
 50
108.098261820283
 51
109.796475021822
  0
ARC
  8
_0-0_
  6
CONTINUOUS
 62
    7
 10
148.5
 20
105
 40
27.25
 50
114.414051293968
 51
116.112264495506
  0
ARC
  8
_0-0_
  6
CONTINUOUS
 62
    7
 10
148.5
 20
105
 40
27.25
 50
120.729840767652
 51
122.42805396919
  0
ARC
  8
_0-0_
  6
CONTINUOUS
 62
    7
 10
148.5
 20
105
 40
27.25
 50
127.045630241336
 51
128.743843442874
  0
ARC
  8
_0-0_
  6
CONTINUOUS
 62
    7
 10
148.5
 20
105
 40
27.25
 50
133.36141971502
 51
135.059632916559
  0
ARC
  8
_0-0_
  6
CONTINUOUS
 62
    7
 10
148.5
 20
105
 40
27.25
 50
139.677209188704
 51
141.375422390243
  0
ARC
  8
_0-0_
  6
CONTINUOUS
 62
    7
 10
148.5
 20
105
 40
27.25
 50
145.992998662389
 51
147.691211863927
  0
ARC
  8
_0-0_
  6
CONTINUOUS
 62
    7
 10
148.5
 20
105
 40
27.25
 50
152.308788136073
 51
154.007001337611
  0
ARC
  8
_0-0_
  6
CONTINUOUS
 62
    7
 10
148.5
 20
105
 40
27.25
 50
158.624577609757
 51
160.322790811296
  0
ARC
  8
_0-0_
  6
CONTINUOUS
 62
    7
 10
148.5
 20
105
 40
27.25
 50
164.940367083441
 51
166.63858028498
  0
ARC
  8
_0-0_
  6
CONTINUOUS
 62
    7
 10
148.5
 20
105
 40
27.25
 50
171.256156557126
 51
172.954369758664
  0
ARC
  8
_0-0_
  6
CONTINUOUS
 62
    7
 10
148.5
 20
105
 40
27.25
 50
177.57194603081
 51
179.270159232348
  0
ARC
  8
_0-0_
  6
CONTINUOUS
 62
    7
 10
148.5
 20
105
 40
27.25
 50
183.887735504494
 51
185.585948706032
  0
ARC
  8
_0-0_
  6
CONTINUOUS
 62
    7
 10
148.5
 20
105
 40
27.25
 50
190.203524978178
 51
191.901738179717
  0
ARC
  8
_0-0_
  6
CONTINUOUS
 62
    7
 10
148.5
 20
105
 40
27.25
 50
196.519314451862
 51
198.217527653401
  0
ARC
  8
_0-0_
  6
CONTINUOUS
 62
    7
 10
148.5
 20
105
 40
27.25
 50
202.835103925547
 51
204.533317127085
  0
ARC
  8
_0-0_
  6
CONTINUOUS
 62
    7
 10
148.5
 20
105
 40
27.25
 50
209.150893399231
 51
210.849106600769
  0
ARC
  8
_0-0_
  6
CONTINUOUS
 62
    7
 10
148.5
 20
105
 40
27.25
 50
215.466682872915
 51
217.164896074453
  0
ARC
  8
_0-0_
  6
CONTINUOUS
 62
    7
 10
148.5
 20
105
 40
27.25
 50
221.782472346599
 51
223.480685548138
  0
ARC
  8
_0-0_
  6
CONTINUOUS
 62
    7
 10
148.5
 20
105
 40
27.25
 50
228.098261820283
 51
229.796475021822
  0
ARC
  8
_0-0_
  6
CONTINUOUS
 62
    7
 10
148.5
 20
105
 40
27.25
 50
234.414051293968
 51
236.112264495506
  0
ARC
  8
_0-0_
  6
CONTINUOUS
 62
    7
 10
148.5
 20
105
 40
27.25
 50
240.729840767652
 51
242.42805396919
  0
ARC
  8
_0-0_
  6
CONTINUOUS
 62
    7
 10
148.5
 20
105
 40
27.25
 50
247.045630241336
 51
248.743843442874
  0
ARC
  8
_0-0_
  6
CONTINUOUS
 62
    7
 10
148.5
 20
105
 40
27.25
 50
253.36141971502
 51
255.059632916559
  0
ARC
  8
_0-0_
  6
CONTINUOUS
 62
    7
 10
148.5
 20
105
 40
27.25
 50
259.677209188704
 51
261.375422390243
  0
ARC
  8
_0-0_
  6
CONTINUOUS
 62
    7
 10
148.5
 20
105
 40
27.25
 50
265.992998662389
 51
267.691211863927
  0
ARC
  8
_0-0_
  6
CONTINUOUS
 62
    7
 10
148.5
 20
105
 40
27.25
 50
272.308788136073
 51
274.007001337611
  0
ARC
  8
_0-0_
  6
CONTINUOUS
 62
    7
 10
148.5
 20
105
 40
27.25
 50
278.624577609757
 51
280.322790811296
  0
ARC
  8
_0-0_
  6
CONTINUOUS
 62
    7
 10
148.5
 20
105
 40
27.25
 50
284.940367083441
 51
286.63858028498
  0
ARC
  8
_0-0_
  6
CONTINUOUS
 62
    7
 10
148.5
 20
105
 40
27.25
 50
291.256156557126
 51
292.954369758664
  0
ARC
  8
_0-0_
  6
CONTINUOUS
 62
    7
 10
148.5
 20
105
 40
27.25
 50
297.57194603081
 51
299.270159232348
  0
ARC
  8
_0-0_
  6
CONTINUOUS
 62
    7
 10
148.5
 20
105
 40
27.25
 50
303.887735504494
 51
305.585948706032
  0
ARC
  8
_0-0_
  6
CONTINUOUS
 62
    7
 10
148.5
 20
105
 40
27.25
 50
310.203524978178
 51
311.901738179717
  0
ARC
  8
_0-0_
  6
CONTINUOUS
 62
    7
 10
148.5
 20
105
 40
27.25
 50
316.519314451862
 51
318.217527653401
  0
ARC
  8
_0-0_
  6
CONTINUOUS
 62
    7
 10
148.5
 20
105
 40
27.25
 50
322.835103925547
 51
324.533317127085
  0
ARC
  8
_0-0_
  6
CONTINUOUS
 62
    7
 10
148.5
 20
105
 40
27.25
 50
329.150893399231
 51
330.849106600769
  0
ARC
  8
_0-0_
  6
CONTINUOUS
 62
    7
 10
148.5
 20
105
 40
27.25
 50
335.466682872915
 51
337.164896074453
  0
ARC
  8
_0-0_
  6
CONTINUOUS
 62
    7
 10
148.5
 20
105
 40
27.25
 50
341.782472346599
 51
343.480685548138
  0
ARC
  8
_0-0_
  6
CONTINUOUS
 62
    7
 10
148.5
 20
105
 40
27.25
 50
348.098261820283
 51
349.796475021822
  0
ARC
  8
_0-0_
  6
CONTINUOUS
 62
    7
 10
148.5
 20
105
 40
27.25
 50
354.414051293968
 51
356.112264495506
  0
ARC
  8
_0-0_
  6
CONTINUOUS
 62
    7
 10
148.5
 20
105
 40
27.25
 50
360.729840767652
 51
362.42805396919
  0
ARC
  8
_0-0_
  6
CONTINUOUS
 62
    7
 10
148.5
 20
105
 40
27.25
 50
367.045630241336
 51
368.743843442874
  0
ARC
  8
_0-0_
  6
CONTINUOUS
 62
    7
 10
148.5
 20
105
 40
27.25
 50
373.36141971502
 51
375.059632916559
  0
ARC
  8
_0-0_
  6
CONTINUOUS
 62
    7
 10
148.5
 20
105
 40
27.25
 50
379.677209188704
 51
381.375422390243
  0
ARC
  8
_0-0_
  6
CONTINUOUS
 62
    7
 10
148.5
 20
105
 40
27.25
 50
385.992998662389
 51
387.691211863927
  0
ARC
  8
_0-0_
  6
CONTINUOUS
 62
    7
 10
148.5
 20
105
 40
27.25
 50
392.308788136073
 51
394.007001337611
  0
ARC
  8
_0-0_
  6
CONTINUOUS
 62
    7
 10
148.5
 20
105
 40
27.25
 50
398.624577609757
 51
400.322790811296
  0
ARC
  8
_0-0_
  6
CONTINUOUS
 62
    7
 10
148.5
 20
105
 40
27.25
 50
404.940367083441
 51
406.63858028498
  0
ARC
  8
_0-0_
  6
CONTINUOUS
 62
    7
 10
148.5
 20
105
 40
27.25
 50
411.256156557126
 51
412.954369758664
  0
ARC
  8
_0-0_
  6
CONTINUOUS
 62
    7
 10
148.5
 20
105
 40
27.25
 50
417.57194603081
 51
419.270159232348
  0
ARC
  8
_0-0_
  6
CONTINUOUS
 62
    7
 10
148.5
 20
105
 40
27.25
 50
423.887735504494
 51
425.585948706032
  0
ARC
  8
_0-0_
  6
CONTINUOUS
 62
    7
 10
148.5
 20
105
 40
27.25
 50
430.203524978178
 51
431.901738179717
  0
ARC
  8
_0-0_
  6
CONTINUOUS
 62
    7
 10
148.5
 20
105
 40
27.25
 50
436.519314451862
 51
438.217527653401
  0
ARC
  8
_0-0_
  6
CONTINUOUS
 62
    7
 10
148.5
 20
105
 40
27.25
 50
442.835103925547
 51
444.533317127085
  0
ARC
  8
_0-0_
  6
CONTINUOUS
 62
    7
 10
148.5
 20
105
 40
29.5
 50
92.3975728563887
 51
93.9182166172955
  0
ARC
  8
_0-0_
  6
CONTINUOUS
 62
    7
 10
148.5
 20
105
 40
29.5
 50
98.7133623300729
 51
100.23400609098
  0
ARC
  8
_0-0_
  6
CONTINUOUS
 62
    7
 10
148.5
 20
105
 40
29.5
 50
105.029151803757
 51
106.549795564664
  0
ARC
  8
_0-0_
  6
CONTINUOUS
 62
    7
 10
148.5
 20
105
 40
29.5
 50
111.344941277441
 51
112.865585038348
  0
ARC
  8
_0-0_
  6
CONTINUOUS
 62
    7
 10
148.5
 20
105
 40
29.5
 50
117.660730751125
 51
119.181374512032
  0
ARC
  8
_0-0_
  6
CONTINUOUS
 62
    7
 10
148.5
 20
105
 40
29.5
 50
123.97652022481
 51
125.497163985717
  0
ARC
  8
_0-0_
  6
CONTINUOUS
 62
    7
 10
148.5
 20
105
 40
29.5
 50
130.292309698494
 51
131.812953459401
  0
ARC
  8
_0-0_
  6
CONTINUOUS
 62
    7
 10
148.5
 20
105
 40
29.5
 50
136.608099172178
 51
138.128742933085
  0
ARC
  8
_0-0_
  6
CONTINUOUS
 62
    7
 10
148.5
 20
105
 40
29.5
 50
142.923888645862
 51
144.444532406769
  0
ARC
  8
_0-0_
  6
CONTINUOUS
 62
    7
 10
148.5
 20
105
 40
29.5
 50
149.239678119547
 51
150.760321880453
  0
ARC
  8
_0-0_
  6
CONTINUOUS
 62
    7
 10
148.5
 20
105
 40
29.5
 50
155.555467593231
 51
157.076111354138
  0
ARC
  8
_0-0_
  6
CONTINUOUS
 62
    7
 10
148.5
 20
105
 40
29.5
 50
161.871257066915
 51
163.391900827822
  0
ARC
  8
_0-0_
  6
CONTINUOUS
 62
    7
 10
148.5
 20
105
 40
29.5
 50
168.187046540599
 51
169.707690301506
  0
ARC
  8
_0-0_
  6
CONTINUOUS
 62
    7
 10
148.5
 20
105
 40
29.5
 50
174.502836014283
 51
176.02347977519
  0
ARC
  8
_0-0_
  6
CONTINUOUS
 62
    7
 10
148.5
 20
105
 40
29.5
 50
180.818625487968
 51
182.339269248875
  0
ARC
  8
_0-0_
  6
CONTINUOUS
 62
    7
 10
148.5
 20
105
 40
29.5
 50
187.134414961652
 51
188.655058722559
  0
ARC
  8
_0-0_
  6
CONTINUOUS
 62
    7
 10
148.5
 20
105
 40
29.5
 50
193.450204435336
 51
194.970848196243
  0
ARC
  8
_0-0_
  6
CONTINUOUS
 62
    7
 10
148.5
 20
105
 40
29.5
 50
199.76599390902
 51
201.286637669927
  0
ARC
  8
_0-0_
  6
CONTINUOUS
 62
    7
 10
148.5
 20
105
 40
29.5
 50
206.081783382704
 51
207.602427143611
  0
ARC
  8
_0-0_
  6
CONTINUOUS
 62
    7
 10
148.5
 20
105
 40
29.5
 50
212.397572856389
 51
213.918216617296
  0
ARC
  8
_0-0_
  6
CONTINUOUS
 62
    7
 10
148.5
 20
105
 40
29.5
 50
218.713362330073
 51
220.23400609098
  0
ARC
  8
_0-0_
  6
CONTINUOUS
 62
    7
 10
148.5
 20
105
 40
29.5
 50
225.029151803757
 51
226.549795564664
  0
ARC
  8
_0-0_
  6
CONTINUOUS
 62
    7
 10
148.5
 20
105
 40
29.5
 50
231.344941277441
 51
232.865585038348
  0
ARC
  8
_0-0_
  6
CONTINUOUS
 62
    7
 10
148.5
 20
105
 40
29.5
 50
237.660730751125
 51
239.181374512032
  0
ARC
  8
_0-0_
  6
CONTINUOUS
 62
    7
 10
148.5
 20
105
 40
29.5
 50
243.97652022481
 51
245.497163985717
  0
ARC
  8
_0-0_
  6
CONTINUOUS
 62
    7
 10
148.5
 20
105
 40
29.5
 50
250.292309698494
 51
251.812953459401
  0
ARC
  8
_0-0_
  6
CONTINUOUS
 62
    7
 10
148.5
 20
105
 40
29.5
 50
256.608099172178
 51
258.128742933085
  0
ARC
  8
_0-0_
  6
CONTINUOUS
 62
    7
 10
148.5
 20
105
 40
29.5
 50
262.923888645862
 51
264.444532406769
  0
ARC
  8
_0-0_
  6
CONTINUOUS
 62
    7
 10
148.5
 20
105
 40
29.5
 50
269.239678119547
 51
270.760321880453
  0
ARC
  8
_0-0_
  6
CONTINUOUS
 62
    7
 10
148.5
 20
105
 40
29.5
 50
275.555467593231
 51
277.076111354138
  0
ARC
  8
_0-0_
  6
CONTINUOUS
 62
    7
 10
148.5
 20
105
 40
29.5
 50
281.871257066915
 51
283.391900827822
  0
ARC
  8
_0-0_
  6
CONTINUOUS
 62
    7
 10
148.5
 20
105
 40
29.5
 50
288.187046540599
 51
289.707690301506
  0
ARC
  8
_0-0_
  6
CONTINUOUS
 62
    7
 10
148.5
 20
105
 40
29.5
 50
294.502836014283
 51
296.02347977519
  0
ARC
  8
_0-0_
  6
CONTINUOUS
 62
    7
 10
148.5
 20
105
 40
29.5
 50
300.818625487968
 51
302.339269248874
  0
ARC
  8
_0-0_
  6
CONTINUOUS
 62
    7
 10
148.5
 20
105
 40
29.5
 50
307.134414961652
 51
308.655058722559
  0
ARC
  8
_0-0_
  6
CONTINUOUS
 62
    7
 10
148.5
 20
105
 40
29.5
 50
313.450204435336
 51
314.970848196243
  0
ARC
  8
_0-0_
  6
CONTINUOUS
 62
    7
 10
148.5
 20
105
 40
29.5
 50
319.76599390902
 51
321.286637669927
  0
ARC
  8
_0-0_
  6
CONTINUOUS
 62
    7
 10
148.5
 20
105
 40
29.5
 50
326.081783382704
 51
327.602427143611
  0
ARC
  8
_0-0_
  6
CONTINUOUS
 62
    7
 10
148.5
 20
105
 40
29.5
 50
332.397572856389
 51
333.918216617296
  0
ARC
  8
_0-0_
  6
CONTINUOUS
 62
    7
 10
148.5
 20
105
 40
29.5
 50
338.713362330073
 51
340.23400609098
  0
ARC
  8
_0-0_
  6
CONTINUOUS
 62
    7
 10
148.5
 20
105
 40
29.5
 50
345.029151803757
 51
346.549795564664
  0
ARC
  8
_0-0_
  6
CONTINUOUS
 62
    7
 10
148.5
 20
105
 40
29.5
 50
351.344941277441
 51
352.865585038348
  0
ARC
  8
_0-0_
  6
CONTINUOUS
 62
    7
 10
148.5
 20
105
 40
29.5
 50
357.660730751126
 51
359.181374512032
  0
ARC
  8
_0-0_
  6
CONTINUOUS
 62
    7
 10
148.5
 20
105
 40
29.5
 50
363.97652022481
 51
365.497163985717
  0
ARC
  8
_0-0_
  6
CONTINUOUS
 62
    7
 10
148.5
 20
105
 40
29.5
 50
370.292309698494
 51
371.812953459401
  0
ARC
  8
_0-0_
  6
CONTINUOUS
 62
    7
 10
148.5
 20
105
 40
29.5
 50
376.608099172178
 51
378.128742933085
  0
ARC
  8
_0-0_
  6
CONTINUOUS
 62
    7
 10
148.5
 20
105
 40
29.5
 50
382.923888645862
 51
384.444532406769
  0
ARC
  8
_0-0_
  6
CONTINUOUS
 62
    7
 10
148.5
 20
105
 40
29.5
 50
389.239678119547
 51
390.760321880453
  0
ARC
  8
_0-0_
  6
CONTINUOUS
 62
    7
 10
148.5
 20
105
 40
29.5
 50
395.555467593231
 51
397.076111354138
  0
ARC
  8
_0-0_
  6
CONTINUOUS
 62
    7
 10
148.5
 20
105
 40
29.5
 50
401.871257066915
 51
403.391900827822
  0
ARC
  8
_0-0_
  6
CONTINUOUS
 62
    7
 10
148.5
 20
105
 40
29.5
 50
408.187046540599
 51
409.707690301506
  0
ARC
  8
_0-0_
  6
CONTINUOUS
 62
    7
 10
148.5
 20
105
 40
29.5
 50
414.502836014283
 51
416.02347977519
  0
ARC
  8
_0-0_
  6
CONTINUOUS
 62
    7
 10
148.5
 20
105
 40
29.5
 50
420.818625487968
 51
422.339269248874
  0
ARC
  8
_0-0_
  6
CONTINUOUS
 62
    7
 10
148.5
 20
105
 40
29.5
 50
427.134414961652
 51
428.655058722559
  0
ARC
  8
_0-0_
  6
CONTINUOUS
 62
    7
 10
148.5
 20
105
 40
29.5
 50
433.450204435336
 51
434.970848196243
  0
ARC
  8
_0-0_
  6
CONTINUOUS
 62
    7
 10
148.5
 20
105
 40
29.5
 50
439.76599390902
 51
441.286637669927
  0
ARC
  8
_0-0_
  6
CONTINUOUS
 62
    7
 10
148.5
 20
105
 40
29.5
 50
446.081783382704
 51
447.602427143611
  0
LINE
  8
_0-0_
  6
CENTER2
 62
    7
 10
117
 20
105
 11
180
 21
105
  0
LINE
  8
_0-0_
  6
CENTER2
 62
    7
 10
148.5
 20
73.5
 11
148.5
 21
136.5
  0
LINE
  8
_0-0_
  6
CONTINUOUS
 62
    7
 10
198
 20
134.5
 11
268
 21
134.5
  0
LINE
  8
_0-0_
  6
CONTINUOUS
 62
    7
 10
198
 20
126.5
 11
268
 21
126.5
  0
LINE
  8
_0-0_
  6
CONTINUOUS
 62
    7
 10
198
 20
118.5
 11
268
 21
118.5
  0
LINE
  8
_0-0_
  6
CONTINUOUS
 62
    7
 10
198
 20
110.5
 11
268
 21
110.5
  0
LINE
  8
_0-0_
  6
CONTINUOUS
 62
    7
 10
198
 20
102.5
 11
268
 21
102.5
  0
LINE
  8
_0-0_
  6
CONTINUOUS
 62
    7
 10
198
 20
94.5
 11
268
 21
94.5
  0
LINE
  8
_0-0_
  6
CONTINUOUS
 62
    7
 10
198
 20
86.5
 11
268
 21
86.5
  0
LINE
  8
_0-0_
  6
CONTINUOUS
 62
    7
 10
198
 20
78.5
 11
268
 21
78.5
  0
LINE
  8
_0-0_
  6
CONTINUOUS
 62
    7
 10
198
 20
70.5
 11
268
 21
70.5
  0
LINE
  8
_0-0_
  6
CONTINUOUS
 62
    7
 10
198
 20
62.5
 11
268
 21
62.5
  0
LINE
  8
_0-0_
  6
CONTINUOUS
 62
    7
 10
198
 20
54.5
 11
268
 21
54.5
  0
LINE
  8
_0-0_
  6
CONTINUOUS
 62
    7
 10
198
 20
46.5
 11
268
 21
46.5
  0
LINE
  8
_0-0_
  6
CONTINUOUS
 62
    7
 10
198
 20
38.5
 11
268
 21
38.5
  0
LINE
  8
_0-0_
  6
CONTINUOUS
 62
    7
 10
198
 20
134.5
 11
198
 21
38.5
  0
LINE
  8
_0-0_
  6
CONTINUOUS
 62
    7
 10
268
 20
134.5
 11
268
 21
38.5
  0
LINE
  8
_0-0_
  6
CONTINUOUS
 62
    7
 10
233
 20
126.5
 11
233
 21
38.5
  0
TEXT
  8
_0-0_
 62
    7
 10
204
 20
128.5
 40
4
 41
1
 50
0
  1
ÉCÉìÉ{ÉäÉÖÅ[ÉgÉXÉvÉâÉCÉì
  0
TEXT
  8
_0-0_
 62
    7
 10
206.5
 20
120.5
 40
4
 41
1
 50
0
  1
èî    å≥
  0
TEXT
  8
_0-0_
 62
    7
 10
206.5
 20
112.5
 40
4
 41
1
 50
0
  1
éïÅ@Å@êî
  0
TEXT
  8
_0-0_
 62
    7
 10
204
 20
104.5
 40
4
 41
1
 50
0
  1
ÉÇÉWÉÖÅ[Éã
  0
TEXT
  8
_0-0_
 62
    7
 10
206.5
 20
96.5
 40
4
 41
1
 50
0
  1
à≥ óÕ äp
  0
TEXT
  8
_0-0_
 62
    7
 10
201.5
 20
88.5
 40
4
 41
1
 50
0
  1
ÉsÉbÉ`â~íºåa
  0
TEXT
  8
_0-0_
 62
    7
 10
204
 20
80.5
 40
4
 41
1
 50
0
  1
äÓëbâ~íºåa
  0
TEXT
  8
_0-0_
 62
    7
 10
204
 20
72.5
 40
4
 41
1
 50
0
  1
éïêÊâ~íºåa
  0
TEXT
  8
_0-0_
 62
    7
 10
204
 20
64.5
 40
4
 41
1
 50
0
  1
éïíÍâ~íºåa
  0
TEXT
  8
_0-0_
 62
    7
 10
206.5
 20
56.5
 40
4
 41
1
 50
0
  1
â~å éïå˙
  0
TEXT
  8
_0-0_
 62
    7
 10
206.5
 20
48.5
 40
4
 41
1
 50
0
  1
Çn.Ça.Çc
  0
TEXT
  8
_0-0_
 62
    7
 10
204
 20
40.5
 40
4
 41
1
 50
0
  1
égópÉsÉìåa
  0
TEXT
  8
_0-0_
 62
    7
 10
234
 20
120.5
 40
4
 41
1
 50
0
  1
ÉGÉLÉXÉ^Å[ÉiÉã
  0
TEXT
  8
_0-0_
 62
    7
 10
249
 20
112.5
 40
4
 41
1
 50
0
  1
57
  0
TEXT
  8
_0-0_
 62
    7
 10
250.25
 20
104.5
 40
4
 41
1
 50
0
  1
1
  0
TEXT
  8
_0-0_
 62
    7
 10
246.5
 20
96.5
 40
4
 41
1
 50
0
  1
20Åã
  0
TEXT
  8
_0-0_
 62
    7
 10
249
 20
88.5
 40
4
 41
1
 50
0
  1
57
  0
TEXT
  8
_0-0_
 62
    7
 10
242.75
 20
80.5
 40
4
 41
1
 50
0
  1
53.5625
  0
TEXT
  8
_0-0_
 62
    7
 10
249
 20
72.5
 40
4
 41
1
 50
0
  1
59
  0
TEXT
  8
_0-0_
 62
    7
 10
246.5
 20
64.5
 40
4
 41
1
 50
0
  1
54.5
  0
TEXT
  8
_0-0_
 62
    7
 10
244
 20
56.5
 40
4
 41
1
 50
0
  1
1.5708
  0
TEXT
  8
_0-0_
 62
    7
 10
251.5
 20
48.5
 40
4
 41
1
 50
0
  1

  0
TEXT
  8
_0-0_
 62
    7
 10
251.5
 20
40.5
 40
4
 41
1
 50
0
  1

  0
TEXT
  8
_0-0_
 62
    7
 10
149.5
 20
150
 40
4
 41
1
 50
0
  1
ñ êœ : 
  0
TEXT
  8
_0-0_
 62
    7
 10
149.5
 20
144
 40
4
 41
1
 50
0
  1
é¸í∑ : 
  0
TEXT
  8
_0-0_
 62
    7
 10
167.8125
 20
150
 40
4
 41
1
 50
0
  1
25.3793 cm2
  0
TEXT
  8
_0-0_
 62
    7
 10
169.9375
 20
144
 40
4
 41
1
 50
0
  1
36.243 cm
  0
ENDSEC
  0
EOF
