  0
SECTION
  2
HEADER
  9
$ACADVER
  1
AC1009
  9
$INSBASE
 10
0
 20
0
 30
0
  9
$EXTMIN
 10
0
 20
0
  9
$EXTMAX
 10
297
 20
210
  9
$LIMMIN
 10
0
 20
0
  9
$LIMMAX
 10
297
 20
210
  9
$LTSCALE
 40
1
  0
ENDSEC
  0
SECTION
  2
TABLES
  0
TABLE
  2
LTYPE
 70
     9
  0
LTYPE
  2
CONTINUOUS
 70
    64
  3
実線
 72
    65
 73
     0
 40
0.0
  0
LTYPE
  2
DASHED1
 70
    64
  3
--  --  --  --  --  --  --  --  
 72
    65
 73
     2
 40
2.5
 49
1.25
 49
-1.25
  0
LTYPE
  2
DASHED2
 70
    64
  3
----    ----    ----    ----    
 72
    65
 73
     2
 40
5.0
 49
2.5
 49
-2.5
  0
LTYPE
  2
DASHED3
 70
    64
  3
------  ------  ------  ------  
 72
    65
 73
     2
 40
5.0
 49
3.75
 49
-1.25
  0
LTYPE
  2
CENTER1
 70
    64
  3
----- - ----- - ----- - ----- - 
 72
    65
 73
     4
 40
10.0
 49
6.25
 49
-1.25
 49
1.25
 49
-1.25
  0
LTYPE
  2
CENTER2
 70
    64
  3
----------  --  ----------  --  
 72
    65
 73
     4
 40
20.0
 49
12.5
 49
-2.5
 49
2.5
 49
-2.5
  0
LTYPE
  2
PHANTOM1
 70
    64
  3
--- - - --- - - --- - - --- - - 
 72
    65
 73
     6
 40
10.0
 49
3.25
 49
-1.25
 49
1.25
 49
-1.25
 49
1.25
 49
-1.25
  0
LTYPE
  2
PHANTOM2
 70
    64
  3
--------  -  -  --------  -  -  
 72
    65
 73
     6
 40
20.0
 49
10.0
 49
-2.5
 49
1.25
 49
-2.5
 49
1.25
 49
-2.5
  0
LTYPE
  2
DOT
 70
    64
  3
-   -   -   -   -   -   -   -   
 72
    65
 73
     2
 40
2.5
 49
0.625
 49
-1.875
  0
LTYPE
  2
DUMMY
 70
    64
  3
ダミー
 72
    65
 73
     0
 40
0.0
  0
LTYPE
  2
RAND1
 70
    64
  3
----- - ----- - ----- - ----- - 
 72
    65
 73
     4
 40
10.0
 49
6.25
 49
-1.25
 49
1.25
 49
-1.25
  0
LTYPE
  2
RAND2
 70
    64
  3
----------  --  ----------  --  
 72
    65
 73
     4
 40
20.0
 49
12.5
 49
-2.5
 49
2.5
 49
-2.5
  0
LTYPE
  2
RAND3
 70
    64
  3
--- - - --- - - --- - - --- - - 
 72
    65
 73
     6
 40
10.0
 49
3.25
 49
-1.25
 49
1.25
 49
-1.25
 49
1.25
 49
-1.25
  0
LTYPE
  2
RAND4
 70
    64
  3
--------  -  -  --------  -  -  
 72
    65
 73
     6
 40
20.0
 49
10.0
 49
-2.5
 49
1.25
 49
-2.5
 49
1.25
 49
-2.5
  0
LTYPE
  2
RAND5
 70
    64
  3
----- - ----- - ----- - ----- - 
 72
    65
 73
     4
 40
10.0
 49
6.25
 49
-1.25
 49
1.25
 49
-1.25
  0
LTYPE
  2
LONG1
 70
    64
  3
----------  --  ----------  --  
 72
    65
 73
     4
 40
20.0
 49
12.5
 49
-2.5
 49
2.5
 49
-2.5
  0
LTYPE
  2
LONG2
 70
    64
  3
--- - - --- - - --- - - --- - - 
 72
    65
 73
     6
 40
10.0
 49
3.25
 49
-1.25
 49
1.25
 49
-1.25
 49
1.25
 49
-1.25
  0
LTYPE
  2
LONG3
 70
    64
  3
--------  -  -  --------  -  -  
 72
    65
 73
     6
 40
20.0
 49
10.0
 49
-2.5
 49
1.25
 49
-2.5
 49
1.25
 49
-2.5
  0
LTYPE
  2
LONG4
 70
    64
  3
----- - ----- - ----- - ----- - 
 72
    65
 73
     4
 40
10.0
 49
6.25
 49
-1.25
 49
1.25
 49
-1.25
  0
LTYPE
  2
LONG5
 70
    64
  3
----------  --  ----------  --  
 72
    65
 73
     4
 40
20.0
 49
12.5
 49
-2.5
 49
2.5
 49
-2.5
  0
ENDTAB
  0
TABLE
  2
STYLE
  5
3
100
AcDbSymbolTable
 70
     1
  0
STYLE
  5
10
100
AcDbSymbolTableRecord
100
AcDbTextStyleTableRecord
  2
STANDARD
 70
     0
 40
0.0
 41
1.0
 50
0.0
 71
     0
 42
0.2
  3
txt
  4
bigfont.shx
  0
ENDTAB
  0
TABLE
  2
LAYER
 70
    2
  0
LAYER
  2
_0-0_
 70
   64
 62
    7
  6
CONTINUOUS
  0
LAYER
  2
ADD_LINE
 70
   64
 62
    7
  6
CONTINUOUS
  0
ENDTAB
  0
ENDSEC
  0
SECTION
  2
BLOCKS
  0
ENDSEC
  0
SECTION
  2
ENTITIES
  0
ARC
  8
_0-0_
  6
CONTINUOUS
 62
    4
 10
158.338618579222
 20
141.291135296515
 40
9.32241432658412
 50
162.046497863316
 51
167.349284524194
  0
ARC
  8
_0-0_
  6
CONTINUOUS
 62
    2
 10
161.736813438804
 20
140.195792043814
 40
12.8927761453362
 50
156.480650163044
 51
162.070802808572
  0
ARC
  8
_0-0_
  6
CONTINUOUS
 62
    4
 10
165.218037224092
 20
138.684278938584
 40
16.6879813649339
 50
150.501193657612
 51
156.491870826677
  0
ARC
  8
_0-0_
  6
CONTINUOUS
 62
    4
 10
152.540304522447
 20
142.383430233504
 40
9.32241432658412
 50
171.046497863316
 51
176.349284524194
  0
ARC
  8
_0-0_
  6
CONTINUOUS
 62
    2
 10
156.068011400099
 20
141.833167268823
 40
12.8927761453362
 50
165.480650163044
 51
171.070802808572
  0
ARC
  8
_0-0_
  6
CONTINUOUS
 62
    4
 10
159.742828287848
 20
140.884846778667
 40
16.6879813649339
 50
159.501193657612
 51
165.491870826677
  0
ARC
  8
_0-0_
  6
CONTINUOUS
 62
    4
 10
146.642504759328
 20
142.555221049652
 40
9.32241432658412
 50
180.046497863316
 51
185.349284524194
  0
ARC
  8
_0-0_
  6
CONTINUOUS
 62
    2
 10
150.212859803933
 20
142.5635876734
 40
12.8927761453362
 50
174.480650163044
 51
180.070802808572
  0
ARC
  8
_0-0_
  6
CONTINUOUS
 62
    4
 10
153.990783606349
 20
142.201810596081
 40
16.6879813649339
 50
168.501193657612
 51
174.491870826677
  0
ARC
  8
_0-0_
  6
CONTINUOUS
 62
    4
 10
140.790442693707
 20
141.802277684926
 40
9.32241432658412
 50
189.046497863316
 51
194.349284524194
  0
ARC
  8
_0-0_
  6
CONTINUOUS
 62
    2
 10
144.315531914738
 20
142.369067883057
 40
12.8927761453362
 50
183.480650163044
 51
189.070802808572
  0
ARC
  8
_0-0_
  6
CONTINUOUS
 62
    4
 10
148.103537609596
 20
142.602742370889
 40
16.6879813649339
 50
177.501193657612
 51
183.491870826677
  0
ARC
  8
_0-0_
  6
CONTINUOUS
 62
    4
 10
135.128215515521
 20
140.143140103839
 40
9.32241432658412
 50
198.046497863316
 51
203.349284524194
  0
ARC
  8
_0-0_
  6
CONTINUOUS
 62
    2
 10
138.521239517256
 20
141.254397620608
 40
12.8927761453362
 50
192.480650163044
 51
198.070802808572
  0
ARC
  8
_0-0_
  6
CONTINUOUS
 62
    4
 10
142.226053832678
 20
142.077769832178
 40
16.6879813649339
 50
186.501193657612
 51
192.491870826677
  0
ARC
  8
_0-0_
  6
CONTINUOUS
 62
    4
 10
129.795246049752
 20
137.61866178
 40
9.32241432658412
 50
207.046497863316
 51
212.349284524194
  0
ARC
  8
_0-0_
  6
CONTINUOUS
 62
    2
 10
132.972657320467
 20
139.247023767292
 40
12.8927761453362
 50
201.480650163044
 51
207.070802808572
  0
ARC
  8
_0-0_
  6
CONTINUOUS
 62
    4
 10
136.503055432433
 20
140.639819546136
 40
16.6879813649339
 50
195.501193657612
 51
201.491870826677
  0
ARC
  8
_0-0_
  6
CONTINUOUS
 62
    4
 10
124.922849703756
 20
134.291003748006
 40
9.32241432658412
 50
216.046497863316
 51
221.349284524194
  0
ARC
  8
_0-0_
  6
CONTINUOUS
 62
    2
 10
127.806409832744
 20
136.39637452947
 40
12.8927761453362
 50
210.480650163044
 51
216.070802808572
  0
ARC
  8
_0-0_
  6
CONTINUOUS
 62
    4
 10
131.075461623017
 20
138.324298621089
 40
16.6879813649339
 50
204.501193657612
 51
210.491870826677
  0
ARC
  8
_0-0_
  6
CONTINUOUS
 62
    4
 10
120.63100104613
 20
130.242103992468
 40
9.32241432658412
 50
225.046497863316
 51
230.349284524194
  0
ARC
  8
_0-0_
  6
CONTINUOUS
 62
    2
 10
123.149707213026
 20
132.772642352139
 40
12.8927761453362
 50
219.480650163044
 51
225.070802808572
  0
ARC
  8
_0-0_
  6
CONTINUOUS
 62
    4
 10
126.076917777171
 20
135.188222866984
 40
16.6879813649339
 50
213.501193657612
 51
219.491870826677
  0
ARC
  8
_0-0_
  6
CONTINUOUS
 62
    4
 10
117.025379634653
 20
125.571659862895
 40
9.32241432658412
 50
234.046497863316
 51
239.349284524194
  0
ARC
  8
_0-0_
  6
CONTINUOUS
 62
    2
 10
119.117212934522
 20
128.465055547983
 40
12.8927761453362
 50
228.480650163044
 51
234.070802808572
  0
ARC
  8
_0-0_
  6
CONTINUOUS
 62
    4
 10
121.630504633594
 20
131.308812876926
 40
16.6879813649339
 50
222.501193657612
 51
228.491870826677
  0
ARC
  8
_0-0_
  6
CONTINUOUS
 62
    4
 10
114.194767834847
 20
120.394673194073
 40
9.32241432658412
 50
243.046497863316
 51
248.349284524194
  0
ARC
  8
_0-0_
  6
CONTINUOUS
 62
    2
 10
115.80822038945
 20
123.579681200181
 40
12.8927761453362
 50
237.480650163044
 51
243.070802808572
  0
ARC
  8
_0-0_
  6
CONTINUOUS
 62
    4
 10
117.84570764068
 20
126.781592599894
 40
16.6879813649339
 50
231.501193657612
 51
237.491870826677
  0
ARC
  8
_0-0_
  6
CONTINUOUS
 62
    4
 10
112.208864703485
 20
114.838618579222
 40
9.32241432658412
 50
252.046497863316
 51
257.349284524194
  0
ARC
  8
_0-0_
  6
CONTINUOUS
 62
    2
 10
113.304207956186
 20
118.236813438804
 40
12.8927761453362
 50
246.480650163044
 51
252.070802808572
  0
ARC
  8
_0-0_
  6
CONTINUOUS
 62
    4
 10
114.815721061416
 20
121.718037224092
 40
16.6879813649339
 50
240.501193657612
 51
246.491870826677
  0
ARC
  8
_0-0_
  6
CONTINUOUS
 62
    4
 10
111.116569766496
 20
109.040304522447
 40
9.32241432658412
 50
261.046497863316
 51
266.349284524194
  0
ARC
  8
_0-0_
  6
CONTINUOUS
 62
    2
 10
111.666832731177
 20
112.568011400099
 40
12.8927761453362
 50
255.480650163044
 51
261.070802808572
  0
ARC
  8
_0-0_
  6
CONTINUOUS
 62
    4
 10
112.615153221333
 20
116.242828287848
 40
16.6879813649339
 50
249.501193657612
 51
255.491870826677
  0
ARC
  8
_0-0_
  6
CONTINUOUS
 62
    4
 10
110.944778950348
 20
103.142504759328
 40
9.32241432658412
 50
270.046497863316
 51
275.349284524194
  0
ARC
  8
_0-0_
  6
CONTINUOUS
 62
    2
 10
110.9364123266
 20
106.712859803933
 40
12.8927761453362
 50
264.480650163044
 51
270.070802808572
  0
ARC
  8
_0-0_
  6
CONTINUOUS
 62
    4
 10
111.298189403919
 20
110.490783606349
 40
16.6879813649339
 50
258.501193657612
 51
264.491870826677
  0
ARC
  8
_0-0_
  6
CONTINUOUS
 62
    4
 10
111.697722315074
 20
97.2904426937073
 40
9.32241432658412
 50
279.046497863316
 51
284.349284524194
  0
ARC
  8
_0-0_
  6
CONTINUOUS
 62
    2
 10
111.130932116943
 20
100.815531914738
 40
12.8927761453362
 50
273.480650163044
 51
279.070802808572
  0
ARC
  8
_0-0_
  6
CONTINUOUS
 62
    4
 10
110.897257629111
 20
104.603537609596
 40
16.6879813649339
 50
267.501193657612
 51
273.491870826677
  0
ARC
  8
_0-0_
  6
CONTINUOUS
 62
    4
 10
113.356859896161
 20
91.6282155155213
 40
9.32241432658412
 50
288.046497863316
 51
293.349284524194
  0
ARC
  8
_0-0_
  6
CONTINUOUS
 62
    2
 10
112.245602379392
 20
95.0212395172564
 40
12.8927761453362
 50
282.480650163044
 51
288.070802808572
  0
ARC
  8
_0-0_
  6
CONTINUOUS
 62
    4
 10
111.422230167822
 20
98.7260538326777
 40
16.6879813649339
 50
276.501193657612
 51
282.491870826677
  0
ARC
  8
_0-0_
  6
CONTINUOUS
 62
    4
 10
115.88133822
 20
86.2952460497516
 40
9.32241432658412
 50
297.046497863316
 51
302.349284524194
  0
ARC
  8
_0-0_
  6
CONTINUOUS
 62
    2
 10
114.252976232708
 20
89.472657320467
 40
12.8927761453362
 50
291.480650163044
 51
297.070802808572
  0
ARC
  8
_0-0_
  6
CONTINUOUS
 62
    4
 10
112.860180453864
 20
93.0030554324326
 40
16.6879813649339
 50
285.501193657612
 51
291.491870826677
  0
ARC
  8
_0-0_
  6
CONTINUOUS
 62
    4
 10
119.208996251994
 20
81.4228497037562
 40
9.32241432658412
 50
306.046497863316
 51
311.349284524194
  0
ARC
  8
_0-0_
  6
CONTINUOUS
 62
    2
 10
117.10362547053
 20
84.3064098327436
 40
12.8927761453362
 50
300.480650163044
 51
306.070802808572
  0
ARC
  8
_0-0_
  6
CONTINUOUS
 62
    4
 10
115.175701378911
 20
87.5754616230173
 40
16.6879813649339
 50
294.501193657612
 51
300.491870826677
  0
ARC
  8
_0-0_
  6
CONTINUOUS
 62
    4
 10
123.257896007532
 20
77.1310010461301
 40
9.32241432658412
 50
315.046497863316
 51
320.349284524194
  0
ARC
  8
_0-0_
  6
CONTINUOUS
 62
    2
 10
120.727357647861
 20
79.6497072130262
 40
12.8927761453362
 50
309.480650163044
 51
315.070802808572
  0
ARC
  8
_0-0_
  6
CONTINUOUS
 62
    4
 10
118.311777133016
 20
82.5769177771708
 40
16.6879813649339
 50
303.501193657612
 51
309.491870826677
  0
ARC
  8
_0-0_
  6
CONTINUOUS
 62
    4
 10
127.928340137105
 20
73.525379634653
 40
9.32241432658412
 50
324.046497863316
 51
329.349284524194
  0
ARC
  8
_0-0_
  6
CONTINUOUS
 62
    2
 10
125.034944452017
 20
75.6172129345225
 40
12.8927761453362
 50
318.480650163044
 51
324.070802808572
  0
ARC
  8
_0-0_
  6
CONTINUOUS
 62
    4
 10
122.191187123074
 20
78.1305046335936
 40
16.6879813649339
 50
312.501193657612
 51
318.491870826677
  0
ARC
  8
_0-0_
  6
CONTINUOUS
 62
    4
 10
133.105326805927
 20
70.6947678348469
 40
9.32241432658412
 50
333.046497863316
 51
338.349284524194
  0
ARC
  8
_0-0_
  6
CONTINUOUS
 62
    2
 10
129.920318799819
 20
72.3082203894502
 40
12.8927761453362
 50
327.480650163044
 51
333.070802808572
  0
ARC
  8
_0-0_
  6
CONTINUOUS
 62
    4
 10
126.718407400106
 20
74.3457076406799
 40
16.6879813649339
 50
321.501193657612
 51
327.491870826677
  0
ARC
  8
_0-0_
  6
CONTINUOUS
 62
    4
 10
138.661381420778
 20
68.7088647034849
 40
9.32241432658412
 50
342.046497863316
 51
347.349284524194
  0
ARC
  8
_0-0_
  6
CONTINUOUS
 62
    2
 10
135.263186561196
 20
69.8042079561857
 40
12.8927761453362
 50
336.480650163044
 51
342.070802808572
  0
ARC
  8
_0-0_
  6
CONTINUOUS
 62
    4
 10
131.781962775908
 20
71.3157210614162
 40
16.6879813649339
 50
330.501193657612
 51
336.491870826677
  0
ARC
  8
_0-0_
  6
CONTINUOUS
 62
    4
 10
144.459695477553
 20
67.6165697664959
 40
9.32241432658412
 50
351.046497863316
 51
356.349284524194
  0
ARC
  8
_0-0_
  6
CONTINUOUS
 62
    2
 10
140.931988599901
 20
68.1668327311768
 40
12.8927761453362
 50
345.480650163044
 51
351.070802808572
  0
ARC
  8
_0-0_
  6
CONTINUOUS
 62
    4
 10
137.257171712152
 20
69.115153221333
 40
16.6879813649339
 50
339.501193657612
 51
345.491870826677
  0
ARC
  8
_0-0_
  6
CONTINUOUS
 62
    4
 10
150.357495240672
 20
67.4447789503476
 40
9.32241432658412
 50
360.046497863316
 51
365.349284524194
  0
ARC
  8
_0-0_
  6
CONTINUOUS
 62
    2
 10
146.787140196067
 20
67.4364123266001
 40
12.8927761453362
 50
354.480650163044
 51
360.070802808572
  0
ARC
  8
_0-0_
  6
CONTINUOUS
 62
    4
 10
143.009216393651
 20
67.798189403919
 40
16.6879813649339
 50
348.501193657612
 51
354.491870826677
  0
ARC
  8
_0-0_
  6
CONTINUOUS
 62
    4
 10
156.209557306293
 20
68.1977223150745
 40
9.32241432658412
 50
369.046497863316
 51
374.349284524194
  0
ARC
  8
_0-0_
  6
CONTINUOUS
 62
    2
 10
152.684468085262
 20
67.6309321169426
 40
12.8927761453362
 50
363.480650163044
 51
369.070802808572
  0
ARC
  8
_0-0_
  6
CONTINUOUS
 62
    4
 10
148.896462390404
 20
67.3972576291113
 40
16.6879813649339
 50
357.501193657612
 51
363.491870826677
  0
ARC
  8
_0-0_
  6
CONTINUOUS
 62
    4
 10
161.871784484479
 20
69.8568598961614
 40
9.32241432658412
 50
378.046497863316
 51
383.349284524194
  0
ARC
  8
_0-0_
  6
CONTINUOUS
 62
    2
 10
158.478760482744
 20
68.7456023793918
 40
12.8927761453362
 50
372.480650163044
 51
378.070802808572
  0
ARC
  8
_0-0_
  6
CONTINUOUS
 62
    4
 10
154.773946167322
 20
67.9222301678219
 40
16.6879813649339
 50
366.501193657612
 51
372.491870826677
  0
ARC
  8
_0-0_
  6
CONTINUOUS
 62
    4
 10
167.204753950248
 20
72.3813382199998
 40
9.32241432658412
 50
387.046497863316
 51
392.349284524194
  0
ARC
  8
_0-0_
  6
CONTINUOUS
 62
    2
 10
164.027342679533
 20
70.7529762327078
 40
12.8927761453362
 50
381.480650163044
 51
387.070802808572
  0
ARC
  8
_0-0_
  6
CONTINUOUS
 62
    4
 10
160.496944567567
 20
69.3601804538638
 40
16.6879813649339
 50
375.501193657612
 51
381.491870826677
  0
ARC
  8
_0-0_
  6
CONTINUOUS
 62
    4
 10
172.077150296244
 20
75.7089962519939
 40
9.32241432658412
 50
396.046497863316
 51
401.349284524194
  0
ARC
  8
_0-0_
  6
CONTINUOUS
 62
    2
 10
169.193590167256
 20
73.60362547053
 40
12.8927761453362
 50
390.480650163044
 51
396.070802808572
  0
ARC
  8
_0-0_
  6
CONTINUOUS
 62
    4
 10
165.924538376983
 20
71.6757013789113
 40
16.6879813649339
 50
384.501193657612
 51
390.491870826677
  0
ARC
  8
_0-0_
  6
CONTINUOUS
 62
    4
 10
176.36899895387
 20
79.7578960075319
 40
9.32241432658412
 50
405.046497863316
 51
410.349284524194
  0
ARC
  8
_0-0_
  6
CONTINUOUS
 62
    2
 10
173.850292786974
 20
77.2273576478608
 40
12.8927761453362
 50
399.480650163044
 51
405.070802808572
  0
ARC
  8
_0-0_
  6
CONTINUOUS
 62
    4
 10
170.923082222829
 20
74.8117771330163
 40
16.6879813649339
 50
393.501193657612
 51
399.491870826677
  0
ARC
  8
_0-0_
  6
CONTINUOUS
 62
    4
 10
179.974620365347
 20
84.4283401371046
 40
9.32241432658412
 50
414.046497863316
 51
419.349284524194
  0
ARC
  8
_0-0_
  6
CONTINUOUS
 62
    2
 10
177.882787065478
 20
81.5349444520169
 40
12.8927761453362
 50
408.480650163044
 51
414.070802808572
  0
ARC
  8
_0-0_
  6
CONTINUOUS
 62
    4
 10
175.369495366406
 20
78.6911871230741
 40
16.6879813649339
 50
402.501193657612
 51
408.491870826677
  0
ARC
  8
_0-0_
  6
CONTINUOUS
 62
    4
 10
182.805232165153
 20
89.6053268059267
 40
9.32241432658412
 50
423.046497863316
 51
428.349284524194
  0
ARC
  8
_0-0_
  6
CONTINUOUS
 62
    2
 10
181.19177961055
 20
86.4203187998188
 40
12.8927761453362
 50
417.480650163044
 51
423.070802808572
  0
ARC
  8
_0-0_
  6
CONTINUOUS
 62
    4
 10
179.15429235932
 20
83.2184074001058
 40
16.6879813649339
 50
411.501193657612
 51
417.491870826677
  0
ARC
  8
_0-0_
  6
CONTINUOUS
 62
    4
 10
184.791135296515
 20
95.1613814207779
 40
9.32241432658412
 50
432.046497863316
 51
437.349284524194
  0
ARC
  8
_0-0_
  6
CONTINUOUS
 62
    2
 10
183.695792043814
 20
91.7631865611959
 40
12.8927761453362
 50
426.480650163044
 51
432.070802808572
  0
ARC
  8
_0-0_
  6
CONTINUOUS
 62
    4
 10
182.184278938584
 20
88.2819627759083
 40
16.6879813649339
 50
420.501193657612
 51
426.491870826677
  0
ARC
  8
_0-0_
  6
CONTINUOUS
 62
    4
 10
185.883430233504
 20
100.959695477553
 40
9.32241432658412
 50
441.046497863316
 51
446.349284524194
  0
ARC
  8
_0-0_
  6
CONTINUOUS
 62
    2
 10
185.333167268823
 20
97.4319885999014
 40
12.8927761453362
 50
435.480650163044
 51
441.070802808572
  0
ARC
  8
_0-0_
  6
CONTINUOUS
 62
    4
 10
184.384846778667
 20
93.7571717121524
 40
16.6879813649339
 50
429.501193657612
 51
435.491870826677
  0
ARC
  8
_0-0_
  6
CONTINUOUS
 62
    4
 10
186.055221049652
 20
106.857495240672
 40
9.32241432658412
 50
450.046497863316
 51
455.349284524194
  0
ARC
  8
_0-0_
  6
CONTINUOUS
 62
    2
 10
186.0635876734
 20
103.287140196067
 40
12.8927761453362
 50
444.480650163044
 51
450.070802808572
  0
ARC
  8
_0-0_
  6
CONTINUOUS
 62
    4
 10
185.701810596081
 20
99.5092163936511
 40
16.6879813649339
 50
438.501193657612
 51
444.491870826677
  0
ARC
  8
_0-0_
  6
CONTINUOUS
 62
    4
 10
185.302277684926
 20
112.709557306293
 40
9.32241432658412
 50
459.046497863316
 51
464.349284524194
  0
ARC
  8
_0-0_
  6
CONTINUOUS
 62
    2
 10
185.869067883057
 20
109.184468085262
 40
12.8927761453362
 50
453.480650163044
 51
459.070802808572
  0
ARC
  8
_0-0_
  6
CONTINUOUS
 62
    4
 10
186.102742370889
 20
105.396462390404
 40
16.6879813649339
 50
447.501193657612
 51
453.491870826677
  0
ARC
  8
_0-0_
  6
CONTINUOUS
 62
    4
 10
183.643140103839
 20
118.371784484479
 40
9.32241432658412
 50
468.046497863316
 51
473.349284524194
  0
ARC
  8
_0-0_
  6
CONTINUOUS
 62
    2
 10
184.754397620608
 20
114.978760482744
 40
12.8927761453362
 50
462.480650163044
 51
468.070802808572
  0
ARC
  8
_0-0_
  6
CONTINUOUS
 62
    4
 10
185.577769832178
 20
111.273946167322
 40
16.6879813649339
 50
456.501193657612
 51
462.491870826677
  0
ARC
  8
_0-0_
  6
CONTINUOUS
 62
    4
 10
181.11866178
 20
123.704753950248
 40
9.32241432658412
 50
477.046497863316
 51
482.349284524194
  0
ARC
  8
_0-0_
  6
CONTINUOUS
 62
    2
 10
182.747023767292
 20
120.527342679533
 40
12.8927761453362
 50
471.480650163044
 51
477.070802808572
  0
ARC
  8
_0-0_
  6
CONTINUOUS
 62
    4
 10
184.139819546136
 20
116.996944567567
 40
16.6879813649339
 50
465.501193657612
 51
471.491870826677
  0
ARC
  8
_0-0_
  6
CONTINUOUS
 62
    4
 10
177.791003748006
 20
128.577150296244
 40
9.32241432658412
 50
486.046497863316
 51
491.349284524194
  0
ARC
  8
_0-0_
  6
CONTINUOUS
 62
    2
 10
179.89637452947
 20
125.693590167256
 40
12.8927761453362
 50
480.480650163044
 51
486.070802808572
  0
ARC
  8
_0-0_
  6
CONTINUOUS
 62
    4
 10
181.824298621089
 20
122.424538376983
 40
16.6879813649339
 50
474.501193657612
 51
480.491870826677
  0
ARC
  8
_0-0_
  6
CONTINUOUS
 62
    4
 10
173.742103992468
 20
132.86899895387
 40
9.32241432658412
 50
495.046497863316
 51
500.349284524194
  0
ARC
  8
_0-0_
  6
CONTINUOUS
 62
    2
 10
176.272642352139
 20
130.350292786974
 40
12.8927761453362
 50
489.480650163044
 51
495.070802808572
  0
ARC
  8
_0-0_
  6
CONTINUOUS
 62
    4
 10
178.688222866984
 20
127.423082222829
 40
16.6879813649339
 50
483.501193657612
 51
489.491870826677
  0
ARC
  8
_0-0_
  6
CONTINUOUS
 62
    4
 10
169.071659862895
 20
136.474620365347
 40
9.32241432658412
 50
504.046497863316
 51
509.349284524194
  0
ARC
  8
_0-0_
  6
CONTINUOUS
 62
    2
 10
171.965055547983
 20
134.382787065478
 40
12.8927761453362
 50
498.480650163044
 51
504.070802808572
  0
ARC
  8
_0-0_
  6
CONTINUOUS
 62
    4
 10
174.808812876926
 20
131.869495366406
 40
16.6879813649339
 50
492.501193657612
 51
498.491870826677
  0
ARC
  8
_0-0_
  6
CONTINUOUS
 62
    4
 10
163.894673194073
 20
139.305232165153
 40
9.32241432658412
 50
513.046497863316
 51
518.349284524194
  0
ARC
  8
_0-0_
  6
CONTINUOUS
 62
    2
 10
167.079681200181
 20
137.69177961055
 40
12.8927761453362
 50
507.480650163044
 51
513.070802808572
  0
ARC
  8
_0-0_
  6
CONTINUOUS
 62
    4
 10
170.281592599894
 20
135.65429235932
 40
16.6879813649339
 50
501.501193657612
 51
507.491870826677
  0
ARC
  8
_0-0_
  6
CONTINUOUS
 62
    4
 10
138.661381420778
 20
141.291135296515
 40
9.32241432658412
 50
372.650715475806
 51
377.953502136684
  0
ARC
  8
_0-0_
  6
CONTINUOUS
 62
    2
 10
135.263186561196
 20
140.195792043814
 40
12.8927761453362
 50
377.929197191428
 51
383.519349836956
  0
ARC
  8
_0-0_
  6
CONTINUOUS
 62
    4
 10
131.781962775908
 20
138.684278938584
 40
16.6879813649339
 50
383.508129173323
 51
389.498806342388
  0
ARC
  8
_0-0_
  6
CONTINUOUS
 62
    4
 10
133.105326805927
 20
139.305232165153
 40
9.32241432658412
 50
381.650715475806
 51
386.953502136684
  0
ARC
  8
_0-0_
  6
CONTINUOUS
 62
    2
 10
129.920318799819
 20
137.69177961055
 40
12.8927761453362
 50
386.929197191428
 51
392.519349836956
  0
ARC
  8
_0-0_
  6
CONTINUOUS
 62
    4
 10
126.718407400106
 20
135.65429235932
 40
16.6879813649339
 50
392.508129173323
 51
398.498806342388
  0
ARC
  8
_0-0_
  6
CONTINUOUS
 62
    4
 10
127.928340137105
 20
136.474620365347
 40
9.32241432658412
 50
390.650715475806
 51
395.953502136684
  0
ARC
  8
_0-0_
  6
CONTINUOUS
 62
    2
 10
125.034944452017
 20
134.382787065478
 40
12.8927761453362
 50
395.929197191428
 51
401.519349836956
  0
ARC
  8
_0-0_
  6
CONTINUOUS
 62
    4
 10
122.191187123074
 20
131.869495366406
 40
16.6879813649339
 50
401.508129173323
 51
407.498806342388
  0
ARC
  8
_0-0_
  6
CONTINUOUS
 62
    4
 10
123.257896007532
 20
132.86899895387
 40
9.32241432658412
 50
399.650715475806
 51
404.953502136684
  0
ARC
  8
_0-0_
  6
CONTINUOUS
 62
    2
 10
120.727357647861
 20
130.350292786974
 40
12.8927761453362
 50
404.929197191428
 51
410.519349836956
  0
ARC
  8
_0-0_
  6
CONTINUOUS
 62
    4
 10
118.311777133016
 20
127.423082222829
 40
16.6879813649339
 50
410.508129173323
 51
416.498806342388
  0
ARC
  8
_0-0_
  6
CONTINUOUS
 62
    4
 10
119.208996251994
 20
128.577150296244
 40
9.32241432658412
 50
408.650715475806
 51
413.953502136684
  0
ARC
  8
_0-0_
  6
CONTINUOUS
 62
    2
 10
117.10362547053
 20
125.693590167256
 40
12.8927761453362
 50
413.929197191428
 51
419.519349836956
  0
ARC
  8
_0-0_
  6
CONTINUOUS
 62
    4
 10
115.175701378911
 20
122.424538376983
 40
16.6879813649339
 50
419.508129173323
 51
425.498806342388
  0
ARC
  8
_0-0_
  6
CONTINUOUS
 62
    4
 10
115.88133822
 20
123.704753950248
 40
9.32241432658412
 50
417.650715475806
 51
422.953502136684
  0
ARC
  8
_0-0_
  6
CONTINUOUS
 62
    2
 10
114.252976232708
 20
120.527342679533
 40
12.8927761453362
 50
422.929197191428
 51
428.519349836956
  0
ARC
  8
_0-0_
  6
CONTINUOUS
 62
    4
 10
112.860180453864
 20
116.996944567567
 40
16.6879813649339
 50
428.508129173323
 51
434.498806342388
  0
ARC
  8
_0-0_
  6
CONTINUOUS
 62
    4
 10
113.356859896161
 20
118.371784484479
 40
9.32241432658412
 50
426.650715475806
 51
431.953502136684
  0
ARC
  8
_0-0_
  6
CONTINUOUS
 62
    2
 10
112.245602379392
 20
114.978760482744
 40
12.8927761453362
 50
431.929197191428
 51
437.519349836956
  0
ARC
  8
_0-0_
  6
CONTINUOUS
 62
    4
 10
111.422230167822
 20
111.273946167322
 40
16.6879813649339
 50
437.508129173323
 51
443.498806342388
  0
ARC
  8
_0-0_
  6
CONTINUOUS
 62
    4
 10
111.697722315074
 20
112.709557306293
 40
9.32241432658412
 50
435.650715475806
 51
440.953502136684
  0
ARC
  8
_0-0_
  6
CONTINUOUS
 62
    2
 10
111.130932116943
 20
109.184468085262
 40
12.8927761453362
 50
440.929197191428
 51
446.519349836956
  0
ARC
  8
_0-0_
  6
CONTINUOUS
 62
    4
 10
110.897257629111
 20
105.396462390404
 40
16.6879813649339
 50
446.508129173323
 51
452.498806342388
  0
ARC
  8
_0-0_
  6
CONTINUOUS
 62
    4
 10
110.944778950348
 20
106.857495240672
 40
9.32241432658412
 50
444.650715475806
 51
449.953502136684
  0
ARC
  8
_0-0_
  6
CONTINUOUS
 62
    2
 10
110.9364123266
 20
103.287140196067
 40
12.8927761453362
 50
449.929197191428
 51
455.519349836956
  0
ARC
  8
_0-0_
  6
CONTINUOUS
 62
    4
 10
111.298189403919
 20
99.5092163936511
 40
16.6879813649339
 50
455.508129173323
 51
461.498806342388
  0
ARC
  8
_0-0_
  6
CONTINUOUS
 62
    4
 10
111.116569766496
 20
100.959695477553
 40
9.32241432658412
 50
453.650715475806
 51
458.953502136684
  0
ARC
  8
_0-0_
  6
CONTINUOUS
 62
    2
 10
111.666832731177
 20
97.4319885999014
 40
12.8927761453362
 50
458.929197191428
 51
464.519349836956
  0
ARC
  8
_0-0_
  6
CONTINUOUS
 62
    4
 10
112.615153221333
 20
93.7571717121524
 40
16.6879813649339
 50
464.508129173323
 51
470.498806342388
  0
ARC
  8
_0-0_
  6
CONTINUOUS
 62
    4
 10
112.208864703485
 20
95.1613814207779
 40
9.32241432658412
 50
462.650715475806
 51
467.953502136684
  0
ARC
  8
_0-0_
  6
CONTINUOUS
 62
    2
 10
113.304207956186
 20
91.7631865611959
 40
12.8927761453362
 50
467.929197191428
 51
473.519349836956
  0
ARC
  8
_0-0_
  6
CONTINUOUS
 62
    4
 10
114.815721061416
 20
88.2819627759083
 40
16.6879813649339
 50
473.508129173323
 51
479.498806342388
  0
ARC
  8
_0-0_
  6
CONTINUOUS
 62
    4
 10
114.194767834847
 20
89.6053268059267
 40
9.32241432658412
 50
471.650715475806
 51
476.953502136684
  0
ARC
  8
_0-0_
  6
CONTINUOUS
 62
    2
 10
115.80822038945
 20
86.4203187998188
 40
12.8927761453362
 50
476.929197191428
 51
482.519349836956
  0
ARC
  8
_0-0_
  6
CONTINUOUS
 62
    4
 10
117.84570764068
 20
83.2184074001058
 40
16.6879813649339
 50
482.508129173323
 51
488.498806342388
  0
ARC
  8
_0-0_
  6
CONTINUOUS
 62
    4
 10
117.025379634653
 20
84.4283401371046
 40
9.32241432658412
 50
480.650715475806
 51
485.953502136684
  0
ARC
  8
_0-0_
  6
CONTINUOUS
 62
    2
 10
119.117212934522
 20
81.5349444520169
 40
12.8927761453362
 50
485.929197191428
 51
491.519349836956
  0
ARC
  8
_0-0_
  6
CONTINUOUS
 62
    4
 10
121.630504633594
 20
78.6911871230741
 40
16.6879813649339
 50
491.508129173323
 51
497.498806342388
  0
ARC
  8
_0-0_
  6
CONTINUOUS
 62
    4
 10
120.63100104613
 20
79.7578960075319
 40
9.32241432658412
 50
489.650715475806
 51
494.953502136684
  0
ARC
  8
_0-0_
  6
CONTINUOUS
 62
    2
 10
123.149707213026
 20
77.2273576478608
 40
12.8927761453362
 50
494.929197191428
 51
500.519349836956
  0
ARC
  8
_0-0_
  6
CONTINUOUS
 62
    4
 10
126.076917777171
 20
74.8117771330163
 40
16.6879813649339
 50
500.508129173323
 51
506.498806342388
  0
ARC
  8
_0-0_
  6
CONTINUOUS
 62
    4
 10
124.922849703756
 20
75.7089962519939
 40
9.32241432658412
 50
498.650715475806
 51
503.953502136684
  0
ARC
  8
_0-0_
  6
CONTINUOUS
 62
    2
 10
127.806409832744
 20
73.60362547053
 40
12.8927761453362
 50
503.929197191428
 51
509.519349836956
  0
ARC
  8
_0-0_
  6
CONTINUOUS
 62
    4
 10
131.075461623017
 20
71.6757013789113
 40
16.6879813649339
 50
509.508129173323
 51
515.498806342388
  0
ARC
  8
_0-0_
  6
CONTINUOUS
 62
    4
 10
129.795246049752
 20
72.3813382199998
 40
9.32241432658412
 50
507.650715475806
 51
512.953502136684
  0
ARC
  8
_0-0_
  6
CONTINUOUS
 62
    2
 10
132.972657320467
 20
70.7529762327078
 40
12.8927761453362
 50
512.929197191428
 51
518.519349836956
  0
ARC
  8
_0-0_
  6
CONTINUOUS
 62
    4
 10
136.503055432433
 20
69.3601804538638
 40
16.6879813649339
 50
518.508129173323
 51
524.498806342388
  0
ARC
  8
_0-0_
  6
CONTINUOUS
 62
    4
 10
135.128215515521
 20
69.8568598961614
 40
9.32241432658412
 50
516.650715475806
 51
521.953502136684
  0
ARC
  8
_0-0_
  6
CONTINUOUS
 62
    2
 10
138.521239517256
 20
68.7456023793918
 40
12.8927761453362
 50
521.929197191428
 51
527.519349836956
  0
ARC
  8
_0-0_
  6
CONTINUOUS
 62
    4
 10
142.226053832678
 20
67.9222301678219
 40
16.6879813649339
 50
527.508129173323
 51
533.498806342388
  0
ARC
  8
_0-0_
  6
CONTINUOUS
 62
    4
 10
140.790442693707
 20
68.1977223150745
 40
9.32241432658412
 50
525.650715475806
 51
530.953502136684
  0
ARC
  8
_0-0_
  6
CONTINUOUS
 62
    2
 10
144.315531914738
 20
67.6309321169426
 40
12.8927761453362
 50
530.929197191428
 51
536.519349836956
  0
ARC
  8
_0-0_
  6
CONTINUOUS
 62
    4
 10
148.103537609596
 20
67.3972576291113
 40
16.6879813649339
 50
536.508129173323
 51
542.498806342388
  0
ARC
  8
_0-0_
  6
CONTINUOUS
 62
    4
 10
146.642504759328
 20
67.4447789503476
 40
9.32241432658412
 50
534.650715475806
 51
539.953502136684
  0
ARC
  8
_0-0_
  6
CONTINUOUS
 62
    2
 10
150.212859803933
 20
67.4364123266001
 40
12.8927761453362
 50
539.929197191428
 51
545.519349836956
  0
ARC
  8
_0-0_
  6
CONTINUOUS
 62
    4
 10
153.990783606349
 20
67.798189403919
 40
16.6879813649339
 50
545.508129173323
 51
551.498806342388
  0
ARC
  8
_0-0_
  6
CONTINUOUS
 62
    4
 10
152.540304522447
 20
67.6165697664959
 40
9.32241432658412
 50
543.650715475806
 51
548.953502136684
  0
ARC
  8
_0-0_
  6
CONTINUOUS
 62
    2
 10
156.068011400099
 20
68.1668327311768
 40
12.8927761453362
 50
548.929197191428
 51
554.519349836956
  0
ARC
  8
_0-0_
  6
CONTINUOUS
 62
    4
 10
159.742828287848
 20
69.115153221333
 40
16.6879813649339
 50
554.508129173323
 51
560.498806342388
  0
ARC
  8
_0-0_
  6
CONTINUOUS
 62
    4
 10
158.338618579222
 20
68.7088647034849
 40
9.32241432658412
 50
552.650715475806
 51
557.953502136684
  0
ARC
  8
_0-0_
  6
CONTINUOUS
 62
    2
 10
161.736813438804
 20
69.8042079561857
 40
12.8927761453362
 50
557.929197191428
 51
563.519349836956
  0
ARC
  8
_0-0_
  6
CONTINUOUS
 62
    4
 10
165.218037224092
 20
71.3157210614162
 40
16.6879813649339
 50
563.508129173323
 51
569.498806342388
  0
ARC
  8
_0-0_
  6
CONTINUOUS
 62
    4
 10
163.894673194073
 20
70.6947678348469
 40
9.32241432658412
 50
561.650715475806
 51
566.953502136684
  0
ARC
  8
_0-0_
  6
CONTINUOUS
 62
    2
 10
167.079681200181
 20
72.3082203894502
 40
12.8927761453362
 50
566.929197191428
 51
572.519349836956
  0
ARC
  8
_0-0_
  6
CONTINUOUS
 62
    4
 10
170.281592599894
 20
74.3457076406799
 40
16.6879813649339
 50
572.508129173323
 51
578.498806342388
  0
ARC
  8
_0-0_
  6
CONTINUOUS
 62
    4
 10
169.071659862895
 20
73.525379634653
 40
9.32241432658412
 50
570.650715475806
 51
575.953502136684
  0
ARC
  8
_0-0_
  6
CONTINUOUS
 62
    2
 10
171.965055547983
 20
75.6172129345225
 40
12.8927761453362
 50
575.929197191428
 51
581.519349836956
  0
ARC
  8
_0-0_
  6
CONTINUOUS
 62
    4
 10
174.808812876926
 20
78.1305046335936
 40
16.6879813649339
 50
581.508129173323
 51
587.498806342388
  0
ARC
  8
_0-0_
  6
CONTINUOUS
 62
    4
 10
173.742103992468
 20
77.1310010461301
 40
9.32241432658412
 50
579.650715475806
 51
584.953502136684
  0
ARC
  8
_0-0_
  6
CONTINUOUS
 62
    2
 10
176.272642352139
 20
79.6497072130262
 40
12.8927761453362
 50
584.929197191428
 51
590.519349836956
  0
ARC
  8
_0-0_
  6
CONTINUOUS
 62
    4
 10
178.688222866984
 20
82.5769177771708
 40
16.6879813649339
 50
590.508129173323
 51
596.498806342388
  0
ARC
  8
_0-0_
  6
CONTINUOUS
 62
    4
 10
177.791003748006
 20
81.4228497037562
 40
9.32241432658412
 50
588.650715475806
 51
593.953502136684
  0
ARC
  8
_0-0_
  6
CONTINUOUS
 62
    2
 10
179.89637452947
 20
84.3064098327436
 40
12.8927761453362
 50
593.929197191428
 51
599.519349836956
  0
ARC
  8
_0-0_
  6
CONTINUOUS
 62
    4
 10
181.824298621089
 20
87.5754616230173
 40
16.6879813649339
 50
599.508129173323
 51
605.498806342388
  0
ARC
  8
_0-0_
  6
CONTINUOUS
 62
    4
 10
181.11866178
 20
86.2952460497516
 40
9.32241432658412
 50
597.650715475806
 51
602.953502136684
  0
ARC
  8
_0-0_
  6
CONTINUOUS
 62
    2
 10
182.747023767292
 20
89.472657320467
 40
12.8927761453362
 50
602.929197191428
 51
608.519349836956
  0
ARC
  8
_0-0_
  6
CONTINUOUS
 62
    4
 10
184.139819546136
 20
93.0030554324326
 40
16.6879813649339
 50
608.508129173323
 51
614.498806342388
  0
ARC
  8
_0-0_
  6
CONTINUOUS
 62
    4
 10
183.643140103839
 20
91.6282155155213
 40
9.32241432658412
 50
606.650715475806
 51
611.953502136684
  0
ARC
  8
_0-0_
  6
CONTINUOUS
 62
    2
 10
184.754397620608
 20
95.0212395172564
 40
12.8927761453362
 50
611.929197191428
 51
617.519349836956
  0
ARC
  8
_0-0_
  6
CONTINUOUS
 62
    4
 10
185.577769832178
 20
98.7260538326777
 40
16.6879813649339
 50
617.508129173323
 51
623.498806342388
  0
ARC
  8
_0-0_
  6
CONTINUOUS
 62
    4
 10
185.302277684926
 20
97.2904426937073
 40
9.32241432658412
 50
615.650715475806
 51
620.953502136684
  0
ARC
  8
_0-0_
  6
CONTINUOUS
 62
    2
 10
185.869067883057
 20
100.815531914738
 40
12.8927761453362
 50
620.929197191428
 51
626.519349836956
  0
ARC
  8
_0-0_
  6
CONTINUOUS
 62
    4
 10
186.102742370889
 20
104.603537609596
 40
16.6879813649339
 50
626.508129173323
 51
632.498806342388
  0
ARC
  8
_0-0_
  6
CONTINUOUS
 62
    4
 10
186.055221049652
 20
103.142504759328
 40
9.32241432658412
 50
624.650715475806
 51
629.953502136684
  0
ARC
  8
_0-0_
  6
CONTINUOUS
 62
    2
 10
186.0635876734
 20
106.712859803933
 40
12.8927761453362
 50
629.929197191428
 51
635.519349836956
  0
ARC
  8
_0-0_
  6
CONTINUOUS
 62
    4
 10
185.701810596081
 20
110.490783606349
 40
16.6879813649339
 50
635.508129173323
 51
641.498806342388
  0
ARC
  8
_0-0_
  6
CONTINUOUS
 62
    4
 10
185.883430233504
 20
109.040304522447
 40
9.32241432658412
 50
633.650715475806
 51
638.953502136684
  0
ARC
  8
_0-0_
  6
CONTINUOUS
 62
    2
 10
185.333167268823
 20
112.568011400099
 40
12.8927761453362
 50
638.929197191428
 51
644.519349836956
  0
ARC
  8
_0-0_
  6
CONTINUOUS
 62
    4
 10
184.384846778667
 20
116.242828287848
 40
16.6879813649339
 50
644.508129173323
 51
650.498806342388
  0
ARC
  8
_0-0_
  6
CONTINUOUS
 62
    4
 10
184.791135296515
 20
114.838618579222
 40
9.32241432658412
 50
642.650715475806
 51
647.953502136684
  0
ARC
  8
_0-0_
  6
CONTINUOUS
 62
    2
 10
183.695792043814
 20
118.236813438804
 40
12.8927761453362
 50
647.929197191428
 51
653.519349836956
  0
ARC
  8
_0-0_
  6
CONTINUOUS
 62
    4
 10
182.184278938584
 20
121.718037224092
 40
16.6879813649339
 50
653.508129173323
 51
659.498806342388
  0
ARC
  8
_0-0_
  6
CONTINUOUS
 62
    4
 10
182.805232165153
 20
120.394673194073
 40
9.32241432658412
 50
651.650715475806
 51
656.953502136684
  0
ARC
  8
_0-0_
  6
CONTINUOUS
 62
    2
 10
181.19177961055
 20
123.579681200181
 40
12.8927761453362
 50
656.929197191428
 51
662.519349836956
  0
ARC
  8
_0-0_
  6
CONTINUOUS
 62
    4
 10
179.15429235932
 20
126.781592599894
 40
16.6879813649339
 50
662.508129173323
 51
668.498806342388
  0
ARC
  8
_0-0_
  6
CONTINUOUS
 62
    4
 10
179.974620365347
 20
125.571659862895
 40
9.32241432658412
 50
660.650715475806
 51
665.953502136684
  0
ARC
  8
_0-0_
  6
CONTINUOUS
 62
    2
 10
177.882787065478
 20
128.465055547983
 40
12.8927761453362
 50
665.929197191428
 51
671.519349836956
  0
ARC
  8
_0-0_
  6
CONTINUOUS
 62
    4
 10
175.369495366406
 20
131.308812876926
 40
16.6879813649339
 50
671.508129173323
 51
677.498806342388
  0
ARC
  8
_0-0_
  6
CONTINUOUS
 62
    4
 10
176.36899895387
 20
130.242103992468
 40
9.32241432658412
 50
669.650715475806
 51
674.953502136684
  0
ARC
  8
_0-0_
  6
CONTINUOUS
 62
    2
 10
173.850292786974
 20
132.772642352139
 40
12.8927761453362
 50
674.929197191428
 51
680.519349836956
  0
ARC
  8
_0-0_
  6
CONTINUOUS
 62
    4
 10
170.923082222829
 20
135.188222866984
 40
16.6879813649339
 50
680.508129173323
 51
686.498806342388
  0
ARC
  8
_0-0_
  6
CONTINUOUS
 62
    4
 10
172.077150296244
 20
134.291003748006
 40
9.32241432658412
 50
678.650715475806
 51
683.953502136684
  0
ARC
  8
_0-0_
  6
CONTINUOUS
 62
    2
 10
169.193590167256
 20
136.39637452947
 40
12.8927761453362
 50
683.929197191428
 51
689.519349836956
  0
ARC
  8
_0-0_
  6
CONTINUOUS
 62
    4
 10
165.924538376983
 20
138.324298621089
 40
16.6879813649339
 50
689.508129173323
 51
695.498806342388
  0
ARC
  8
_0-0_
  6
CONTINUOUS
 62
    4
 10
167.204753950248
 20
137.61866178
 40
9.32241432658412
 50
687.650715475806
 51
692.953502136684
  0
ARC
  8
_0-0_
  6
CONTINUOUS
 62
    2
 10
164.027342679533
 20
139.247023767292
 40
12.8927761453362
 50
692.929197191428
 51
698.519349836956
  0
ARC
  8
_0-0_
  6
CONTINUOUS
 62
    4
 10
160.496944567567
 20
140.639819546136
 40
16.6879813649339
 50
698.508129173323
 51
704.498806342388
  0
ARC
  8
_0-0_
  6
CONTINUOUS
 62
    4
 10
161.871784484479
 20
140.143140103839
 40
9.32241432658412
 50
696.650715475806
 51
701.953502136684
  0
ARC
  8
_0-0_
  6
CONTINUOUS
 62
    2
 10
158.478760482744
 20
141.254397620608
 40
12.8927761453362
 50
701.929197191428
 51
707.519349836956
  0
ARC
  8
_0-0_
  6
CONTINUOUS
 62
    4
 10
154.773946167322
 20
142.077769832178
 40
16.6879813649339
 50
707.508129173323
 51
713.498806342388
  0
ARC
  8
_0-0_
  6
CONTINUOUS
 62
    4
 10
156.209557306293
 20
141.802277684926
 40
9.32241432658412
 50
705.650715475806
 51
710.953502136684
  0
ARC
  8
_0-0_
  6
CONTINUOUS
 62
    2
 10
152.684468085262
 20
142.369067883057
 40
12.8927761453362
 50
710.929197191428
 51
716.519349836956
  0
ARC
  8
_0-0_
  6
CONTINUOUS
 62
    4
 10
148.896462390404
 20
142.602742370889
 40
16.6879813649339
 50
716.508129173323
 51
722.498806342388
  0
ARC
  8
_0-0_
  6
CONTINUOUS
 62
    4
 10
150.357495240672
 20
142.555221049652
 40
9.32241432658412
 50
714.650715475806
 51
719.953502136684
  0
ARC
  8
_0-0_
  6
CONTINUOUS
 62
    2
 10
146.787140196067
 20
142.5635876734
 40
12.8927761453362
 50
719.929197191428
 51
725.519349836956
  0
ARC
  8
_0-0_
  6
CONTINUOUS
 62
    4
 10
143.009216393651
 20
142.201810596081
 40
16.6879813649339
 50
725.508129173323
 51
731.498806342388
  0
ARC
  8
_0-0_
  6
CONTINUOUS
 62
    4
 10
144.459695477553
 20
142.383430233504
 40
9.32241432658412
 50
723.650715475806
 51
728.953502136684
  0
ARC
  8
_0-0_
  6
CONTINUOUS
 62
    2
 10
140.931988599901
 20
141.833167268823
 40
12.8927761453362
 50
728.929197191428
 51
734.519349836956
  0
ARC
  8
_0-0_
  6
CONTINUOUS
 62
    4
 10
137.257171712152
 20
140.884846778667
 40
16.6879813649339
 50
734.508129173323
 51
740.498806342388
  0
ARC
  8
_0-0_
  6
CONTINUOUS
 62
    7
 10
148.5
 20
105
 40
38.34
 50
88.8902966743758
 51
91.1097033256242
  0
ARC
  8
_0-0_
  6
CONTINUOUS
 62
    7
 10
148.5
 20
105
 40
38.34
 50
97.8902966743758
 51
100.109703325624
  0
ARC
  8
_0-0_
  6
CONTINUOUS
 62
    7
 10
148.5
 20
105
 40
38.34
 50
106.890296674376
 51
109.109703325624
  0
ARC
  8
_0-0_
  6
CONTINUOUS
 62
    7
 10
148.5
 20
105
 40
38.34
 50
115.890296674376
 51
118.109703325624
  0
ARC
  8
_0-0_
  6
CONTINUOUS
 62
    7
 10
148.5
 20
105
 40
38.34
 50
124.890296674376
 51
127.109703325624
  0
ARC
  8
_0-0_
  6
CONTINUOUS
 62
    7
 10
148.5
 20
105
 40
38.34
 50
133.890296674376
 51
136.109703325624
  0
ARC
  8
_0-0_
  6
CONTINUOUS
 62
    7
 10
148.5
 20
105
 40
38.34
 50
142.890296674376
 51
145.109703325624
  0
ARC
  8
_0-0_
  6
CONTINUOUS
 62
    7
 10
148.5
 20
105
 40
38.34
 50
151.890296674376
 51
154.109703325624
  0
ARC
  8
_0-0_
  6
CONTINUOUS
 62
    7
 10
148.5
 20
105
 40
38.34
 50
160.890296674376
 51
163.109703325624
  0
ARC
  8
_0-0_
  6
CONTINUOUS
 62
    7
 10
148.5
 20
105
 40
38.34
 50
169.890296674376
 51
172.109703325624
  0
ARC
  8
_0-0_
  6
CONTINUOUS
 62
    7
 10
148.5
 20
105
 40
38.34
 50
178.890296674376
 51
181.109703325624
  0
ARC
  8
_0-0_
  6
CONTINUOUS
 62
    7
 10
148.5
 20
105
 40
38.34
 50
187.890296674376
 51
190.109703325624
  0
ARC
  8
_0-0_
  6
CONTINUOUS
 62
    7
 10
148.5
 20
105
 40
38.34
 50
196.890296674376
 51
199.109703325624
  0
ARC
  8
_0-0_
  6
CONTINUOUS
 62
    7
 10
148.5
 20
105
 40
38.34
 50
205.890296674376
 51
208.109703325624
  0
ARC
  8
_0-0_
  6
CONTINUOUS
 62
    7
 10
148.5
 20
105
 40
38.34
 50
214.890296674376
 51
217.109703325624
  0
ARC
  8
_0-0_
  6
CONTINUOUS
 62
    7
 10
148.5
 20
105
 40
38.34
 50
223.890296674376
 51
226.109703325624
  0
ARC
  8
_0-0_
  6
CONTINUOUS
 62
    7
 10
148.5
 20
105
 40
38.34
 50
232.890296674376
 51
235.109703325624
  0
ARC
  8
_0-0_
  6
CONTINUOUS
 62
    7
 10
148.5
 20
105
 40
38.34
 50
241.890296674376
 51
244.109703325624
  0
ARC
  8
_0-0_
  6
CONTINUOUS
 62
    7
 10
148.5
 20
105
 40
38.34
 50
250.890296674376
 51
253.109703325624
  0
ARC
  8
_0-0_
  6
CONTINUOUS
 62
    7
 10
148.5
 20
105
 40
38.34
 50
259.890296674376
 51
262.109703325624
  0
ARC
  8
_0-0_
  6
CONTINUOUS
 62
    7
 10
148.5
 20
105
 40
38.34
 50
268.890296674376
 51
271.109703325624
  0
ARC
  8
_0-0_
  6
CONTINUOUS
 62
    7
 10
148.5
 20
105
 40
38.34
 50
277.890296674376
 51
280.109703325624
  0
ARC
  8
_0-0_
  6
CONTINUOUS
 62
    7
 10
148.5
 20
105
 40
38.34
 50
286.890296674376
 51
289.109703325624
  0
ARC
  8
_0-0_
  6
CONTINUOUS
 62
    7
 10
148.5
 20
105
 40
38.34
 50
295.890296674376
 51
298.109703325624
  0
ARC
  8
_0-0_
  6
CONTINUOUS
 62
    7
 10
148.5
 20
105
 40
38.34
 50
304.890296674376
 51
307.109703325624
  0
ARC
  8
_0-0_
  6
CONTINUOUS
 62
    7
 10
148.5
 20
105
 40
38.34
 50
313.890296674376
 51
316.109703325624
  0
ARC
  8
_0-0_
  6
CONTINUOUS
 62
    7
 10
148.5
 20
105
 40
38.34
 50
322.890296674376
 51
325.109703325624
  0
ARC
  8
_0-0_
  6
CONTINUOUS
 62
    7
 10
148.5
 20
105
 40
38.34
 50
331.890296674376
 51
334.109703325624
  0
ARC
  8
_0-0_
  6
CONTINUOUS
 62
    7
 10
148.5
 20
105
 40
38.34
 50
340.890296674376
 51
343.109703325624
  0
ARC
  8
_0-0_
  6
CONTINUOUS
 62
    7
 10
148.5
 20
105
 40
38.34
 50
349.890296674376
 51
352.109703325624
  0
ARC
  8
_0-0_
  6
CONTINUOUS
 62
    7
 10
148.5
 20
105
 40
38.34
 50
358.890296674376
 51
361.109703325624
  0
ARC
  8
_0-0_
  6
CONTINUOUS
 62
    7
 10
148.5
 20
105
 40
38.34
 50
367.890296674376
 51
370.109703325624
  0
ARC
  8
_0-0_
  6
CONTINUOUS
 62
    7
 10
148.5
 20
105
 40
38.34
 50
376.890296674376
 51
379.109703325624
  0
ARC
  8
_0-0_
  6
CONTINUOUS
 62
    7
 10
148.5
 20
105
 40
38.34
 50
385.890296674376
 51
388.109703325624
  0
ARC
  8
_0-0_
  6
CONTINUOUS
 62
    7
 10
148.5
 20
105
 40
38.34
 50
394.890296674376
 51
397.109703325624
  0
ARC
  8
_0-0_
  6
CONTINUOUS
 62
    7
 10
148.5
 20
105
 40
38.34
 50
403.890296674376
 51
406.109703325624
  0
ARC
  8
_0-0_
  6
CONTINUOUS
 62
    7
 10
148.5
 20
105
 40
38.34
 50
412.890296674376
 51
415.109703325624
  0
ARC
  8
_0-0_
  6
CONTINUOUS
 62
    7
 10
148.5
 20
105
 40
38.34
 50
421.890296674376
 51
424.109703325624
  0
ARC
  8
_0-0_
  6
CONTINUOUS
 62
    7
 10
148.5
 20
105
 40
38.34
 50
430.890296674376
 51
433.109703325624
  0
ARC
  8
_0-0_
  6
CONTINUOUS
 62
    7
 10
148.5
 20
105
 40
38.34
 50
439.890296674376
 51
442.109703325624
  0
ARC
  8
_0-0_
  6
CONTINUOUS
 62
    7
 10
148.5
 20
105
 40
41.9589
 50
92.9964820249255
 51
96.0035179750744
  0
ARC
  8
_0-0_
  6
CONTINUOUS
 62
    7
 10
148.5
 20
105
 40
41.9589
 50
101.996482024926
 51
105.003517975074
  0
ARC
  8
_0-0_
  6
CONTINUOUS
 62
    7
 10
148.5
 20
105
 40
41.9589
 50
110.996482024926
 51
114.003517975074
  0
ARC
  8
_0-0_
  6
CONTINUOUS
 62
    7
 10
148.5
 20
105
 40
41.9589
 50
119.996482024926
 51
123.003517975074
  0
ARC
  8
_0-0_
  6
CONTINUOUS
 62
    7
 10
148.5
 20
105
 40
41.9589
 50
128.996482024926
 51
132.003517975074
  0
ARC
  8
_0-0_
  6
CONTINUOUS
 62
    7
 10
148.5
 20
105
 40
41.9589
 50
137.996482024926
 51
141.003517975074
  0
ARC
  8
_0-0_
  6
CONTINUOUS
 62
    7
 10
148.5
 20
105
 40
41.9589
 50
146.996482024926
 51
150.003517975074
  0
ARC
  8
_0-0_
  6
CONTINUOUS
 62
    7
 10
148.5
 20
105
 40
41.9589
 50
155.996482024926
 51
159.003517975074
  0
ARC
  8
_0-0_
  6
CONTINUOUS
 62
    7
 10
148.5
 20
105
 40
41.9589
 50
164.996482024926
 51
168.003517975074
  0
ARC
  8
_0-0_
  6
CONTINUOUS
 62
    7
 10
148.5
 20
105
 40
41.9589
 50
173.996482024926
 51
177.003517975074
  0
ARC
  8
_0-0_
  6
CONTINUOUS
 62
    7
 10
148.5
 20
105
 40
41.9589
 50
182.996482024926
 51
186.003517975074
  0
ARC
  8
_0-0_
  6
CONTINUOUS
 62
    7
 10
148.5
 20
105
 40
41.9589
 50
191.996482024926
 51
195.003517975074
  0
ARC
  8
_0-0_
  6
CONTINUOUS
 62
    7
 10
148.5
 20
105
 40
41.9589
 50
200.996482024926
 51
204.003517975074
  0
ARC
  8
_0-0_
  6
CONTINUOUS
 62
    7
 10
148.5
 20
105
 40
41.9589
 50
209.996482024926
 51
213.003517975074
  0
ARC
  8
_0-0_
  6
CONTINUOUS
 62
    7
 10
148.5
 20
105
 40
41.9589
 50
218.996482024926
 51
222.003517975074
  0
ARC
  8
_0-0_
  6
CONTINUOUS
 62
    7
 10
148.5
 20
105
 40
41.9589
 50
227.996482024926
 51
231.003517975074
  0
ARC
  8
_0-0_
  6
CONTINUOUS
 62
    7
 10
148.5
 20
105
 40
41.9589
 50
236.996482024926
 51
240.003517975074
  0
ARC
  8
_0-0_
  6
CONTINUOUS
 62
    7
 10
148.5
 20
105
 40
41.9589
 50
245.996482024926
 51
249.003517975074
  0
ARC
  8
_0-0_
  6
CONTINUOUS
 62
    7
 10
148.5
 20
105
 40
41.9589
 50
254.996482024926
 51
258.003517975074
  0
ARC
  8
_0-0_
  6
CONTINUOUS
 62
    7
 10
148.5
 20
105
 40
41.9589
 50
263.996482024926
 51
267.003517975074
  0
ARC
  8
_0-0_
  6
CONTINUOUS
 62
    7
 10
148.5
 20
105
 40
41.9589
 50
272.996482024926
 51
276.003517975074
  0
ARC
  8
_0-0_
  6
CONTINUOUS
 62
    7
 10
148.5
 20
105
 40
41.9589
 50
281.996482024926
 51
285.003517975074
  0
ARC
  8
_0-0_
  6
CONTINUOUS
 62
    7
 10
148.5
 20
105
 40
41.9589
 50
290.996482024926
 51
294.003517975074
  0
ARC
  8
_0-0_
  6
CONTINUOUS
 62
    7
 10
148.5
 20
105
 40
41.9589
 50
299.996482024926
 51
303.003517975074
  0
ARC
  8
_0-0_
  6
CONTINUOUS
 62
    7
 10
148.5
 20
105
 40
41.9589
 50
308.996482024926
 51
312.003517975074
  0
ARC
  8
_0-0_
  6
CONTINUOUS
 62
    7
 10
148.5
 20
105
 40
41.9589
 50
317.996482024926
 51
321.003517975074
  0
ARC
  8
_0-0_
  6
CONTINUOUS
 62
    7
 10
148.5
 20
105
 40
41.9589
 50
326.996482024926
 51
330.003517975074
  0
ARC
  8
_0-0_
  6
CONTINUOUS
 62
    7
 10
148.5
 20
105
 40
41.9589
 50
335.996482024926
 51
339.003517975074
  0
ARC
  8
_0-0_
  6
CONTINUOUS
 62
    7
 10
148.5
 20
105
 40
41.9589
 50
344.996482024926
 51
348.003517975074
  0
ARC
  8
_0-0_
  6
CONTINUOUS
 62
    7
 10
148.5
 20
105
 40
41.9589
 50
353.996482024926
 51
357.003517975074
  0
ARC
  8
_0-0_
  6
CONTINUOUS
 62
    7
 10
148.5
 20
105
 40
41.9589
 50
362.996482024926
 51
366.003517975074
  0
ARC
  8
_0-0_
  6
CONTINUOUS
 62
    7
 10
148.5
 20
105
 40
41.9589
 50
371.996482024926
 51
375.003517975074
  0
ARC
  8
_0-0_
  6
CONTINUOUS
 62
    7
 10
148.5
 20
105
 40
41.9589
 50
380.996482024926
 51
384.003517975074
  0
ARC
  8
_0-0_
  6
CONTINUOUS
 62
    7
 10
148.5
 20
105
 40
41.9589
 50
389.996482024926
 51
393.003517975074
  0
ARC
  8
_0-0_
  6
CONTINUOUS
 62
    7
 10
148.5
 20
105
 40
41.9589
 50
398.996482024926
 51
402.003517975074
  0
ARC
  8
_0-0_
  6
CONTINUOUS
 62
    7
 10
148.5
 20
105
 40
41.9589
 50
407.996482024926
 51
411.003517975074
  0
ARC
  8
_0-0_
  6
CONTINUOUS
 62
    7
 10
148.5
 20
105
 40
41.9589
 50
416.996482024926
 51
420.003517975074
  0
ARC
  8
_0-0_
  6
CONTINUOUS
 62
    7
 10
148.5
 20
105
 40
41.9589
 50
425.996482024926
 51
429.003517975074
  0
ARC
  8
_0-0_
  6
CONTINUOUS
 62
    7
 10
148.5
 20
105
 40
41.9589
 50
434.996482024926
 51
438.003517975074
  0
ARC
  8
_0-0_
  6
CONTINUOUS
 62
    7
 10
148.5
 20
105
 40
41.9589
 50
443.996482024926
 51
447.003517975074
  0
LINE
  8
_0-0_
  6
CENTER2
 62
    7
 10
104.5411
 20
105
 11
192.4589
 21
105
  0
LINE
  8
_0-0_
  6
CENTER2
 62
    7
 10
148.5
 20
61.0411
 11
148.5
 21
148.9589
  0
LINE
  8
_0-0_
  6
CONTINUOUS
 62
    7
 10
210.4589
 20
146.9589
 11
280.4589
 21
146.9589
  0
LINE
  8
_0-0_
  6
CONTINUOUS
 62
    7
 10
210.4589
 20
138.9589
 11
280.4589
 21
138.9589
  0
LINE
  8
_0-0_
  6
CONTINUOUS
 62
    7
 10
210.4589
 20
130.9589
 11
280.4589
 21
130.9589
  0
LINE
  8
_0-0_
  6
CONTINUOUS
 62
    7
 10
210.4589
 20
122.9589
 11
280.4589
 21
122.9589
  0
LINE
  8
_0-0_
  6
CONTINUOUS
 62
    7
 10
210.4589
 20
114.9589
 11
280.4589
 21
114.9589
  0
LINE
  8
_0-0_
  6
CONTINUOUS
 62
    7
 10
210.4589
 20
106.9589
 11
280.4589
 21
106.9589
  0
LINE
  8
_0-0_
  6
CONTINUOUS
 62
    7
 10
210.4589
 20
98.9589
 11
280.4589
 21
98.9589
  0
LINE
  8
_0-0_
  6
CONTINUOUS
 62
    7
 10
210.4589
 20
90.9589
 11
280.4589
 21
90.9589
  0
LINE
  8
_0-0_
  6
CONTINUOUS
 62
    7
 10
210.4589
 20
82.9589
 11
280.4589
 21
82.9589
  0
LINE
  8
_0-0_
  6
CONTINUOUS
 62
    7
 10
210.4589
 20
74.9589
 11
280.4589
 21
74.9589
  0
LINE
  8
_0-0_
  6
CONTINUOUS
 62
    7
 10
210.4589
 20
66.9589
 11
280.4589
 21
66.9589
  0
LINE
  8
_0-0_
  6
CONTINUOUS
 62
    7
 10
210.4589
 20
58.9589
 11
280.4589
 21
58.9589
  0
LINE
  8
_0-0_
  6
CONTINUOUS
 62
    7
 10
210.4589
 20
50.9589
 11
280.4589
 21
50.9589
  0
LINE
  8
_0-0_
  6
CONTINUOUS
 62
    7
 10
210.4589
 20
146.9589
 11
210.4589
 21
50.9589
  0
LINE
  8
_0-0_
  6
CONTINUOUS
 62
    7
 10
280.4589
 20
146.9589
 11
280.4589
 21
50.9589
  0
LINE
  8
_0-0_
  6
CONTINUOUS
 62
    7
 10
245.4589
 20
138.9589
 11
245.4589
 21
50.9589
  0
TEXT
  8
_0-0_
 62
    7
 10
216.4589
 20
140.9589
 40
4
 41
1
 50
0
  1
インボリュートスプライン
  0
TEXT
  8
_0-0_
 62
    7
 10
218.9589
 20
132.9589
 40
4
 41
1
 50
0
  1
諸    元
  0
TEXT
  8
_0-0_
 62
    7
 10
218.9589
 20
124.9589
 40
4
 41
1
 50
0
  1
歯　　数
  0
TEXT
  8
_0-0_
 62
    7
 10
216.4589
 20
116.9589
 40
4
 41
1
 50
0
  1
モジュール
  0
TEXT
  8
_0-0_
 62
    7
 10
218.9589
 20
108.9589
 40
4
 41
1
 50
0
  1
圧 力 角
  0
TEXT
  8
_0-0_
 62
    7
 10
213.9589
 20
100.9589
 40
4
 41
1
 50
0
  1
ピッチ円直径
  0
TEXT
  8
_0-0_
 62
    7
 10
216.4589
 20
92.9589
 40
4
 41
1
 50
0
  1
基礎円直径
  0
TEXT
  8
_0-0_
 62
    7
 10
216.4589
 20
84.9589
 40
4
 41
1
 50
0
  1
歯先円直径
  0
TEXT
  8
_0-0_
 62
    7
 10
216.4589
 20
76.9589
 40
4
 41
1
 50
0
  1
歯底円直径
  0
TEXT
  8
_0-0_
 62
    7
 10
218.9589
 20
68.9589
 40
4
 41
1
 50
0
  1
円弧歯厚
  0
TEXT
  8
_0-0_
 62
    7
 10
218.9589
 20
60.9589
 40
4
 41
1
 50
0
  1
Ｏ.Ｂ.Ｄ
  0
TEXT
  8
_0-0_
 62
    7
 10
216.4589
 20
52.9589
 40
4
 41
1
 50
0
  1
使用ピン径
  0
TEXT
  8
_0-0_
 62
    7
 10
246.4589
 20
132.9589
 40
4
 41
1
 50
0
  1
エキスターナル
  0
TEXT
  8
_0-0_
 62
    7
 10
261.4589
 20
124.9589
 40
4
 41
1
 50
0
  1
40
  0
TEXT
  8
_0-0_
 62
    7
 10
262.7089
 20
116.9589
 40
4
 41
1
 50
0
  1
2
  0
TEXT
  8
_0-0_
 62
    7
 10
258.9589
 20
108.9589
 40
4
 41
1
 50
0
  1
20°
  0
TEXT
  8
_0-0_
 62
    7
 10
261.4589
 20
100.9589
 40
4
 41
1
 50
0
  1
80
  0
TEXT
  8
_0-0_
 62
    7
 10
255.2089
 20
92.9589
 40
4
 41
1
 50
0
  1
75.1754
  0
TEXT
  8
_0-0_
 62
    7
 10
255.2089
 20
84.9589
 40
4
 41
1
 50
0
  1
83.9178
  0
TEXT
  8
_0-0_
 62
    7
 10
257.7089
 20
76.9589
 40
4
 41
1
 50
0
  1
76.68
  0
TEXT
  8
_0-0_
 62
    7
 10
256.4589
 20
68.9589
 40
4
 41
1
 50
0
  1
3.7531
  0
TEXT
  8
_0-0_
 62
    7
 10
263.9589
 20
60.9589
 40
4
 41
1
 50
0
  1

  0
TEXT
  8
_0-0_
 62
    7
 10
263.9589
 20
52.9589
 40
4
 41
1
 50
0
  1

  0
TEXT
  8
_0-0_
 62
    7
 10
149.5
 20
162.4589
 40
4
 41
1
 50
0
  1
面積 : 
  0
TEXT
  8
_0-0_
 62
    7
 10
149.5
 20
156.4589
 40
4
 41
1
 50
0
  1
周長 : 
  0
TEXT
  8
_0-0_
 62
    7
 10
167.8125
 20
162.4589
 40
4
 41
1
 50
0
  1
51.3363 cm2
  0
TEXT
  8
_0-0_
 62
    7
 10
168.875
 20
156.4589
 40
4
 41
1
 50
0
  1
45.6734 cm
  0
ENDSEC
  0
EOF
