  0
SECTION
  2
HEADER
  9
$ACADVER
  1
AC1009
  9
$INSBASE
 10
0
 20
0
 30
0
  9
$EXTMIN
 10
0
 20
0
  9
$EXTMAX
 10
297
 20
210
  9
$LIMMIN
 10
0
 20
0
  9
$LIMMAX
 10
297
 20
210
  9
$LTSCALE
 40
1
  0
ENDSEC
  0
SECTION
  2
TABLES
  0
TABLE
  2
LTYPE
 70
     9
  0
LTYPE
  2
CONTINUOUS
 70
    64
  3
é¿ê¸
 72
    65
 73
     0
 40
0.0
  0
LTYPE
  2
DASHED1
 70
    64
  3
--  --  --  --  --  --  --  --  
 72
    65
 73
     2
 40
2.5
 49
1.25
 49
-1.25
  0
LTYPE
  2
DASHED2
 70
    64
  3
----    ----    ----    ----    
 72
    65
 73
     2
 40
5.0
 49
2.5
 49
-2.5
  0
LTYPE
  2
DASHED3
 70
    64
  3
------  ------  ------  ------  
 72
    65
 73
     2
 40
5.0
 49
3.75
 49
-1.25
  0
LTYPE
  2
CENTER1
 70
    64
  3
----- - ----- - ----- - ----- - 
 72
    65
 73
     4
 40
10.0
 49
6.25
 49
-1.25
 49
1.25
 49
-1.25
  0
LTYPE
  2
CENTER2
 70
    64
  3
----------  --  ----------  --  
 72
    65
 73
     4
 40
20.0
 49
12.5
 49
-2.5
 49
2.5
 49
-2.5
  0
LTYPE
  2
PHANTOM1
 70
    64
  3
--- - - --- - - --- - - --- - - 
 72
    65
 73
     6
 40
10.0
 49
3.25
 49
-1.25
 49
1.25
 49
-1.25
 49
1.25
 49
-1.25
  0
LTYPE
  2
PHANTOM2
 70
    64
  3
--------  -  -  --------  -  -  
 72
    65
 73
     6
 40
20.0
 49
10.0
 49
-2.5
 49
1.25
 49
-2.5
 49
1.25
 49
-2.5
  0
LTYPE
  2
DOT
 70
    64
  3
-   -   -   -   -   -   -   -   
 72
    65
 73
     2
 40
2.5
 49
0.625
 49
-1.875
  0
LTYPE
  2
DUMMY
 70
    64
  3
É_É~Å[
 72
    65
 73
     0
 40
0.0
  0
LTYPE
  2
RAND1
 70
    64
  3
----- - ----- - ----- - ----- - 
 72
    65
 73
     4
 40
10.0
 49
6.25
 49
-1.25
 49
1.25
 49
-1.25
  0
LTYPE
  2
RAND2
 70
    64
  3
----------  --  ----------  --  
 72
    65
 73
     4
 40
20.0
 49
12.5
 49
-2.5
 49
2.5
 49
-2.5
  0
LTYPE
  2
RAND3
 70
    64
  3
--- - - --- - - --- - - --- - - 
 72
    65
 73
     6
 40
10.0
 49
3.25
 49
-1.25
 49
1.25
 49
-1.25
 49
1.25
 49
-1.25
  0
LTYPE
  2
RAND4
 70
    64
  3
--------  -  -  --------  -  -  
 72
    65
 73
     6
 40
20.0
 49
10.0
 49
-2.5
 49
1.25
 49
-2.5
 49
1.25
 49
-2.5
  0
LTYPE
  2
RAND5
 70
    64
  3
----- - ----- - ----- - ----- - 
 72
    65
 73
     4
 40
10.0
 49
6.25
 49
-1.25
 49
1.25
 49
-1.25
  0
LTYPE
  2
LONG1
 70
    64
  3
----------  --  ----------  --  
 72
    65
 73
     4
 40
20.0
 49
12.5
 49
-2.5
 49
2.5
 49
-2.5
  0
LTYPE
  2
LONG2
 70
    64
  3
--- - - --- - - --- - - --- - - 
 72
    65
 73
     6
 40
10.0
 49
3.25
 49
-1.25
 49
1.25
 49
-1.25
 49
1.25
 49
-1.25
  0
LTYPE
  2
LONG3
 70
    64
  3
--------  -  -  --------  -  -  
 72
    65
 73
     6
 40
20.0
 49
10.0
 49
-2.5
 49
1.25
 49
-2.5
 49
1.25
 49
-2.5
  0
LTYPE
  2
LONG4
 70
    64
  3
----- - ----- - ----- - ----- - 
 72
    65
 73
     4
 40
10.0
 49
6.25
 49
-1.25
 49
1.25
 49
-1.25
  0
LTYPE
  2
LONG5
 70
    64
  3
----------  --  ----------  --  
 72
    65
 73
     4
 40
20.0
 49
12.5
 49
-2.5
 49
2.5
 49
-2.5
  0
ENDTAB
  0
TABLE
  2
STYLE
  5
3
100
AcDbSymbolTable
 70
     1
  0
STYLE
  5
10
100
AcDbSymbolTableRecord
100
AcDbTextStyleTableRecord
  2
STANDARD
 70
     0
 40
0.0
 41
1.0
 50
0.0
 71
     0
 42
0.2
  3
txt
  4
bigfont.shx
  0
ENDTAB
  0
TABLE
  2
LAYER
 70
    2
  0
LAYER
  2
_0-0_
 70
   64
 62
    7
  6
CONTINUOUS
  0
LAYER
  2
ADD_LINE
 70
   64
 62
    7
  6
CONTINUOUS
  0
ENDTAB
  0
ENDSEC
  0
SECTION
  2
BLOCKS
  0
ENDSEC
  0
SECTION
  2
ENTITIES
  0
ARC
  8
_0-0_
  6
CONTINUOUS
 62
    4
 10
153.789205026819
 20
123.037104085622
 40
5.2719245253847
 50
161.905235515043
 51
165.309267032707
  0
ARC
  8
_0-0_
  6
CONTINUOUS
 62
    2
 10
154.869012997701
 20
122.684906034311
 40
6.40771870911172
 50
158.387125661983
 51
161.910576481787
  0
ARC
  8
_0-0_
  6
CONTINUOUS
 62
    4
 10
155.965849820152
 20
122.250822227079
 40
7.5873286470676
 50
154.71889524646
 51
158.390423448466
  0
ARC
  8
_0-0_
  6
CONTINUOUS
 62
    4
 10
152.357725296797
 20
123.396487956828
 40
5.2719245253847
 50
166.405235515043
 51
169.809267032707
  0
ARC
  8
_0-0_
  6
CONTINUOUS
 62
    2
 10
153.461837720696
 20
123.130096371525
 40
6.40771870911172
 50
162.887125661983
 51
166.410576481787
  0
ARC
  8
_0-0_
  6
CONTINUOUS
 62
    4
 10
154.58935118426
 20
122.783407525053
 40
7.5873286470676
 50
159.21889524646
 51
162.890423448466
  0
ARC
  8
_0-0_
  6
CONTINUOUS
 62
    4
 10
150.902461407497
 20
123.642451362328
 40
5.2719245253847
 50
170.905235515043
 51
174.309267032707
  0
ARC
  8
_0-0_
  6
CONTINUOUS
 62
    2
 10
152.024071064164
 20
123.463508635739
 40
6.40771870911172
 50
167.387125661983
 51
170.910576481787
  0
ARC
  8
_0-0_
  6
CONTINUOUS
 62
    4
 10
153.175309673402
 20
123.206352202052
 40
7.5873286470676
 50
163.71889524646
 51
167.390423448466
  0
ARC
  8
_0-0_
  6
CONTINUOUS
 62
    4
 10
149.43238554472
 20
123.773477855935
 40
5.2719245253847
 50
175.405235515043
 51
178.809267032707
  0
ARC
  8
_0-0_
  6
CONTINUOUS
 62
    2
 10
150.564577337649
 20
123.683087229475
 40
6.40771870911172
 50
171.887125661983
 51
175.410576481787
  0
ARC
  8
_0-0_
  6
CONTINUOUS
 62
    4
 10
151.732443323709
 20
123.517048663498
 40
7.5873286470676
 50
168.21889524646
 51
171.890423448466
  0
ARC
  8
_0-0_
  6
CONTINUOUS
 62
    4
 10
147.95656121501
 20
123.788759615745
 40
5.2719245253847
 50
179.905235515043
 51
183.309267032707
  0
ARC
  8
_0-0_
  6
CONTINUOUS
 62
    2
 10
149.092354805306
 20
123.787478377684
 40
6.40771870911172
 50
176.387125661983
 51
179.910576481787
  0
ARC
  8
_0-0_
  6
CONTINUOUS
 62
    4
 10
150.269647886028
 20
123.713581362391
 40
7.5873286470676
 50
172.71889524646
 51
176.390423448466
  0
ARC
  8
_0-0_
  6
CONTINUOUS
 62
    4
 10
146.484087366122
 20
123.688202424627
 40
5.2719245253847
 50
184.405235515043
 51
187.809267032707
  0
ARC
  8
_0-0_
  6
CONTINUOUS
 62
    2
 10
147.61648020861
 20
123.776038474224
 40
6.40771870911172
 50
180.887125661983
 51
184.410576481787
  0
ARC
  8
_0-0_
  6
CONTINUOUS
 62
    4
 10
148.795941980663
 20
123.794738609287
 40
7.5873286470676
 50
177.21889524646
 51
180.890423448466
  0
ARC
  8
_0-0_
  6
CONTINUOUS
 62
    4
 10
145.02404228898
 20
123.472426251104
 40
5.2719245253847
 50
188.905235515043
 51
192.309267032707
  0
ARC
  8
_0-0_
  6
CONTINUOUS
 62
    2
 10
146.146052805228
 20
123.648838049903
 40
6.40771870911172
 50
185.387125661983
 51
188.910576481787
  0
ARC
  8
_0-0_
  6
CONTINUOUS
 62
    4
 10
147.320411494577
 20
123.760020042773
 40
7.5873286470676
 50
181.71889524646
 51
185.390423448466
  0
ARC
  8
_0-0_
  6
CONTINUOUS
 62
    4
 10
143.585427647
 20
123.142761427037
 40
5.2719245253847
 50
193.405235515043
 51
196.809267032707
  0
ARC
  8
_0-0_
  6
CONTINUOUS
 62
    2
 10
144.690138269069
 20
123.406661337638
 40
6.40771870911172
 50
189.887125661983
 51
193.410576481787
  0
ARC
  8
_0-0_
  6
CONTINUOUS
 62
    4
 10
145.852153563879
 20
123.609639714354
 40
7.5873286470676
 50
186.21889524646
 51
189.890423448466
  0
ARC
  8
_0-0_
  6
CONTINUOUS
 62
    4
 10
142.177112977837
 20
122.701240445693
 40
5.2719245253847
 50
197.905235515043
 51
201.309267032707
  0
ARC
  8
_0-0_
  6
CONTINUOUS
 62
    2
 10
143.257712797389
 20
123.05100143739
 40
6.40771870911172
 50
194.387125661983
 51
197.910576481787
  0
ARC
  8
_0-0_
  6
CONTINUOUS
 62
    4
 10
144.400220486958
 20
123.344524768764
 40
7.5873286470676
 50
190.71889524646
 51
194.390423448466
  0
ARC
  8
_0-0_
  6
CONTINUOUS
 62
    4
 10
140.807781009739
 20
122.150585430741
 40
5.2719245253847
 50
202.405235515043
 51
205.809267032707
  0
ARC
  8
_0-0_
  6
CONTINUOUS
 62
    2
 10
141.85760776955
 20
122.584051110713
 40
6.40771870911172
 50
198.887125661983
 51
202.410576481787
  0
ARC
  8
_0-0_
  6
CONTINUOUS
 62
    4
 10
142.97356391405
 20
122.966309727801
 40
7.5873286470676
 50
195.21889524646
 51
198.890423448466
  0
ARC
  8
_0-0_
  6
CONTINUOUS
 62
    4
 10
139.485874129639
 20
121.49419135346
 40
5.2719245253847
 50
206.905235515043
 51
210.309267032707
  0
ARC
  8
_0-0_
  6
CONTINUOUS
 62
    2
 10
140.498455298631
 20
122.008689261648
 40
6.40771870911172
 50
203.387125661983
 51
206.910576481787
  0
ARC
  8
_0-0_
  6
CONTINUOUS
 62
    4
 10
141.580979657339
 20
122.477326412961
 40
7.5873286470676
 50
199.71889524646
 51
203.390423448466
  0
ARC
  8
_0-0_
  6
CONTINUOUS
 62
    4
 10
138.21954233303
 20
120.73610510161
 40
5.2719245253847
 50
211.405235515043
 51
214.809267032707
  0
ARC
  8
_0-0_
  6
CONTINUOUS
 62
    2
 10
139.18863501158
 20
121.328463187322
 40
6.40771870911172
 50
207.887125661983
 51
211.410576481787
  0
ARC
  8
_0-0_
  6
CONTINUOUS
 62
    4
 10
140.231053461848
 20
121.880589568985
 40
7.5873286470676
 50
204.21889524646
 51
207.890423448466
  0
ARC
  8
_0-0_
  6
CONTINUOUS
 62
    4
 10
137.016592976538
 20
119.881000529022
 40
5.2719245253847
 50
215.905235515043
 51
219.309267032707
  0
ARC
  8
_0-0_
  6
CONTINUOUS
 62
    2
 10
137.936222386026
 20
120.547566707681
 40
6.40771870911172
 50
212.387125661983
 51
215.910576481787
  0
ARC
  8
_0-0_
  6
CONTINUOUS
 62
    4
 10
138.932108071468
 20
121.179778276951
 40
7.5873286470676
 50
208.71889524646
 51
212.390423448466
  0
ARC
  8
_0-0_
  6
CONTINUOUS
 62
    4
 10
135.884442642965
 20
118.934149639739
 40
5.2719245253847
 50
220.405235515043
 51
223.809267032707
  0
ARC
  8
_0-0_
  6
CONTINUOUS
 62
    2
 10
136.748938962274
 20
119.670814309197
 40
6.40771870911172
 50
216.887125661983
 51
220.410576481787
  0
ARC
  8
_0-0_
  6
CONTINUOUS
 62
    4
 10
137.692151916474
 20
120.379213271517
 40
7.5873286470676
 50
213.21889524646
 51
216.890423448466
  0
ARC
  8
_0-0_
  6
CONTINUOUS
 62
    4
 10
134.830071415597
 20
117.901390084351
 40
5.2719245253847
 50
224.905235515043
 51
228.309267032707
  0
ARC
  8
_0-0_
  6
CONTINUOUS
 62
    2
 10
135.634104737445
 20
118.703611461956
 40
6.40771870911172
 50
221.387125661983
 51
224.910576481787
  0
ARC
  8
_0-0_
  6
CONTINUOUS
 62
    4
 10
136.51882973889
 20
119.483830302156
 40
7.5873286470676
 50
217.71889524646
 51
221.390423448466
  0
ARC
  8
_0-0_
  6
CONTINUOUS
 62
    4
 10
133.859979843664
 20
116.789089168946
 40
5.2719245253847
 50
229.405235515043
 51
232.809267032707
  0
ARC
  8
_0-0_
  6
CONTINUOUS
 62
    2
 10
134.598593035253
 20
117.651921293139
 40
6.40771870911172
 50
225.887125661983
 51
229.410576481787
  0
ARC
  8
_0-0_
  6
CONTINUOUS
 62
    4
 10
135.419375460109
 20
118.49914970262
 40
7.5873286470676
 50
222.21889524646
 51
225.890423448466
  0
ARC
  8
_0-0_
  6
CONTINUOUS
 62
    4
 10
132.980148864296
 20
115.604104598544
 40
5.2719245253847
 50
233.905235515043
 51
237.309267032707
  0
ARC
  8
_0-0_
  6
CONTINUOUS
 62
    2
 10
133.648788129685
 20
116.522227822358
 40
6.40771870911172
 50
230.387125661983
 51
233.910576481787
  0
ARC
  8
_0-0_
  6
CONTINUOUS
 62
    4
 10
134.400567581365
 20
117.431242356245
 40
7.5873286470676
 50
226.71889524646
 51
230.390423448466
  0
ARC
  8
_0-0_
  6
CONTINUOUS
 62
    4
 10
132.196002928054
 20
114.353742197069
 40
5.2719245253847
 50
238.405235515043
 51
241.809267032707
  0
ARC
  8
_0-0_
  6
CONTINUOUS
 62
    2
 10
132.790545883828
 20
115.321495985524
 40
6.40771870911172
 50
234.887125661983
 51
238.410576481787
  0
ARC
  8
_0-0_
  6
CONTINUOUS
 62
    4
 10
133.46868739202
 20
116.286692266937
 40
7.5873286470676
 50
231.21889524646
 51
234.890423448466
  0
ARC
  8
_0-0_
  6
CONTINUOUS
 62
    4
 10
131.512376555389
 20
113.045710864515
 40
5.2719245253847
 50
242.905235515043
 51
246.309267032707
  0
ARC
  8
_0-0_
  6
CONTINUOUS
 62
    2
 10
132.02915764652
 20
114.057128693692
 40
6.40771870911172
 50
239.387125661983
 51
242.910576481787
  0
ARC
  8
_0-0_
  6
CONTINUOUS
 62
    4
 10
132.629480243321
 20
115.072555966596
 40
7.5873286470676
 50
235.71889524646
 51
239.390423448466
  0
ARC
  8
_0-0_
  6
CONTINUOUS
 62
    4
 10
130.933484530219
 20
111.688075049011
 40
5.2719245253847
 50
247.405235515043
 51
250.809267032707
  0
ARC
  8
_0-0_
  6
CONTINUOUS
 62
    2
 10
131.369317629432
 20
112.736921191664
 40
6.40771870911172
 50
243.887125661983
 51
247.410576481787
  0
ARC
  8
_0-0_
  6
CONTINUOUS
 62
    4
 10
131.888120126405
 20
113.796319009257
 40
7.5873286470676
 50
240.21889524646
 51
243.890423448466
  0
ARC
  8
_0-0_
  6
CONTINUOUS
 62
    4
 10
130.462895914378
 20
110.289205026819
 40
5.2719245253847
 50
251.905235515043
 51
255.309267032707
  0
ARC
  8
_0-0_
  6
CONTINUOUS
 62
    2
 10
130.815093965689
 20
111.369012997701
 40
6.40771870911172
 50
248.387125661983
 51
251.910576481787
  0
ARC
  8
_0-0_
  6
CONTINUOUS
 62
    4
 10
131.249177772921
 20
112.465849820152
 40
7.5873286470676
 50
244.71889524646
 51
248.390423448466
  0
ARC
  8
_0-0_
  6
CONTINUOUS
 62
    4
 10
130.103512043172
 20
108.857725296797
 40
5.2719245253847
 50
256.405235515043
 51
259.809267032707
  0
ARC
  8
_0-0_
  6
CONTINUOUS
 62
    2
 10
130.369903628475
 20
109.961837720696
 40
6.40771870911172
 50
252.887125661983
 51
256.410576481787
  0
ARC
  8
_0-0_
  6
CONTINUOUS
 62
    4
 10
130.716592474947
 20
111.08935118426
 40
7.5873286470676
 50
249.21889524646
 51
252.890423448466
  0
ARC
  8
_0-0_
  6
CONTINUOUS
 62
    4
 10
129.857548637672
 20
107.402461407497
 40
5.2719245253847
 50
260.905235515043
 51
264.309267032707
  0
ARC
  8
_0-0_
  6
CONTINUOUS
 62
    2
 10
130.036491364261
 20
108.524071064164
 40
6.40771870911172
 50
257.387125661983
 51
260.910576481787
  0
ARC
  8
_0-0_
  6
CONTINUOUS
 62
    4
 10
130.293647797948
 20
109.675309673402
 40
7.5873286470676
 50
253.71889524646
 51
257.390423448466
  0
ARC
  8
_0-0_
  6
CONTINUOUS
 62
    4
 10
129.726522144065
 20
105.93238554472
 40
5.2719245253847
 50
265.405235515043
 51
268.809267032707
  0
ARC
  8
_0-0_
  6
CONTINUOUS
 62
    2
 10
129.816912770525
 20
107.064577337649
 40
6.40771870911172
 50
261.887125661983
 51
265.410576481787
  0
ARC
  8
_0-0_
  6
CONTINUOUS
 62
    4
 10
129.982951336502
 20
108.232443323708
 40
7.5873286470676
 50
258.21889524646
 51
261.890423448466
  0
ARC
  8
_0-0_
  6
CONTINUOUS
 62
    4
 10
129.711240384255
 20
104.45656121501
 40
5.2719245253847
 50
269.905235515043
 51
273.309267032707
  0
ARC
  8
_0-0_
  6
CONTINUOUS
 62
    2
 10
129.712521622316
 20
105.592354805306
 40
6.40771870911172
 50
266.387125661983
 51
269.910576481787
  0
ARC
  8
_0-0_
  6
CONTINUOUS
 62
    4
 10
129.786418637609
 20
106.769647886028
 40
7.5873286470676
 50
262.71889524646
 51
266.390423448466
  0
ARC
  8
_0-0_
  6
CONTINUOUS
 62
    4
 10
129.811797575373
 20
102.984087366122
 40
5.2719245253847
 50
274.405235515043
 51
277.809267032707
  0
ARC
  8
_0-0_
  6
CONTINUOUS
 62
    2
 10
129.723961525776
 20
104.11648020861
 40
6.40771870911172
 50
270.887125661983
 51
274.410576481787
  0
ARC
  8
_0-0_
  6
CONTINUOUS
 62
    4
 10
129.705261390713
 20
105.295941980663
 40
7.5873286470676
 50
267.21889524646
 51
270.890423448466
  0
ARC
  8
_0-0_
  6
CONTINUOUS
 62
    4
 10
130.027573748896
 20
101.52404228898
 40
5.2719245253847
 50
278.905235515043
 51
282.309267032707
  0
ARC
  8
_0-0_
  6
CONTINUOUS
 62
    2
 10
129.851161950097
 20
102.646052805228
 40
6.40771870911172
 50
275.387125661983
 51
278.910576481787
  0
ARC
  8
_0-0_
  6
CONTINUOUS
 62
    4
 10
129.739979957227
 20
103.820411494577
 40
7.5873286470676
 50
271.71889524646
 51
275.390423448466
  0
ARC
  8
_0-0_
  6
CONTINUOUS
 62
    4
 10
130.357238572963
 20
100.085427647
 40
5.2719245253847
 50
283.405235515043
 51
286.809267032707
  0
ARC
  8
_0-0_
  6
CONTINUOUS
 62
    2
 10
130.093338662362
 20
101.190138269069
 40
6.40771870911172
 50
279.887125661983
 51
283.410576481787
  0
ARC
  8
_0-0_
  6
CONTINUOUS
 62
    4
 10
129.890360285646
 20
102.352153563879
 40
7.5873286470676
 50
276.21889524646
 51
279.890423448466
  0
ARC
  8
_0-0_
  6
CONTINUOUS
 62
    4
 10
130.798759554307
 20
98.6771129778371
 40
5.2719245253847
 50
287.905235515043
 51
291.309267032707
  0
ARC
  8
_0-0_
  6
CONTINUOUS
 62
    2
 10
130.44899856261
 20
99.7577127973889
 40
6.40771870911172
 50
284.387125661983
 51
287.910576481787
  0
ARC
  8
_0-0_
  6
CONTINUOUS
 62
    4
 10
130.155475231236
 20
100.900220486958
 40
7.5873286470676
 50
280.71889524646
 51
284.390423448466
  0
ARC
  8
_0-0_
  6
CONTINUOUS
 62
    4
 10
131.349414569259
 20
97.3077810097393
 40
5.2719245253847
 50
292.405235515043
 51
295.809267032707
  0
ARC
  8
_0-0_
  6
CONTINUOUS
 62
    2
 10
130.915948889287
 20
98.35760776955
 40
6.40771870911172
 50
288.887125661983
 51
292.410576481787
  0
ARC
  8
_0-0_
  6
CONTINUOUS
 62
    4
 10
130.533690272199
 20
99.4735639140502
 40
7.5873286470676
 50
285.21889524646
 51
288.890423448466
  0
ARC
  8
_0-0_
  6
CONTINUOUS
 62
    4
 10
132.00580864654
 20
95.9858741296389
 40
5.2719245253847
 50
296.905235515043
 51
300.309267032707
  0
ARC
  8
_0-0_
  6
CONTINUOUS
 62
    2
 10
131.491310738352
 20
96.9984552986314
 40
6.40771870911172
 50
293.387125661983
 51
296.910576481787
  0
ARC
  8
_0-0_
  6
CONTINUOUS
 62
    4
 10
131.022673587039
 20
98.0809796573388
 40
7.5873286470676
 50
289.71889524646
 51
293.390423448466
  0
ARC
  8
_0-0_
  6
CONTINUOUS
 62
    4
 10
132.76389489839
 20
94.7195423330302
 40
5.2719245253847
 50
301.405235515043
 51
304.809267032707
  0
ARC
  8
_0-0_
  6
CONTINUOUS
 62
    2
 10
132.171536812678
 20
95.6886350115804
 40
6.40771870911172
 50
297.887125661983
 51
301.410576481787
  0
ARC
  8
_0-0_
  6
CONTINUOUS
 62
    4
 10
131.619410431015
 20
96.7310534618476
 40
7.5873286470676
 50
294.21889524646
 51
297.890423448466
  0
ARC
  8
_0-0_
  6
CONTINUOUS
 62
    4
 10
133.618999470978
 20
93.5165929765376
 40
5.2719245253847
 50
305.905235515043
 51
309.309267032707
  0
ARC
  8
_0-0_
  6
CONTINUOUS
 62
    2
 10
132.952433292319
 20
94.436222386026
 40
6.40771870911172
 50
302.387125661983
 51
305.910576481787
  0
ARC
  8
_0-0_
  6
CONTINUOUS
 62
    4
 10
132.320221723049
 20
95.4321080714678
 40
7.5873286470676
 50
298.71889524646
 51
302.390423448466
  0
ARC
  8
_0-0_
  6
CONTINUOUS
 62
    4
 10
134.565850360261
 20
92.3844426429649
 40
5.2719245253847
 50
310.405235515043
 51
313.809267032707
  0
ARC
  8
_0-0_
  6
CONTINUOUS
 62
    2
 10
133.829185690803
 20
93.2489389622743
 40
6.40771870911172
 50
306.887125661983
 51
310.410576481787
  0
ARC
  8
_0-0_
  6
CONTINUOUS
 62
    4
 10
133.120786728483
 20
94.1921519164744
 40
7.5873286470676
 50
303.21889524646
 51
306.890423448466
  0
ARC
  8
_0-0_
  6
CONTINUOUS
 62
    4
 10
135.598609915649
 20
91.3300714155968
 40
5.2719245253847
 50
314.905235515043
 51
318.309267032707
  0
ARC
  8
_0-0_
  6
CONTINUOUS
 62
    2
 10
134.796388538044
 20
92.1341047374445
 40
6.40771870911172
 50
311.387125661983
 51
314.910576481787
  0
ARC
  8
_0-0_
  6
CONTINUOUS
 62
    4
 10
134.016169697844
 20
93.0188297388901
 40
7.5873286470676
 50
307.71889524646
 51
311.390423448466
  0
ARC
  8
_0-0_
  6
CONTINUOUS
 62
    4
 10
136.710910831054
 20
90.3599798436641
 40
5.2719245253847
 50
319.405235515043
 51
322.809267032707
  0
ARC
  8
_0-0_
  6
CONTINUOUS
 62
    2
 10
135.848078706861
 20
91.0985930352527
 40
6.40771870911172
 50
315.887125661983
 51
319.410576481787
  0
ARC
  8
_0-0_
  6
CONTINUOUS
 62
    4
 10
135.00085029738
 20
91.919375460109
 40
7.5873286470676
 50
312.21889524646
 51
315.890423448466
  0
ARC
  8
_0-0_
  6
CONTINUOUS
 62
    4
 10
137.895895401456
 20
89.480148864296
 40
5.2719245253847
 50
323.905235515043
 51
327.309267032707
  0
ARC
  8
_0-0_
  6
CONTINUOUS
 62
    2
 10
136.977772177642
 20
90.1487881296855
 40
6.40771870911172
 50
320.387125661983
 51
323.910576481787
  0
ARC
  8
_0-0_
  6
CONTINUOUS
 62
    4
 10
136.068757643755
 20
90.9005675813653
 40
7.5873286470676
 50
316.71889524646
 51
320.390423448466
  0
ARC
  8
_0-0_
  6
CONTINUOUS
 62
    4
 10
139.146257802931
 20
88.6960029280537
 40
5.2719245253847
 50
328.405235515043
 51
331.809267032707
  0
ARC
  8
_0-0_
  6
CONTINUOUS
 62
    2
 10
138.178504014476
 20
89.2905458838278
 40
6.40771870911172
 50
324.887125661983
 51
328.410576481787
  0
ARC
  8
_0-0_
  6
CONTINUOUS
 62
    4
 10
137.213307733063
 20
89.9686873920196
 40
7.5873286470676
 50
321.21889524646
 51
324.890423448466
  0
ARC
  8
_0-0_
  6
CONTINUOUS
 62
    4
 10
140.454289135485
 20
88.0123765553891
 40
5.2719245253847
 50
332.905235515043
 51
336.309267032707
  0
ARC
  8
_0-0_
  6
CONTINUOUS
 62
    2
 10
139.442871306308
 20
88.52915764652
 40
6.40771870911172
 50
329.387125661983
 51
332.910576481787
  0
ARC
  8
_0-0_
  6
CONTINUOUS
 62
    4
 10
138.427444033404
 20
89.1294802433207
 40
7.5873286470676
 50
325.71889524646
 51
329.390423448466
  0
ARC
  8
_0-0_
  6
CONTINUOUS
 62
    4
 10
141.811924950989
 20
87.4334845302185
 40
5.2719245253847
 50
337.405235515043
 51
340.809267032707
  0
ARC
  8
_0-0_
  6
CONTINUOUS
 62
    2
 10
140.763078808336
 20
87.8693176294322
 40
6.40771870911172
 50
333.887125661983
 51
337.410576481787
  0
ARC
  8
_0-0_
  6
CONTINUOUS
 62
    4
 10
139.703680990743
 20
88.3881201264051
 40
7.5873286470676
 50
330.21889524646
 51
333.890423448466
  0
ARC
  8
_0-0_
  6
CONTINUOUS
 62
    4
 10
143.210794973181
 20
86.9628959143784
 40
5.2719245253847
 50
341.905235515043
 51
345.309267032707
  0
ARC
  8
_0-0_
  6
CONTINUOUS
 62
    2
 10
142.130987002299
 20
87.3150939656889
 40
6.40771870911172
 50
338.387125661983
 51
341.910576481787
  0
ARC
  8
_0-0_
  6
CONTINUOUS
 62
    4
 10
141.034150179848
 20
87.7491777729208
 40
7.5873286470676
 50
334.71889524646
 51
338.390423448466
  0
ARC
  8
_0-0_
  6
CONTINUOUS
 62
    4
 10
144.642274703203
 20
86.6035120431718
 40
5.2719245253847
 50
346.405235515043
 51
349.809267032707
  0
ARC
  8
_0-0_
  6
CONTINUOUS
 62
    2
 10
143.538162279304
 20
86.8699036284751
 40
6.40771870911172
 50
342.887125661983
 51
346.410576481787
  0
ARC
  8
_0-0_
  6
CONTINUOUS
 62
    4
 10
142.41064881574
 20
87.216592474947
 40
7.5873286470676
 50
339.21889524646
 51
342.890423448466
  0
ARC
  8
_0-0_
  6
CONTINUOUS
 62
    4
 10
146.097538592503
 20
86.3575486376721
 40
5.2719245253847
 50
350.905235515043
 51
354.309267032707
  0
ARC
  8
_0-0_
  6
CONTINUOUS
 62
    2
 10
144.975928935836
 20
86.5364913642607
 40
6.40771870911172
 50
347.387125661983
 51
350.910576481787
  0
ARC
  8
_0-0_
  6
CONTINUOUS
 62
    4
 10
143.824690326598
 20
86.7936477979482
 40
7.5873286470676
 50
343.71889524646
 51
347.390423448466
  0
ARC
  8
_0-0_
  6
CONTINUOUS
 62
    4
 10
147.56761445528
 20
86.2265221440653
 40
5.2719245253847
 50
355.405235515043
 51
358.809267032707
  0
ARC
  8
_0-0_
  6
CONTINUOUS
 62
    2
 10
146.435422662351
 20
86.3169127705252
 40
6.40771870911172
 50
351.887125661983
 51
355.410576481787
  0
ARC
  8
_0-0_
  6
CONTINUOUS
 62
    4
 10
145.267556676292
 20
86.4829513365015
 40
7.5873286470676
 50
348.21889524646
 51
351.890423448466
  0
ARC
  8
_0-0_
  6
CONTINUOUS
 62
    4
 10
149.04343878499
 20
86.2112403842552
 40
5.2719245253847
 50
359.905235515043
 51
363.309267032707
  0
ARC
  8
_0-0_
  6
CONTINUOUS
 62
    2
 10
147.907645194694
 20
86.2125216223164
 40
6.40771870911172
 50
356.387125661983
 51
359.910576481787
  0
ARC
  8
_0-0_
  6
CONTINUOUS
 62
    4
 10
146.730352113972
 20
86.2864186376089
 40
7.5873286470676
 50
352.71889524646
 51
356.390423448466
  0
ARC
  8
_0-0_
  6
CONTINUOUS
 62
    4
 10
150.515912633878
 20
86.3117975753728
 40
5.2719245253847
 50
364.405235515043
 51
367.809267032707
  0
ARC
  8
_0-0_
  6
CONTINUOUS
 62
    2
 10
149.38351979139
 20
86.2239615257765
 40
6.40771870911172
 50
360.887125661983
 51
364.410576481787
  0
ARC
  8
_0-0_
  6
CONTINUOUS
 62
    4
 10
148.204058019337
 20
86.2052613907126
 40
7.5873286470676
 50
357.21889524646
 51
360.890423448466
  0
ARC
  8
_0-0_
  6
CONTINUOUS
 62
    4
 10
151.97595771102
 20
86.5275737488961
 40
5.2719245253847
 50
368.905235515043
 51
372.309267032707
  0
ARC
  8
_0-0_
  6
CONTINUOUS
 62
    2
 10
150.853947194772
 20
86.3511619500966
 40
6.40771870911172
 50
365.387125661983
 51
368.910576481787
  0
ARC
  8
_0-0_
  6
CONTINUOUS
 62
    4
 10
149.679588505423
 20
86.2399799572274
 40
7.5873286470676
 50
361.71889524646
 51
365.390423448466
  0
ARC
  8
_0-0_
  6
CONTINUOUS
 62
    4
 10
153.414572353
 20
86.8572385729625
 40
5.2719245253847
 50
373.405235515043
 51
376.809267032707
  0
ARC
  8
_0-0_
  6
CONTINUOUS
 62
    2
 10
152.309861730931
 20
86.5933386623622
 40
6.40771870911172
 50
369.887125661983
 51
373.410576481787
  0
ARC
  8
_0-0_
  6
CONTINUOUS
 62
    4
 10
151.147846436121
 20
86.3903602856456
 40
7.5873286470676
 50
366.21889524646
 51
369.890423448466
  0
ARC
  8
_0-0_
  6
CONTINUOUS
 62
    4
 10
154.822887022163
 20
87.298759554307
 40
5.2719245253847
 50
377.905235515043
 51
381.309267032707
  0
ARC
  8
_0-0_
  6
CONTINUOUS
 62
    2
 10
153.742287202611
 20
86.9489985626105
 40
6.40771870911172
 50
374.387125661983
 51
377.910576481787
  0
ARC
  8
_0-0_
  6
CONTINUOUS
 62
    4
 10
152.599779513042
 20
86.6554752312359
 40
7.5873286470676
 50
370.71889524646
 51
374.390423448466
  0
ARC
  8
_0-0_
  6
CONTINUOUS
 62
    4
 10
156.192218990261
 20
87.849414569259
 40
5.2719245253847
 50
382.405235515043
 51
385.809267032707
  0
ARC
  8
_0-0_
  6
CONTINUOUS
 62
    2
 10
155.14239223045
 20
87.4159488892873
 40
6.40771870911172
 50
378.887125661983
 51
382.410576481787
  0
ARC
  8
_0-0_
  6
CONTINUOUS
 62
    4
 10
154.02643608595
 20
87.0336902721992
 40
7.5873286470676
 50
375.21889524646
 51
378.890423448466
  0
ARC
  8
_0-0_
  6
CONTINUOUS
 62
    4
 10
157.514125870361
 20
88.5058086465399
 40
5.2719245253847
 50
386.905235515043
 51
390.309267032707
  0
ARC
  8
_0-0_
  6
CONTINUOUS
 62
    2
 10
156.501544701369
 20
87.991310738352
 40
6.40771870911172
 50
383.387125661983
 51
386.910576481787
  0
ARC
  8
_0-0_
  6
CONTINUOUS
 62
    4
 10
155.419020342661
 20
87.5226735870386
 40
7.5873286470676
 50
379.71889524646
 51
383.390423448466
  0
ARC
  8
_0-0_
  6
CONTINUOUS
 62
    4
 10
158.78045766697
 20
89.26389489839
 40
5.2719245253847
 50
391.405235515043
 51
394.809267032707
  0
ARC
  8
_0-0_
  6
CONTINUOUS
 62
    2
 10
157.81136498842
 20
88.6715368126779
 40
6.40771870911172
 50
387.887125661983
 51
391.410576481787
  0
ARC
  8
_0-0_
  6
CONTINUOUS
 62
    4
 10
156.768946538152
 20
88.1194104310147
 40
7.5873286470676
 50
384.21889524646
 51
387.890423448466
  0
ARC
  8
_0-0_
  6
CONTINUOUS
 62
    4
 10
159.983407023462
 20
90.1189994709775
 40
5.2719245253847
 50
395.905235515043
 51
399.309267032707
  0
ARC
  8
_0-0_
  6
CONTINUOUS
 62
    2
 10
159.063777613974
 20
89.4524332923186
 40
6.40771870911172
 50
392.387125661983
 51
395.910576481787
  0
ARC
  8
_0-0_
  6
CONTINUOUS
 62
    4
 10
158.067891928532
 20
88.8202217230493
 40
7.5873286470676
 50
388.71889524646
 51
392.390423448466
  0
ARC
  8
_0-0_
  6
CONTINUOUS
 62
    4
 10
161.115557357035
 20
91.0658503602613
 40
5.2719245253847
 50
400.405235515043
 51
403.809267032707
  0
ARC
  8
_0-0_
  6
CONTINUOUS
 62
    2
 10
160.251061037726
 20
90.3291856908028
 40
6.40771870911172
 50
396.887125661983
 51
400.410576481787
  0
ARC
  8
_0-0_
  6
CONTINUOUS
 62
    4
 10
159.307848083526
 20
89.6207867284835
 40
7.5873286470676
 50
393.21889524646
 51
396.890423448466
  0
ARC
  8
_0-0_
  6
CONTINUOUS
 62
    4
 10
162.169928584403
 20
92.098609915649
 40
5.2719245253847
 50
404.905235515043
 51
408.309267032707
  0
ARC
  8
_0-0_
  6
CONTINUOUS
 62
    2
 10
161.365895262555
 20
91.296388538044
 40
6.40771870911172
 50
401.387125661983
 51
404.910576481787
  0
ARC
  8
_0-0_
  6
CONTINUOUS
 62
    4
 10
160.48117026111
 20
90.516169697844
 40
7.5873286470676
 50
397.71889524646
 51
401.390423448466
  0
ARC
  8
_0-0_
  6
CONTINUOUS
 62
    4
 10
163.140020156336
 20
93.2109108310543
 40
5.2719245253847
 50
409.405235515043
 51
412.809267032707
  0
ARC
  8
_0-0_
  6
CONTINUOUS
 62
    2
 10
162.401406964747
 20
92.3480787068613
 40
6.40771870911172
 50
405.887125661983
 51
409.410576481787
  0
ARC
  8
_0-0_
  6
CONTINUOUS
 62
    4
 10
161.580624539891
 20
91.5008502973796
 40
7.5873286470676
 50
402.21889524646
 51
405.890423448466
  0
ARC
  8
_0-0_
  6
CONTINUOUS
 62
    4
 10
164.019851135704
 20
94.3958954014561
 40
5.2719245253847
 50
413.905235515043
 51
417.309267032707
  0
ARC
  8
_0-0_
  6
CONTINUOUS
 62
    2
 10
163.351211870315
 20
93.4777721776416
 40
6.40771870911172
 50
410.387125661983
 51
413.910576481787
  0
ARC
  8
_0-0_
  6
CONTINUOUS
 62
    4
 10
162.599432418635
 20
92.5687576437546
 40
7.5873286470676
 50
406.71889524646
 51
410.390423448466
  0
ARC
  8
_0-0_
  6
CONTINUOUS
 62
    4
 10
164.803997071946
 20
95.6462578029305
 40
5.2719245253847
 50
418.405235515043
 51
421.809267032707
  0
ARC
  8
_0-0_
  6
CONTINUOUS
 62
    2
 10
164.209454116172
 20
94.6785040144764
 40
6.40771870911172
 50
414.887125661983
 51
418.410576481787
  0
ARC
  8
_0-0_
  6
CONTINUOUS
 62
    4
 10
163.53131260798
 20
93.7133077330634
 40
7.5873286470676
 50
411.21889524646
 51
414.890423448466
  0
ARC
  8
_0-0_
  6
CONTINUOUS
 62
    4
 10
165.487623444611
 20
96.9542891354848
 40
5.2719245253847
 50
422.905235515043
 51
426.309267032707
  0
ARC
  8
_0-0_
  6
CONTINUOUS
 62
    2
 10
164.97084235348
 20
95.9428713063075
 40
6.40771870911172
 50
419.387125661983
 51
422.910576481787
  0
ARC
  8
_0-0_
  6
CONTINUOUS
 62
    4
 10
164.370519756679
 20
94.927444033404
 40
7.5873286470676
 50
415.71889524646
 51
419.390423448466
  0
ARC
  8
_0-0_
  6
CONTINUOUS
 62
    4
 10
166.066515469781
 20
98.3119249509891
 40
5.2719245253847
 50
427.405235515043
 51
430.809267032707
  0
ARC
  8
_0-0_
  6
CONTINUOUS
 62
    2
 10
165.630682370568
 20
97.2630788083362
 40
6.40771870911172
 50
423.887125661983
 51
427.410576481787
  0
ARC
  8
_0-0_
  6
CONTINUOUS
 62
    4
 10
165.111879873595
 20
96.2036809907434
 40
7.5873286470676
 50
420.21889524646
 51
423.890423448466
  0
ARC
  8
_0-0_
  6
CONTINUOUS
 62
    4
 10
166.537104085622
 20
99.7107949731813
 40
5.2719245253847
 50
431.905235515043
 51
435.309267032707
  0
ARC
  8
_0-0_
  6
CONTINUOUS
 62
    2
 10
166.184906034311
 20
98.6309870022989
 40
6.40771870911172
 50
428.387125661983
 51
431.910576481787
  0
ARC
  8
_0-0_
  6
CONTINUOUS
 62
    4
 10
165.750822227079
 20
97.5341501798477
 40
7.5873286470676
 50
424.71889524646
 51
428.390423448466
  0
ARC
  8
_0-0_
  6
CONTINUOUS
 62
    4
 10
166.896487956828
 20
101.142274703203
 40
5.2719245253847
 50
436.405235515043
 51
439.809267032707
  0
ARC
  8
_0-0_
  6
CONTINUOUS
 62
    2
 10
166.630096371525
 20
100.038162279304
 40
6.40771870911172
 50
432.887125661983
 51
436.410576481787
  0
ARC
  8
_0-0_
  6
CONTINUOUS
 62
    4
 10
166.283407525053
 20
98.9106488157402
 40
7.5873286470676
 50
429.21889524646
 51
432.890423448466
  0
ARC
  8
_0-0_
  6
CONTINUOUS
 62
    4
 10
167.142451362328
 20
102.597538592503
 40
5.2719245253847
 50
440.905235515043
 51
444.309267032707
  0
ARC
  8
_0-0_
  6
CONTINUOUS
 62
    2
 10
166.963508635739
 20
101.475928935836
 40
6.40771870911172
 50
437.387125661983
 51
440.910576481787
  0
ARC
  8
_0-0_
  6
CONTINUOUS
 62
    4
 10
166.706352202052
 20
100.324690326598
 40
7.5873286470676
 50
433.71889524646
 51
437.390423448466
  0
ARC
  8
_0-0_
  6
CONTINUOUS
 62
    4
 10
167.273477855935
 20
104.06761445528
 40
5.2719245253847
 50
445.405235515043
 51
448.809267032707
  0
ARC
  8
_0-0_
  6
CONTINUOUS
 62
    2
 10
167.183087229475
 20
102.935422662351
 40
6.40771870911172
 50
441.887125661983
 51
445.410576481787
  0
ARC
  8
_0-0_
  6
CONTINUOUS
 62
    4
 10
167.017048663498
 20
101.767556676292
 40
7.5873286470676
 50
438.21889524646
 51
441.890423448466
  0
ARC
  8
_0-0_
  6
CONTINUOUS
 62
    4
 10
167.288759615745
 20
105.54343878499
 40
5.2719245253847
 50
449.905235515043
 51
453.309267032707
  0
ARC
  8
_0-0_
  6
CONTINUOUS
 62
    2
 10
167.287478377684
 20
104.407645194694
 40
6.40771870911172
 50
446.387125661983
 51
449.910576481787
  0
ARC
  8
_0-0_
  6
CONTINUOUS
 62
    4
 10
167.213581362391
 20
103.230352113972
 40
7.5873286470676
 50
442.71889524646
 51
446.390423448466
  0
ARC
  8
_0-0_
  6
CONTINUOUS
 62
    4
 10
167.188202424627
 20
107.015912633878
 40
5.2719245253847
 50
454.405235515043
 51
457.809267032707
  0
ARC
  8
_0-0_
  6
CONTINUOUS
 62
    2
 10
167.276038474224
 20
105.88351979139
 40
6.40771870911172
 50
450.887125661983
 51
454.410576481787
  0
ARC
  8
_0-0_
  6
CONTINUOUS
 62
    4
 10
167.294738609287
 20
104.704058019337
 40
7.5873286470676
 50
447.21889524646
 51
450.890423448466
  0
ARC
  8
_0-0_
  6
CONTINUOUS
 62
    4
 10
166.972426251104
 20
108.47595771102
 40
5.2719245253847
 50
458.905235515043
 51
462.309267032707
  0
ARC
  8
_0-0_
  6
CONTINUOUS
 62
    2
 10
167.148838049903
 20
107.353947194772
 40
6.40771870911172
 50
455.387125661983
 51
458.910576481787
  0
ARC
  8
_0-0_
  6
CONTINUOUS
 62
    4
 10
167.260020042773
 20
106.179588505423
 40
7.5873286470676
 50
451.71889524646
 51
455.390423448466
  0
ARC
  8
_0-0_
  6
CONTINUOUS
 62
    4
 10
166.642761427037
 20
109.914572353
 40
5.2719245253847
 50
463.405235515043
 51
466.809267032707
  0
ARC
  8
_0-0_
  6
CONTINUOUS
 62
    2
 10
166.906661337638
 20
108.809861730931
 40
6.40771870911172
 50
459.887125661983
 51
463.410576481787
  0
ARC
  8
_0-0_
  6
CONTINUOUS
 62
    4
 10
167.109639714354
 20
107.647846436121
 40
7.5873286470676
 50
456.21889524646
 51
459.890423448466
  0
ARC
  8
_0-0_
  6
CONTINUOUS
 62
    4
 10
166.201240445693
 20
111.322887022163
 40
5.2719245253847
 50
467.905235515043
 51
471.309267032707
  0
ARC
  8
_0-0_
  6
CONTINUOUS
 62
    2
 10
166.55100143739
 20
110.242287202611
 40
6.40771870911172
 50
464.387125661983
 51
467.910576481787
  0
ARC
  8
_0-0_
  6
CONTINUOUS
 62
    4
 10
166.844524768764
 20
109.099779513042
 40
7.5873286470676
 50
460.71889524646
 51
464.390423448466
  0
ARC
  8
_0-0_
  6
CONTINUOUS
 62
    4
 10
165.650585430741
 20
112.692218990261
 40
5.2719245253847
 50
472.405235515043
 51
475.809267032707
  0
ARC
  8
_0-0_
  6
CONTINUOUS
 62
    2
 10
166.084051110713
 20
111.64239223045
 40
6.40771870911172
 50
468.887125661983
 51
472.410576481787
  0
ARC
  8
_0-0_
  6
CONTINUOUS
 62
    4
 10
166.466309727801
 20
110.52643608595
 40
7.5873286470676
 50
465.21889524646
 51
468.890423448466
  0
ARC
  8
_0-0_
  6
CONTINUOUS
 62
    4
 10
164.99419135346
 20
114.014125870361
 40
5.2719245253847
 50
476.905235515043
 51
480.309267032707
  0
ARC
  8
_0-0_
  6
CONTINUOUS
 62
    2
 10
165.508689261648
 20
113.001544701369
 40
6.40771870911172
 50
473.387125661983
 51
476.910576481787
  0
ARC
  8
_0-0_
  6
CONTINUOUS
 62
    4
 10
165.977326412961
 20
111.919020342661
 40
7.5873286470676
 50
469.71889524646
 51
473.390423448466
  0
ARC
  8
_0-0_
  6
CONTINUOUS
 62
    4
 10
164.23610510161
 20
115.28045766697
 40
5.2719245253847
 50
481.405235515043
 51
484.809267032707
  0
ARC
  8
_0-0_
  6
CONTINUOUS
 62
    2
 10
164.828463187322
 20
114.31136498842
 40
6.40771870911172
 50
477.887125661983
 51
481.410576481787
  0
ARC
  8
_0-0_
  6
CONTINUOUS
 62
    4
 10
165.380589568985
 20
113.268946538152
 40
7.5873286470676
 50
474.21889524646
 51
477.890423448466
  0
ARC
  8
_0-0_
  6
CONTINUOUS
 62
    4
 10
163.381000529022
 20
116.483407023462
 40
5.2719245253847
 50
485.905235515043
 51
489.309267032707
  0
ARC
  8
_0-0_
  6
CONTINUOUS
 62
    2
 10
164.047566707681
 20
115.563777613974
 40
6.40771870911172
 50
482.387125661983
 51
485.910576481787
  0
ARC
  8
_0-0_
  6
CONTINUOUS
 62
    4
 10
164.679778276951
 20
114.567891928532
 40
7.5873286470676
 50
478.71889524646
 51
482.390423448466
  0
ARC
  8
_0-0_
  6
CONTINUOUS
 62
    4
 10
162.434149639739
 20
117.615557357035
 40
5.2719245253847
 50
490.405235515043
 51
493.809267032707
  0
ARC
  8
_0-0_
  6
CONTINUOUS
 62
    2
 10
163.170814309197
 20
116.751061037726
 40
6.40771870911172
 50
486.887125661983
 51
490.410576481787
  0
ARC
  8
_0-0_
  6
CONTINUOUS
 62
    4
 10
163.879213271517
 20
115.807848083526
 40
7.5873286470676
 50
483.21889524646
 51
486.890423448466
  0
ARC
  8
_0-0_
  6
CONTINUOUS
 62
    4
 10
161.401390084351
 20
118.669928584403
 40
5.2719245253847
 50
494.905235515043
 51
498.309267032707
  0
ARC
  8
_0-0_
  6
CONTINUOUS
 62
    2
 10
162.203611461956
 20
117.865895262555
 40
6.40771870911172
 50
491.387125661983
 51
494.910576481787
  0
ARC
  8
_0-0_
  6
CONTINUOUS
 62
    4
 10
162.983830302156
 20
116.98117026111
 40
7.5873286470676
 50
487.71889524646
 51
491.390423448466
  0
ARC
  8
_0-0_
  6
CONTINUOUS
 62
    4
 10
160.289089168946
 20
119.640020156336
 40
5.2719245253847
 50
499.405235515043
 51
502.809267032707
  0
ARC
  8
_0-0_
  6
CONTINUOUS
 62
    2
 10
161.151921293139
 20
118.901406964747
 40
6.40771870911172
 50
495.887125661983
 51
499.410576481787
  0
ARC
  8
_0-0_
  6
CONTINUOUS
 62
    4
 10
161.99914970262
 20
118.080624539891
 40
7.5873286470676
 50
492.21889524646
 51
495.890423448466
  0
ARC
  8
_0-0_
  6
CONTINUOUS
 62
    4
 10
159.104104598544
 20
120.519851135704
 40
5.2719245253847
 50
503.905235515043
 51
507.309267032707
  0
ARC
  8
_0-0_
  6
CONTINUOUS
 62
    2
 10
160.022227822358
 20
119.851211870315
 40
6.40771870911172
 50
500.387125661983
 51
503.910576481787
  0
ARC
  8
_0-0_
  6
CONTINUOUS
 62
    4
 10
160.931242356245
 20
119.099432418635
 40
7.5873286470676
 50
496.71889524646
 51
500.390423448466
  0
ARC
  8
_0-0_
  6
CONTINUOUS
 62
    4
 10
157.853742197069
 20
121.303997071946
 40
5.2719245253847
 50
508.405235515043
 51
511.809267032707
  0
ARC
  8
_0-0_
  6
CONTINUOUS
 62
    2
 10
158.821495985524
 20
120.709454116172
 40
6.40771870911172
 50
504.887125661983
 51
508.410576481787
  0
ARC
  8
_0-0_
  6
CONTINUOUS
 62
    4
 10
159.786692266937
 20
120.03131260798
 40
7.5873286470676
 50
501.21889524646
 51
504.890423448466
  0
ARC
  8
_0-0_
  6
CONTINUOUS
 62
    4
 10
156.545710864515
 20
121.987623444611
 40
5.2719245253847
 50
512.905235515042
 51
516.309267032707
  0
ARC
  8
_0-0_
  6
CONTINUOUS
 62
    2
 10
157.557128693692
 20
121.47084235348
 40
6.40771870911172
 50
509.387125661983
 51
512.910576481787
  0
ARC
  8
_0-0_
  6
CONTINUOUS
 62
    4
 10
158.572555966596
 20
120.870519756679
 40
7.5873286470676
 50
505.71889524646
 51
509.390423448466
  0
ARC
  8
_0-0_
  6
CONTINUOUS
 62
    4
 10
155.188075049011
 20
122.566515469781
 40
5.2719245253847
 50
517.405235515042
 51
520.809267032707
  0
ARC
  8
_0-0_
  6
CONTINUOUS
 62
    2
 10
156.236921191664
 20
122.130682370568
 40
6.40771870911172
 50
513.887125661983
 51
517.410576481787
  0
ARC
  8
_0-0_
  6
CONTINUOUS
 62
    4
 10
157.296319009257
 20
121.611879873595
 40
7.5873286470676
 50
510.21889524646
 51
513.890423448466
  0
ARC
  8
_0-0_
  6
CONTINUOUS
 62
    4
 10
143.210794973181
 20
123.037104085622
 40
5.2719245253847
 50
374.690732967293
 51
378.094764484957
  0
ARC
  8
_0-0_
  6
CONTINUOUS
 62
    2
 10
142.130987002299
 20
122.684906034311
 40
6.40771870911172
 50
378.089423518213
 51
381.612874338017
  0
ARC
  8
_0-0_
  6
CONTINUOUS
 62
    4
 10
141.034150179848
 20
122.250822227079
 40
7.5873286470676
 50
381.609576551534
 51
385.28110475354
  0
ARC
  8
_0-0_
  6
CONTINUOUS
 62
    4
 10
141.811924950989
 20
122.566515469781
 40
5.2719245253847
 50
379.190732967293
 51
382.594764484957
  0
ARC
  8
_0-0_
  6
CONTINUOUS
 62
    2
 10
140.763078808336
 20
122.130682370568
 40
6.40771870911172
 50
382.589423518213
 51
386.112874338017
  0
ARC
  8
_0-0_
  6
CONTINUOUS
 62
    4
 10
139.703680990743
 20
121.611879873595
 40
7.5873286470676
 50
386.109576551534
 51
389.78110475354
  0
ARC
  8
_0-0_
  6
CONTINUOUS
 62
    4
 10
140.454289135485
 20
121.987623444611
 40
5.2719245253847
 50
383.690732967293
 51
387.094764484957
  0
ARC
  8
_0-0_
  6
CONTINUOUS
 62
    2
 10
139.442871306308
 20
121.47084235348
 40
6.40771870911172
 50
387.089423518213
 51
390.612874338017
  0
ARC
  8
_0-0_
  6
CONTINUOUS
 62
    4
 10
138.427444033404
 20
120.870519756679
 40
7.5873286470676
 50
390.609576551534
 51
394.28110475354
  0
ARC
  8
_0-0_
  6
CONTINUOUS
 62
    4
 10
139.146257802931
 20
121.303997071946
 40
5.2719245253847
 50
388.190732967293
 51
391.594764484957
  0
ARC
  8
_0-0_
  6
CONTINUOUS
 62
    2
 10
138.178504014476
 20
120.709454116172
 40
6.40771870911172
 50
391.589423518213
 51
395.112874338017
  0
ARC
  8
_0-0_
  6
CONTINUOUS
 62
    4
 10
137.213307733063
 20
120.03131260798
 40
7.5873286470676
 50
395.109576551534
 51
398.78110475354
  0
ARC
  8
_0-0_
  6
CONTINUOUS
 62
    4
 10
137.895895401456
 20
120.519851135704
 40
5.2719245253847
 50
392.690732967293
 51
396.094764484957
  0
ARC
  8
_0-0_
  6
CONTINUOUS
 62
    2
 10
136.977772177642
 20
119.851211870315
 40
6.40771870911172
 50
396.089423518213
 51
399.612874338017
  0
ARC
  8
_0-0_
  6
CONTINUOUS
 62
    4
 10
136.068757643755
 20
119.099432418635
 40
7.5873286470676
 50
399.609576551534
 51
403.28110475354
  0
ARC
  8
_0-0_
  6
CONTINUOUS
 62
    4
 10
136.710910831054
 20
119.640020156336
 40
5.2719245253847
 50
397.190732967293
 51
400.594764484957
  0
ARC
  8
_0-0_
  6
CONTINUOUS
 62
    2
 10
135.848078706861
 20
118.901406964747
 40
6.40771870911172
 50
400.589423518213
 51
404.112874338017
  0
ARC
  8
_0-0_
  6
CONTINUOUS
 62
    4
 10
135.00085029738
 20
118.080624539891
 40
7.5873286470676
 50
404.109576551534
 51
407.78110475354
  0
ARC
  8
_0-0_
  6
CONTINUOUS
 62
    4
 10
135.598609915649
 20
118.669928584403
 40
5.2719245253847
 50
401.690732967293
 51
405.094764484957
  0
ARC
  8
_0-0_
  6
CONTINUOUS
 62
    2
 10
134.796388538044
 20
117.865895262555
 40
6.40771870911172
 50
405.089423518213
 51
408.612874338017
  0
ARC
  8
_0-0_
  6
CONTINUOUS
 62
    4
 10
134.016169697844
 20
116.98117026111
 40
7.5873286470676
 50
408.609576551534
 51
412.28110475354
  0
ARC
  8
_0-0_
  6
CONTINUOUS
 62
    4
 10
134.565850360261
 20
117.615557357035
 40
5.2719245253847
 50
406.190732967293
 51
409.594764484957
  0
ARC
  8
_0-0_
  6
CONTINUOUS
 62
    2
 10
133.829185690803
 20
116.751061037726
 40
6.40771870911172
 50
409.589423518213
 51
413.112874338017
  0
ARC
  8
_0-0_
  6
CONTINUOUS
 62
    4
 10
133.120786728483
 20
115.807848083526
 40
7.5873286470676
 50
413.109576551534
 51
416.78110475354
  0
ARC
  8
_0-0_
  6
CONTINUOUS
 62
    4
 10
133.618999470978
 20
116.483407023462
 40
5.2719245253847
 50
410.690732967293
 51
414.094764484957
  0
ARC
  8
_0-0_
  6
CONTINUOUS
 62
    2
 10
132.952433292319
 20
115.563777613974
 40
6.40771870911172
 50
414.089423518213
 51
417.612874338017
  0
ARC
  8
_0-0_
  6
CONTINUOUS
 62
    4
 10
132.320221723049
 20
114.567891928532
 40
7.5873286470676
 50
417.609576551534
 51
421.28110475354
  0
ARC
  8
_0-0_
  6
CONTINUOUS
 62
    4
 10
132.76389489839
 20
115.28045766697
 40
5.2719245253847
 50
415.190732967293
 51
418.594764484957
  0
ARC
  8
_0-0_
  6
CONTINUOUS
 62
    2
 10
132.171536812678
 20
114.31136498842
 40
6.40771870911172
 50
418.589423518213
 51
422.112874338017
  0
ARC
  8
_0-0_
  6
CONTINUOUS
 62
    4
 10
131.619410431015
 20
113.268946538152
 40
7.5873286470676
 50
422.109576551534
 51
425.78110475354
  0
ARC
  8
_0-0_
  6
CONTINUOUS
 62
    4
 10
132.00580864654
 20
114.014125870361
 40
5.2719245253847
 50
419.690732967293
 51
423.094764484957
  0
ARC
  8
_0-0_
  6
CONTINUOUS
 62
    2
 10
131.491310738352
 20
113.001544701369
 40
6.40771870911172
 50
423.089423518213
 51
426.612874338017
  0
ARC
  8
_0-0_
  6
CONTINUOUS
 62
    4
 10
131.022673587039
 20
111.919020342661
 40
7.5873286470676
 50
426.609576551534
 51
430.28110475354
  0
ARC
  8
_0-0_
  6
CONTINUOUS
 62
    4
 10
131.349414569259
 20
112.692218990261
 40
5.2719245253847
 50
424.190732967293
 51
427.594764484957
  0
ARC
  8
_0-0_
  6
CONTINUOUS
 62
    2
 10
130.915948889287
 20
111.64239223045
 40
6.40771870911172
 50
427.589423518213
 51
431.112874338017
  0
ARC
  8
_0-0_
  6
CONTINUOUS
 62
    4
 10
130.533690272199
 20
110.52643608595
 40
7.5873286470676
 50
431.109576551534
 51
434.78110475354
  0
ARC
  8
_0-0_
  6
CONTINUOUS
 62
    4
 10
130.798759554307
 20
111.322887022163
 40
5.2719245253847
 50
428.690732967293
 51
432.094764484957
  0
ARC
  8
_0-0_
  6
CONTINUOUS
 62
    2
 10
130.44899856261
 20
110.242287202611
 40
6.40771870911172
 50
432.089423518213
 51
435.612874338017
  0
ARC
  8
_0-0_
  6
CONTINUOUS
 62
    4
 10
130.155475231236
 20
109.099779513042
 40
7.5873286470676
 50
435.609576551534
 51
439.28110475354
  0
ARC
  8
_0-0_
  6
CONTINUOUS
 62
    4
 10
130.357238572963
 20
109.914572353
 40
5.2719245253847
 50
433.190732967293
 51
436.594764484957
  0
ARC
  8
_0-0_
  6
CONTINUOUS
 62
    2
 10
130.093338662362
 20
108.809861730931
 40
6.40771870911172
 50
436.589423518213
 51
440.112874338017
  0
ARC
  8
_0-0_
  6
CONTINUOUS
 62
    4
 10
129.890360285646
 20
107.647846436121
 40
7.5873286470676
 50
440.109576551534
 51
443.78110475354
  0
ARC
  8
_0-0_
  6
CONTINUOUS
 62
    4
 10
130.027573748896
 20
108.47595771102
 40
5.2719245253847
 50
437.690732967293
 51
441.094764484957
  0
ARC
  8
_0-0_
  6
CONTINUOUS
 62
    2
 10
129.851161950097
 20
107.353947194772
 40
6.40771870911172
 50
441.089423518213
 51
444.612874338017
  0
ARC
  8
_0-0_
  6
CONTINUOUS
 62
    4
 10
129.739979957227
 20
106.179588505423
 40
7.5873286470676
 50
444.609576551534
 51
448.28110475354
  0
ARC
  8
_0-0_
  6
CONTINUOUS
 62
    4
 10
129.811797575373
 20
107.015912633878
 40
5.2719245253847
 50
442.190732967293
 51
445.594764484957
  0
ARC
  8
_0-0_
  6
CONTINUOUS
 62
    2
 10
129.723961525776
 20
105.88351979139
 40
6.40771870911172
 50
445.589423518213
 51
449.112874338017
  0
ARC
  8
_0-0_
  6
CONTINUOUS
 62
    4
 10
129.705261390713
 20
104.704058019337
 40
7.5873286470676
 50
449.109576551534
 51
452.78110475354
  0
ARC
  8
_0-0_
  6
CONTINUOUS
 62
    4
 10
129.711240384255
 20
105.54343878499
 40
5.2719245253847
 50
446.690732967293
 51
450.094764484957
  0
ARC
  8
_0-0_
  6
CONTINUOUS
 62
    2
 10
129.712521622316
 20
104.407645194694
 40
6.40771870911172
 50
450.089423518213
 51
453.612874338017
  0
ARC
  8
_0-0_
  6
CONTINUOUS
 62
    4
 10
129.786418637609
 20
103.230352113972
 40
7.5873286470676
 50
453.609576551534
 51
457.28110475354
  0
ARC
  8
_0-0_
  6
CONTINUOUS
 62
    4
 10
129.726522144065
 20
104.06761445528
 40
5.2719245253847
 50
451.190732967293
 51
454.594764484957
  0
ARC
  8
_0-0_
  6
CONTINUOUS
 62
    2
 10
129.816912770525
 20
102.935422662351
 40
6.40771870911172
 50
454.589423518213
 51
458.112874338017
  0
ARC
  8
_0-0_
  6
CONTINUOUS
 62
    4
 10
129.982951336502
 20
101.767556676292
 40
7.5873286470676
 50
458.109576551534
 51
461.78110475354
  0
ARC
  8
_0-0_
  6
CONTINUOUS
 62
    4
 10
129.857548637672
 20
102.597538592503
 40
5.2719245253847
 50
455.690732967293
 51
459.094764484957
  0
ARC
  8
_0-0_
  6
CONTINUOUS
 62
    2
 10
130.036491364261
 20
101.475928935836
 40
6.40771870911172
 50
459.089423518213
 51
462.612874338017
  0
ARC
  8
_0-0_
  6
CONTINUOUS
 62
    4
 10
130.293647797948
 20
100.324690326598
 40
7.5873286470676
 50
462.609576551534
 51
466.28110475354
  0
ARC
  8
_0-0_
  6
CONTINUOUS
 62
    4
 10
130.103512043172
 20
101.142274703203
 40
5.2719245253847
 50
460.190732967293
 51
463.594764484957
  0
ARC
  8
_0-0_
  6
CONTINUOUS
 62
    2
 10
130.369903628475
 20
100.038162279304
 40
6.40771870911172
 50
463.589423518213
 51
467.112874338017
  0
ARC
  8
_0-0_
  6
CONTINUOUS
 62
    4
 10
130.716592474947
 20
98.9106488157402
 40
7.5873286470676
 50
467.109576551534
 51
470.78110475354
  0
ARC
  8
_0-0_
  6
CONTINUOUS
 62
    4
 10
130.462895914378
 20
99.7107949731813
 40
5.2719245253847
 50
464.690732967293
 51
468.094764484957
  0
ARC
  8
_0-0_
  6
CONTINUOUS
 62
    2
 10
130.815093965689
 20
98.6309870022989
 40
6.40771870911172
 50
468.089423518213
 51
471.612874338017
  0
ARC
  8
_0-0_
  6
CONTINUOUS
 62
    4
 10
131.249177772921
 20
97.5341501798477
 40
7.5873286470676
 50
471.609576551534
 51
475.28110475354
  0
ARC
  8
_0-0_
  6
CONTINUOUS
 62
    4
 10
130.933484530219
 20
98.3119249509891
 40
5.2719245253847
 50
469.190732967293
 51
472.594764484957
  0
ARC
  8
_0-0_
  6
CONTINUOUS
 62
    2
 10
131.369317629432
 20
97.2630788083362
 40
6.40771870911172
 50
472.589423518213
 51
476.112874338017
  0
ARC
  8
_0-0_
  6
CONTINUOUS
 62
    4
 10
131.888120126405
 20
96.2036809907433
 40
7.5873286470676
 50
476.109576551534
 51
479.78110475354
  0
ARC
  8
_0-0_
  6
CONTINUOUS
 62
    4
 10
131.512376555389
 20
96.9542891354848
 40
5.2719245253847
 50
473.690732967293
 51
477.094764484957
  0
ARC
  8
_0-0_
  6
CONTINUOUS
 62
    2
 10
132.02915764652
 20
95.9428713063075
 40
6.40771870911172
 50
477.089423518213
 51
480.612874338017
  0
ARC
  8
_0-0_
  6
CONTINUOUS
 62
    4
 10
132.629480243321
 20
94.927444033404
 40
7.5873286470676
 50
480.609576551534
 51
484.28110475354
  0
ARC
  8
_0-0_
  6
CONTINUOUS
 62
    4
 10
132.196002928054
 20
95.6462578029305
 40
5.2719245253847
 50
478.190732967293
 51
481.594764484957
  0
ARC
  8
_0-0_
  6
CONTINUOUS
 62
    2
 10
132.790545883828
 20
94.6785040144764
 40
6.40771870911172
 50
481.589423518213
 51
485.112874338017
  0
ARC
  8
_0-0_
  6
CONTINUOUS
 62
    4
 10
133.46868739202
 20
93.7133077330634
 40
7.5873286470676
 50
485.109576551534
 51
488.78110475354
  0
ARC
  8
_0-0_
  6
CONTINUOUS
 62
    4
 10
132.980148864296
 20
94.3958954014561
 40
5.2719245253847
 50
482.690732967293
 51
486.094764484957
  0
ARC
  8
_0-0_
  6
CONTINUOUS
 62
    2
 10
133.648788129685
 20
93.4777721776417
 40
6.40771870911172
 50
486.089423518213
 51
489.612874338017
  0
ARC
  8
_0-0_
  6
CONTINUOUS
 62
    4
 10
134.400567581365
 20
92.5687576437546
 40
7.5873286470676
 50
489.609576551534
 51
493.28110475354
  0
ARC
  8
_0-0_
  6
CONTINUOUS
 62
    4
 10
133.859979843664
 20
93.2109108310543
 40
5.2719245253847
 50
487.190732967293
 51
490.594764484957
  0
ARC
  8
_0-0_
  6
CONTINUOUS
 62
    2
 10
134.598593035253
 20
92.3480787068613
 40
6.40771870911172
 50
490.589423518213
 51
494.112874338017
  0
ARC
  8
_0-0_
  6
CONTINUOUS
 62
    4
 10
135.419375460109
 20
91.5008502973795
 40
7.5873286470676
 50
494.109576551534
 51
497.78110475354
  0
ARC
  8
_0-0_
  6
CONTINUOUS
 62
    4
 10
134.830071415597
 20
92.098609915649
 40
5.2719245253847
 50
491.690732967293
 51
495.094764484957
  0
ARC
  8
_0-0_
  6
CONTINUOUS
 62
    2
 10
135.634104737445
 20
91.296388538044
 40
6.40771870911172
 50
495.089423518213
 51
498.612874338017
  0
ARC
  8
_0-0_
  6
CONTINUOUS
 62
    4
 10
136.51882973889
 20
90.516169697844
 40
7.5873286470676
 50
498.609576551534
 51
502.28110475354
  0
ARC
  8
_0-0_
  6
CONTINUOUS
 62
    4
 10
135.884442642965
 20
91.0658503602613
 40
5.2719245253847
 50
496.190732967293
 51
499.594764484957
  0
ARC
  8
_0-0_
  6
CONTINUOUS
 62
    2
 10
136.748938962274
 20
90.3291856908028
 40
6.40771870911172
 50
499.589423518213
 51
503.112874338017
  0
ARC
  8
_0-0_
  6
CONTINUOUS
 62
    4
 10
137.692151916474
 20
89.6207867284835
 40
7.5873286470676
 50
503.109576551534
 51
506.78110475354
  0
ARC
  8
_0-0_
  6
CONTINUOUS
 62
    4
 10
137.016592976538
 20
90.1189994709775
 40
5.2719245253847
 50
500.690732967293
 51
504.094764484957
  0
ARC
  8
_0-0_
  6
CONTINUOUS
 62
    2
 10
137.936222386026
 20
89.4524332923186
 40
6.40771870911172
 50
504.089423518213
 51
507.612874338017
  0
ARC
  8
_0-0_
  6
CONTINUOUS
 62
    4
 10
138.932108071468
 20
88.8202217230493
 40
7.5873286470676
 50
507.609576551534
 51
511.28110475354
  0
ARC
  8
_0-0_
  6
CONTINUOUS
 62
    4
 10
138.21954233303
 20
89.26389489839
 40
5.2719245253847
 50
505.190732967293
 51
508.594764484957
  0
ARC
  8
_0-0_
  6
CONTINUOUS
 62
    2
 10
139.18863501158
 20
88.6715368126779
 40
6.40771870911172
 50
508.589423518213
 51
512.112874338017
  0
ARC
  8
_0-0_
  6
CONTINUOUS
 62
    4
 10
140.231053461848
 20
88.1194104310147
 40
7.5873286470676
 50
512.109576551534
 51
515.78110475354
  0
ARC
  8
_0-0_
  6
CONTINUOUS
 62
    4
 10
139.485874129639
 20
88.5058086465399
 40
5.2719245253847
 50
509.690732967293
 51
513.094764484958
  0
ARC
  8
_0-0_
  6
CONTINUOUS
 62
    2
 10
140.498455298631
 20
87.991310738352
 40
6.40771870911172
 50
513.089423518213
 51
516.612874338017
  0
ARC
  8
_0-0_
  6
CONTINUOUS
 62
    4
 10
141.580979657339
 20
87.5226735870386
 40
7.5873286470676
 50
516.609576551534
 51
520.28110475354
  0
ARC
  8
_0-0_
  6
CONTINUOUS
 62
    4
 10
140.807781009739
 20
87.849414569259
 40
5.2719245253847
 50
514.190732967293
 51
517.594764484958
  0
ARC
  8
_0-0_
  6
CONTINUOUS
 62
    2
 10
141.85760776955
 20
87.4159488892873
 40
6.40771870911172
 50
517.589423518213
 51
521.112874338017
  0
ARC
  8
_0-0_
  6
CONTINUOUS
 62
    4
 10
142.97356391405
 20
87.0336902721992
 40
7.5873286470676
 50
521.109576551534
 51
524.78110475354
  0
ARC
  8
_0-0_
  6
CONTINUOUS
 62
    4
 10
142.177112977837
 20
87.298759554307
 40
5.2719245253847
 50
518.690732967293
 51
522.094764484958
  0
ARC
  8
_0-0_
  6
CONTINUOUS
 62
    2
 10
143.257712797389
 20
86.9489985626105
 40
6.40771870911172
 50
522.089423518213
 51
525.612874338017
  0
ARC
  8
_0-0_
  6
CONTINUOUS
 62
    4
 10
144.400220486958
 20
86.6554752312359
 40
7.5873286470676
 50
525.609576551534
 51
529.28110475354
  0
ARC
  8
_0-0_
  6
CONTINUOUS
 62
    4
 10
143.585427647
 20
86.8572385729625
 40
5.2719245253847
 50
523.190732967293
 51
526.594764484958
  0
ARC
  8
_0-0_
  6
CONTINUOUS
 62
    2
 10
144.690138269069
 20
86.5933386623622
 40
6.40771870911172
 50
526.589423518213
 51
530.112874338017
  0
ARC
  8
_0-0_
  6
CONTINUOUS
 62
    4
 10
145.852153563879
 20
86.3903602856456
 40
7.5873286470676
 50
530.109576551534
 51
533.78110475354
  0
ARC
  8
_0-0_
  6
CONTINUOUS
 62
    4
 10
145.02404228898
 20
86.5275737488961
 40
5.2719245253847
 50
527.690732967293
 51
531.094764484958
  0
ARC
  8
_0-0_
  6
CONTINUOUS
 62
    2
 10
146.146052805228
 20
86.3511619500966
 40
6.40771870911172
 50
531.089423518213
 51
534.612874338017
  0
ARC
  8
_0-0_
  6
CONTINUOUS
 62
    4
 10
147.320411494577
 20
86.2399799572274
 40
7.5873286470676
 50
534.609576551534
 51
538.28110475354
  0
ARC
  8
_0-0_
  6
CONTINUOUS
 62
    4
 10
146.484087366122
 20
86.3117975753728
 40
5.2719245253847
 50
532.190732967293
 51
535.594764484958
  0
ARC
  8
_0-0_
  6
CONTINUOUS
 62
    2
 10
147.61648020861
 20
86.2239615257765
 40
6.40771870911172
 50
535.589423518213
 51
539.112874338017
  0
ARC
  8
_0-0_
  6
CONTINUOUS
 62
    4
 10
148.795941980663
 20
86.2052613907126
 40
7.5873286470676
 50
539.109576551534
 51
542.78110475354
  0
ARC
  8
_0-0_
  6
CONTINUOUS
 62
    4
 10
147.95656121501
 20
86.2112403842552
 40
5.2719245253847
 50
536.690732967293
 51
540.094764484958
  0
ARC
  8
_0-0_
  6
CONTINUOUS
 62
    2
 10
149.092354805306
 20
86.2125216223164
 40
6.40771870911172
 50
540.089423518213
 51
543.612874338017
  0
ARC
  8
_0-0_
  6
CONTINUOUS
 62
    4
 10
150.269647886028
 20
86.2864186376089
 40
7.5873286470676
 50
543.609576551534
 51
547.28110475354
  0
ARC
  8
_0-0_
  6
CONTINUOUS
 62
    4
 10
149.43238554472
 20
86.2265221440653
 40
5.2719245253847
 50
541.190732967293
 51
544.594764484958
  0
ARC
  8
_0-0_
  6
CONTINUOUS
 62
    2
 10
150.564577337649
 20
86.3169127705252
 40
6.40771870911172
 50
544.589423518213
 51
548.112874338017
  0
ARC
  8
_0-0_
  6
CONTINUOUS
 62
    4
 10
151.732443323708
 20
86.4829513365015
 40
7.5873286470676
 50
548.109576551534
 51
551.78110475354
  0
ARC
  8
_0-0_
  6
CONTINUOUS
 62
    4
 10
150.902461407497
 20
86.3575486376721
 40
5.2719245253847
 50
545.690732967293
 51
549.094764484958
  0
ARC
  8
_0-0_
  6
CONTINUOUS
 62
    2
 10
152.024071064164
 20
86.5364913642607
 40
6.40771870911172
 50
549.089423518213
 51
552.612874338017
  0
ARC
  8
_0-0_
  6
CONTINUOUS
 62
    4
 10
153.175309673402
 20
86.7936477979482
 40
7.5873286470676
 50
552.609576551534
 51
556.28110475354
  0
ARC
  8
_0-0_
  6
CONTINUOUS
 62
    4
 10
152.357725296797
 20
86.6035120431718
 40
5.2719245253847
 50
550.190732967293
 51
553.594764484958
  0
ARC
  8
_0-0_
  6
CONTINUOUS
 62
    2
 10
153.461837720696
 20
86.8699036284751
 40
6.40771870911172
 50
553.589423518213
 51
557.112874338017
  0
ARC
  8
_0-0_
  6
CONTINUOUS
 62
    4
 10
154.58935118426
 20
87.216592474947
 40
7.5873286470676
 50
557.109576551534
 51
560.78110475354
  0
ARC
  8
_0-0_
  6
CONTINUOUS
 62
    4
 10
153.789205026819
 20
86.9628959143784
 40
5.2719245253847
 50
554.690732967293
 51
558.094764484958
  0
ARC
  8
_0-0_
  6
CONTINUOUS
 62
    2
 10
154.869012997701
 20
87.3150939656889
 40
6.40771870911172
 50
558.089423518213
 51
561.612874338017
  0
ARC
  8
_0-0_
  6
CONTINUOUS
 62
    4
 10
155.965849820152
 20
87.7491777729208
 40
7.5873286470676
 50
561.609576551534
 51
565.28110475354
  0
ARC
  8
_0-0_
  6
CONTINUOUS
 62
    4
 10
155.188075049011
 20
87.4334845302185
 40
5.2719245253847
 50
559.190732967293
 51
562.594764484958
  0
ARC
  8
_0-0_
  6
CONTINUOUS
 62
    2
 10
156.236921191664
 20
87.8693176294322
 40
6.40771870911172
 50
562.589423518213
 51
566.112874338017
  0
ARC
  8
_0-0_
  6
CONTINUOUS
 62
    4
 10
157.296319009257
 20
88.3881201264051
 40
7.5873286470676
 50
566.109576551534
 51
569.78110475354
  0
ARC
  8
_0-0_
  6
CONTINUOUS
 62
    4
 10
156.545710864515
 20
88.0123765553891
 40
5.2719245253847
 50
563.690732967293
 51
567.094764484958
  0
ARC
  8
_0-0_
  6
CONTINUOUS
 62
    2
 10
157.557128693692
 20
88.52915764652
 40
6.40771870911172
 50
567.089423518213
 51
570.612874338017
  0
ARC
  8
_0-0_
  6
CONTINUOUS
 62
    4
 10
158.572555966596
 20
89.1294802433207
 40
7.5873286470676
 50
570.609576551534
 51
574.28110475354
  0
ARC
  8
_0-0_
  6
CONTINUOUS
 62
    4
 10
157.853742197069
 20
88.6960029280537
 40
5.2719245253847
 50
568.190732967293
 51
571.594764484958
  0
ARC
  8
_0-0_
  6
CONTINUOUS
 62
    2
 10
158.821495985524
 20
89.2905458838278
 40
6.40771870911172
 50
571.589423518213
 51
575.112874338017
  0
ARC
  8
_0-0_
  6
CONTINUOUS
 62
    4
 10
159.786692266937
 20
89.9686873920196
 40
7.5873286470676
 50
575.109576551534
 51
578.78110475354
  0
ARC
  8
_0-0_
  6
CONTINUOUS
 62
    4
 10
159.104104598544
 20
89.480148864296
 40
5.2719245253847
 50
572.690732967293
 51
576.094764484958
  0
ARC
  8
_0-0_
  6
CONTINUOUS
 62
    2
 10
160.022227822358
 20
90.1487881296855
 40
6.40771870911172
 50
576.089423518213
 51
579.612874338017
  0
ARC
  8
_0-0_
  6
CONTINUOUS
 62
    4
 10
160.931242356245
 20
90.9005675813653
 40
7.5873286470676
 50
579.609576551534
 51
583.28110475354
  0
ARC
  8
_0-0_
  6
CONTINUOUS
 62
    4
 10
160.289089168946
 20
90.3599798436641
 40
5.2719245253847
 50
577.190732967293
 51
580.594764484958
  0
ARC
  8
_0-0_
  6
CONTINUOUS
 62
    2
 10
161.151921293139
 20
91.0985930352527
 40
6.40771870911172
 50
580.589423518213
 51
584.112874338017
  0
ARC
  8
_0-0_
  6
CONTINUOUS
 62
    4
 10
161.99914970262
 20
91.919375460109
 40
7.5873286470676
 50
584.109576551534
 51
587.78110475354
  0
ARC
  8
_0-0_
  6
CONTINUOUS
 62
    4
 10
161.401390084351
 20
91.3300714155968
 40
5.2719245253847
 50
581.690732967293
 51
585.094764484958
  0
ARC
  8
_0-0_
  6
CONTINUOUS
 62
    2
 10
162.203611461956
 20
92.1341047374446
 40
6.40771870911172
 50
585.089423518213
 51
588.612874338017
  0
ARC
  8
_0-0_
  6
CONTINUOUS
 62
    4
 10
162.983830302156
 20
93.0188297388901
 40
7.5873286470676
 50
588.609576551534
 51
592.28110475354
  0
ARC
  8
_0-0_
  6
CONTINUOUS
 62
    4
 10
162.434149639739
 20
92.3844426429649
 40
5.2719245253847
 50
586.190732967293
 51
589.594764484958
  0
ARC
  8
_0-0_
  6
CONTINUOUS
 62
    2
 10
163.170814309197
 20
93.2489389622743
 40
6.40771870911172
 50
589.589423518213
 51
593.112874338017
  0
ARC
  8
_0-0_
  6
CONTINUOUS
 62
    4
 10
163.879213271517
 20
94.1921519164744
 40
7.5873286470676
 50
593.109576551534
 51
596.78110475354
  0
ARC
  8
_0-0_
  6
CONTINUOUS
 62
    4
 10
163.381000529022
 20
93.5165929765376
 40
5.2719245253847
 50
590.690732967293
 51
594.094764484958
  0
ARC
  8
_0-0_
  6
CONTINUOUS
 62
    2
 10
164.047566707681
 20
94.436222386026
 40
6.40771870911172
 50
594.089423518213
 51
597.612874338017
  0
ARC
  8
_0-0_
  6
CONTINUOUS
 62
    4
 10
164.679778276951
 20
95.4321080714678
 40
7.5873286470676
 50
597.609576551534
 51
601.28110475354
  0
ARC
  8
_0-0_
  6
CONTINUOUS
 62
    4
 10
164.23610510161
 20
94.7195423330302
 40
5.2719245253847
 50
595.190732967293
 51
598.594764484958
  0
ARC
  8
_0-0_
  6
CONTINUOUS
 62
    2
 10
164.828463187322
 20
95.6886350115804
 40
6.40771870911172
 50
598.589423518213
 51
602.112874338017
  0
ARC
  8
_0-0_
  6
CONTINUOUS
 62
    4
 10
165.380589568985
 20
96.7310534618476
 40
7.5873286470676
 50
602.109576551534
 51
605.78110475354
  0
ARC
  8
_0-0_
  6
CONTINUOUS
 62
    4
 10
164.99419135346
 20
95.9858741296389
 40
5.2719245253847
 50
599.690732967293
 51
603.094764484958
  0
ARC
  8
_0-0_
  6
CONTINUOUS
 62
    2
 10
165.508689261648
 20
96.9984552986314
 40
6.40771870911172
 50
603.089423518213
 51
606.612874338017
  0
ARC
  8
_0-0_
  6
CONTINUOUS
 62
    4
 10
165.977326412961
 20
98.0809796573388
 40
7.5873286470676
 50
606.609576551534
 51
610.28110475354
  0
ARC
  8
_0-0_
  6
CONTINUOUS
 62
    4
 10
165.650585430741
 20
97.3077810097393
 40
5.2719245253847
 50
604.190732967293
 51
607.594764484958
  0
ARC
  8
_0-0_
  6
CONTINUOUS
 62
    2
 10
166.084051110713
 20
98.35760776955
 40
6.40771870911172
 50
607.589423518213
 51
611.112874338017
  0
ARC
  8
_0-0_
  6
CONTINUOUS
 62
    4
 10
166.466309727801
 20
99.4735639140502
 40
7.5873286470676
 50
611.109576551534
 51
614.78110475354
  0
ARC
  8
_0-0_
  6
CONTINUOUS
 62
    4
 10
166.201240445693
 20
98.6771129778371
 40
5.2719245253847
 50
608.690732967293
 51
612.094764484958
  0
ARC
  8
_0-0_
  6
CONTINUOUS
 62
    2
 10
166.55100143739
 20
99.7577127973889
 40
6.40771870911172
 50
612.089423518213
 51
615.612874338017
  0
ARC
  8
_0-0_
  6
CONTINUOUS
 62
    4
 10
166.844524768764
 20
100.900220486958
 40
7.5873286470676
 50
615.609576551534
 51
619.28110475354
  0
ARC
  8
_0-0_
  6
CONTINUOUS
 62
    4
 10
166.642761427037
 20
100.085427647
 40
5.2719245253847
 50
613.190732967293
 51
616.594764484958
  0
ARC
  8
_0-0_
  6
CONTINUOUS
 62
    2
 10
166.906661337638
 20
101.190138269069
 40
6.40771870911172
 50
616.589423518213
 51
620.112874338017
  0
ARC
  8
_0-0_
  6
CONTINUOUS
 62
    4
 10
167.109639714354
 20
102.352153563879
 40
7.5873286470676
 50
620.109576551534
 51
623.78110475354
  0
ARC
  8
_0-0_
  6
CONTINUOUS
 62
    4
 10
166.972426251104
 20
101.52404228898
 40
5.2719245253847
 50
617.690732967293
 51
621.094764484958
  0
ARC
  8
_0-0_
  6
CONTINUOUS
 62
    2
 10
167.148838049903
 20
102.646052805228
 40
6.40771870911172
 50
621.089423518213
 51
624.612874338017
  0
ARC
  8
_0-0_
  6
CONTINUOUS
 62
    4
 10
167.260020042773
 20
103.820411494577
 40
7.5873286470676
 50
624.609576551534
 51
628.28110475354
  0
ARC
  8
_0-0_
  6
CONTINUOUS
 62
    4
 10
167.188202424627
 20
102.984087366122
 40
5.2719245253847
 50
622.190732967293
 51
625.594764484958
  0
ARC
  8
_0-0_
  6
CONTINUOUS
 62
    2
 10
167.276038474224
 20
104.11648020861
 40
6.40771870911172
 50
625.589423518213
 51
629.112874338017
  0
ARC
  8
_0-0_
  6
CONTINUOUS
 62
    4
 10
167.294738609287
 20
105.295941980663
 40
7.5873286470676
 50
629.109576551534
 51
632.78110475354
  0
ARC
  8
_0-0_
  6
CONTINUOUS
 62
    4
 10
167.288759615745
 20
104.45656121501
 40
5.2719245253847
 50
626.690732967293
 51
630.094764484958
  0
ARC
  8
_0-0_
  6
CONTINUOUS
 62
    2
 10
167.287478377684
 20
105.592354805306
 40
6.40771870911172
 50
630.089423518213
 51
633.612874338017
  0
ARC
  8
_0-0_
  6
CONTINUOUS
 62
    4
 10
167.213581362391
 20
106.769647886028
 40
7.5873286470676
 50
633.609576551534
 51
637.28110475354
  0
ARC
  8
_0-0_
  6
CONTINUOUS
 62
    4
 10
167.273477855935
 20
105.93238554472
 40
5.2719245253847
 50
631.190732967293
 51
634.594764484958
  0
ARC
  8
_0-0_
  6
CONTINUOUS
 62
    2
 10
167.183087229475
 20
107.064577337649
 40
6.40771870911172
 50
634.589423518213
 51
638.112874338017
  0
ARC
  8
_0-0_
  6
CONTINUOUS
 62
    4
 10
167.017048663498
 20
108.232443323708
 40
7.5873286470676
 50
638.109576551534
 51
641.78110475354
  0
ARC
  8
_0-0_
  6
CONTINUOUS
 62
    4
 10
167.142451362328
 20
107.402461407497
 40
5.2719245253847
 50
635.690732967293
 51
639.094764484958
  0
ARC
  8
_0-0_
  6
CONTINUOUS
 62
    2
 10
166.963508635739
 20
108.524071064164
 40
6.40771870911172
 50
639.089423518213
 51
642.612874338017
  0
ARC
  8
_0-0_
  6
CONTINUOUS
 62
    4
 10
166.706352202052
 20
109.675309673402
 40
7.5873286470676
 50
642.609576551534
 51
646.28110475354
  0
ARC
  8
_0-0_
  6
CONTINUOUS
 62
    4
 10
166.896487956828
 20
108.857725296797
 40
5.2719245253847
 50
640.190732967293
 51
643.594764484958
  0
ARC
  8
_0-0_
  6
CONTINUOUS
 62
    2
 10
166.630096371525
 20
109.961837720696
 40
6.40771870911172
 50
643.589423518213
 51
647.112874338017
  0
ARC
  8
_0-0_
  6
CONTINUOUS
 62
    4
 10
166.283407525053
 20
111.08935118426
 40
7.5873286470676
 50
647.109576551534
 51
650.78110475354
  0
ARC
  8
_0-0_
  6
CONTINUOUS
 62
    4
 10
166.537104085622
 20
110.289205026819
 40
5.2719245253847
 50
644.690732967293
 51
648.094764484958
  0
ARC
  8
_0-0_
  6
CONTINUOUS
 62
    2
 10
166.184906034311
 20
111.369012997701
 40
6.40771870911172
 50
648.089423518213
 51
651.612874338017
  0
ARC
  8
_0-0_
  6
CONTINUOUS
 62
    4
 10
165.750822227079
 20
112.465849820152
 40
7.5873286470676
 50
651.609576551534
 51
655.28110475354
  0
ARC
  8
_0-0_
  6
CONTINUOUS
 62
    4
 10
166.066515469781
 20
111.688075049011
 40
5.2719245253847
 50
649.190732967293
 51
652.594764484958
  0
ARC
  8
_0-0_
  6
CONTINUOUS
 62
    2
 10
165.630682370568
 20
112.736921191664
 40
6.40771870911172
 50
652.589423518213
 51
656.112874338017
  0
ARC
  8
_0-0_
  6
CONTINUOUS
 62
    4
 10
165.111879873595
 20
113.796319009257
 40
7.5873286470676
 50
656.109576551534
 51
659.78110475354
  0
ARC
  8
_0-0_
  6
CONTINUOUS
 62
    4
 10
165.487623444611
 20
113.045710864515
 40
5.2719245253847
 50
653.690732967293
 51
657.094764484958
  0
ARC
  8
_0-0_
  6
CONTINUOUS
 62
    2
 10
164.97084235348
 20
114.057128693692
 40
6.40771870911172
 50
657.089423518213
 51
660.612874338017
  0
ARC
  8
_0-0_
  6
CONTINUOUS
 62
    4
 10
164.370519756679
 20
115.072555966596
 40
7.5873286470676
 50
660.609576551534
 51
664.28110475354
  0
ARC
  8
_0-0_
  6
CONTINUOUS
 62
    4
 10
164.803997071946
 20
114.353742197069
 40
5.2719245253847
 50
658.190732967293
 51
661.594764484958
  0
ARC
  8
_0-0_
  6
CONTINUOUS
 62
    2
 10
164.209454116172
 20
115.321495985524
 40
6.40771870911172
 50
661.589423518213
 51
665.112874338017
  0
ARC
  8
_0-0_
  6
CONTINUOUS
 62
    4
 10
163.53131260798
 20
116.286692266937
 40
7.5873286470676
 50
665.109576551534
 51
668.78110475354
  0
ARC
  8
_0-0_
  6
CONTINUOUS
 62
    4
 10
164.019851135704
 20
115.604104598544
 40
5.2719245253847
 50
662.690732967293
 51
666.094764484958
  0
ARC
  8
_0-0_
  6
CONTINUOUS
 62
    2
 10
163.351211870315
 20
116.522227822358
 40
6.40771870911172
 50
666.089423518213
 51
669.612874338017
  0
ARC
  8
_0-0_
  6
CONTINUOUS
 62
    4
 10
162.599432418635
 20
117.431242356245
 40
7.5873286470676
 50
669.609576551534
 51
673.28110475354
  0
ARC
  8
_0-0_
  6
CONTINUOUS
 62
    4
 10
163.140020156336
 20
116.789089168946
 40
5.2719245253847
 50
667.190732967293
 51
670.594764484958
  0
ARC
  8
_0-0_
  6
CONTINUOUS
 62
    2
 10
162.401406964747
 20
117.651921293139
 40
6.40771870911172
 50
670.589423518213
 51
674.112874338017
  0
ARC
  8
_0-0_
  6
CONTINUOUS
 62
    4
 10
161.580624539891
 20
118.49914970262
 40
7.5873286470676
 50
674.109576551534
 51
677.78110475354
  0
ARC
  8
_0-0_
  6
CONTINUOUS
 62
    4
 10
162.169928584403
 20
117.901390084351
 40
5.2719245253847
 50
671.690732967293
 51
675.094764484958
  0
ARC
  8
_0-0_
  6
CONTINUOUS
 62
    2
 10
161.365895262555
 20
118.703611461956
 40
6.40771870911172
 50
675.089423518213
 51
678.612874338017
  0
ARC
  8
_0-0_
  6
CONTINUOUS
 62
    4
 10
160.48117026111
 20
119.483830302156
 40
7.5873286470676
 50
678.609576551534
 51
682.28110475354
  0
ARC
  8
_0-0_
  6
CONTINUOUS
 62
    4
 10
161.115557357035
 20
118.934149639739
 40
5.2719245253847
 50
676.190732967293
 51
679.594764484958
  0
ARC
  8
_0-0_
  6
CONTINUOUS
 62
    2
 10
160.251061037726
 20
119.670814309197
 40
6.40771870911172
 50
679.589423518213
 51
683.112874338017
  0
ARC
  8
_0-0_
  6
CONTINUOUS
 62
    4
 10
159.307848083526
 20
120.379213271517
 40
7.5873286470676
 50
683.109576551534
 51
686.78110475354
  0
ARC
  8
_0-0_
  6
CONTINUOUS
 62
    4
 10
159.983407023462
 20
119.881000529022
 40
5.2719245253847
 50
680.690732967293
 51
684.094764484958
  0
ARC
  8
_0-0_
  6
CONTINUOUS
 62
    2
 10
159.063777613974
 20
120.547566707681
 40
6.40771870911172
 50
684.089423518213
 51
687.612874338017
  0
ARC
  8
_0-0_
  6
CONTINUOUS
 62
    4
 10
158.067891928532
 20
121.179778276951
 40
7.5873286470676
 50
687.609576551534
 51
691.28110475354
  0
ARC
  8
_0-0_
  6
CONTINUOUS
 62
    4
 10
158.78045766697
 20
120.73610510161
 40
5.2719245253847
 50
685.190732967293
 51
688.594764484958
  0
ARC
  8
_0-0_
  6
CONTINUOUS
 62
    2
 10
157.81136498842
 20
121.328463187322
 40
6.40771870911172
 50
688.589423518213
 51
692.112874338017
  0
ARC
  8
_0-0_
  6
CONTINUOUS
 62
    4
 10
156.768946538152
 20
121.880589568985
 40
7.5873286470676
 50
692.109576551534
 51
695.78110475354
  0
ARC
  8
_0-0_
  6
CONTINUOUS
 62
    4
 10
157.514125870361
 20
121.49419135346
 40
5.2719245253847
 50
689.690732967293
 51
693.094764484958
  0
ARC
  8
_0-0_
  6
CONTINUOUS
 62
    2
 10
156.501544701369
 20
122.008689261648
 40
6.40771870911172
 50
693.089423518213
 51
696.612874338017
  0
ARC
  8
_0-0_
  6
CONTINUOUS
 62
    4
 10
155.419020342661
 20
122.477326412961
 40
7.5873286470676
 50
696.609576551534
 51
700.28110475354
  0
ARC
  8
_0-0_
  6
CONTINUOUS
 62
    4
 10
156.192218990261
 20
122.150585430741
 40
5.2719245253847
 50
694.190732967293
 51
697.594764484958
  0
ARC
  8
_0-0_
  6
CONTINUOUS
 62
    2
 10
155.14239223045
 20
122.584051110713
 40
6.40771870911172
 50
697.589423518213
 51
701.112874338017
  0
ARC
  8
_0-0_
  6
CONTINUOUS
 62
    4
 10
154.02643608595
 20
122.966309727801
 40
7.5873286470676
 50
701.109576551534
 51
704.78110475354
  0
ARC
  8
_0-0_
  6
CONTINUOUS
 62
    4
 10
154.822887022163
 20
122.701240445693
 40
5.2719245253847
 50
698.690732967293
 51
702.094764484958
  0
ARC
  8
_0-0_
  6
CONTINUOUS
 62
    2
 10
153.742287202611
 20
123.05100143739
 40
6.40771870911172
 50
702.089423518213
 51
705.612874338017
  0
ARC
  8
_0-0_
  6
CONTINUOUS
 62
    4
 10
152.599779513042
 20
123.344524768764
 40
7.5873286470676
 50
705.609576551534
 51
709.28110475354
  0
ARC
  8
_0-0_
  6
CONTINUOUS
 62
    4
 10
153.414572353
 20
123.142761427037
 40
5.2719245253847
 50
703.190732967293
 51
706.594764484958
  0
ARC
  8
_0-0_
  6
CONTINUOUS
 62
    2
 10
152.309861730931
 20
123.406661337638
 40
6.40771870911172
 50
706.589423518213
 51
710.112874338017
  0
ARC
  8
_0-0_
  6
CONTINUOUS
 62
    4
 10
151.147846436121
 20
123.609639714354
 40
7.5873286470676
 50
710.109576551534
 51
713.78110475354
  0
ARC
  8
_0-0_
  6
CONTINUOUS
 62
    4
 10
151.97595771102
 20
123.472426251104
 40
5.2719245253847
 50
707.690732967293
 51
711.094764484958
  0
ARC
  8
_0-0_
  6
CONTINUOUS
 62
    2
 10
150.853947194772
 20
123.648838049903
 40
6.40771870911172
 50
711.089423518213
 51
714.612874338017
  0
ARC
  8
_0-0_
  6
CONTINUOUS
 62
    4
 10
149.679588505423
 20
123.760020042773
 40
7.5873286470676
 50
714.609576551534
 51
718.28110475354
  0
ARC
  8
_0-0_
  6
CONTINUOUS
 62
    4
 10
150.515912633878
 20
123.688202424627
 40
5.2719245253847
 50
712.190732967293
 51
715.594764484958
  0
ARC
  8
_0-0_
  6
CONTINUOUS
 62
    2
 10
149.38351979139
 20
123.776038474224
 40
6.40771870911172
 50
715.589423518213
 51
719.112874338017
  0
ARC
  8
_0-0_
  6
CONTINUOUS
 62
    4
 10
148.204058019337
 20
123.794738609287
 40
7.5873286470676
 50
719.109576551534
 51
722.78110475354
  0
ARC
  8
_0-0_
  6
CONTINUOUS
 62
    4
 10
149.04343878499
 20
123.788759615745
 40
5.2719245253847
 50
716.690732967293
 51
720.094764484958
  0
ARC
  8
_0-0_
  6
CONTINUOUS
 62
    2
 10
147.907645194694
 20
123.787478377684
 40
6.40771870911172
 50
720.089423518213
 51
723.612874338017
  0
ARC
  8
_0-0_
  6
CONTINUOUS
 62
    4
 10
146.730352113972
 20
123.713581362391
 40
7.5873286470676
 50
723.609576551534
 51
727.28110475354
  0
ARC
  8
_0-0_
  6
CONTINUOUS
 62
    4
 10
147.56761445528
 20
123.773477855935
 40
5.2719245253847
 50
721.190732967293
 51
724.594764484958
  0
ARC
  8
_0-0_
  6
CONTINUOUS
 62
    2
 10
146.435422662351
 20
123.683087229475
 40
6.40771870911172
 50
724.589423518213
 51
728.112874338017
  0
ARC
  8
_0-0_
  6
CONTINUOUS
 62
    4
 10
145.267556676292
 20
123.517048663498
 40
7.5873286470676
 50
728.109576551534
 51
731.78110475354
  0
ARC
  8
_0-0_
  6
CONTINUOUS
 62
    4
 10
146.097538592503
 20
123.642451362328
 40
5.2719245253847
 50
725.690732967293
 51
729.094764484958
  0
ARC
  8
_0-0_
  6
CONTINUOUS
 62
    2
 10
144.975928935836
 20
123.463508635739
 40
6.40771870911172
 50
729.089423518213
 51
732.612874338017
  0
ARC
  8
_0-0_
  6
CONTINUOUS
 62
    4
 10
143.824690326599
 20
123.206352202052
 40
7.5873286470676
 50
732.609576551534
 51
736.28110475354
  0
ARC
  8
_0-0_
  6
CONTINUOUS
 62
    4
 10
144.642274703203
 20
123.396487956828
 40
5.2719245253847
 50
730.190732967293
 51
733.594764484958
  0
ARC
  8
_0-0_
  6
CONTINUOUS
 62
    2
 10
143.538162279304
 20
123.130096371525
 40
6.40771870911172
 50
733.589423518213
 51
737.112874338017
  0
ARC
  8
_0-0_
  6
CONTINUOUS
 62
    4
 10
142.41064881574
 20
122.783407525053
 40
7.5873286470676
 50
737.109576551534
 51
740.78110475354
  0
ARC
  8
_0-0_
  6
CONTINUOUS
 62
    7
 10
148.5
 20
105
 40
19.375
 50
89.439228366292
 51
90.560771633708
  0
ARC
  8
_0-0_
  6
CONTINUOUS
 62
    7
 10
148.5
 20
105
 40
19.375
 50
93.939228366292
 51
95.060771633708
  0
ARC
  8
_0-0_
  6
CONTINUOUS
 62
    7
 10
148.5
 20
105
 40
19.375
 50
98.439228366292
 51
99.560771633708
  0
ARC
  8
_0-0_
  6
CONTINUOUS
 62
    7
 10
148.5
 20
105
 40
19.375
 50
102.939228366292
 51
104.060771633708
  0
ARC
  8
_0-0_
  6
CONTINUOUS
 62
    7
 10
148.5
 20
105
 40
19.375
 50
107.439228366292
 51
108.560771633708
  0
ARC
  8
_0-0_
  6
CONTINUOUS
 62
    7
 10
148.5
 20
105
 40
19.375
 50
111.939228366292
 51
113.060771633708
  0
ARC
  8
_0-0_
  6
CONTINUOUS
 62
    7
 10
148.5
 20
105
 40
19.375
 50
116.439228366292
 51
117.560771633708
  0
ARC
  8
_0-0_
  6
CONTINUOUS
 62
    7
 10
148.5
 20
105
 40
19.375
 50
120.939228366292
 51
122.060771633708
  0
ARC
  8
_0-0_
  6
CONTINUOUS
 62
    7
 10
148.5
 20
105
 40
19.375
 50
125.439228366292
 51
126.560771633708
  0
ARC
  8
_0-0_
  6
CONTINUOUS
 62
    7
 10
148.5
 20
105
 40
19.375
 50
129.939228366292
 51
131.060771633708
  0
ARC
  8
_0-0_
  6
CONTINUOUS
 62
    7
 10
148.5
 20
105
 40
19.375
 50
134.439228366292
 51
135.560771633708
  0
ARC
  8
_0-0_
  6
CONTINUOUS
 62
    7
 10
148.5
 20
105
 40
19.375
 50
138.939228366292
 51
140.060771633708
  0
ARC
  8
_0-0_
  6
CONTINUOUS
 62
    7
 10
148.5
 20
105
 40
19.375
 50
143.439228366292
 51
144.560771633708
  0
ARC
  8
_0-0_
  6
CONTINUOUS
 62
    7
 10
148.5
 20
105
 40
19.375
 50
147.939228366292
 51
149.060771633708
  0
ARC
  8
_0-0_
  6
CONTINUOUS
 62
    7
 10
148.5
 20
105
 40
19.375
 50
152.439228366292
 51
153.560771633708
  0
ARC
  8
_0-0_
  6
CONTINUOUS
 62
    7
 10
148.5
 20
105
 40
19.375
 50
156.939228366292
 51
158.060771633708
  0
ARC
  8
_0-0_
  6
CONTINUOUS
 62
    7
 10
148.5
 20
105
 40
19.375
 50
161.439228366292
 51
162.560771633708
  0
ARC
  8
_0-0_
  6
CONTINUOUS
 62
    7
 10
148.5
 20
105
 40
19.375
 50
165.939228366292
 51
167.060771633708
  0
ARC
  8
_0-0_
  6
CONTINUOUS
 62
    7
 10
148.5
 20
105
 40
19.375
 50
170.439228366292
 51
171.560771633708
  0
ARC
  8
_0-0_
  6
CONTINUOUS
 62
    7
 10
148.5
 20
105
 40
19.375
 50
174.939228366292
 51
176.060771633708
  0
ARC
  8
_0-0_
  6
CONTINUOUS
 62
    7
 10
148.5
 20
105
 40
19.375
 50
179.439228366292
 51
180.560771633708
  0
ARC
  8
_0-0_
  6
CONTINUOUS
 62
    7
 10
148.5
 20
105
 40
19.375
 50
183.939228366292
 51
185.060771633708
  0
ARC
  8
_0-0_
  6
CONTINUOUS
 62
    7
 10
148.5
 20
105
 40
19.375
 50
188.439228366292
 51
189.560771633708
  0
ARC
  8
_0-0_
  6
CONTINUOUS
 62
    7
 10
148.5
 20
105
 40
19.375
 50
192.939228366292
 51
194.060771633708
  0
ARC
  8
_0-0_
  6
CONTINUOUS
 62
    7
 10
148.5
 20
105
 40
19.375
 50
197.439228366292
 51
198.560771633708
  0
ARC
  8
_0-0_
  6
CONTINUOUS
 62
    7
 10
148.5
 20
105
 40
19.375
 50
201.939228366292
 51
203.060771633708
  0
ARC
  8
_0-0_
  6
CONTINUOUS
 62
    7
 10
148.5
 20
105
 40
19.375
 50
206.439228366292
 51
207.560771633708
  0
ARC
  8
_0-0_
  6
CONTINUOUS
 62
    7
 10
148.5
 20
105
 40
19.375
 50
210.939228366292
 51
212.060771633708
  0
ARC
  8
_0-0_
  6
CONTINUOUS
 62
    7
 10
148.5
 20
105
 40
19.375
 50
215.439228366292
 51
216.560771633708
  0
ARC
  8
_0-0_
  6
CONTINUOUS
 62
    7
 10
148.5
 20
105
 40
19.375
 50
219.939228366292
 51
221.060771633708
  0
ARC
  8
_0-0_
  6
CONTINUOUS
 62
    7
 10
148.5
 20
105
 40
19.375
 50
224.439228366292
 51
225.560771633708
  0
ARC
  8
_0-0_
  6
CONTINUOUS
 62
    7
 10
148.5
 20
105
 40
19.375
 50
228.939228366292
 51
230.060771633708
  0
ARC
  8
_0-0_
  6
CONTINUOUS
 62
    7
 10
148.5
 20
105
 40
19.375
 50
233.439228366292
 51
234.560771633708
  0
ARC
  8
_0-0_
  6
CONTINUOUS
 62
    7
 10
148.5
 20
105
 40
19.375
 50
237.939228366292
 51
239.060771633708
  0
ARC
  8
_0-0_
  6
CONTINUOUS
 62
    7
 10
148.5
 20
105
 40
19.375
 50
242.439228366292
 51
243.560771633708
  0
ARC
  8
_0-0_
  6
CONTINUOUS
 62
    7
 10
148.5
 20
105
 40
19.375
 50
246.939228366292
 51
248.060771633708
  0
ARC
  8
_0-0_
  6
CONTINUOUS
 62
    7
 10
148.5
 20
105
 40
19.375
 50
251.439228366292
 51
252.560771633708
  0
ARC
  8
_0-0_
  6
CONTINUOUS
 62
    7
 10
148.5
 20
105
 40
19.375
 50
255.939228366292
 51
257.060771633708
  0
ARC
  8
_0-0_
  6
CONTINUOUS
 62
    7
 10
148.5
 20
105
 40
19.375
 50
260.439228366292
 51
261.560771633708
  0
ARC
  8
_0-0_
  6
CONTINUOUS
 62
    7
 10
148.5
 20
105
 40
19.375
 50
264.939228366292
 51
266.060771633708
  0
ARC
  8
_0-0_
  6
CONTINUOUS
 62
    7
 10
148.5
 20
105
 40
19.375
 50
269.439228366292
 51
270.560771633708
  0
ARC
  8
_0-0_
  6
CONTINUOUS
 62
    7
 10
148.5
 20
105
 40
19.375
 50
273.939228366292
 51
275.060771633708
  0
ARC
  8
_0-0_
  6
CONTINUOUS
 62
    7
 10
148.5
 20
105
 40
19.375
 50
278.439228366292
 51
279.560771633708
  0
ARC
  8
_0-0_
  6
CONTINUOUS
 62
    7
 10
148.5
 20
105
 40
19.375
 50
282.939228366292
 51
284.060771633708
  0
ARC
  8
_0-0_
  6
CONTINUOUS
 62
    7
 10
148.5
 20
105
 40
19.375
 50
287.439228366292
 51
288.560771633708
  0
ARC
  8
_0-0_
  6
CONTINUOUS
 62
    7
 10
148.5
 20
105
 40
19.375
 50
291.939228366292
 51
293.060771633708
  0
ARC
  8
_0-0_
  6
CONTINUOUS
 62
    7
 10
148.5
 20
105
 40
19.375
 50
296.439228366292
 51
297.560771633708
  0
ARC
  8
_0-0_
  6
CONTINUOUS
 62
    7
 10
148.5
 20
105
 40
19.375
 50
300.939228366292
 51
302.060771633708
  0
ARC
  8
_0-0_
  6
CONTINUOUS
 62
    7
 10
148.5
 20
105
 40
19.375
 50
305.439228366292
 51
306.560771633708
  0
ARC
  8
_0-0_
  6
CONTINUOUS
 62
    7
 10
148.5
 20
105
 40
19.375
 50
309.939228366292
 51
311.060771633708
  0
ARC
  8
_0-0_
  6
CONTINUOUS
 62
    7
 10
148.5
 20
105
 40
19.375
 50
314.439228366292
 51
315.560771633708
  0
ARC
  8
_0-0_
  6
CONTINUOUS
 62
    7
 10
148.5
 20
105
 40
19.375
 50
318.939228366292
 51
320.060771633708
  0
ARC
  8
_0-0_
  6
CONTINUOUS
 62
    7
 10
148.5
 20
105
 40
19.375
 50
323.439228366292
 51
324.560771633708
  0
ARC
  8
_0-0_
  6
CONTINUOUS
 62
    7
 10
148.5
 20
105
 40
19.375
 50
327.939228366292
 51
329.060771633708
  0
ARC
  8
_0-0_
  6
CONTINUOUS
 62
    7
 10
148.5
 20
105
 40
19.375
 50
332.439228366292
 51
333.560771633708
  0
ARC
  8
_0-0_
  6
CONTINUOUS
 62
    7
 10
148.5
 20
105
 40
19.375
 50
336.939228366292
 51
338.060771633708
  0
ARC
  8
_0-0_
  6
CONTINUOUS
 62
    7
 10
148.5
 20
105
 40
19.375
 50
341.439228366292
 51
342.560771633708
  0
ARC
  8
_0-0_
  6
CONTINUOUS
 62
    7
 10
148.5
 20
105
 40
19.375
 50
345.939228366292
 51
347.060771633708
  0
ARC
  8
_0-0_
  6
CONTINUOUS
 62
    7
 10
148.5
 20
105
 40
19.375
 50
350.439228366292
 51
351.560771633708
  0
ARC
  8
_0-0_
  6
CONTINUOUS
 62
    7
 10
148.5
 20
105
 40
19.375
 50
354.939228366292
 51
356.060771633708
  0
ARC
  8
_0-0_
  6
CONTINUOUS
 62
    7
 10
148.5
 20
105
 40
19.375
 50
359.439228366292
 51
360.560771633708
  0
ARC
  8
_0-0_
  6
CONTINUOUS
 62
    7
 10
148.5
 20
105
 40
19.375
 50
363.939228366292
 51
365.060771633708
  0
ARC
  8
_0-0_
  6
CONTINUOUS
 62
    7
 10
148.5
 20
105
 40
19.375
 50
368.439228366292
 51
369.560771633708
  0
ARC
  8
_0-0_
  6
CONTINUOUS
 62
    7
 10
148.5
 20
105
 40
19.375
 50
372.939228366292
 51
374.060771633708
  0
ARC
  8
_0-0_
  6
CONTINUOUS
 62
    7
 10
148.5
 20
105
 40
19.375
 50
377.439228366292
 51
378.560771633708
  0
ARC
  8
_0-0_
  6
CONTINUOUS
 62
    7
 10
148.5
 20
105
 40
19.375
 50
381.939228366292
 51
383.060771633708
  0
ARC
  8
_0-0_
  6
CONTINUOUS
 62
    7
 10
148.5
 20
105
 40
19.375
 50
386.439228366292
 51
387.560771633708
  0
ARC
  8
_0-0_
  6
CONTINUOUS
 62
    7
 10
148.5
 20
105
 40
19.375
 50
390.939228366292
 51
392.060771633708
  0
ARC
  8
_0-0_
  6
CONTINUOUS
 62
    7
 10
148.5
 20
105
 40
19.375
 50
395.439228366292
 51
396.560771633708
  0
ARC
  8
_0-0_
  6
CONTINUOUS
 62
    7
 10
148.5
 20
105
 40
19.375
 50
399.939228366292
 51
401.060771633708
  0
ARC
  8
_0-0_
  6
CONTINUOUS
 62
    7
 10
148.5
 20
105
 40
19.375
 50
404.439228366292
 51
405.560771633708
  0
ARC
  8
_0-0_
  6
CONTINUOUS
 62
    7
 10
148.5
 20
105
 40
19.375
 50
408.939228366292
 51
410.060771633708
  0
ARC
  8
_0-0_
  6
CONTINUOUS
 62
    7
 10
148.5
 20
105
 40
19.375
 50
413.439228366292
 51
414.560771633708
  0
ARC
  8
_0-0_
  6
CONTINUOUS
 62
    7
 10
148.5
 20
105
 40
19.375
 50
417.939228366292
 51
419.060771633708
  0
ARC
  8
_0-0_
  6
CONTINUOUS
 62
    7
 10
148.5
 20
105
 40
19.375
 50
422.439228366292
 51
423.560771633708
  0
ARC
  8
_0-0_
  6
CONTINUOUS
 62
    7
 10
148.5
 20
105
 40
19.375
 50
426.939228366292
 51
428.060771633708
  0
ARC
  8
_0-0_
  6
CONTINUOUS
 62
    7
 10
148.5
 20
105
 40
19.375
 50
431.439228366292
 51
432.560771633708
  0
ARC
  8
_0-0_
  6
CONTINUOUS
 62
    7
 10
148.5
 20
105
 40
19.375
 50
435.939228366292
 51
437.060771633708
  0
ARC
  8
_0-0_
  6
CONTINUOUS
 62
    7
 10
148.5
 20
105
 40
19.375
 50
440.439228366292
 51
441.560771633708
  0
ARC
  8
_0-0_
  6
CONTINUOUS
 62
    7
 10
148.5
 20
105
 40
19.375
 50
444.939228366292
 51
446.060771633708
  0
ARC
  8
_0-0_
  6
CONTINUOUS
 62
    7
 10
148.5
 20
105
 40
20.5
 50
91.6917553945849
 51
92.8082446054152
  0
ARC
  8
_0-0_
  6
CONTINUOUS
 62
    7
 10
148.5
 20
105
 40
20.5
 50
96.1917553945849
 51
97.3082446054152
  0
ARC
  8
_0-0_
  6
CONTINUOUS
 62
    7
 10
148.5
 20
105
 40
20.5
 50
100.691755394585
 51
101.808244605415
  0
ARC
  8
_0-0_
  6
CONTINUOUS
 62
    7
 10
148.5
 20
105
 40
20.5
 50
105.191755394585
 51
106.308244605415
  0
ARC
  8
_0-0_
  6
CONTINUOUS
 62
    7
 10
148.5
 20
105
 40
20.5
 50
109.691755394585
 51
110.808244605415
  0
ARC
  8
_0-0_
  6
CONTINUOUS
 62
    7
 10
148.5
 20
105
 40
20.5
 50
114.191755394585
 51
115.308244605415
  0
ARC
  8
_0-0_
  6
CONTINUOUS
 62
    7
 10
148.5
 20
105
 40
20.5
 50
118.691755394585
 51
119.808244605415
  0
ARC
  8
_0-0_
  6
CONTINUOUS
 62
    7
 10
148.5
 20
105
 40
20.5
 50
123.191755394585
 51
124.308244605415
  0
ARC
  8
_0-0_
  6
CONTINUOUS
 62
    7
 10
148.5
 20
105
 40
20.5
 50
127.691755394585
 51
128.808244605415
  0
ARC
  8
_0-0_
  6
CONTINUOUS
 62
    7
 10
148.5
 20
105
 40
20.5
 50
132.191755394585
 51
133.308244605415
  0
ARC
  8
_0-0_
  6
CONTINUOUS
 62
    7
 10
148.5
 20
105
 40
20.5
 50
136.691755394585
 51
137.808244605415
  0
ARC
  8
_0-0_
  6
CONTINUOUS
 62
    7
 10
148.5
 20
105
 40
20.5
 50
141.191755394585
 51
142.308244605415
  0
ARC
  8
_0-0_
  6
CONTINUOUS
 62
    7
 10
148.5
 20
105
 40
20.5
 50
145.691755394585
 51
146.808244605415
  0
ARC
  8
_0-0_
  6
CONTINUOUS
 62
    7
 10
148.5
 20
105
 40
20.5
 50
150.191755394585
 51
151.308244605415
  0
ARC
  8
_0-0_
  6
CONTINUOUS
 62
    7
 10
148.5
 20
105
 40
20.5
 50
154.691755394585
 51
155.808244605415
  0
ARC
  8
_0-0_
  6
CONTINUOUS
 62
    7
 10
148.5
 20
105
 40
20.5
 50
159.191755394585
 51
160.308244605415
  0
ARC
  8
_0-0_
  6
CONTINUOUS
 62
    7
 10
148.5
 20
105
 40
20.5
 50
163.691755394585
 51
164.808244605415
  0
ARC
  8
_0-0_
  6
CONTINUOUS
 62
    7
 10
148.5
 20
105
 40
20.5
 50
168.191755394585
 51
169.308244605415
  0
ARC
  8
_0-0_
  6
CONTINUOUS
 62
    7
 10
148.5
 20
105
 40
20.5
 50
172.691755394585
 51
173.808244605415
  0
ARC
  8
_0-0_
  6
CONTINUOUS
 62
    7
 10
148.5
 20
105
 40
20.5
 50
177.191755394585
 51
178.308244605415
  0
ARC
  8
_0-0_
  6
CONTINUOUS
 62
    7
 10
148.5
 20
105
 40
20.5
 50
181.691755394585
 51
182.808244605415
  0
ARC
  8
_0-0_
  6
CONTINUOUS
 62
    7
 10
148.5
 20
105
 40
20.5
 50
186.191755394585
 51
187.308244605415
  0
ARC
  8
_0-0_
  6
CONTINUOUS
 62
    7
 10
148.5
 20
105
 40
20.5
 50
190.691755394585
 51
191.808244605415
  0
ARC
  8
_0-0_
  6
CONTINUOUS
 62
    7
 10
148.5
 20
105
 40
20.5
 50
195.191755394585
 51
196.308244605415
  0
ARC
  8
_0-0_
  6
CONTINUOUS
 62
    7
 10
148.5
 20
105
 40
20.5
 50
199.691755394585
 51
200.808244605415
  0
ARC
  8
_0-0_
  6
CONTINUOUS
 62
    7
 10
148.5
 20
105
 40
20.5
 50
204.191755394585
 51
205.308244605415
  0
ARC
  8
_0-0_
  6
CONTINUOUS
 62
    7
 10
148.5
 20
105
 40
20.5
 50
208.691755394585
 51
209.808244605415
  0
ARC
  8
_0-0_
  6
CONTINUOUS
 62
    7
 10
148.5
 20
105
 40
20.5
 50
213.191755394585
 51
214.308244605415
  0
ARC
  8
_0-0_
  6
CONTINUOUS
 62
    7
 10
148.5
 20
105
 40
20.5
 50
217.691755394585
 51
218.808244605415
  0
ARC
  8
_0-0_
  6
CONTINUOUS
 62
    7
 10
148.5
 20
105
 40
20.5
 50
222.191755394585
 51
223.308244605415
  0
ARC
  8
_0-0_
  6
CONTINUOUS
 62
    7
 10
148.5
 20
105
 40
20.5
 50
226.691755394585
 51
227.808244605415
  0
ARC
  8
_0-0_
  6
CONTINUOUS
 62
    7
 10
148.5
 20
105
 40
20.5
 50
231.191755394585
 51
232.308244605415
  0
ARC
  8
_0-0_
  6
CONTINUOUS
 62
    7
 10
148.5
 20
105
 40
20.5
 50
235.691755394585
 51
236.808244605415
  0
ARC
  8
_0-0_
  6
CONTINUOUS
 62
    7
 10
148.5
 20
105
 40
20.5
 50
240.191755394585
 51
241.308244605415
  0
ARC
  8
_0-0_
  6
CONTINUOUS
 62
    7
 10
148.5
 20
105
 40
20.5
 50
244.691755394585
 51
245.808244605415
  0
ARC
  8
_0-0_
  6
CONTINUOUS
 62
    7
 10
148.5
 20
105
 40
20.5
 50
249.191755394585
 51
250.308244605415
  0
ARC
  8
_0-0_
  6
CONTINUOUS
 62
    7
 10
148.5
 20
105
 40
20.5
 50
253.691755394585
 51
254.808244605415
  0
ARC
  8
_0-0_
  6
CONTINUOUS
 62
    7
 10
148.5
 20
105
 40
20.5
 50
258.191755394585
 51
259.308244605415
  0
ARC
  8
_0-0_
  6
CONTINUOUS
 62
    7
 10
148.5
 20
105
 40
20.5
 50
262.691755394585
 51
263.808244605415
  0
ARC
  8
_0-0_
  6
CONTINUOUS
 62
    7
 10
148.5
 20
105
 40
20.5
 50
267.191755394585
 51
268.308244605415
  0
ARC
  8
_0-0_
  6
CONTINUOUS
 62
    7
 10
148.5
 20
105
 40
20.5
 50
271.691755394585
 51
272.808244605415
  0
ARC
  8
_0-0_
  6
CONTINUOUS
 62
    7
 10
148.5
 20
105
 40
20.5
 50
276.191755394585
 51
277.308244605415
  0
ARC
  8
_0-0_
  6
CONTINUOUS
 62
    7
 10
148.5
 20
105
 40
20.5
 50
280.691755394585
 51
281.808244605415
  0
ARC
  8
_0-0_
  6
CONTINUOUS
 62
    7
 10
148.5
 20
105
 40
20.5
 50
285.191755394585
 51
286.308244605415
  0
ARC
  8
_0-0_
  6
CONTINUOUS
 62
    7
 10
148.5
 20
105
 40
20.5
 50
289.691755394585
 51
290.808244605415
  0
ARC
  8
_0-0_
  6
CONTINUOUS
 62
    7
 10
148.5
 20
105
 40
20.5
 50
294.191755394585
 51
295.308244605415
  0
ARC
  8
_0-0_
  6
CONTINUOUS
 62
    7
 10
148.5
 20
105
 40
20.5
 50
298.691755394585
 51
299.808244605415
  0
ARC
  8
_0-0_
  6
CONTINUOUS
 62
    7
 10
148.5
 20
105
 40
20.5
 50
303.191755394585
 51
304.308244605415
  0
ARC
  8
_0-0_
  6
CONTINUOUS
 62
    7
 10
148.5
 20
105
 40
20.5
 50
307.691755394585
 51
308.808244605415
  0
ARC
  8
_0-0_
  6
CONTINUOUS
 62
    7
 10
148.5
 20
105
 40
20.5
 50
312.191755394585
 51
313.308244605415
  0
ARC
  8
_0-0_
  6
CONTINUOUS
 62
    7
 10
148.5
 20
105
 40
20.5
 50
316.691755394585
 51
317.808244605415
  0
ARC
  8
_0-0_
  6
CONTINUOUS
 62
    7
 10
148.5
 20
105
 40
20.5
 50
321.191755394585
 51
322.308244605415
  0
ARC
  8
_0-0_
  6
CONTINUOUS
 62
    7
 10
148.5
 20
105
 40
20.5
 50
325.691755394585
 51
326.808244605415
  0
ARC
  8
_0-0_
  6
CONTINUOUS
 62
    7
 10
148.5
 20
105
 40
20.5
 50
330.191755394585
 51
331.308244605415
  0
ARC
  8
_0-0_
  6
CONTINUOUS
 62
    7
 10
148.5
 20
105
 40
20.5
 50
334.691755394585
 51
335.808244605415
  0
ARC
  8
_0-0_
  6
CONTINUOUS
 62
    7
 10
148.5
 20
105
 40
20.5
 50
339.191755394585
 51
340.308244605415
  0
ARC
  8
_0-0_
  6
CONTINUOUS
 62
    7
 10
148.5
 20
105
 40
20.5
 50
343.691755394585
 51
344.808244605415
  0
ARC
  8
_0-0_
  6
CONTINUOUS
 62
    7
 10
148.5
 20
105
 40
20.5
 50
348.191755394585
 51
349.308244605415
  0
ARC
  8
_0-0_
  6
CONTINUOUS
 62
    7
 10
148.5
 20
105
 40
20.5
 50
352.691755394585
 51
353.808244605415
  0
ARC
  8
_0-0_
  6
CONTINUOUS
 62
    7
 10
148.5
 20
105
 40
20.5
 50
357.191755394585
 51
358.308244605415
  0
ARC
  8
_0-0_
  6
CONTINUOUS
 62
    7
 10
148.5
 20
105
 40
20.5
 50
361.691755394585
 51
362.808244605415
  0
ARC
  8
_0-0_
  6
CONTINUOUS
 62
    7
 10
148.5
 20
105
 40
20.5
 50
366.191755394585
 51
367.308244605415
  0
ARC
  8
_0-0_
  6
CONTINUOUS
 62
    7
 10
148.5
 20
105
 40
20.5
 50
370.691755394585
 51
371.808244605415
  0
ARC
  8
_0-0_
  6
CONTINUOUS
 62
    7
 10
148.5
 20
105
 40
20.5
 50
375.191755394585
 51
376.308244605415
  0
ARC
  8
_0-0_
  6
CONTINUOUS
 62
    7
 10
148.5
 20
105
 40
20.5
 50
379.691755394585
 51
380.808244605415
  0
ARC
  8
_0-0_
  6
CONTINUOUS
 62
    7
 10
148.5
 20
105
 40
20.5
 50
384.191755394585
 51
385.308244605415
  0
ARC
  8
_0-0_
  6
CONTINUOUS
 62
    7
 10
148.5
 20
105
 40
20.5
 50
388.691755394585
 51
389.808244605415
  0
ARC
  8
_0-0_
  6
CONTINUOUS
 62
    7
 10
148.5
 20
105
 40
20.5
 50
393.191755394585
 51
394.308244605415
  0
ARC
  8
_0-0_
  6
CONTINUOUS
 62
    7
 10
148.5
 20
105
 40
20.5
 50
397.691755394585
 51
398.808244605415
  0
ARC
  8
_0-0_
  6
CONTINUOUS
 62
    7
 10
148.5
 20
105
 40
20.5
 50
402.191755394585
 51
403.308244605415
  0
ARC
  8
_0-0_
  6
CONTINUOUS
 62
    7
 10
148.5
 20
105
 40
20.5
 50
406.691755394585
 51
407.808244605415
  0
ARC
  8
_0-0_
  6
CONTINUOUS
 62
    7
 10
148.5
 20
105
 40
20.5
 50
411.191755394585
 51
412.308244605415
  0
ARC
  8
_0-0_
  6
CONTINUOUS
 62
    7
 10
148.5
 20
105
 40
20.5
 50
415.691755394585
 51
416.808244605415
  0
ARC
  8
_0-0_
  6
CONTINUOUS
 62
    7
 10
148.5
 20
105
 40
20.5
 50
420.191755394585
 51
421.308244605415
  0
ARC
  8
_0-0_
  6
CONTINUOUS
 62
    7
 10
148.5
 20
105
 40
20.5
 50
424.691755394585
 51
425.808244605415
  0
ARC
  8
_0-0_
  6
CONTINUOUS
 62
    7
 10
148.5
 20
105
 40
20.5
 50
429.191755394585
 51
430.308244605415
  0
ARC
  8
_0-0_
  6
CONTINUOUS
 62
    7
 10
148.5
 20
105
 40
20.5
 50
433.691755394585
 51
434.808244605415
  0
ARC
  8
_0-0_
  6
CONTINUOUS
 62
    7
 10
148.5
 20
105
 40
20.5
 50
438.191755394585
 51
439.308244605415
  0
ARC
  8
_0-0_
  6
CONTINUOUS
 62
    7
 10
148.5
 20
105
 40
20.5
 50
442.691755394585
 51
443.808244605415
  0
ARC
  8
_0-0_
  6
CONTINUOUS
 62
    7
 10
148.5
 20
105
 40
20.5
 50
447.191755394585
 51
448.308244605415
  0
LINE
  8
_0-0_
  6
CENTER2
 62
    7
 10
126
 20
105
 11
171
 21
105
  0
LINE
  8
_0-0_
  6
CENTER2
 62
    7
 10
148.5
 20
82.5
 11
148.5
 21
127.5
  0
LINE
  8
_0-0_
  6
CONTINUOUS
 62
    7
 10
189
 20
125.5
 11
259
 21
125.5
  0
LINE
  8
_0-0_
  6
CONTINUOUS
 62
    7
 10
189
 20
117.5
 11
259
 21
117.5
  0
LINE
  8
_0-0_
  6
CONTINUOUS
 62
    7
 10
189
 20
109.5
 11
259
 21
109.5
  0
LINE
  8
_0-0_
  6
CONTINUOUS
 62
    7
 10
189
 20
101.5
 11
259
 21
101.5
  0
LINE
  8
_0-0_
  6
CONTINUOUS
 62
    7
 10
189
 20
93.5
 11
259
 21
93.5
  0
LINE
  8
_0-0_
  6
CONTINUOUS
 62
    7
 10
189
 20
85.5
 11
259
 21
85.5
  0
LINE
  8
_0-0_
  6
CONTINUOUS
 62
    7
 10
189
 20
77.5
 11
259
 21
77.5
  0
LINE
  8
_0-0_
  6
CONTINUOUS
 62
    7
 10
189
 20
69.5
 11
259
 21
69.5
  0
LINE
  8
_0-0_
  6
CONTINUOUS
 62
    7
 10
189
 20
61.5
 11
259
 21
61.5
  0
LINE
  8
_0-0_
  6
CONTINUOUS
 62
    7
 10
189
 20
53.5
 11
259
 21
53.5
  0
LINE
  8
_0-0_
  6
CONTINUOUS
 62
    7
 10
189
 20
45.5
 11
259
 21
45.5
  0
LINE
  8
_0-0_
  6
CONTINUOUS
 62
    7
 10
189
 20
37.5
 11
259
 21
37.5
  0
LINE
  8
_0-0_
  6
CONTINUOUS
 62
    7
 10
189
 20
29.5
 11
259
 21
29.5
  0
LINE
  8
_0-0_
  6
CONTINUOUS
 62
    7
 10
189
 20
125.5
 11
189
 21
29.5
  0
LINE
  8
_0-0_
  6
CONTINUOUS
 62
    7
 10
259
 20
125.5
 11
259
 21
29.5
  0
LINE
  8
_0-0_
  6
CONTINUOUS
 62
    7
 10
224
 20
117.5
 11
224
 21
29.5
  0
TEXT
  8
_0-0_
 62
    7
 10
195
 20
119.5
 40
4
 41
1
 50
0
  1
ÉCÉìÉ{ÉäÉÖÅ[ÉgÉXÉvÉâÉCÉì
  0
TEXT
  8
_0-0_
 62
    7
 10
197.5
 20
111.5
 40
4
 41
1
 50
0
  1
èî    å≥
  0
TEXT
  8
_0-0_
 62
    7
 10
197.5
 20
103.5
 40
4
 41
1
 50
0
  1
éïÅ@Å@êî
  0
TEXT
  8
_0-0_
 62
    7
 10
195
 20
95.5
 40
4
 41
1
 50
0
  1
ÉÇÉWÉÖÅ[Éã
  0
TEXT
  8
_0-0_
 62
    7
 10
197.5
 20
87.5
 40
4
 41
1
 50
0
  1
à≥ óÕ äp
  0
TEXT
  8
_0-0_
 62
    7
 10
192.5
 20
79.5
 40
4
 41
1
 50
0
  1
ÉsÉbÉ`â~íºåa
  0
TEXT
  8
_0-0_
 62
    7
 10
195
 20
71.5
 40
4
 41
1
 50
0
  1
äÓëbâ~íºåa
  0
TEXT
  8
_0-0_
 62
    7
 10
195
 20
63.5
 40
4
 41
1
 50
0
  1
éïêÊâ~íºåa
  0
TEXT
  8
_0-0_
 62
    7
 10
195
 20
55.5
 40
4
 41
1
 50
0
  1
éïíÍâ~íºåa
  0
TEXT
  8
_0-0_
 62
    7
 10
197.5
 20
47.5
 40
4
 41
1
 50
0
  1
â~å éïå˙
  0
TEXT
  8
_0-0_
 62
    7
 10
197.5
 20
39.5
 40
4
 41
1
 50
0
  1
Çn.Ça.Çc
  0
TEXT
  8
_0-0_
 62
    7
 10
195
 20
31.5
 40
4
 41
1
 50
0
  1
égópÉsÉìåa
  0
TEXT
  8
_0-0_
 62
    7
 10
225
 20
111.5
 40
4
 41
1
 50
0
  1
ÉGÉLÉXÉ^Å[ÉiÉã
  0
TEXT
  8
_0-0_
 62
    7
 10
240
 20
103.5
 40
4
 41
1
 50
0
  1
80
  0
TEXT
  8
_0-0_
 62
    7
 10
238.75
 20
95.5
 40
4
 41
1
 50
0
  1
0.5
  0
TEXT
  8
_0-0_
 62
    7
 10
237.5
 20
87.5
 40
4
 41
1
 50
0
  1
20Åã
  0
TEXT
  8
_0-0_
 62
    7
 10
240
 20
79.5
 40
4
 41
1
 50
0
  1
40
  0
TEXT
  8
_0-0_
 62
    7
 10
233.75
 20
71.5
 40
4
 41
1
 50
0
  1
37.5877
  0
TEXT
  8
_0-0_
 62
    7
 10
240
 20
63.5
 40
4
 41
1
 50
0
  1
41
  0
TEXT
  8
_0-0_
 62
    7
 10
236.25
 20
55.5
 40
4
 41
1
 50
0
  1
38.75
  0
TEXT
  8
_0-0_
 62
    7
 10
235
 20
47.5
 40
4
 41
1
 50
0
  1
0.7854
  0
TEXT
  8
_0-0_
 62
    7
 10
242.5
 20
39.5
 40
4
 41
1
 50
0
  1

  0
TEXT
  8
_0-0_
 62
    7
 10
242.5
 20
31.5
 40
4
 41
1
 50
0
  1

  0
TEXT
  8
_0-0_
 62
    7
 10
149.5
 20
141
 40
4
 41
1
 50
0
  1
ñ êœ : 
  0
TEXT
  8
_0-0_
 62
    7
 10
149.5
 20
135
 40
4
 41
1
 50
0
  1
é¸í∑ : 
  0
TEXT
  8
_0-0_
 62
    7
 10
165.6875
 20
141
 40
4
 41
1
 50
0
  1
1252.1284 mm2
  0
TEXT
  8
_0-0_
 62
    7
 10
167.8125
 20
135
 40
4
 41
1
 50
0
  1
253.2518 mm
  0
ENDSEC
  0
EOF
